<?xml version="1.0" encoding="utf-8"?>
<!-- Generator: Adobe Illustrator 19.0.0, SVG Export Plug-In . SVG Version: 6.00 Build 0)  -->
<svg version="1.1" id="TEXT" xmlns="http://www.w3.org/2000/svg" xmlns:xlink="http://www.w3.org/1999/xlink" x="0px" y="0px"
	 viewBox="-22 318.2 566.9 157.8" style="enable-background:new -22 318.2 566.9 157.8;" xml:space="preserve">
<style type="text/css">
	.st0{fill:#E2E2E2;}
	.st1{fill:url(#SVGID_1_);}
	.st2{fill:url(#SVGID_2_);}
	.st3{fill:url(#SVGID_3_);}
	.st4{fill:url(#SVGID_4_);}
	.st5{fill:url(#SVGID_5_);}
	.st6{fill:url(#SVGID_6_);}
	.st7{fill:url(#SVGID_7_);}
	.st8{fill:url(#SVGID_8_);}
	.st9{fill:url(#SVGID_9_);}
	.st10{fill:url(#SVGID_10_);}
	.st11{fill:url(#SVGID_11_);}
	.st12{fill:url(#SVGID_12_);}
	.st13{fill:url(#SVGID_13_);}
	.st14{fill:url(#SVGID_14_);}
	.st15{fill:url(#SVGID_15_);}
	.st16{fill:url(#SVGID_16_);}
	.st17{fill:url(#SVGID_17_);}
	.st18{fill:url(#SVGID_18_);}
	.st19{fill:url(#SVGID_19_);}
	.st20{fill:url(#SVGID_20_);}
	.st21{fill:url(#SVGID_21_);}
	.st22{fill:url(#SVGID_22_);}
	.st23{fill:url(#SVGID_23_);}
	.st24{fill:url(#SVGID_24_);}
	.st25{fill:url(#SVGID_25_);}
	.st26{fill:url(#SVGID_26_);}
	.st27{fill:url(#SVGID_27_);}
	.st28{fill:url(#SVGID_28_);}
	.st29{fill:url(#SVGID_29_);}
	.st30{fill:url(#SVGID_30_);}
	.st31{fill:url(#SVGID_31_);}
	.st32{fill:url(#SVGID_32_);}
	.st33{fill:url(#SVGID_33_);}
	.st34{fill:url(#SVGID_34_);}
	.st35{fill:url(#SVGID_35_);}
	.st36{fill:url(#SVGID_36_);}
	.st37{fill:url(#SVGID_37_);}
	.st38{fill:#E8E8E8;}
	.st39{fill:#EFEFEF;}
</style>
<polygon class="st0" points="469.2,345.9 514.8,346.2 535.9,324.1 458,323.9 384.7,397.4 374.4,398 374.7,327.2 333.5,369.3 
	323.6,370.4 323.6,327.6 239.3,411.1 228.8,412.2 229.7,326.3 155.9,401.2 146.3,401.2 145.1,329.3 105.3,369.4 94.3,369.9 
	94.7,327.2 -10.4,433.1 24.2,432.5 69.6,388.5 78.3,388.5 77.9,432.8 114,395.8 122.7,395.8 122.7,433.5 82.9,473 121,472.4 
	196,396.5 206.1,396.5 206.1,433.8 252.9,434.1 298.1,388.6 306.8,388 306.7,431 342.8,394.9 351.4,394.9 351.9,431.3 351.2,433.2 
	460.4,433.2 481.3,412 413.4,410.9 412.8,401 423.4,389.9 449,389.9 471.2,367.4 457.8,366.8 457.8,357.3 "/>
<linearGradient id="SVGID_1_" gradientUnits="userSpaceOnUse" x1="42.7087" y1="-460.5683" x2="38.7641" y2="-456.6239" gradientTransform="matrix(1 0 0 -1 -0.1797 -78.9702)">
	<stop  offset="0" style="stop-color:#08406F"/>
	<stop  offset="1" style="stop-color:#60C5F5"/>
</linearGradient>
<path class="st1" d="M92.7,331.4L-8.4,432.5l-11.5,4.3c0,0-0.6,0-0.3-0.4c0,0,117.3-117.3,117.5-117.5c0.2-0.2,0.5,0,0.5,0
	L92.7,331.4z"/>
<linearGradient id="SVGID_2_" gradientUnits="userSpaceOnUse" x1="101.2949" y1="-535.689" x2="97.6694" y2="-532.0635" gradientTransform="matrix(1 0 0 -1 -0.1797 -78.9702)">
	<stop  offset="0" style="stop-color:#08406F"/>
	<stop  offset="1" style="stop-color:#60C5F5"/>
</linearGradient>
<path class="st2" d="M123.8,434l-37.5,37.5L75.2,476c0,0-0.6,0.1-0.2-0.4l43.9-43.7L123.8,434z"/>
<linearGradient id="SVGID_3_" gradientUnits="userSpaceOnUse" x1="3.7237" y1="-515.8312" x2="3.7237" y2="-511.5182" gradientTransform="matrix(1 0 0 -1 -0.1797 -78.9702)">
	<stop  offset="0" style="stop-color:#08406F"/>
	<stop  offset="1" style="stop-color:#60C5F5"/>
</linearGradient>
<polygon class="st3" points="27,436.9 -19.9,436.9 -8.4,432.5 24.2,432.5 "/>
<linearGradient id="SVGID_4_" gradientUnits="userSpaceOnUse" x1="99.1852" y1="-554.9612" x2="99.1852" y2="-550.5042" gradientTransform="matrix(1 0 0 -1 -0.1797 -78.9702)">
	<stop  offset="0" style="stop-color:#08406F"/>
	<stop  offset="1" style="stop-color:#60C5F5"/>
</linearGradient>
<polygon class="st4" points="122.8,476 75.2,476 86.3,471.5 120.2,471.5 "/>
<linearGradient id="SVGID_5_" gradientUnits="userSpaceOnUse" x1="405.6942" y1="-515.8032" x2="405.6942" y2="-511.3362" gradientTransform="matrix(1 0 0 -1 -0.1797 -78.9702)">
	<stop  offset="0" style="stop-color:#08406F"/>
	<stop  offset="1" style="stop-color:#60C5F5"/>
</linearGradient>
<polygon class="st5" points="462.8,436.8 348.2,436.8 352.1,432.4 459.5,432.4 "/>
<linearGradient id="SVGID_6_" gradientUnits="userSpaceOnUse" x1="229.0642" y1="-516.6742" x2="229.0642" y2="-512.1952" gradientTransform="matrix(1 0 0 -1 -0.1797 -78.9702)">
	<stop  offset="0" style="stop-color:#08406F"/>
	<stop  offset="1" style="stop-color:#60C5F5"/>
</linearGradient>
<path class="st6" d="M255.1,437.7l-51.5,0c-0.3,0-0.8-0.3-0.8-0.3l4.6-4.1h45.1L255.1,437.7z"/>
<linearGradient id="SVGID_7_" gradientUnits="userSpaceOnUse" x1="500.2802" y1="-403.9662" x2="500.2802" y2="-399.1032" gradientTransform="matrix(1 0 0 -1 -0.1797 -78.9702)">
	<stop  offset="0" style="stop-color:#08406F"/>
	<stop  offset="1" style="stop-color:#60C5F5"/>
</linearGradient>
<path class="st7" d="M455.4,320.1H544c0.8,0,0.8,0.3,0.8,0.3l-10.6,4.6h-75.2L455.4,320.1z"/>
<linearGradient id="SVGID_8_" gradientUnits="userSpaceOnUse" x1="493.0132" y1="-428.4942" x2="493.0132" y2="-424.2842" gradientTransform="matrix(1 0 0 -1 -0.1797 -78.9702)">
	<stop  offset="0" style="stop-color:#08406F"/>
	<stop  offset="1" style="stop-color:#60C5F5"/>
</linearGradient>
<polygon class="st8" points="517,349.5 470.7,349.5 468.6,345.3 513.9,345.3 "/>
<linearGradient id="SVGID_9_" gradientUnits="userSpaceOnUse" x1="437.3697" y1="-472.0102" x2="437.3697" y2="-468.2902" gradientTransform="matrix(1 0 0 -1 -0.1797 -78.9702)">
	<stop  offset="0" style="stop-color:#08406F"/>
	<stop  offset="1" style="stop-color:#60C5F5"/>
</linearGradient>
<polygon class="st9" points="451.6,393 426.9,393 422.8,389.3 448.4,389.3 "/>
<linearGradient id="SVGID_10_" gradientUnits="userSpaceOnUse" x1="468.1607" y1="-446.8902" x2="468.1607" y2="-441.3358" gradientTransform="matrix(1 0 0 -1 -0.1797 -78.9702)">
	<stop  offset="0" style="stop-color:#08406F"/>
	<stop  offset="1" style="stop-color:#60C5F5"/>
</linearGradient>
<path class="st10" d="M469.8,367.9h-13.6l-1.2-5.5h25.5c0.3,0,0.4,0.1,0.4,0.1L469.8,367.9z"/>
<linearGradient id="SVGID_11_" gradientUnits="userSpaceOnUse" x1="52.3898" y1="-490.6053" x2="48.8468" y2="-487.0623" gradientTransform="matrix(1 0 0 -1 -0.1797 -78.9702)">
	<stop  offset="0" style="stop-color:#08406F"/>
	<stop  offset="1" style="stop-color:#60C5F5"/>
</linearGradient>
<path class="st11" d="M74.9,388.9l-47.9,48l-2.8-4.3l46.6-46.4c2-2.3,4.7-1.7,4.7-1.7L74.9,388.9z"/>
<linearGradient id="SVGID_12_" gradientUnits="userSpaceOnUse" x1="98.2557" y1="-426.1487" x2="92.8897" y2="-426.1487" gradientTransform="matrix(1 0 0 -1 -0.1797 -78.9702)">
	<stop  offset="0" style="stop-color:#08406F"/>
	<stop  offset="1" style="stop-color:#60C5F5"/>
</linearGradient>
<path class="st12" d="M92.7,369.9v-38.5l5.1-12.5c0,0,0.3,0.1,0.3,0.6c0,0.5,0,53.6,0,53.6l-0.3,2.3
	C97.8,375.4,93.3,375.5,92.7,369.9z"/>
<linearGradient id="SVGID_13_" gradientUnits="userSpaceOnUse" x1="151.0817" y1="-441.7398" x2="144.4214" y2="-441.7398" gradientTransform="matrix(1 0 0 -1 -0.1797 -78.9702)">
	<stop  offset="0" style="stop-color:#08406F"/>
	<stop  offset="1" style="stop-color:#60C5F5"/>
</linearGradient>
<path class="st13" d="M150.9,407.1c0,0-6.5,2-6.6-5.6c-0.1-7.3,0-69.3,0-69.3l5.2-13.9c0,0,0.2,0,0.2,0.7l0,81.8L150.9,407.1z"/>
<linearGradient id="SVGID_14_" gradientUnits="userSpaceOnUse" x1="233.9887" y1="-446.9955" x2="227.9957" y2="-446.9955" gradientTransform="matrix(1 0 0 -1 -0.1797 -78.9702)">
	<stop  offset="0" style="stop-color:#08406F"/>
	<stop  offset="1" style="stop-color:#60C5F5"/>
</linearGradient>
<path class="st14" d="M233.8,417.1c0,0-5.9,0.6-6-6.1l0-80.1l4.7-12.1c0,0,0.6,0.2,0.6,0.9l0,91.1L233.8,417.1z"/>
<linearGradient id="SVGID_15_" gradientUnits="userSpaceOnUse" x1="327.2767" y1="-426.404" x2="321.5757" y2="-426.404" gradientTransform="matrix(1 0 0 -1 -0.1797 -78.9702)">
	<stop  offset="0" style="stop-color:#08406F"/>
	<stop  offset="1" style="stop-color:#60C5F5"/>
</linearGradient>
<path class="st15" d="M327.1,375.6c0,0-4.9,0.5-5.7-4.6v-39.7l4.4-12.1c0,0,0.6,0.1,0.6,0.9v49.7L327.1,375.6z"/>
<linearGradient id="SVGID_16_" gradientUnits="userSpaceOnUse" x1="378.9607" y1="-440.2251" x2="373.1637" y2="-440.2251" gradientTransform="matrix(1 0 0 -1 -0.1797 -78.9702)">
	<stop  offset="0" style="stop-color:#08406F"/>
	<stop  offset="1" style="stop-color:#60C5F5"/>
</linearGradient>
<path class="st16" d="M378.8,403.6c0,0-4.9,0.6-5.8-4.4v-67.7l4.9-12.5c0,0,0.3,0.2,0.3,1.7v77.2L378.8,403.6z"/>
<linearGradient id="SVGID_17_" gradientUnits="userSpaceOnUse" x1="79.7657" y1="-490.7177" x2="74.6547" y2="-490.7177" gradientTransform="matrix(1 0 0 -1 -0.1797 -78.9702)">
	<stop  offset="0" style="stop-color:#08406F"/>
	<stop  offset="1" style="stop-color:#60C5F5"/>
</linearGradient>
<path class="st17" d="M75.8,439c0,0-0.8-0.1-0.8-1.1c0-0.9-0.1-49-0.1-49s-1.2-1.6,0.6-4.4c0.5,0.1,3.5,0.7,4.1,4.3v40.4L75.8,439z"
	/>
<linearGradient id="SVGID_18_" gradientUnits="userSpaceOnUse" x1="99.2493" y1="-495.6173" x2="95.6962" y2="-492.0643" gradientTransform="matrix(1 0 0 -1 -0.1797 -78.9702)">
	<stop  offset="0" style="stop-color:#08406F"/>
	<stop  offset="1" style="stop-color:#60C5F5"/>
</linearGradient>
<path class="st18" d="M118.8,396.8c0,0-41.5,41.5-41.9,41.9c-0.3,0.4-1.2,0.3-1.2,0.3l3.8-10l36.1-36.1c0,0,1.3-1.7,3.8-1.6
	L118.8,396.8z"/>
<linearGradient id="SVGID_19_" gradientUnits="userSpaceOnUse" x1="531.4371" y1="-414.2806" x2="527.7676" y2="-410.611" gradientTransform="matrix(1 0 0 -1 -0.1797 -78.9702)">
	<stop  offset="0" style="stop-color:#08406F"/>
	<stop  offset="1" style="stop-color:#60C5F5"/>
</linearGradient>
<path class="st19" d="M544.6,321.9L517,349.5l-3.1-4.2l20.3-20.3l10.6-4.5C544.8,320.4,545.2,321.3,544.6,321.9z"/>
<linearGradient id="SVGID_20_" gradientUnits="userSpaceOnUse" x1="123.9947" y1="-491.6582" x2="118.5962" y2="-491.6582" gradientTransform="matrix(1 0 0 -1 -0.1797 -78.9702)">
	<stop  offset="0" style="stop-color:#08406F"/>
	<stop  offset="1" style="stop-color:#60C5F5"/>
</linearGradient>
<path class="st20" d="M118.9,431.8l-0.1-35c0,0-1.3-2.6,0.6-5.5c0.6,0,3.7,0.4,4.3,4.1l0,38.5L118.9,431.8z"/>
<linearGradient id="SVGID_21_" gradientUnits="userSpaceOnUse" x1="126.7768" y1="-428.7893" x2="122.289" y2="-424.3015" gradientTransform="matrix(1 0 0 -1 -0.1797 -78.9702)">
	<stop  offset="0" style="stop-color:#08406F"/>
	<stop  offset="1" style="stop-color:#60C5F5"/>
</linearGradient>
<path class="st21" d="M144.3,332.1l-41.5,41.5c-2,2-5,1.8-5,1.8c-1.8-3.5,0.3-6.1,0.3-6.1s50.5-50.5,50.9-50.9
	c0.3-0.4,0.5-0.3,0.5-0.3L144.3,332.1z"/>
<linearGradient id="SVGID_22_" gradientUnits="userSpaceOnUse" x1="193.8458" y1="-444.101" x2="189.6874" y2="-439.9424" gradientTransform="matrix(1 0 0 -1 -0.1797 -78.9702)">
	<stop  offset="0" style="stop-color:#08406F"/>
	<stop  offset="1" style="stop-color:#60C5F5"/>
</linearGradient>
<path class="st22" d="M227.8,331l-74.4,74.4c-1.6,1.6-2.5,1.7-2.5,1.7c-3.8-1.9-1.2-6.3-1.2-6.3s80.7-80.6,81-81
	c0.9-1.1,1.8-0.9,1.8-0.9L227.8,331z"/>
<linearGradient id="SVGID_23_" gradientUnits="userSpaceOnUse" x1="282.3149" y1="-449.5898" x2="277.9307" y2="-445.2055" gradientTransform="matrix(1 0 0 -1 -0.1797 -78.9702)">
	<stop  offset="0" style="stop-color:#08406F"/>
	<stop  offset="1" style="stop-color:#60C5F5"/>
</linearGradient>
<path class="st23" d="M321.4,331.4l-84.2,84.2c-1.4,1.4-3.4,1.6-3.4,1.6c-3.1-1.6-0.8-6.2-0.8-6.2s90.6-90.5,91-90.9
	c0.9-1.1,1.8-0.9,1.8-0.9L321.4,331.4z"/>
<linearGradient id="SVGID_24_" gradientUnits="userSpaceOnUse" x1="354.9709" y1="-428.6405" x2="350.7631" y2="-424.4322" gradientTransform="matrix(1 0 0 -1 -0.1797 -78.9702)">
	<stop  offset="0" style="stop-color:#08406F"/>
	<stop  offset="1" style="stop-color:#60C5F5"/>
</linearGradient>
<path class="st24" d="M373,331.5L330.5,374c-1.4,1.4-3.4,1.7-3.4,1.7c-2.9-1.9-0.6-6-0.6-6s49.6-49.7,49.9-50.1c1-1,1.4-0.7,1.4-0.7
	L373,331.5z"/>
<linearGradient id="SVGID_25_" gradientUnits="userSpaceOnUse" x1="466.7377" y1="-457.0441" x2="463.2807" y2="-453.5873" gradientTransform="matrix(1 0 0 -1 -0.1797 -78.9702)">
	<stop  offset="0" style="stop-color:#08406F"/>
	<stop  offset="1" style="stop-color:#60C5F5"/>
</linearGradient>
<path class="st25" d="M481,363.7L451.6,393l-3.2-3.7l21.4-21.4l11.1-5.4C480.9,362.5,481.3,362.8,481,363.7z"/>
<linearGradient id="SVGID_26_" gradientUnits="userSpaceOnUse" x1="477.8078" y1="-501.1563" x2="473.8475" y2="-497.1961" gradientTransform="matrix(1 0 0 -1 -0.1797 -78.9702)">
	<stop  offset="0" style="stop-color:#08406F"/>
	<stop  offset="1" style="stop-color:#60C5F5"/>
</linearGradient>
<path class="st26" d="M491.6,408.2l-28.8,28.7l-3.3-4.5l20-20l12.3-5.4C491.9,406.9,492.3,407.4,491.6,408.2z"/>
<linearGradient id="SVGID_27_" gradientUnits="userSpaceOnUse" x1="419.8365" y1="-443.394" x2="415.5535" y2="-439.111" gradientTransform="matrix(1 0 0 -1 -0.1797 -78.9702)">
	<stop  offset="0" style="stop-color:#08406F"/>
	<stop  offset="1" style="stop-color:#60C5F5"/>
</linearGradient>
<path class="st27" d="M459.1,325l-76.9,76.9c-1.4,1.4-3.4,1.6-3.4,1.6c-2.4-3.1-0.7-6-0.7-6l77.3-77.4L459.1,325z"/>
<linearGradient id="SVGID_28_" gradientUnits="userSpaceOnUse" x1="464.8591" y1="-438.4289" x2="459.7462" y2="-433.3158" gradientTransform="matrix(1 0 0 -1 -0.1797 -78.9702)">
	<stop  offset="0" style="stop-color:#08406F"/>
	<stop  offset="1" style="stop-color:#60C5F5"/>
</linearGradient>
<path class="st28" d="M470.7,349.5L458,362.3c-2.8,2.3-1.8,5.6-1.8,5.6c-2.3-0.2-3.1-2.1-3.4-3.7c-0.3-1.6,0.3-3.4,1.3-4.5
	l14.5-14.4L470.7,349.5z"/>
<linearGradient id="SVGID_29_" gradientUnits="userSpaceOnUse" x1="163.9781" y1="-514.1107" x2="160.3352" y2="-510.4677" gradientTransform="matrix(1 0 0 -1 -0.1797 -78.9702)">
	<stop  offset="0" style="stop-color:#08406F"/>
	<stop  offset="1" style="stop-color:#60C5F5"/>
</linearGradient>
<path class="st29" d="M120.2,471.5l77.9-77.9c0,0,1.4-1.9,4.3-1.8l-0.5,5.2c0,0-78.7,78.5-79.1,78.9L120.2,471.5z"/>
<linearGradient id="SVGID_30_" gradientUnits="userSpaceOnUse" x1="281.0284" y1="-490.9195" x2="277.3871" y2="-487.2781" gradientTransform="matrix(1 0 0 -1 -0.1797 -78.9702)">
	<stop  offset="0" style="stop-color:#08406F"/>
	<stop  offset="1" style="stop-color:#60C5F5"/>
</linearGradient>
<path class="st30" d="M252.3,433.2l47.6-47.7c0,0,1.4-1.9,4.3-1.8l-0.9,5.6l-48.3,48.3L252.3,433.2z"/>
<linearGradient id="SVGID_31_" gradientUnits="userSpaceOnUse" x1="327.8888" y1="-494.8644" x2="324.3794" y2="-491.3548" gradientTransform="matrix(1 0 0 -1 -0.1797 -78.9702)">
	<stop  offset="0" style="stop-color:#08406F"/>
	<stop  offset="1" style="stop-color:#60C5F5"/>
</linearGradient>
<path class="st31" d="M308.1,428.5l36.8-36.8c0.8-0.8,1.8-1.8,3.4-1.8l-0.1,5.5l-43.1,43c-0.6,0.6-1,0.4-1,0.4L308.1,428.5z"/>
<linearGradient id="SVGID_32_" gradientUnits="userSpaceOnUse" x1="348.8065" y1="-515.4214" x2="344.3824" y2="-510.9977" gradientTransform="matrix(1 0 0 -1 -0.1797 -78.9702)">
	<stop  offset="0" style="stop-color:#08406F"/>
	<stop  offset="1" style="stop-color:#60C5F5"/>
</linearGradient>
<path class="st32" d="M340,436.3l7.3-7.3l5.6,2.3l-0.7,1l-3.8,4.4l-0.3,0.3h-7.7c-0.3,0-0.5-0.3-0.5-0.3S339.6,436.7,340,436.3z"/>
<linearGradient id="SVGID_33_" gradientUnits="userSpaceOnUse" x1="207.4577" y1="-493.5482" x2="201.4197" y2="-493.5482" gradientTransform="matrix(1 0 0 -1 -0.1797 -78.9702)">
	<stop  offset="0" style="stop-color:#08406F"/>
	<stop  offset="1" style="stop-color:#60C5F5"/>
</linearGradient>
<path class="st33" d="M202,435.6l-0.1-38.5c0,0-1.7-2,0.5-5.2c0.7,0,4.2,0.5,4.9,4.7l0,36.7l-4.6,4.1
	C202.7,437.3,202,436.9,202,435.6z"/>
<linearGradient id="SVGID_34_" gradientUnits="userSpaceOnUse" x1="308.3047" y1="-490.2977" x2="303.0923" y2="-490.2977" gradientTransform="matrix(1 0 0 -1 -0.1797 -78.9702)">
	<stop  offset="0" style="stop-color:#08406F"/>
	<stop  offset="1" style="stop-color:#60C5F5"/>
</linearGradient>
<path class="st34" d="M303.4,438.2l-0.1-48.8c0,0-1.5-2.7,0.9-5.6c0.6,0,3.2,0.5,3.9,4.7v40l-4,10.4
	C304.1,438.9,303.5,438.7,303.4,438.2z"/>
<linearGradient id="SVGID_35_" gradientUnits="userSpaceOnUse" x1="352.9697" y1="-489.5856" x2="346.7252" y2="-489.5856" gradientTransform="matrix(1 0 0 -1 -0.1797 -78.9702)">
	<stop  offset="0" style="stop-color:#08406F"/>
	<stop  offset="1" style="stop-color:#60C5F5"/>
</linearGradient>
<path class="st35" d="M347.2,429v-32.6c0,0-2.1-3.4,1.1-6.5c0.7,0,4.1,0.2,4.5,4.3v37.1L347.2,429z"/>
<linearGradient id="SVGID_36_" gradientUnits="userSpaceOnUse" x1="418.638" y1="-481.4547" x2="414.2195" y2="-477.0363" gradientTransform="matrix(1 0 0 -1 -0.1797 -78.9702)">
	<stop  offset="0" style="stop-color:#08406F"/>
	<stop  offset="1" style="stop-color:#60C5F5"/>
</linearGradient>
<path class="st36" d="M426.9,393l-13.5,13.5l-3.8,4.8c-3.9-2.5-2-6.9-0.9-7.9l14.1-14.1L426.9,393z"/>
<linearGradient id="SVGID_37_" gradientUnits="userSpaceOnUse" x1="450.9207" y1="-491.2882" x2="450.9207" y2="-485.4872" gradientTransform="matrix(1 0 0 -1 -0.1797 -78.9702)">
	<stop  offset="0" style="stop-color:#08406F"/>
	<stop  offset="1" style="stop-color:#60C5F5"/>
</linearGradient>
<path class="st37" d="M479.6,412.3h-66.4c-2.5-0.2-3.6-1-3.6-1c0-3.6,3.8-4.8,3.8-4.8l77.7,0c0.5,0,0.7,0.4,0.7,0.4L479.6,412.3z"/>
<g>
	<path class="st38" d="M-22,460.3v-9.5h2.9l1.7,6.5l1.7-6.5h2.9v9.5h-1.8v-7.5l-1.9,7.5h-1.9l-1.9-7.5v7.5H-22z"/>
	<path class="st38" d="M-4.8,450.8h1.9v5.2c0,0.8,0,1.4,0.1,1.6c0.1,0.4,0.3,0.7,0.6,0.9s0.7,0.4,1.3,0.4c0.5,0,1-0.1,1.2-0.3
		c0.3-0.2,0.4-0.5,0.5-0.8c0.1-0.3,0.1-0.9,0.1-1.6v-5.3h1.9v5c0,1.1-0.1,2-0.2,2.4c-0.1,0.5-0.3,0.9-0.6,1.2
		c-0.3,0.3-0.7,0.6-1.1,0.8c-0.5,0.2-1.1,0.3-1.8,0.3c-0.9,0-1.6-0.1-2.1-0.3c-0.5-0.2-0.8-0.5-1.1-0.8c-0.3-0.3-0.5-0.7-0.5-1.1
		c-0.1-0.5-0.2-1.4-0.2-2.4C-4.8,455.8-4.8,450.8-4.8,450.8z"/>
	<path class="st38" d="M11,460.3v-9.4h1.9v7.8h4.8v1.6L11,460.3L11,460.3z"/>
	<path class="st38" d="M26.4,460.3v-7.9h-2.8v-1.6h7.6v1.6h-2.8v7.9H26.4z"/>
	<path class="st38" d="M38.4,460.3v-9.5h1.9v9.5H38.4z"/>
	<path class="st38" d="M48.3,460.3v-9.5h3.1c1.2,0,1.9,0,2.3,0.1c0.5,0.1,1,0.5,1.4,0.9c0.4,0.5,0.6,1.1,0.6,1.9
		c0,0.6-0.1,1.1-0.3,1.5c-0.2,0.4-0.5,0.7-0.8,0.9c-0.3,0.2-0.7,0.4-1,0.5c-0.5,0.1-1.1,0.1-2,0.1h-1.3v3.6L48.3,460.3L48.3,460.3z
		 M50.2,452.4v2.7h1.1c0.8,0,1.3-0.1,1.5-0.1c0.3-0.1,0.5-0.3,0.6-0.5c0.1-0.2,0.2-0.5,0.2-0.7c0-0.3-0.1-0.6-0.3-0.9
		c-0.2-0.2-0.5-0.4-0.8-0.4c-0.2,0-0.7-0.1-1.4-0.1L50.2,452.4L50.2,452.4z"/>
	<path class="st38" d="M63.4,460.3v-9.4h1.9v7.8h4.8v1.6L63.4,460.3L63.4,460.3z"/>
	<path class="st38" d="M77.6,460.3v-9.5h7.1v1.6h-5.1v2.1h4.8v1.6h-4.8v2.6h5.3v1.6L77.6,460.3L77.6,460.3z"/>
</g>
<g>
	<path class="st39" d="M168,460.3h-2.1l-0.8-2.2h-3.8l-0.8,2.2h-2l3.7-9.5h2L168,460.3z M164.4,456.5l-1.3-3.5l-1.3,3.5H164.4z"/>
	<path class="st39" d="M175.1,460.3v-9.5h4c1,0,1.8,0.1,2.2,0.3c0.5,0.2,0.8,0.5,1.1,0.9c0.3,0.4,0.4,0.9,0.4,1.5
		c0,0.7-0.2,1.3-0.6,1.8c-0.4,0.5-1,0.8-1.9,0.9c0.4,0.2,0.8,0.5,1,0.8c0.3,0.3,0.6,0.8,1.1,1.5l1.2,1.9h-2.3l-1.4-2.1
		c-0.5-0.7-0.8-1.2-1-1.4c-0.2-0.2-0.4-0.3-0.6-0.4c-0.2-0.1-0.5-0.1-1-0.1H177v4L175.1,460.3L175.1,460.3z M177,454.8h1.4
		c0.9,0,1.5,0,1.7-0.1c0.2-0.1,0.4-0.2,0.5-0.4c0.1-0.2,0.2-0.4,0.2-0.7c0-0.3-0.1-0.6-0.3-0.8c-0.2-0.2-0.4-0.3-0.7-0.4
		c-0.2,0-0.6,0-1.4,0H177L177,454.8L177,454.8z"/>
	<path class="st39" d="M196.9,456.8l1.9,0.6c-0.3,1-0.8,1.8-1.4,2.3c-0.7,0.5-1.5,0.8-2.5,0.8c-1.3,0-2.3-0.4-3.1-1.3
		c-0.8-0.9-1.2-2-1.2-3.5c0-1.6,0.4-2.8,1.2-3.7c0.8-0.9,1.9-1.3,3.2-1.3c1.2,0,2.1,0.3,2.8,1c0.4,0.4,0.8,1,1,1.8l-1.9,0.5
		c-0.1-0.5-0.3-0.9-0.7-1.2c-0.4-0.3-0.8-0.4-1.3-0.4c-0.7,0-1.3,0.3-1.7,0.8c-0.4,0.5-0.7,1.3-0.7,2.5c0,1.2,0.2,2.1,0.6,2.6
		s1,0.8,1.7,0.8c0.5,0,0.9-0.2,1.3-0.5C196.5,458,196.8,457.5,196.9,456.8z"/>
	<path class="st39" d="M215.2,460.3h-2.1l-0.8-2.2h-3.8l-0.8,2.2h-2l3.7-9.5h2L215.2,460.3z M211.6,456.5l-1.3-3.5l-1.3,3.5H211.6z"
		/>
	<path class="st39" d="M222.3,450.8h3.5c0.8,0,1.4,0.1,1.8,0.2c0.6,0.2,1,0.5,1.4,0.9c0.4,0.4,0.7,0.9,0.9,1.5
		c0.2,0.6,0.3,1.4,0.3,2.3c0,0.8-0.1,1.5-0.3,2c-0.2,0.7-0.6,1.3-1,1.7c-0.3,0.3-0.8,0.6-1.4,0.8c-0.4,0.1-1,0.2-1.7,0.2h-3.6
		L222.3,450.8L222.3,450.8L222.3,450.8z M224.2,452.4v6.3h1.4c0.5,0,0.9,0,1.2-0.1c0.3-0.1,0.6-0.2,0.8-0.4c0.2-0.2,0.4-0.5,0.5-0.9
		c0.1-0.4,0.2-1,0.2-1.7c0-0.7-0.1-1.3-0.2-1.7c-0.1-0.4-0.3-0.7-0.5-0.9c-0.2-0.2-0.5-0.4-0.9-0.4c-0.3-0.1-0.8-0.1-1.6-0.1
		L224.2,452.4L224.2,452.4z"/>
	<path class="st39" d="M238.1,460.3v-9.5h7.1v1.6H240v2.1h4.8v1.6H240v2.6h5.3v1.6L238.1,460.3L238.1,460.3z"/>
</g>
<g>
	<path class="st39" d="M261.2,460.3v-9.5h2.9l1.7,6.5l1.7-6.5h2.9v9.5h-1.8v-7.5l-1.9,7.5h-1.9l-1.9-7.5v7.5H261.2z"/>
	<path class="st39" d="M287,460.3h-2.1l-0.8-2.2h-3.8l-0.8,2.2h-2l3.7-9.5h2L287,460.3z M283.5,456.5l-1.3-3.5l-1.3,3.5H283.5z"/>
	<path class="st39" d="M300.2,456.8l1.9,0.6c-0.3,1-0.8,1.8-1.4,2.3c-0.7,0.5-1.5,0.8-2.5,0.8c-1.3,0-2.3-0.4-3.1-1.3
		c-0.8-0.9-1.2-2-1.2-3.5c0-1.6,0.4-2.8,1.2-3.7c0.8-0.9,1.9-1.3,3.2-1.3c1.2,0,2.1,0.3,2.8,1c0.4,0.4,0.8,1,1,1.8l-1.9,0.5
		c-0.1-0.5-0.4-0.9-0.7-1.2c-0.4-0.3-0.8-0.4-1.3-0.4c-0.7,0-1.3,0.3-1.7,0.8c-0.4,0.5-0.7,1.3-0.7,2.5c0,1.2,0.2,2.1,0.6,2.6
		c0.4,0.5,1,0.8,1.7,0.8c0.5,0,0.9-0.2,1.3-0.5C299.8,458,300.1,457.5,300.2,456.8z"/>
	<path class="st39" d="M309.9,460.3v-9.5h1.9v3.7h3.8v-3.7h1.9v9.5h-1.9v-4.2h-3.8v4.2H309.9z"/>
	<path class="st39" d="M325.6,460.3v-9.5h1.9v9.5H325.6z"/>
	<path class="st39" d="M335.5,460.3v-9.5h1.9l3.9,6.4v-6.4h1.8v9.5h-1.9l-3.8-6.2v6.2H335.5z"/>
	<path class="st39" d="M351.2,460.3v-9.5h7.1v1.6h-5.1v2.1h4.8v1.6h-4.8v2.6h5.3v1.6L351.2,460.3L351.2,460.3z"/>
</g>
<g>
	<path class="st39" d="M375.1,460.3v-9.5h7.1v1.6H377v2.1h4.8v1.6H377v2.6h5.3v1.6L375.1,460.3L375.1,460.3z"/>
	<path class="st39" d="M390.1,460.3v-9.5h2.9l1.7,6.5l1.7-6.5h2.9v9.5h-1.8v-7.5l-1.9,7.5h-1.9l-1.9-7.5v7.5H390.1z"/>
	<path class="st39" d="M407.3,450.8h1.9v5.2c0,0.8,0,1.4,0.1,1.6c0.1,0.4,0.3,0.7,0.6,0.9c0.3,0.2,0.7,0.4,1.3,0.4
		c0.5,0,1-0.1,1.2-0.3c0.3-0.2,0.4-0.5,0.5-0.8c0.1-0.3,0.1-0.9,0.1-1.6v-5.3h1.9v5c0,1.1-0.1,2-0.2,2.4c-0.1,0.5-0.3,0.9-0.6,1.2
		c-0.3,0.3-0.7,0.6-1.1,0.8c-0.5,0.2-1.1,0.3-1.8,0.3c-0.9,0-1.6-0.1-2.1-0.3c-0.5-0.2-0.8-0.5-1.1-0.8c-0.3-0.3-0.5-0.7-0.5-1.1
		c-0.1-0.5-0.2-1.4-0.2-2.4L407.3,450.8L407.3,450.8L407.3,450.8z"/>
	<path class="st39" d="M423.1,460.3v-9.4h1.9v7.8h4.8v1.6L423.1,460.3L423.1,460.3z"/>
	<path class="st39" d="M445.9,460.3h-2.1l-0.8-2.2h-3.8l-0.8,2.2h-2l3.7-9.5h2L445.9,460.3z M442.3,456.5L441,453l-1.3,3.5H442.3z"
		/>
	<path class="st39" d="M454.2,460.3v-7.9h-2.8v-1.6h7.6v1.6h-2.8v7.9H454.2z"/>
	<path class="st39" d="M465.7,455.6c0-1,0.1-1.8,0.4-2.4c0.2-0.5,0.5-0.9,0.9-1.3c0.4-0.4,0.8-0.7,1.2-0.9c0.6-0.3,1.3-0.4,2.1-0.4
		c1.4,0,2.5,0.4,3.4,1.3c0.8,0.9,1.3,2.1,1.3,3.6c0,1.5-0.4,2.7-1.3,3.6c-0.8,0.9-2,1.3-3.4,1.3c-1.4,0-2.5-0.4-3.4-1.3
		S465.7,457.1,465.7,455.6z M467.7,455.5c0,1.1,0.2,1.9,0.7,2.5c0.5,0.6,1.1,0.8,1.9,0.8c0.8,0,1.4-0.3,1.9-0.8
		c0.5-0.6,0.7-1.4,0.7-2.5c0-1.1-0.2-1.9-0.7-2.4c-0.5-0.5-1.1-0.8-1.9-0.8s-1.4,0.3-1.9,0.8C467.9,453.6,467.7,454.4,467.7,455.5z"
		/>
	<path class="st39" d="M482.5,460.3v-9.5h4c1,0,1.8,0.1,2.2,0.3c0.5,0.2,0.8,0.5,1.1,0.9c0.3,0.4,0.4,0.9,0.4,1.5
		c0,0.7-0.2,1.3-0.6,1.8c-0.4,0.5-1,0.8-1.9,0.9c0.4,0.2,0.8,0.5,1,0.8c0.3,0.3,0.6,0.8,1.1,1.5l1.2,1.9h-2.3l-1.4-2.1
		c-0.5-0.7-0.8-1.2-1-1.4c-0.2-0.2-0.4-0.3-0.6-0.4c-0.2-0.1-0.5-0.1-1-0.1h-0.4v4L482.5,460.3L482.5,460.3L482.5,460.3L482.5,460.3
		L482.5,460.3L482.5,460.3z M484.5,454.8h1.4c0.9,0,1.5,0,1.7-0.1c0.2-0.1,0.4-0.2,0.5-0.4c0.1-0.2,0.2-0.4,0.2-0.7
		c0-0.3-0.1-0.6-0.3-0.8c-0.2-0.2-0.4-0.3-0.7-0.4c-0.2,0-0.6,0-1.4,0h-1.5L484.5,454.8L484.5,454.8z"/>
</g>
</svg>
