<?xml version="1.0" encoding="utf-8"?>
<!-- Generator: Adobe Illustrator 19.0.0, SVG Export Plug-In . SVG Version: 6.00 Build 0)  -->
<svg version="1.1"
	 id="svg2" inkscape:version="0.44.1" sodipodi:version="0.32" sodipodi:docname="Game_Boy_Advance.svg" sodipodi:docbase="C:\Documents and Settings\Matias\Desktop" xmlns:cc="http://web.resource.org/cc/" xmlns:rdf="http://www.w3.org/1999/02/22-rdf-syntax-ns#" xmlns:inkscape="http://www.inkscape.org/namespaces/inkscape" xmlns:dc="http://purl.org/dc/elements/1.1/" xmlns:sodipodi="http://sodipodi.sourceforge.net/DTD/sodipodi-0.dtd" xmlns:svg="http://www.w3.org/2000/svg"
	 xmlns="http://www.w3.org/2000/svg" xmlns:xlink="http://www.w3.org/1999/xlink" x="0px" y="0px" viewBox="-22 364 566.9 66"
	 style="enable-background:new -22 364 566.9 66;" xml:space="preserve">
<style type="text/css">
	.st0{fill:#A0A0A0;}
	.st1{fill:#FFFFFF;}
</style>
<sodipodi:namedview  height="206.5px" width="1772.6px" inkscape:window-height="844" inkscape:current-layer="svg2" inkscape:window-x="-4" inkscape:window-width="1440" inkscape:window-y="-4" inkscape:pageshadow="2" inkscape:pageopacity="0.0" pagecolor="#ffffff" gridtolerance="10.0" objecttolerance="10.0" id="base" guidetolerance="10.0" inkscape:cx="995.52531" inkscape:zoom="0.32" borderopacity="1.0" bordercolor="#666666" inkscape:cy="283.81045">
	</sodipodi:namedview>
<path id="path10" class="st0" d="M274,372.2l4.4-7h-66.3c-5.1,0.1-9.8,1.5-14.1,4.3l-5.1,3.7c-2.2-2.7-4.4-4.6-6.6-5.9
	c-2.7-1.5-5.7-2.2-9.1-2.2H65l-3.7,11.2l-1.8-11.2H35l-0.9,2.1l-2.3-0.8c-12.9-4.4-25.4-3.1-37.1,4.2c-6,3.8-10.5,8.6-13.3,14.4
	c-2.9,5.9-3.8,12.4-3.2,19.8c0.5,4.4,2,8.6,4.7,12.3c2.7,3.7,6.1,6.7,10.4,8.9c6.2,3.2,12.9,4.2,20,3.1h21.8l5.5-12.1l2,12.1
	l131.3-0.2c2.9,0,5.7-0.7,8.6-2c2.9-1.3,5.3-3.1,7.5-5.3c3.7,3.9,8,6.5,13.1,7.6c6.9,1.7,13.6,0.5,19.8-3.5l0.8-0.6l-0.6,4h26.7
	l0.7-4.6c1.6-0.2,2.9-1,4-2.4h72.7c11.2,0,19.4-2.8,24.4-8.6l5.4,8.6h77.8v-10.9l14,10.9h96.1v-49.8H440.7v10.8L427,372.3h-55.4
	l-6.8,12.9l-7.5-13L274,372.2L274,372.2z"/>
<path id="path12" class="st1" d="M291,380.5h-8.3l-19.6,33h23.3v-7.3h-9.5l9.5-17.1l13.8,24.4h10.6v-0.1h16.6
	c14.4,0,21.6-5.5,21.6-16.5c0-1.9-0.2-3.7-0.7-5.3l13.3,21.8h6.4l19.1-32.9h-10.1L365,402.1l-12.6-21.6h-10.9l3,4.9
	c-3.5-3.3-8.6-4.9-15.1-4.9h-21.8v27.4L291,380.5L291,380.5z M317,388h12.5c6.5,0,9.8,2.9,9.8,8.6c0,3.4-1,5.9-3,7.2
	c-1.9,1.3-5.5,2-10.5,2H317L317,388L317,388z"/>
<polygon id="polygon14" class="st1" points="401,380.5 392.7,380.5 373.1,413.5 383,413.5 383,413.4 396.5,413.4 396.5,406.1 
	387.1,406.1 396.4,389.1 410.2,413.5 420.9,413.5 420.9,413.4 426.4,413.4 426.4,393.5 451.3,413.4 457.8,413.4 457.8,380.5 
	449.2,380.5 449.2,400.2 424,380.5 417.6,380.5 417.6,407.9 "/>
<path id="path16" class="st1" d="M462.7,382.4c-1.3,1.2-2,3.4-2,6.4v16.3c0,3.2,0.7,5.3,2,6.5c1.3,1.2,3.6,1.8,7,1.8H489
	c3.4,0,5.8-0.6,7-1.8c1.3-1.2,2-3.4,2-6.5v-4.6l-9.5-0.2v5.1h-18.4v-17.3h18.4v4.5h9.5v-3.9c0-3.2-0.7-5.4-2-6.4
	c-1.3-1.3-3.5-1.9-7-1.9h-19.4C466.3,380.5,464,381.1,462.7,382.4L462.7,382.4z"/>
<polygon id="polygon18" class="st1" points="510.8,392.7 510.8,388 536.5,388 536.5,380.5 501.3,380.5 501.3,413.4 536.9,413.4 
	536.9,405.8 510.8,405.8 510.8,400 525.8,400 525.8,392.7 "/>
<path id="path20" class="st1" d="M28.8,374.3c-10.3-3.7-20.3-2.5-29.9,3.4c-9.4,5.8-13.6,14.6-12.4,26.1c0.3,3.4,1.6,6.4,3.7,9.1
	c2.2,2.7,4.9,4.6,8.2,6.1c3.4,1.5,6.9,2.1,10.6,1.9c4.1-0.2,7.9-1.4,11.5-3.4l0.4-0.2l-1.4,3.2h10l6.4-14h11.1l2.5,14h16.4l8.4-26.2
	l5.4,26.2h6.5l12.6-29l1.3,29h9.6l-2-46.9H96.1l-10.9,25.7l-4.7-25.7h-9.6l-12.4,37.9l-6.4-37.9H40.4l-18.1,40.9l2.6-17.1H7
	l-1.3,8.8h7.5l-0.7,4.7l-7.9,0.5c-3.2-0.8-5.4-2.5-6.9-5.1c-1.3-2.5-1.9-5-1.6-7.9c0.4-4,2.3-7.5,6-10.8c3.3-2.9,7.6-4.6,12.6-5.2
	c4.9-0.7,9.1-0.2,12.7,1.3L28.8,374.3L28.8,374.3z M45.8,397.3h-5.9l4.1-9.1L45.8,397.3z"/>
<polygon id="polygon22" class="st1" points="144.8,373.5 118.1,373.5 110.6,420.4 137.5,420.4 139.2,410.4 122.2,410.4 123.6,402 
	138.3,402 139.8,392 125,392 126.3,383.6 143.2,383.6 "/>
<polygon id="polygon24" class="st1" points="262.9,373.5 251.7,373.5 242.1,388.8 236.2,373.5 225.1,373.5 236.6,398.2 232.9,420.4 
	242.7,420.4 245.6,400.9 "/>
<path id="path26" class="st1" d="M215.9,373.9c-5.5-1.3-10.5,0-15.3,3.7c-4.9,3.6-8,8.7-9.7,15.3c-1.4,6.4-0.7,12.5,1.9,17.9
	c2.8,5.5,6.7,8.9,12.2,10.1c5.4,1.3,10.4,0,15.3-3.7c4.9-3.7,8.1-8.9,9.6-15.4c1.5-6.4,0.8-12.4-1.9-17.9
	C225.2,378.5,221.2,375.1,215.9,373.9L215.9,373.9z M215.1,383.3c2.6,1,4.3,3.4,5.2,7c0.9,3.6,0.7,7.3-0.6,11.3
	c-1.3,3.9-3.4,6.8-6,8.7c-2.8,2-5.4,2.4-7.9,1.3c-2.6-1-4.4-3.4-5.2-7c-1-3.7-0.6-7.4,0.7-11.3c1.3-3.8,3.4-6.8,6-8.8
	C209.8,382.5,212.5,382.1,215.1,383.3L215.1,383.3z"/>
<path id="path28" class="st1" d="M183,375.6c-1.9-1.2-3.7-1.8-5.5-1.8h-17.9l-7.4,46.6h21.6c2.3,0,4.7-0.7,7.2-2.2
	c2.5-1.5,4.4-3.4,5.9-5.6c1.6-2.6,2.2-5.2,1.9-7.9c-0.3-2.9-1.9-5.7-4.6-8.3c5.5-5.6,6.7-10.9,3.9-16
	C186.7,378.5,185.1,376.9,183,375.6z M166.3,392.3l1.5-8.7h6.3c1.6,0,2.8,0.5,3.6,1.3c0.7,0.8,1,1.8,0.8,3c-0.2,1.2-0.7,2.2-1.7,3
	c-1,0.9-2.3,1.3-3.8,1.3L166.3,392.3l10.9,11.1c0.9,0.9,1.4,2,1.3,3.3c-0.1,1.3-0.7,2.3-1.8,3.2c-1.1,0.9-2.7,1.4-4.9,1.4h-8.5
	l1.5-9.4h8.1c1.8,0,3.2,0.5,4.3,1.5L166.3,392.3L166.3,392.3z"/>
<path id="path30" class="st1" d="M254.4,416.2c0-1.3-0.5-2.4-1.4-3.3c-0.9-0.9-2-1.4-3.3-1.4c-1.3,0-2.4,0.5-3.3,1.4
	c-0.9,0.9-1.3,2-1.3,3.3c0,1.3,0.5,2.3,1.3,3.2c0.9,0.9,2,1.4,3.3,1.4c1.3,0,2.4-0.5,3.3-1.4C253.9,418.5,254.4,417.5,254.4,416.2z
	 M252.5,413.4c0.7,0.7,1.1,1.7,1.1,2.8c0,1-0.5,2-1.1,2.8c-0.7,0.7-1.7,1-2.8,1c-1.1,0-2.1-0.4-2.8-1c-0.8-0.8-1.2-1.7-1.2-2.8
	c0-1.1,0.4-2.1,1.2-2.8c0.7-0.8,1.7-1.2,2.8-1.2C250.9,412.3,251.9,412.6,252.5,413.4z"/>
<path id="path32" class="st1" d="M251.4,413.8l-1.3-0.3h-2.2v5.2h0.7v-2.4h1l1.4,2.4h0.8l-1.6-2.4c1,0,1.7-0.5,1.7-1.5
	C252,414.4,251.9,414,251.4,413.8z M251.3,414.9c0,0.6-0.6,0.9-1.7,0.9h-0.9v-1.7h1.4C250.9,414.1,251.3,414.4,251.3,414.9
	L251.3,414.9z"/>
</svg>
