<?xml version="1.0" encoding="utf-8"?>
<!-- Generator: Adobe Illustrator 19.0.0, SVG Export Plug-In . SVG Version: 6.00 Build 0)  -->
<svg version="1.1" id="Ebene_3" xmlns="http://www.w3.org/2000/svg" xmlns:xlink="http://www.w3.org/1999/xlink" x="0px" y="0px"
	 viewBox="-22 334.1 566.9 124.9" style="enable-background:new -22 334.1 566.9 124.9;" xml:space="preserve">
<style type="text/css">
	.st0{fill:#FFFFFF;}
	.st1{fill:#DDDDDD;}
</style>
<g>
	<g>
		<path class="st0" d="M12,443.1l-0.1-41.6h5.4v49.8h-5.4l-28.7-41.9l0.1,41.9H-22v-49.8h5.7L12,443.1z"/>
		<path class="st0" d="M23.3,401.5h26.4v4.9H28.8v17.3h20.8v4.9H28.8v17.8h20.9v4.9H23.3V401.5z"/>
		<path class="st0" d="M52.2,426.5c0-15.3,11.9-25.9,26-25.9c14.6,0,26,11.2,26,25.8c0,14.6-11.3,25.8-26,25.8
			C63.5,452.2,52.2,440.8,52.2,426.5L52.2,426.5z M57.8,426.4c0,11.7,8.8,20.9,20.5,20.9c11.8,0,20.4-9.5,20.4-20.9
			c0-11.4-8.6-20.9-20.5-20.9C66.5,405.5,57.8,414.8,57.8,426.4L57.8,426.4z"/>
		<path class="st0" d="M150.2,414.4c-1.5-2.2-3.4-4-5.6-5.4c-3.2-2.2-7.1-3.5-11.6-3.5c-10.9,0-20.4,8.3-20.4,20.8
			c0,12.7,9.6,21,20.5,21c5.2,0,9.9-1.8,13.3-4.5c3.5-2.8,5.9-6.5,6.7-10.4H126v-4.6h33.6c-0.1,2.9-0.7,6.5-2.2,9.6
			c-4.3,9.4-14.3,14.8-24.3,14.8c-14.5,0-26-11.2-26-25.9c0-14.9,11.7-25.7,26.1-25.7c10.1,0,19.4,5.7,23.4,13.8L150.2,414.4
			L150.2,414.4L150.2,414.4z"/>
		<path class="st0" d="M162.3,401.5h27.6v4.9h-22.1v17.3h21.9v4.9h-21.9v17.8h22.1v4.9h-27.6V401.5z"/>
		<path class="st0" d="M192.1,426.5c0-15.3,11.9-25.9,26-25.9c14.6,0,26,11.2,26,25.8c0,14.6-11.3,25.8-26,25.8
			C203.3,452.2,192.1,440.8,192.1,426.5L192.1,426.5z M197.6,426.4c0,11.7,8.8,20.9,20.5,20.9c11.8,0,20.4-9.5,20.4-20.9
			c0-11.4-8.6-20.9-20.5-20.9C206.3,405.5,197.6,414.8,197.6,426.4L197.6,426.4L197.6,426.4z"/>
	</g>
	<g>
		<path class="st0" d="M305.5,426.5c0-15.3,11.9-25.9,26-25.9c14.6,0,26,11.2,26,25.8c0,14.6-11.3,25.8-26,25.8
			C316.7,452.2,305.5,440.8,305.5,426.5L305.5,426.5z M311,426.4c0,11.7,8.8,20.9,20.5,20.9c11.8,0,20.4-9.5,20.4-20.9
			c0-11.4-8.6-20.9-20.5-20.9C319.7,405.5,311,414.8,311,426.4L311,426.4L311,426.4z"/>
		<path class="st0" d="M413,437.9c-3.2,7.7-11.9,14.3-22.9,14.3c-14.7,0-26-11.4-26-25.8c0-14.2,11-25.8,25.9-25.8
			c12.3,0,20.1,8.2,22.9,14.5h-6c-1.7-3-7.3-9.6-17-9.6c-11.6,0-20.4,9.2-20.4,20.8c0,11.8,8.8,20.9,20.4,20.9
			c10.4,0,15.7-7.5,17-9.4L413,437.9L413,437.9z"/>
		<path class="st0" d="M467.6,401.5h27.6v4.9h-22.1v17.3h21.9v4.9h-21.9v17.8h22.1v4.9h-27.6V401.5L467.6,401.5z"/>
		<path class="st0" d="M523.2,406.4h-16v-4.9h37.7v4.9h-16.1v44.9h-5.6V406.4z"/>
	</g>
	<path class="st0" d="M453.6,451.3h6.9l-25.9-25l23.8-24.8h-6.1l-26.1,27v-6.4v-20.6h-5.5v49.8h5.5v-16.2l5.1-5.3L453.6,451.3z"/>
	<path class="st1" d="M280.8,455.1c-10.8-21.6-21.6-43-32.5-64.6c0.1,0,0.1-0.1,0.2-0.1c2.7-1.4,5.4-2.8,8.1-4.1
		c3.8-1.9,7.6-3.9,11.4-5.8c4-2.1,8.2-3.3,12.8-3.1c3.1,0.1,5.9,1,8.4,2.9c2.2,1.7,3.7,3.8,4.9,6.3c1.1,2.3,1.9,4.8,2,7.4
		c0.1,3.6-1,6.9-3,10c-1.3,2-2.8,3.9-4.5,5.6c-1.2,1.1-2.5,2.2-3.7,3.3c-4.6-3.2-9-6.4-13.5-9.6c0.9-3.1,1.7-6.2,2.5-9.3
		c4.4,0,8.7,0,12.9,0c0-3.3,0-6.5,0-9.8c-6.7,0.1-13.3,0.1-19.9,0.2c-2.4,6.8-4.8,13.6-7.2,20.3c7.7,6.4,15.4,12.8,23.2,19.2
		c3.1-1.2,6-2.6,8.7-4.4c4.4-2.8,8-6.4,10.7-10.9c2.5-4.2,3.7-8.7,3.8-13.6c0-3-0.4-5.9-1.3-8.8c-1.2-3.8-3-7.3-5.8-10.2
		c-5.2-5.4-11.6-8.4-19.1-8.6c-4.5-0.2-8.7,0.8-12.6,2.8c-1.8,0.9-3.5,1.9-5.3,2.7c-4,1.9-8,3.8-12.1,5.7c-3.5,1.7-7.1,3.4-10.6,5
		c-1.2,0.6-2.4,1.1-3.6,1.7c12,24.6,24.1,49.1,36.1,73.6C274.8,457.7,277.7,456.4,280.8,455.1z"/>
	<path class="st1" d="M280.8,455.1c-3,1.3-6,2.6-9.1,3.9c-12-24.5-24.1-49.1-36.1-73.6c1.2-0.6,2.4-1.1,3.6-1.7
		c3.5-1.7,7.1-3.4,10.6-5c4-1.9,8.1-3.8,12.1-5.7c1.8-0.9,3.6-1.8,5.3-2.7c4-2,8.2-3,12.6-2.8c7.5,0.3,13.9,3.2,19.1,8.6
		c2.8,2.9,4.6,6.3,5.8,10.2c0.9,2.9,1.3,5.8,1.3,8.8c-0.1,4.8-1.3,9.4-3.8,13.6c-2.7,4.5-6.3,8-10.7,10.9c-2.7,1.8-5.6,3.2-8.7,4.4
		c-7.7-6.4-15.4-12.8-23.2-19.2c2.4-6.8,4.8-13.5,7.2-20.3c6.6-0.1,13.2-0.1,19.9-0.2c0,3.3,0,6.5,0,9.8c-4.3,0-8.6,0-12.9,0
		c-0.8,3.1-1.7,6.2-2.5,9.3c4.5,3.2,9,6.4,13.5,9.6c1.2-1.1,2.5-2.2,3.7-3.3c1.7-1.7,3.2-3.5,4.5-5.6c2-3.1,3-6.3,3-10
		c0-2.6-0.9-5-2-7.4c-1.2-2.5-2.7-4.6-4.9-6.3c-2.5-1.9-5.3-2.8-8.4-2.9c-4.5-0.1-8.7,1.1-12.8,3.1c-3.8,2-7.6,3.9-11.4,5.8
		c-2.7,1.4-5.4,2.8-8.1,4.1c-0.1,0-0.1,0.1-0.2,0.1C259.1,412,270,433.5,280.8,455.1z"/>
	<path class="st1" d="M288.4,360.7c-2.2-0.4-4.3-0.9-6.4-1.3c1.3-8.4,2.5-16.8,3.8-25.2c3.9,0.6,7.8,1.1,11.8,1.7
		C294.5,344.2,291.5,352.4,288.4,360.7z"/>
	<path class="st1" d="M323.5,353.8c2.1,3.4,4.1,6.7,6.2,10.1c-6.8,4.2-13.6,8.4-20.5,12.7c-1.4-2.1-2.8-4.2-4.3-6.4
		C311.2,364.8,317.3,359.3,323.5,353.8z"/>
	<path class="st1" d="M307.1,340.6c3,2.1,6,4.1,9,6.2c-5.4,6.4-10.7,12.8-16.1,19.2c-1.9-1.2-3.8-2.3-5.7-3.5
		C298.5,355.3,302.8,348,307.1,340.6z"/>
</g>
</svg>
