<?xml version="1.0" encoding="utf-8"?>
<!-- Generator: Adobe Illustrator 19.0.0, SVG Export Plug-In . SVG Version: 6.00 Build 0)  -->
<svg version="1.1" id="Layer_1" xmlns:svg="http://www.w3.org/2000/svg"
	 xmlns="http://www.w3.org/2000/svg" xmlns:xlink="http://www.w3.org/1999/xlink" x="0px" y="0px" viewBox="-22 363.4 566.9 67.6"
	 style="enable-background:new -22 363.4 566.9 67.6;" xml:space="preserve">
<style type="text/css">
	.st0{fill:#FFFFFF;}
	.st1{fill:#D61808;stroke:#FFFFFF;stroke-miterlimit:10;}
	.st2{fill:#008400;stroke:#FFFFFF;stroke-miterlimit:10;}
	.st3{fill:#0000FF;stroke:#FFFFFF;stroke-miterlimit:10;}
</style>
<g>
	<g>
		<path id="path5" class="st0" d="M191.3,419.7c-4.8,6.5-9.5,8.3-11.6,9.3c-2.1,1-5.2,1.8-7.9,1.8c-7.7,0-13.7-2.5-18-7.5
			c-4.3-5-6.5-12-6.5-21.2c0-10.8,2.7-19.9,8.2-27.5c5.5-7.5,12.7-11.3,21.7-11.3c6.8,0,12.4,1.9,16.8,5.8c4.4,3.8,6.6,9.9,6.6,18.1
			h-13.2c0-3.9-0.9-6.7-2.6-8.3c-1.7-1.6-4.2-2.4-7.5-2.4c-5.3,0-9.4,2.6-12.4,7.8c-2.9,5.2-4.4,11.1-4.4,17.7c0,4.5,1,8.2,2.8,11.1
			c1.9,2.9,4.7,4.3,8.5,4.3c3.9,0,7-1.1,9.2-3.4c2.2-2.2,3.8-5.1,4.8-8.6h-12.3l2-12h24l-2,11.6
			C197.6,405.2,196.1,413.2,191.3,419.7L191.3,419.7z"/>
		<polygon id="polygon9" class="st0" points="305.6,365 294.9,429.2 283.3,429.2 292.4,379.5 272.3,429.2 262.8,429.2 258.4,379.5 
			251.5,429.2 239.8,429.2 250.5,365 266.9,365 270.6,410.2 289.1,364.9 		"/>
		<polygon id="polygon11" class="st0" points="317.9,389.9 336.8,389.9 334.8,402.3 315.9,402.3 313.5,416 334.8,416 332.7,429.2 
			299.1,429.2 309.7,365 343,365 340.9,378.3 320,378.3 		"/>
		<path id="path13" class="st0" d="M217.1,364.9l-25.9,64.3h12.6l4.6-12.5h16.5l1.1,12.5h12.2l-7.3-64.3L217.1,364.9L217.1,364.9z
			 M212.4,405.7l9.4-25.6l2.2,25.6H212.4z"/>
	</g>
	<g>
		<path id="path5_1_" class="st0" d="M408.3,419.7c-4.8,6.5-9.5,8.3-11.6,9.3c-2.1,1-5.2,1.8-7.9,1.8c-7.7,0-13.7-2.5-18-7.5
			c-4.3-5-6.5-12-6.5-21.2c0-10.8,2.7-19.9,8.2-27.5c5.5-7.5,12.7-11.3,21.7-11.3c6.8,0,12.4,1.9,16.8,5.8c4.4,3.8,6.6,9.9,6.6,18.1
			h-13.2c0-3.9-0.9-6.7-2.6-8.3c-1.7-1.6-4.2-2.4-7.5-2.4c-5.3,0-9.4,2.6-12.4,7.8c-2.9,5.2-4.4,11.1-4.4,17.7c0,4.5,1,8.2,2.8,11.1
			c1.9,2.9,4.7,4.3,8.5,4.3c3.9,0,7-1.1,9.2-3.4c2.2-2.2,3.8-5.1,4.8-8.6h-12.3l2-12h24l-2,11.6C414.6,405.2,413,413.2,408.3,419.7
			L408.3,419.7z"/>
		<polygon id="polygon15" class="st0" points="433,389.9 451.9,389.9 449.9,402.3 431,402.3 428.6,416 449.9,416 447.8,429.2 
			414.2,429.2 424.8,365 458.1,365 456,378.3 435.1,378.3 		"/>
		<path id="path17" class="st0" d="M474.8,364.9l-25.9,64.3h12.6l4.6-12.5h16.5l1.1,12.5h12.2l-7.3-64.3
			C488.6,364.9,474.8,364.9,474.8,364.9z M470.2,405.7l9.4-25.6l2.2,25.6H470.2z"/>
		<path id="path19" class="st0" d="M515.5,393.2l2.8-15.8h6.8c2.5,0,4.3,0.4,5.6,1.3c1.2,0.9,1.9,2.7,1.9,5.4c0,3-1,5.3-3,6.8
			c-2,1.5-4.6,2.2-7.7,2.2L515.5,393.2L515.5,393.2z M507.9,365l-10.6,64.3h12.3l4.1-24.5h5.7l9.5,24.5H543l-10.5-27.1
			c3.7-1.9,6.8-5,9-8.3c2.3-3.4,3.4-7.3,3.4-11.7c0-6.1-1.4-10.4-4.1-13.1c-2.7-2.7-6.6-4-11.6-4L507.9,365L507.9,365z"/>
	</g>
	<path id="path21" class="st1" d="M-11.7,389.6c10.9-18.2,25.8-29.6,33.4-25.4c7.6,4.2,4.9,22.3-6,40.5
		c-10.9,18.2-25.8,29.6-33.4,25.4C-25.3,426-22.6,407.8-11.7,389.6z"/>
	<path id="path21_2_" class="st2" d="M36.8,389.6c10.9-18.2,25.8-29.6,33.4-25.4c7.6,4.2,4.9,22.3-6,40.5
		c-10.9,18.2-25.8,29.6-33.4,25.4C23.3,426,26,407.8,36.8,389.6z"/>
	<path id="path21_3_" class="st3" d="M85.4,389.6c10.9-18.2,25.8-29.6,33.4-25.4c7.6,4.2,4.9,22.3-6,40.5
		C102,422.9,87,434.3,79.5,430.1C71.9,426,74.6,407.8,85.4,389.6z"/>
</g>
</svg>
