<?xml version="1.0" encoding="utf-8"?>
<!-- Generator: Adobe Illustrator 19.0.0, SVG Export Plug-In . SVG Version: 6.00 Build 0)  -->
<svg version="1.1" id="Layer_1" xmlns="http://www.w3.org/2000/svg" xmlns:xlink="http://www.w3.org/1999/xlink" x="0px" y="0px"
	 viewBox="-22 361.5 566.9 70.5" style="enable-background:new -22 361.5 566.9 70.5;" xml:space="preserve">
<style type="text/css">
	.st0{fill:#FFFFFF;}
</style>
<g>
	<path class="st0" d="M193.9,385.9c-2.7,0-4.9,0.9-6.8,2.8c-1.9,1.9-2.8,4.1-2.8,6.8c0,2.6,0.9,4.9,2.8,6.7c1.9,1.9,4.1,2.8,6.8,2.8
		c2.6,0,4.9-0.9,6.7-2.8c1.9-1.9,2.8-4.1,2.8-6.7c0-2.7-0.9-4.9-2.8-6.8C198.8,386.9,196.6,385.9,193.9,385.9z M376.4,362.6
		c-9.9-0.4-18.2,2.7-25,9.3c-6.8,6.6-10.1,14.9-10.1,24.8c0,8.8,2.6,16.5,7.8,22.9c6.6,8.2,15.9,12.2,27.9,12.2
		c12,0,21.3-4.3,27.9-12.8c5-6.4,7.5-13.9,7.5-22.4c0-9.9-3.3-18.2-10-24.8C395.7,365.3,387.1,362.2,376.4,362.6z M392.1,415.7
		c-1.6,4.6-3.9,8-6.8,10.1c-2.3,1.6-5.1,2.5-8.5,2.5c-5,0-8.9-1.9-11.7-5.7c-4-5.5-6-13.9-6-25.3c0-9.6,1.3-17,3.9-22.1
		c3.2-6.2,7.8-9.4,14-9.4c3.3,0,6.2,0.9,8.8,2.7c2.5,1.8,4.6,4.9,6.3,9.3c1.6,4.4,2.5,11,2.5,19.9C394.6,405,393.7,411,392.1,415.7z
		 M280.4,402.4h-32.5v1.7h1.7c1.6,0,3,0.3,4.1,0.9c1.1,0.6,1.9,1.3,2.2,2.1c0.4,0.8,0.5,2.5,0.5,5.2v13.9c-1.8,0.7-3.5,1.2-5.2,1.5
		c-1.7,0.3-3.3,0.5-4.9,0.5c-4.6,0-8.6-1.1-12-3.4c-3.4-2.3-5.8-5.8-7.3-10.7c-1.5-4.8-2.3-10.5-2.3-16.9c0-5.3,0.7-10.5,2.1-15.5
		c1.4-5,3.7-9,7.1-11.8c3.3-2.8,7.5-4.2,12.5-4.2c5.2,0,10.1,1.7,14.5,5c4.4,3.4,7.7,8.3,9.9,14.7h1.7V362h-1.7
		c-0.7,1.9-1.4,3.2-2.2,3.9c-0.8,0.7-1.6,1-2.6,1c-0.6,0-2.5-0.6-5.8-1.9c-3.2-1.2-5.6-2-7-2.3c-2.7-0.5-5.7-0.8-9-0.8
		c-10.7,0-19.7,3.5-26.7,10.4c-7.1,6.9-10.6,15.4-10.6,25.5c0,5.6,1.2,10.7,3.5,15.2c1.8,3.5,4.3,6.7,7.5,9.5
		c3.2,2.8,6.9,5.1,11.1,6.8c4.2,1.7,9.5,2.6,15.8,2.6c5,0,9.8-0.5,14.4-1.4c4.6-1,9.1-2.4,13.4-4.3v-13.9c0-2.5,0.1-4,0.4-4.6
		c0.5-1.2,1.3-2,2.2-2.6c1-0.5,2.7-0.9,5.1-1V402.4z M144.6,362.6c-9.9-0.4-18.2,2.7-25,9.3c-6.8,6.6-10.1,14.9-10.1,24.8
		c0,8.8,2.6,16.5,7.8,22.9c6.6,8.2,15.9,12.2,27.9,12.2c12,0,21.3-4.3,27.9-12.8c5-6.4,7.5-13.9,7.5-22.4c0-9.9-3.3-18.2-10-24.8
		C163.9,365.3,155.2,362.2,144.6,362.6z M160.3,415.7c-1.6,4.6-3.9,8-6.8,10.1c-2.3,1.6-5.1,2.5-8.5,2.5c-5,0-8.9-1.9-11.7-5.7
		c-4-5.5-6-13.9-6-25.3c0-9.6,1.3-17,3.9-22.1c3.2-6.2,7.8-9.4,13.9-9.4c3.3,0,6.3,0.9,8.8,2.7c2.5,1.8,4.6,4.9,6.3,9.3
		c1.6,4.4,2.5,11,2.5,19.9C162.7,405,161.9,411,160.3,415.7z M328.6,422.4c-3.8,2.9-8.8,4.3-15,4.3h-4c-1.9,0-3.3-0.3-4.1-0.8
		c-0.9-0.5-1.4-1.2-1.8-2c-0.3-0.8-0.5-3.1-0.5-6.8v-18.9c3.2,0,5.6,0.4,7.3,1.3c1.7,0.8,3.2,2.5,4.4,4.9c1.3,2.4,2.1,5.6,2.5,9.4
		h1.9v-35.1h-1.9c-0.5,5.2-1.7,9.1-3.7,11.8c-1.9,2.7-5,4-9.2,4h-1.3v-27.3h6.9c5.1,0,8.5,0.3,10.4,0.9c3.2,1,5.6,2.5,7.3,4.6
		c1.7,2.1,3.1,5.6,4,10.4h1.9v-19.8h-56v1.7h2.2c2.2,0,3.9,0.5,5.1,1.4c0.9,0.6,1.5,1.5,1.8,2.7c0.2,0.7,0.2,2.6,0.2,5.6V419
		c0,3.4-0.2,5.5-0.5,6.3c-0.5,1.1-1.1,1.9-2,2.4c-1.2,0.7-2.7,1-4.7,1h-2.2v1.7h57.8l3-21.3h-1.8
		C335.1,415.1,332.4,419.6,328.6,422.4z M96.8,422.4c-3.8,2.9-8.8,4.3-15,4.3h-4c-1.9,0-3.3-0.3-4.1-0.8c-0.9-0.5-1.4-1.2-1.8-2
		c-0.3-0.8-0.5-3.1-0.5-6.8v-18.9c3.2,0,5.6,0.4,7.3,1.3c1.7,0.8,3.2,2.5,4.4,4.9c1.3,2.4,2.1,5.6,2.5,9.4h1.9v-35.1h-1.9
		c-0.5,5.2-1.7,9.1-3.7,11.8c-1.9,2.7-5,4-9.2,4h-1.3v-27.3h6.9c5.1,0,8.5,0.3,10.4,0.9c3.2,1,5.6,2.5,7.3,4.6
		c1.7,2.1,3.1,5.6,4,10.4h1.9v-19.8h-77v1.7c3.7-0.1,6.4,0.9,8,2.8c1.2,1.4,1.7,4.2,1.7,8.2V405L1.7,363.5H-22v1.7
		c2,0.1,3.6,0.4,4.7,1c1.1,0.6,2.3,1.8,3.8,3.6l1.4,1.8v47.3c0,3.6-0.7,6.2-2.2,7.7c-1.4,1.5-4,2.3-7.7,2.3v1.7H1.8v-1.7H0.2
		c-2.3,0-4.3-0.7-6-2c-1.8-1.4-2.6-4-2.6-7.9v-42.6L36.6,432h1.7v-55.8c0-3.2,0.3-5.4,0.8-6.7c0.5-1.3,1.3-2.3,2.3-2.8
		c1-0.6,2.9-1.1,5.7-1.4h1.1c2.2,0,3.9,0.5,5.1,1.4c0.9,0.6,1.5,1.5,1.8,2.7c0.2,0.7,0.2,2.6,0.2,5.6V419c0,3.4-0.2,5.5-0.5,6.3
		c-0.5,1.1-1.1,1.9-2,2.4c-1.2,0.7-2.7,1-4.7,1h-2.2v1.7h57.8l3-21.3h-1.8C103.3,415.1,100.5,419.6,96.8,422.4z M514.7,368.9
		c-2.2-0.9-5.8-1.4-10.8-1.4v49.4c0,2.5,0.1,4.1,0.4,4.7c0.2,0.6,0.6,1,1.2,1.3c0.8,0.5,2,0.7,3.5,0.7c5,0,8.9-1.7,11.5-5.2
		c3.6-4.7,5.4-12.5,5.4-22.3c0-7.9-1.2-14.2-3.7-18.9C520.2,373.5,517.7,370.2,514.7,368.9z M518.4,416.7c-2.1,2.8-5.2,4.1-9.4,4.1
		c-1.5,0-2.1-0.3-2.2-0.3c0,0,0,0,0,0c0-0.3-0.2-1.2-0.2-3.6v-46.7c4,0.1,6,0.7,7,1.1c2.5,1.1,4.6,4,6.2,7.1
		c2.2,4.3,3.4,10.2,3.4,17.6C523.2,405.2,521.6,412.6,518.4,416.7z M540.3,377.7c-3.1-5.4-7.7-10.4-13.6-13
		c-4.8-2.1-11.1-3.2-18.8-3.2l-27.7,0h-6.7l-0.3,2.3c-0.2,1.3-0.5,1.7-0.6,1.8c-0.2,0.2-0.4,0.3-0.6,0.3c-0.2,0-1.1-0.2-4.3-1.4
		c-5.1-2-10-3-14.6-3c-6.3,0-12.3,1.6-17.9,4.7c-5.6,3.1-10.1,7.6-13.4,13.2c-3.3,5.6-5,11.7-5,18c0,6,1.5,11.7,4.5,17
		c3,5.4,7.3,9.5,12.9,12.4c5.4,2.8,11.7,4.2,18.7,4.2c5.3,0,10.1-0.9,14.1-2.6c4-1.8,7.9-4.6,11.6-8.4l0.7-0.8v-13.6l-4.7,5.5
		c-3.3,3.9-6.5,6.6-9.4,8.1c-2.8,1.5-5.9,2.2-9.3,2.2c-4.1,0-7.4-1-9.8-2.9c-2.5-2-4.4-4.9-5.6-8.9c-1.3-4.2-2-9-2-14.2
		c0-5.2,0.9-10,2.6-14.2c1.3-3.1,3.3-5.5,6-7.5c2.8-1.9,5.7-2.8,9-2.8c4,0,7.4,1.3,10.6,3.8c3.1,2.6,5.3,6.4,6.5,11.3l0.5,2.1h6.5
		v-19.8h2.2c1.5,0,2.3,0.3,2.7,0.5c0.7,0.4,0.9,0.7,0.9,0.8c0,0.2,0.3,2.6,0.3,6.4v40.4c0,3.4-0.2,4.4-0.2,4.7c-0.2,0.4-0.5,0.7-1,1
		c-0.3,0.2-1,0.5-2.7,0.5h-4.7v6.9h30.1c4.2,0,7.2-0.2,9.2-0.6c4.4-0.8,8.2-2,11.2-3.6c3.2-1.6,6-3.7,8.4-6.3
		c2.4-2.6,4.4-5.9,5.9-9.9c1.5-3.9,2.3-8.9,2.3-13.5C544.9,389.1,543.4,383,540.3,377.7z M477.6,385.4h-1.7
		c-1.3-5.6-3.8-9.8-7.4-12.8c-3.6-3-7.7-4.4-12.3-4.4c-3.8,0-7.3,1.1-10.5,3.3c-3.2,2.2-5.5,5.1-7,8.6c-1.9,4.6-2.8,9.6-2.8,15.2
		c0,5.5,0.7,10.5,2.1,15c1.4,4.5,3.6,7.9,6.5,10.2c2.9,2.3,6.8,3.5,11.5,3.5c3.9,0,7.4-0.8,10.6-2.5c3.2-1.7,6.6-4.6,10.1-8.7v5.3
		c-3.4,3.6-7,6.2-10.7,7.8c-3.7,1.6-8.1,2.4-13.1,2.4c-6.5,0-12.4-1.3-17.4-3.9c-5.1-2.6-9-6.4-11.8-11.3
		c-2.8-4.9-4.1-10.1-4.1-15.7c0-5.9,1.5-11.4,4.6-16.7c3.1-5.2,7.2-9.3,12.4-12.2c5.2-2.9,10.7-4.3,16.6-4.3c4.3,0,8.9,0.9,13.7,2.8
		c2.8,1.1,4.5,1.6,5.3,1.6c1,0,1.8-0.4,2.5-1.1c0.7-0.7,1.2-1.8,1.4-3.4h1.7L477.6,385.4L477.6,385.4z M540.2,408.3
		c-1.4,3.6-3.2,6.6-5.4,9c-2.2,2.4-4.7,4.3-7.6,5.7c-2.9,1.4-6.4,2.5-10.6,3.3c-1.8,0.4-4.7,0.5-8.7,0.5h-27.4v-1.6h2
		c1.8,0,3.1-0.3,4.1-0.8c0.9-0.6,1.6-1.3,2.1-2.3c0.3-0.6,0.4-2.6,0.4-5.8V376c0-3.2-0.2-6.6-0.5-7.4c-0.3-0.8-1-1.5-2-2.1
		c-1-0.6-2.4-0.9-4.1-0.9h-2v-1.6h27.4c7.3,0,13.2,1,17.7,3c5.5,2.4,9.6,7,12.4,11.9c2.8,5,4.2,10.6,4.2,16.8
		C542.3,400.1,541.6,404.7,540.2,408.3z"/>
</g>
</svg>
