<?xml version="1.0" encoding="utf-8"?>
<!-- Generator: Adobe Illustrator 19.0.0, SVG Export Plug-In . SVG Version: 6.00 Build 0)  -->
<svg version="1.1" id="Ebene_1" xmlns="http://www.w3.org/2000/svg" xmlns:xlink="http://www.w3.org/1999/xlink" x="0px" y="0px"
	 viewBox="-22 311.9 566.9 170.1" style="enable-background:new -22 311.9 566.9 170.1;" xml:space="preserve">
<style type="text/css">
	.st0{fill:#FFFFFF;}
	.st1{fill:#F4F4F4;}
</style>
<path class="st0" d="M218.6,389.2c-14.9,14.9-14.9,39,0,53.9c14.9,14.9,39,14.9,53.9,0c12.9-12.9,14.6-32.7,5.2-47.4l-20.5,20.5
	c0,3-1.2,5.9-3.4,8.2c-4.6,4.6-11.9,4.6-16.5,0c-4.6-4.6-4.6-11.9,0-16.5c4.6-4.5,11.9-4.5,16.5,0l0.4,0.4l18.7-18.7l-0.4-0.4
	C257.6,374.3,233.5,374.3,218.6,389.2z"/>
<path class="st1" d="M70.1,454.1l92.1-104.8h-38.4l-58.9,59.9c-1.8,1.8-4.7,1.8-6.5,0c-1.8-1.8-1.8-4.8,0-6.6l52.4-53.3H-22
	L70.1,454.1z"/>
<path class="st0" d="M481.1,416l-31.9,37.5h26.1l24.8-25.3c1.4-1.5,3.8-1.5,5.2,0c1.4,1.5,1.4,3.8,0,5.3l-19.6,20h59.2L513,416
	l31.9-37.5h-26.1L494,403.7c-1.4,1.5-3.8,1.5-5.2,0c-1.4-1.5-1.4-3.8,0-5.3l19.6-20h-59.2L481.1,416z"/>
<path class="st0" d="M334.3,378.5v75h23.9v-48.7h18.1l22.3-26.3h-26.1l-24.8,25.3c-1.4,1.5-3.8,1.5-5.2,0c-1.4-1.5-1.4-3.8,0-5.3
	l19.6-20L334.3,378.5L334.3,378.5z"/>
<path class="st0" d="M316.5,378.8H331l23.9-24.7h-38.4v-42.2l-58.4,66.9h25.5l17.5-16.2c1.4-1.5,3.8-1.5,5.2,0
	c1.4,1.5,1.4,3.8,0,5.3l-13.8,14v71.6h23.9L316.5,378.8L316.5,378.8z"/>
<path class="st0" d="M136.9,389.2c-14.9,14.9-14.9,39,0,53.9c14.9,14.9,39,14.9,53.9,0c12.9-12.9,14.6-32.7,5.2-47.4l-20.5,20.5
	c0,3-1.2,5.9-3.4,8.2c-3.7,3.7-9.4,4.4-13.8,2l34.7-34.7c-0.6-0.7-4.4-4.5-5.6-5.4C172.5,374.4,150.7,375.4,136.9,389.2z
	 M153.1,420.6c-1.8-4.2-0.9-9.3,2.5-12.7s8.5-4.3,12.7-2.5L153.1,420.6z"/>
<path class="st0" d="M396.7,389.2c-14.9,14.9-14.9,39,0,53.9c14.9,14.9,39,14.9,53.9,0c12.9-12.9,14.6-32.7,5.2-47.4l-20.5,20.5
	c0,3-1.1,5.9-3.4,8.2c-3.7,3.7-9.4,4.4-13.8,2l34.7-34.7c-0.6-0.7-4.4-4.5-5.6-5.4C432.3,374.4,410.5,375.4,396.7,389.2z
	 M412.8,420.6c-1.8-4.2-0.9-9.3,2.5-12.7s8.5-4.3,12.7-2.5L412.8,420.6z"/>
</svg>
