<?xml version="1.0" encoding="utf-8"?>
<!-- Generator: Adobe Illustrator 19.0.0, SVG Export Plug-In . SVG Version: 6.00 Build 0)  -->
<svg version="1.1" id="Ebene_1" xmlns="http://www.w3.org/2000/svg" xmlns:xlink="http://www.w3.org/1999/xlink" x="0px" y="0px"
	 viewBox="-22 281.9 566.9 231.1" style="enable-background:new -22 281.9 566.9 231.1;" xml:space="preserve">
<style type="text/css">
	.st0{fill:#FFFFFF;}
</style>
<g>
	<g>
		<path class="st0" d="M373.9,453.9L373.9,453.9c-0.3,1.4-0.4,2.9-0.8,4.3c-0.7,2.5-1.6,4.9-2.4,7.3c-1,2.9-1.9,5.8-2.8,8.7
			c-1,2.8-2,5.6-3,8.5c-0.5,1.6-4.9,15.5-5.6,21.1c-0.4,2.8,0.2,5.2,1.8,7.5c0.9,1.4,2.1,2,3.3,1.7c1.2-0.3,2.1-1.6,2.3-3
			c0.1-0.7,0.3-1.4,0.5-2c0.2-0.6,0.5-0.6,0.9-0.1c0.5,0.6,1,1.2,1.5,1.6c1.3,1.1,2.2,0.8,2.6-0.9c0.2-0.7,0.1-1.5,0.1-2.2
			c0-0.6-0.1-1.3,0-1.9c0.2-1.4,0.3-2.9,0.7-4.3c1.1-3.8,2.2-7.7,3.6-11.5c1.5-4.1,3.5-8,5.1-12.1c1.4-3.5,2.6-7.1,3.7-10.8
			c1-3.5,2.8-12.1,2.9-12.8c0.4-2.6,1.4-5.2,4-6c4.1-1.3,8.3-1.8,12.6-1.6c2.8,0.1,5.5,1,7.8,2.3c3.2,1.9,4.4,5,3.8,8.7
			c-0.2,1.3-0.5,2.6-0.9,3.9c-0.3,0.9-1.3,4.1-3.8,7c-2.5,2.9-8.1,8.3-10.6,10.2c-2.5,1.9-5,3.5-6,4.1c-2,1.3-4.1,2.5-6.1,3.7
			c-2.1,1.3-4.1,2.5-6.1,3.8c-2,1.4-4.7,2.1-5.4,5.1c-0.3,1.5-1.5,2.7-0.9,4.5c0.4,1.2,0.3,2.5-1.2,3.3c-0.5,0.2-0.8,0.9-0.9,1.5
			c-0.1,0.6-0.2,1.3,0.1,1.8c0.1,0.2,1.1,0.2,1.6,0c2-0.8,8.8-3.8,12.8-6c4-2.2,13.3-8.2,16.4-10.6c3.1-2.5,7.7-5.7,9.1-7
			c2.3-2,4.6-4,6.7-6.1c2.4-2.4,6.5-7.9,8.3-15.5c1.7-7.6,0.4-13.5-1.3-16.5c-2.5-4.3-6.1-7.3-11.1-8.9c-4.9-1.6-7-2.1-12.5-2.6
			c-5.5-0.4-8.8,0.3-10.6,0.4c-1.1,0.1-1.8-0.2-1.9-1.4c-0.1-1.3-1-2-2-2.5c-2.4-1-4.7-2-7.1-2.9c-1.4-0.5-2.3,0-2.6,1.5
			c-0.5,2.3-1,4.6-1.4,6.9c-0.2,1.2-0.6,1.9-1.9,2.3c-3.4,1.1-6.2,1.7-16,6c-2.2,0.8-4,2.3-5.2,4.4c-0.9,1.6-0.6,3.3,0.7,4.5
			c0.6,0.6,1.6,1,1.8,1.7c0.2,0.7-0.6,1.5-0.9,2.3c-0.5,1.3-0.3,2.3,0.8,3.3c1,0.8,2,0.8,3.1,0.2c0.6-0.3,6.5-2.7,8.7-3.7
			C371.5,454.7,372.7,454.3,373.9,453.9z M352.1,440.2c0-1.1-0.4-1.4-0.8-2c-0.8-1.5-2.2-1.2-3.6-1.1c-1,0.1-1.7,0-2.5-0.6
			c-1.5-1.3-3.3-1.9-5.4-1.4c-0.7,0.2-7.5,1.8-12.7,4.1c-5.3,2.2-9,4.7-11.9,7.4c-2.3,2.1-4.3,4.3-6,6.9c-1.8,2.6-3,5.4-3.8,8.5
			c-0.9,3.4-1.5,9.5-1.5,10.5c0,1-0.1,3.7,0.2,5.6c0.3,2,0.8,3.9,1.4,5.8c0.5,1.4,1.2,2.8,1.9,4.1c1,1.6,1.5,2.8,3.2,4.8
			c1.7,2,4.8,4.4,7.1,5.8c2.3,1.4,5.2,2.7,10.3,3.1c5.1,0.5,7.8,0.7,13.7-0.5c5.9-1.2,14.1-6.9,16.5-10.3c0.4-0.5,0.4-1.5,0.3-2.2
			c-0.3-1.9-0.6-3.8,0.4-5.6c0.2-0.4,0.2-0.8,0.3-1.3c0.1-1-0.9-1.2-1.4-1s-1,0.5-2.5,2.2c-1.5,1.7-5,5-5.7,5.6
			c-0.7,0.6-2.3,1.6-3.4,2.2c-1,0.5-3.8,1.9-6.9,2.4c-3.4,0.6-7.1,0.3-9.2-0.3c-3.9-1.1-5.9-1.9-8.3-4c-3.3-2.8-4.7-6.5-5.2-10.5
			c-0.4-2.6-0.6-3.2,0.4-8c1-4.8,3.5-9.6,8-13.3c4.6-3.7,12.3-5.5,15.5-6.3c2.5-0.6,5.1-0.8,7.4-2.1c1.1-0.6,1.8-1.6,1.5-2.6
			c-0.4-1.4,0.2-2.2,1.1-2.9C351.6,442.4,352.1,441.4,352.1,440.2z"/>
		<path class="st0" d="M358.9,426.3C358.9,426.3,358.9,426.3,358.9,426.3C358.9,426.4,358.9,426.3,358.9,426.3
			C358.9,426.3,358.9,426.3,358.9,426.3L358.9,426.3z"/>
		<path class="st0" d="M373.9,453.9L373.9,453.9L373.9,453.9z"/>
	</g>
	<g>
		<path class="st0" d="M66.7,371.4c2.7-8.1,5.1-16.3,7.7-24.4c0.6-2,1.2-4,1.8-6c0.1-0.4,2.3-8.2,3.1-11.7c1-4.2,2.1-8.4,2.6-12.6
			c0.3-2.6,1.5-4,3.8-4.7c1.3-0.4,2.1-1.1,3.4-1.2c1.1-0.1,1.9-0.4,2.4-1.4c0.4-0.9,1.6-1.4,2.2-2.2c0.4-0.6,1-1.3,1.6-1.5
			c1.8-0.6,3.8-0.7,5.6-1.3c2.3-0.8,4.9-1.3,6.6-2.8c1.7-1.6,3.3-2.4,5.5-2.6c2-0.2,3.8-0.9,4.4-3.1c0.4-1.3,1.4-1.9,2.4-2.6
			c0.9-0.2,1.4-0.6,1.6-1.7s-4.1-0.5-4.4-0.8c-1.3-1.3-1.2-1.6,0.5-2.2c1.1-0.4,2.3-0.5,3.5-0.8c0.7-0.2,1.4-0.3,2.1-0.5
			c1.7-0.2,3.3-0.5,5-0.7c2.9-0.3,5.8-0.6,8.7-1c0.7-0.1,1.4-0.3,2-0.7c0.5-0.3,1.2-1.5,1.2-2.1c0-0.6-1.1-0.9-1.7-0.9
			c-2.3,0.1-4.6,0.2-6.9,0.6c-3.6,0.5-7.1,1.1-10.7,1.8c-3,0.5-5.9,1.2-8.8,1.8c-0.4,0-5.7,1.3-6.1,1.4c-1.1,0.3-2.3,0.5-3.4,0.8
			l-0.3,0c-1.1,0.2-2.2,0.4-3.3,0.6c-3.5,0.7-6.9,1.5-10.4,2.1c-1.9,0.4-3.8,0.8-5.7,1.2c-2.7,0.6-5.3,1.1-8,1.6
			c-5.9,1.2-11.9,2.2-17.8,3.3c-0.6,0-21.1,3.7-32,4c-2.5,0.1-5.1,0-7.6,0c-0.9,0-1.6,0.1-1.9,1.1c-0.4,1.3-0.1,1.7,1.4,2.3
			c0.7,0.3,1.2,0.8,1.8,1.3c-0.7,0.5-1.4,1.1-2.1,1.4c-0.5,0.2-1.2,0-1.8,0.1c-0.5,0.1-1,0.2-1.4,0.5c-1.6,1.2-1.1,2.7,1.2,3.7
			c3.1,1.4,3.3,2.1,1.4,4.9c-0.4,0.3-1.1,0.5-1.1,0.8s0.7,0.6,1.1,0.8c0.3,0.1,0.8-0.1,1.1-0.2c0.5,0.6,1.2,1.1,1.5,1.7
			c0.6,1.4,1.5,2,3.1,1.8c4.3-0.3,8.7-0.3,13-0.9c4.5-0.6,8.8-2.1,13.3-2.5c3.7-0.3,7.4-1,11.1-1.6c1-0.1,1.6,0.2,1.5,1.3
			c0,1.4,0.1,2.9-0.2,4.2c-0.3,1.3-1,5.7-1.7,8.8c-0.9,4.1-2.3,8.7-2.3,9c-0.4,1.4-0.8,2.8-1.2,4.2c-1.4,4.3-4.6,15.1-4.9,16.2
			c-1.2,4.9-6.5,17.5-7.2,19.2c-1.7,3.8-3.5,7.5-5.6,11.1c-2.1,3.5-4.6,6.8-6.9,10.1c-1.8,2.6-6.4,7.1-6.4,7.2
			c-6.8,7.8-14.6,9.4-14.7,9.5c-5.1,1.8-9.9,1.7-14.9-0.8c-2.2-1.1-4.6-2.1-6.6-3.7c-2.1-1.6-4.3-3.7-6.2-5.4
			c-0.6-0.5-1-1.2-1.8-1.7c-1.2-0.6-2-0.1-2,1.3c0,0.6,0,1.3,0.3,1.8c2.2,3.7,4.6,7.2,8.3,9.5c3.6,2.3,9,4.8,12.5,6.3
			c3.6,1.4,6.4,2.4,9.2,3c2.8,0.6,7.4,1.4,11.3,0.2c3.9-1.2,8.2-2.9,14.3-7.9c6-4.9,18.1-18.7,22.8-27.3c2-3.7,3.8-7.5,5.6-11.3
			C63.9,377.8,65.6,374.7,66.7,371.4z"/>
		<polygon class="st0" points="246.6,381 246.6,381 246.6,381.1 		"/>
		<path class="st0" d="M142.4,308.4c-0.6-0.2-1.2-0.3-1.8-0.5l-0.1,0c-0.1-1.7-0.2-3.4-0.4-5.1c-0.1-0.9,0.2-2.2-1.3-2.4l0,0
			c-1-0.8-3-0.2-3-0.2s-2.1,0.4-2.5,1.5c-1.3,0.2-2.6,0.5-3.9,0.5c-4.4,0-4.4,0-6,4.1c-0.2,0.5-0.6,0.9-0.9,1.4
			c-0.4-0.4-1-0.8-1.1-1.3c-0.3-1.6-1.3-1.9-2.7-1.8c-1.3,0.1-1.3,1.1-1.6,2.1c-0.7,2.5-1.3,5.2-3.6,6.8c-2.7,2-3.8,4.9-4.6,7.9
			c-0.7,2.3-0.9,4.8-3.1,6.3c-0.3,0.2-0.6,1.7-0.5,1.9c-1.9,2.5-7.7,11.1-8.5,12.8c-0.9,1.9-2,3.7-2.5,5.7c-0.4,1.6-0.8,3-2,4.2
			c-2.3,1.2-1.7,3.4-1.9,5.4c-0.4,0.6-0.8,1.2-1.1,1.8c-0.3,0.4-0.6,0.8-0.8,1.2c-0.1,0.2-0.3,0.3-0.4,0.5c-0.4,0.4-0.4,1-1.1,1.3
			c-0.7,0.3-3.2,1.2-4.9,1.7c-2.5,0.7-3,1-3,2.4c0.1,1.8,1.5,1.9,2.8,2c1.1,0.1,1.4,0.8,1,1.7c-1.3,2.8-2.6,5.7-4.1,8.4
			c-3.4,6.5-10.5,20-10.6,20.3c-0.7,1.6-1.3,3.3-2,4.9c0,0.2,0,0.4,0,0.6c-0.3,0.4-0.5,0.7-0.8,1.1c-0.1,0.2-0.3,0.5-0.4,0.7
			c0,0.2-0.1,0.4-0.1,0.6c-0.7,1.3-1.8,2.6-2.1,4c-0.3,1.6-0.9,2.9-1.9,4c-2.1,2.3-1.3,4.9-0.8,7.4c0.2,0.8,0.9,0.9,1.4,0.4
			c0.8-0.9,1.4-1.9,1.9-3c0.6-1.2,0.9-2.4,1.5-3.6c0.2-0.3,0.8-0.6,1.2-0.6c0.3,0,0.7,0.8,0.6,1.1c-0.3,1.1-0.9,2.2-1.2,3.3
			c-0.1,0.3-0.1,0.9,0.2,1c0.3,0.1,0.8-0.2,1-0.4c0.7-1.5,1.4-3.1,2.1-4.7c1.3-2.7,2.6-5.4,3.9-8.1c0.1-0.3,0.7-0.6,0.9-0.5
			c0.3,0.1,0.5,0.6,0.6,0.9c0.1,0.3,0.1,0.6,0,0.9c-0.5,3.1-1.1,6.3-1.6,9.4c0,0.2,0.1,0.5,0.1,0.5c0.3,0,0.7,0,0.8-0.1
			c0.3-0.5,0.5-1,0.7-1.6c0.9-2.4,1.1-5.2,3.6-6.8c0.4-0.3,0.9-1,0.9-1.5c0-2.3,5.2-13.5,5.9-14.7l0,0c0.5-1.2,6.4-13.4,7.6-16.5
			c0.1-0.4,2-4.5,2.2-4.7c0.8-1.8,1.7-3.6,2.5-5.5c1.3-0.6,2.5-1.3,3.8-1.8c6.6-2.6,22.2-9,23-8.8c0,0.2,0,1.7,0,1.9
			c0,0.4,0,0.8,0,1.2c0,2.8-0.1,5.6,0,8.4c0,2.2,0.6,9.4,0.4,10.8c-0.3,2.1-0.3,4.1,0.6,6.2c0.9,1.9,1.3,4.1,0.7,6.2l0,0.1
			c0,0.8,0,1.6,0,2.5v0c0.1,1.5,0.1,3,1.3,4.2c0.8,0.8,1.5,1.1,2.2,0.1c0.5-0.7,0.8-0.6,1.3,0c1.4,1.5,2.1,3.1,1.7,5.3
			c-0.1,0.7,0.2,1.5,0.5,2.2c0.2,0.4,0.5,1.1,1.2,0.8c0.7-0.3,0.7-1,0.7-1.5c0.1-1,0-2,0.1-3c0.1-0.9,0.3-1.8,0.6-2.6
			c0.2-0.5,0.7-0.9,1.2-1.1c0.2-0.1,0.7,0.6,1,1c0.3,0.5,0.4,1.2,0.8,1.6c0.9,1.1,2.1,0.9,2.5-0.4c0.3-0.9,0.4-1.8,0.3-2.7
			c-0.1-3.7-0.4-7.5-0.4-11.2c0.1-7.5,0.3-15,0.5-22.5c0.2-7.4,0.3-14.8,0.5-22.2c0.1-2.2,0.5-4.4,0.5-6.6
			c0.1-7.2,0.7-14.3,1.9-21.4c0.3-2.1,0-4.1-1.2-6L142.4,308.4z M120.5,348.1c-1.2,0.5-2.5,0.8-3.7,1.3c-0.5,0.2-1.7,1-1.7,1
			s-0.5,0.6-0.6,0.8c-0.9,0.4-1.8,1.2-2.6,1.2c-2.2,0-3.7,0.9-4.8,2.7c-0.3,0.4-0.5,0.9-0.8,1.3c-0.3,0.2-0.8,0.4-1.1,0.3
			c-0.3-0.1-0.7-0.6-0.6-0.9c0.1-0.9,0.2-1.8,0.5-2.6c1.5-3.2,3-6.4,4.6-9.5c2.6-4.9,5.3-9.8,8-14.6c0.4-0.8,0.8-1.7,2-1.3
			c0.4,0.1,1.1-0.3,1.5-0.6c0.5-0.3,0.8-0.7,1.2-1c0.1,0.6,0.3,1.2,0.3,1.8c0,5.6-0.1,11.2,0,16.7
			C122.8,346.4,122.1,347.5,120.5,348.1z"/>
		<path class="st0" d="M257.9,303.6c-0.6-0.2-1.2-0.5-1.8-0.7c0-0.2,0-0.3-0.1-0.4c0,0,1.8-2.3,0.8-3.4c-0.3-0.2-1.9-0.8-2.1-1
			c-0.1-0.9-0.3-1.8-0.4-2.7c-0.2-1.4-1.1-1.8-2.3-1.5c-0.4,0.3-0.8,0.6-1.2,0.9l-0.2,0l-1.9-0.2c-1.4,0.4-0.8,1.2-2.2,1.6
			c-0.3,0.2-0.6,0.5-0.9,0.7c-0.9,0.8-1.6,1.3-2.8,2.9c-1.2,1.6-2.5,4.2-3.3,5.7c-0.8,1.5-4.1,10.1-4.2,10.2
			c-0.3,0.2-5.8,12.5-7.7,16.7c-1.4,3.2-3.3,7-4.7,10.9c-1.4,3.9-2.7,9.8-3.1,10.1c-0.1,0.3-0.2,0.5-0.3,0.8
			c-0.1,0.4-0.3,0.8-0.4,1.2c-0.1,0.4-0.1,0.8-0.2,1.2c-0.4,2.2-1,5.2-1.4,6.6c-0.4,1.4-1.3,2.9-1.9,4.4c-0.4,2.9-0.9,5.7-1.2,8.6
			c-0.3,2.2-0.3,4.4-0.4,6.6c0.1,0.8,0.2,1.6,0.3,2.4c0.4,1.4,0.5,2.1,1.2,4.3c0.7,2.2,3.7,4.2,3.7,4.2c3.6,2,9.6,2,12.3,0.1
			c2.7-1.9,4.6-3.1,5.7-4.1c1.2-1,7.1-5.7,9.9-8.8c2.8-3.1,3.8-4.6,4.7-5.4c0.4,1.4,0,2.7-0.9,3.8c-0.2,0.5-0.4,1.1-0.6,1.6
			c-0.1,2.5-0.4,5-0.4,7.5c0,3.3,1.3,10.4,4.8,11c3.5,0.6,4.1,0.6,6.1-0.4c1.6-0.8,3.4-1.2,5.2-1.6c1.3-0.3,1.7,0.3,1.2,1.5
			c-0.6,1.4-1.4,2.7-2.1,4c-3.1,5.2-6.1,10.5-9.2,15.7c-1.2,2.1-0.5,2.4,1.1,2.4c0.3,0-0.3,1.7-0.3,2.2c0.2,1.8,1,2.3,2.5,1.3
			c0.9-0.6,1.5-1.6,2.1-2.5c0.6-0.9,1-2,1.6-2.9c0.1-0.2,1-0.1,1.2,0.1c0.4,0.6-0.2,1.9,1.1,1.7c0.6-0.1,1.1-1,1.6-1.6
			c0.3-0.4,0.6-0.8,0.9-1.2c0.5-0.7,1.1-0.9,1.6,0c0.6,1,1.4,0.8,2,0.1c0.9-1.1,1.9-2.1,2.6-3.4c1.8-3.3,3.4-6.6,5.1-10
			c0.6-1.2,1.2-2.1,2.7-1.7c1.3,0.3,1.8-0.3,2.2-1.4c0.6-1.6,1.2-3.2,2-4.7c2.7-5,5.5-9.9,8.3-14.8c2.2-4,4.4-7.9,6.6-11.9
			c1.2-2.1,2.1-4.4,3.6-6.4c1.9-2.6,5.5-3.2,6.6-3c1.1,0.1,2.3-0.6,2.9-1.1c0.5-0.5,0.6-0.5,1.4-0.9c0.7-0.5,1.2-0.9,1.6-1.1
			c0.4-0.3,5.8-2.4,6.9-3.5c2.2-2.1,5.6-3.4,8.6-3.6c0.3,1.4,0.4,2.9,0.4,4.3c0,3.2,0,6.4-0.1,9.6c0,0.4,0,0.8-0.1,1.3
			c-0.8,2.1,0.1,3.9,0.6,5.8c0.3,0.9,0.5,2.1,0.2,2.9c-1.1,2.6-0.6,5.2-0.5,7.8c0,1,0.4,2.1,1.8,1.9c1.1-0.1,1.3,0.5,1.4,1.4
			c0.1,1.8,0.4,3.6,0.7,5.4c0.2,1.7,0.4,3.4,0.7,5.1c0.2,0.9,0.5,1.6,1.6,2c1.7,0.7,1.8,0.9,0.9,2.6c-0.5,1-1,1.8,0,2.7
			c1.6,1.5,1.7,3.1,0.5,4.9c-0.7,1.1-0.6,1.9,0.8,2.3c1.2,0.3,1.3,1.2,1.4,2.1c0.1,0.7,0,1.4-0.1,2.1c-0.1,0.9,0.2,1.6,1.3,1.6
			c0.9,0,1.2-0.6,1.2-1.4c0.2-4.4,0.4-8.9,0.7-13.3c0.1-1.9,0.9-6.4,1-6.7c0.2-1.9,0.7-6.4,0.8-6.8c0.2-4.9,0.6-17.3,0.9-21.9
			c0.3-4.6,1.7-26,1.8-29.3c-0.1-0.2,2.7-20.4,3.6-25s0.9-8.7,0.8-9.2c-0.1-0.5-2.1-1-3.2-1.2c-2.2-0.4-4.5-0.5-6.8-0.7
			c-1.5-0.2-1.2-2-1.3-2.3c-0.1-0.3-4.9-1.7-5.9-1.2s-1.2,5.1-1.4,7.3c-0.6,1-1.2,2-1.8,3.1c-0.4,0.4-0.9,0.8-1.3,1.2
			c-0.2,0.2-0.4,0.4-0.5,0.5c-1.2,0.7-2.4,1.5-3.5,2.2c-1.7,1.8-3.4,3.6-5,5.4c-0.1,0.1-1,1.2-1.2,1.5c-0.9,1.3-3.1,4-3.1,4.2
			c-0.3,0.5-0.7,0.9-1,1.4c0,0-0.8,0.3-0.9,0.5c-1.4,2.6-2.8,5.3-4.3,7.9c0,0-1,0.5-1.6,0.8c-0.5,0.4-0.9,0.7-1.4,1.1
			c-0.2,0.1-3.1,3.9-4.6,5.5c-0.3,0.3-0.9,1.5-0.9,1.7c-2.1,0.9-1.8,4.1-2.1,4.5c-0.3,0.4-1.7,1-2.1,1.7c-1.1,2-2.3,5.5-2.8,6.1
			c-0.5,0.6-1.2,1.3-1.7,1.7c-0.3,0.1-0.6,0.2-0.9,0.4c-1.3,0.1-2,1.9-2.1,2.2c-0.2,0.4-0.6,0.4-1,0.6c-0.2,0.2-0.5,0.3-0.7,0.5l0,0
			c-0.5,0.2-0.9,0.4-1.4,0.6c-2.9,1.8-5.9,3.5-8.8,5.3c-0.2,0.2-0.5,0.8-0.4,1c1,2,0.4,3.5-1.1,4.9c-0.1,0.1-0.2,0.5-0.2,0.5
			c0.2,0.2,0.6,0.4,0.8,0.3c1.2-0.4,2.5-0.9,3.7-1.3c0.4-0.1,1.3-0.2,1.4,0.1c0.2,0.4,0.3,1.1,0.1,1.6c-0.2,0.6-0.6,1-0.9,1.5
			c-1.2,1.8-4.2,5.7-4.4,6c-1.7,2.3-3.3,4.6-4.9,6.9c-1,1.3-2.1,2-3.6,0.9c-1.1-0.8-2.2-1.8-3.2-2.6c-0.1-0.6-0.1-1.2-0.2-1.9
			c0.4-2.4,0.6-4.7,1.7-7c1.6-3.2,2.5-6.7,3.7-10.1c1.3-3.7,2.6-7.4,3.8-11.1c0.6-1.9,1.3-3.8,1.9-5.7c2.1-4.3,4.3-8.5,6.4-12.8
			c1.1-2.3,2.1-4.6,3.1-6.9c0.2,0,0.2-0.2,0.2-0.3c1.9-3.6,3.9-7.2,5.6-11c0.6-1.4,0.5-3.2,0.3-4.8c-0.1-0.7-1.3-1.3-2.1-1.9
			c-0.8-0.6-0.8-1.2-0.3-2c1.1-1.8,1-2.8-0.3-4.3c-1-1.2-2.2-1.3-3.6-1.3c-1.7,0.1-3.3,0-5-0.4c-1.4-0.4-3.4-1-4.7,0.8l-0.1,0.1
			c-0.5,0.9-8,13.9-8.4,14.6l-2.1,3.3c-0.5,0.8,0.7,2.1,0.4,2.8c-0.3,0.7-0.9-0.3-2,0.7c-0.1,0-0.9,3-1.6,5.8
			c-0.1,0.2,0.9,0.5,0.8,0.7c-0.1,0.2-1.1,1-1.1,1.3c-0.5,2-1.1,3.7-1.7,5.8c-0.1,0.4,0.1,0.4,0,0.8c-0.1,0.4-0.5,0.1-0.6,0.4
			c-0.5,2-1,4.6-1.3,5.4c-0.1,0.2,0.2,0.5,0.1,0.7c-0.1,0.3-0.6,0.7-0.7,1c-1.4,4-2.7,8.1-4,12.2c-0.1,0.3-0.2,0.6-0.3,0.8
			c-1,1.3-2,2.7-3,4c-0.6,0.5-1.1,1-1.7,1.5c0,0.1,0,0.2,0,0.3c0-0.1,0-0.2,0-0.3c-0.4,0.5-0.9,1-1.3,1.5c-0.3,0.2-0.6,0.5-0.9,0.7
			c-0.2,0.1-0.3,0.2-0.4,0.4c-0.2,0.2-0.5,0.5-0.7,0.7c0,0,0,0,0-0.1c-0.7,0.7-1.4,1.4-2,2c0.2,0,0.3,0,0.5,0c-0.1,0-0.3,0-0.5,0
			c-0.3,0.2-0.6,0.5-0.8,0.7c-0.3,0.4-0.7,0.7-1,1.1c-0.2,0.1-1.1,0.9-1.5,1.2c-0.2,0.1-0.4,0.2-0.5,0.3c-4.5,3.4-9,6.8-13.5,10.2
			c-0.4,0.1-0.4,0.1-1.1,0.4c-0.7,0.2-2.8-0.1-2.8-1c-0.1-0.9,0.7-5.9,1.5-8.9c1.6-5.9,3.7-11.6,6.5-17.1c1.1-2.1,2.2-5,3.1-6.4
			c0.9-1.4,2.8-3.9,3.5-5.3c0.7-1.4,1-3.9,1.9-5.7c1.7-3.2,3.5-6.3,5.5-9.4c1.3-2,2.3-3.9,2.6-6.4c0.2-1.6,0.8-3.3,1.2-3.8
			c0.4-0.6,1.3-1.4,1.5-1.7c1.2-2.4,2.4-4.9,3.5-7.3c0,0,2.4-3.9,3.4-6C260.4,304.8,260.3,304.7,257.9,303.6 M251.7,367.2
			C251.7,367.3,251.7,367.3,251.7,367.2C251.7,367.3,251.7,367.3,251.7,367.2z M270.5,319.4l0.1,0.1L270.5,319.4
			C270.5,319.4,270.5,319.4,270.5,319.4L270.5,319.4z M331.3,329.5c-0.6,1.6-1.1,3-1,4.6c0.1,0.8-0.2,1.6-0.4,2.4
			c-0.3,1-0.9,1.5-2,1.4c-2.9-0.3-4.9,1.3-6.8,3.3c-0.4,0.4-0.9,0.9-1.4,1.1c-1.1,0.4-2.3,0.7-3.4,1c0.2-1,0.4-2.1,0.8-3.1
			c0.6-1.4,1.2-2.8,2-4c3.3-4.5,6.6-8.9,10-13.3c1.5-1.9,1.2,0,1.9,0.1c0.2,0,0.7-0.9,0.9-0.9c0.2,0.1,0.3,0.3,0.4,0.5
			c0.1,0.2,0.2,0.4,0.2,0.6c0.1,0.5,0.2,1,0.2,1.5c-0.1,1.1-0.5,2-0.9,3C331.7,328.5,331.5,329,331.3,329.5z"/>
		<path class="st0" d="M405.1,361.5c0.9,0.3,3,0.9,4.6,1.2c1.9,0.5,3.6,1.3,4.9,2.8c1.7,1.9,3.6,3.8,5.4,5.7
			c0.4,0.4,0.9,0.9,1.1,1.4c1.5,3.5,3.5,6.5,7.4,7.8c0.8,0.3,1.5,1,2.2,1.6c0.5,0.4,1,1,1.5,1.3c2.4,1.5,4.8,3,7.1,4.5
			c1.6,1.1,3.2,2.5,4.7,3.7c0.2,0.2,0.4,0.3,0.6,0.5c1.4,1.2,2.8,2.5,4.2,3.7c8.4,8.4,16.4,17.1,26.8,23.1c0.8,0.5,1.6,1,2.4,1.5
			c0.6,0.3,1.1,0.7,1.7,1c0.5,0.4,0.9,0.7,1.4,1.1c2.4,1.8,4.9,3.6,7.2,5.5c3.9,3.2,7.8,6.5,11.7,9.7c1.2,1,12.3,8.5,13.6,9.4
			c0.1,0.1,3.4,1,0.8-1.2c-1.7-1.4-9.7-6.3-9.7-6.4c-2.3-2-5.2-3.6-7.5-5.6c-3-2.7-6-5.4-9-8.1c-3.6-3.2-6.6-7.1-11.1-9.3
			c-0.5-0.2-1-0.7-1.3-1.2c-2.1-3.8-5.5-6.4-8.7-9.2c-2.1-1.9-4.9-3.3-7.2-5c-3-2.3-5.8-4.7-8.7-7c-0.3-0.3-0.5-0.5-0.8-0.8
			c-1.3-1.2-2.6-2.4-3.9-3.5c-2.3-1.7-4.5-3.4-6.8-5c-1-0.7-2.1-1.2-3.1-1.9c-0.3-0.2-1.1-0.6-0.2-1c1.5-0.7,0.6-1.1-0.1-1.6
			c-4.1-3.1-8.1-6.3-11.5-10.2c-1.3-1.5-3.2-2.3-4.9-3.5c-0.6-0.4-1.2-0.8-1.6-1.3c-2.3-2.6-3.5-5.9-6.5-7.9
			c-0.3-0.2-0.5-0.7-0.6-1.1c-0.1-0.3,0-0.7,0-1.1c0.4,0,0.9-0.1,1.1,0.1c1.1,0.9,2,2,3.1,2.9c0.6,0.5,1.2,1.2,1.9,1.3
			c1.3,0.2,2.2,0.6,2.7,2c0.2,0.6,1.1,0.9,1.6,1.3c1.7,1.1,3.4,2.2,5,3.4c0.9,0.7,1.6,1.6,2.9,0.8c0.3-0.2,1,0.1,1.3,0.4
			c3.3,3.6,6.5,7.2,9.8,10.7c1.5,1.6,2.7,3.5,4.8,4.5c1.1,0.5,2.3,1.2,3.2,2.1c1.6,1.6,3,3.2,4.4,5c1.5,2,3.4,3.4,5.9,4
			c0.7,0.5,1.3,1,2,1.4c0.9,0.7,1.8,1.3,2.6,2c2.3,1.7,4.7,3.5,7,5.2c0.4,0.3,0.8,0.7,1.2,1c0.2,0.2,0.5,0.4,0.7,0.6
			c0.4,0.3,0.8,0.6,1.1,0.9c0.2,0.1,0.4,0.2,0.6,0.4c2.8,2.3,5.7,4.5,8.5,6.8c3.7,3.1,7.4,6.3,11.1,9.4c2.8,2.3,5.9,4.2,8.3,7
			c0.3,0.4,0.8,0.8,1.2,0.8c0.7,0.1,1.8,0.3,2.2-0.1c0.7-0.7,0.1-1.4-0.6-2c-1.1-1.1-2.4-2-3-3.3c-0.6-1.2-1.4-1.9-2.6-2.3
			c-4.8-1.6-8.2-5.1-11.7-8.4c-3-2.8-6.1-5.6-9.1-8.4c-0.9-0.8-1.7-1.6-2.6-2.4c-0.2-0.2-0.4-0.4-0.6-0.6c-0.5-0.5-0.9-0.9-1.4-1.4
			c-0.3-0.4-0.7-0.7-1-1.1c-1.2-1.1-2.3-2.2-3.6-3.2c-1.9-1.4-4.1-2.6-6-4.1c-1.9-1.5-3.8-3.1-5.1-5c-1.6-2.3-3.2-4.3-6.1-4.9
			c-0.6-0.1-1-0.6-1.6-0.9c-2.8-1.5-4.7-4.1-6.8-6.4c-2-2.2-3.7-4.7-5.6-7.1c-0.2-0.2-0.5-0.5-0.7-0.7c-1-1.4-1.9-2.9-3.1-4
			c-1.7-1.6-3.6-2.9-5.4-4.4c-1.6-1.3-1.7-2,0.1-3.2c1-0.6,2.2-0.9,3.3-1.6c6.2-3.9,12.3-8.2,16.6-14.4c1.3-2.1,2.8-4.1,3.8-6.4
			c1.8-4.1,2.1-8.5,1.7-13c-0.4-4.6-2-8.3-4.9-11.7c0-0.2-1.5-1.6-1.7-1.8c-0.6-0.6-1.9-1.7-5.6-4.5c-3.7-2.8-9-5.6-13.6-6.2
			s-11,0.3-13.7,0.6c-0.5,0-1.1,0.3-1.3,0.6c-1.3,1.7-3.2,1.9-5,2.5c-1.5,0-3-0.1-4.5-0.1c-1.6,0.1-3.1,0.3-4.7,0.4
			c-0.6,0-2,0.2-2.2,0.3c-0.7,0.1-3.3,0.7-3.8,0.9c-2.8,1.3-10.6,4.2-12.2,4.8c-1.6,0.6-2.3,0.6-4.5,1.1c-1,0.2-2.1,0.9-3,1.5
			l-0.3,0.2c-1.1,0.5-2.1,1.1-3.2,1.6c-0.6,0.4-1.2,0.7-1.7,1.1c-1,0.4-2.1,0.9-3.1,1.3c-0.4,0.2-1.3,0.3-1.8,0.6
			c-0.5,0.3-2,1.7-2.1,2.4c-0.2,0.7-0.3,1.2-0.4,1.8c-0.1,0.5-0.3,1-0.4,1.4c0,0-0.1,0.2-0.1,0.2c-0.3,0.7-1.5,1.1-2.1,1.4
			c-0.9,0.4-2.1,0.7-2.9,1.4c-0.7,0.6-0.9,1.5-1.2,2.3c-0.3,0.6-0.2,1.6,0.1,2.2c0.3,0.6,1.4,1.7,2,1.8c0.7,0.1,1.8,0.2,2.1,0.3
			c0.3,0.1,1.4,1.3,1.3,1.8c-0.1,0.5,0.3,1.7,1.3,2.1c0.7,0.1,1.4,0.2,2.1,0.3c0.7,0,1.4,0.1,2.1,0.1c0.2,0.2,0.3,0.4,0.5,0.6
			c0.3,0.9,0.8,1.6,1.9,1.3c0.8,0,2.4,0.3,4,0c1.6-0.3,2.4-0.9,3.6-1.5c1.2-0.6,2.3-1.5,3.5-2.2c0.7-0.5,1.4-0.8,1.4,0.4
			c-0.1,2.4-0.7,4.8-2.1,6.8c-0.1,0.2-0.2,0.4-0.3,0.7c-0.6,3.3-7.9,21.4-8.9,25c-1,3.6-1.9,7.4-2.2,8.1c-0.1,0.3-0.1,0.5-0.2,0.8
			c-0.4,1.2-0.9,2.5-1.1,3.7c-0.2,0.8-0.6,2.8,0,2.6c2-0.9,0.7,1.2-1.1,2.4c-1.1,0.1-4,6.6-4.4,10.1c-0.2,2.1-1.6,5.2-1.1,6
			c0.1,0.2,0.5,0.5,0.3,0.6c-1.5,0.6-2.5,6.6-2.5,6.6s0.5,0.3,0.2,0.5c-0.2,0.2-0.3,0.3-0.4,0.4c-0.3,0.3-1.9,3.7-2.2,4.4
			c-0.1,0.2-1.6,3.3-1.8,3.7c-1.1,1.5-1.4,5.3-1,7.2c0.3,1.2,0.5-0.2,0.5,1c0,0.3-0.1,0.5-0.1,0.8c0,0.6,0.4,4.1,0.9,4.3
			c1,0.4,1-0.6,1.3-1.2c0.1-0.2,0.2-0.3,0.4-0.5c-0.1-0.2,0.9-1.2,1.1-1.3c0.2,0.1-0.9,3.1-0.1,2.9c0.8-0.2,3-7.7,3.2-8.2
			c0.4-0.8,0.9-1.7,1.3-2.5c0.4-0.1,0.8-0.2,1.1-0.3c0.4,0.1,0.8,0.2,1.2,0.3c0.1,0.2,0.3,0.4,0.4,0.6c0,0.6-0.1,1.2,0.1,1.8
			c0.1,0.3,0.4,0.5,0.7,0.8c0.2-0.3,0.5-0.5,0.7-0.8c0.2-0.5,0.4-0.9,0.6-1.4c2-4.8,4-9.6,6.1-14.3c0.4-1,0.7-2.2,1.2-3.2
			c0.1-0.2,1.7-2.7,1.9-2.3c0.2,0.3,0.6,0.6,0.6,1c0.1,0.6-0.2,1.2-0.1,1.8c0.1,0.4,0.4,1.1,0.7,1.1c0.4,0.1,0.9-0.3,1.2-0.6
			c0.4-0.5,0.8-1.2,1-1.9c0.4-1.5,3-14.9,6-28c3-12.8,7.1-26.5,7.5-26.5c0.9,0,1.4-0.4,1.6-1.3c0.4-1.8,0.8-3.7,1.2-5.5
			c0.2-0.7,0.4-1.5,0.6-2.2c0.2-0.5,0.4-1,0.6-1.4c0.6-1.2,1.2-2.3,1.9-3.5c0.5-0.9,1.2-1.2,1.6,0.1c0.3,1,1,1.2,1.4,0.3
			c1-1.9,2.1-3.9,2.6-6c0.3-1.5,1.1-2.3,2.3-2.9c7.3-3.4,14.5-3.1,21.5,0.9c2.9,1.6,4.1,3.9,3.4,6.7c-0.6,2.5-1.6,5-3.2,7.1
			c-2.3,3-4.4,6-6.6,9.1c-1.8,2.5-6.1,3-8.4,0.8c-1.1-1.1-2.2-2.1-3.4-3c-1-0.8-2.5-0.5-2.8,0.6c-0.3,1-0.6,2.2,0.5,3.1
			c1.1,0.9,2.3,1.7,3.2,2.8c0.5,0.6,0.9,1.7,0.7,2.4c-0.1,0.5-1.1,1.2-1.8,1.2c-1.3,0.1-2.6-0.2-3.9-0.3c-0.7,0-1.6,0-1.9,0.4
			c-0.6,0.9-1.7,2.1-1.7,3.2C400.7,358.1,404.3,361.3,405.1,361.5z"/>
		<path class="st0" d="M505.2,447.8c-3.2-1.9-6.4-3.7-9.7-5.6c-2.1-1.2-4.3-2.2-6-3.8c-7.8-7.3-15.4-14.9-23.2-22.2
			c-3-2.8-6.1-5.6-10.2-6.9c-1.8-0.6-3.5-1.5-5.2-2.5c-1-0.6-2.1-1.4-2.6-2.4c-2.2-3.8-5.8-6-9-8.7c-3.8-2.9-6.1-7.4-10.5-9.6
			c-0.3-0.2-0.6-0.5-0.9-0.8c-2.9-3.8-6-7.3-9.5-10.5c-3.7-3.2-6.7-7.2-11-9.8c-1-0.6-1.8-1.6-2.6-2.5c-0.1-0.1-1.9-1.8-3-2.4
			c-1.1-0.6-3.8-1.3-5.7-1.9c-2.4-0.7-3.3,0-3.7,2.5c-0.1,0.9-0.2,1.8-0.2,2.7c0,1.9,0.3,2.2,2.3,2.4c0.8,0.1,1.8,0,2.3,0.5
			c1.2,1.2,2.6,1.1,4,0.9c1.4-0.2,2.2,0.3,3,1.4c1.6,2.1,3.2,4.2,5.2,5.8c2.6,2,4.7,4.4,7,6.7c2.6,2.6,4.9,5.7,8.4,7.4
			c1.3,0.6,2.1,2.3,3.2,3.5c1.1,1.2,1.9,2.6,3.2,3.6c2,1.5,4.3,2.7,6.4,4c0.8,0.6,1.6,1.2,2.3,1.9c1.6,1.4,3.4,2.6,4.7,4.2
			c1.1,1.4,2.2,2.4,4,2.9c1.8,0.6,3.6,1.6,5,2.8c4.5,3.8,8.9,7.7,13.3,11.6c3,2.7,5.8,5.6,10,6.6c0.9,0.2,1.7,1.1,2.4,1.7
			c1.7,1.4,3.4,2.8,5.1,4.2c0.5,0.4,1,0.7,1.4,1.1c0.1,0.2,0.2,0.3,0.4,0.5c4.8,4,10.4,7,15,11.3c0.9,0.8,2.7,0.5,3.6,1.3
			c14.7,13.8,15,10.6,15.5,10.4C519.8,459.6,505.5,448,505.2,447.8z"/>
		<path class="st0" d="M482.1,445.1c-0.5-1.5-1.5-2.1-2.5-2.8c-1.3-0.9-2.8-1.6-4.2-2.4c-2-1.2-4.1-2.2-4.9-4.6
			c-0.2-0.7-1-1.5-1.7-1.6c-2.8-0.5-4.3-3.5-7.2-3.6c-0.4,0-0.7-0.7-1-1c-0.7-0.7-1.5-1.4-2.2-2.1c-1.5-1.7-4-2.4-4.7-4.8
			c-0.1-0.3-1-0.5-1.5-0.7c-2.9-0.6-5.3-2.1-6.4-4.9c-0.8-2.1-2.3-3.5-3.7-5c-1.2-1.3-2.5-1.9-4.3-1.7c-1.4,0.2-2.5-0.2-3.2-1.7
			c-0.3-0.6-0.9-1-1.4-1.6c-0.7-0.8-1.3-1.5-2-2.3c-0.2-0.2-0.3-0.5-0.5-0.7c0-0.2-0.1-0.4-0.2-0.5c-0.3-1.8-1.1-3.1-2.7-4
			c-2.5-2.1-5.1-4-7.4-6.2c-3.1-3-6.1-6.2-7.1-10.7c-0.3-1.4-1.4-2.7-2.5-3.7c-1.8-1.6-3.9-3-6-4.1c-3.2-1.7-6.3-3.7-9.9-4.4
			c-1.2-0.2-2.3-0.7-3.1,0.6c-0.5,0.8,0.1,1.4,0.8,1.9c0.4,0.3,0.9,0.6,1.3,0.6c2.1,0,3,1.5,3.6,3.1c0.7,2.3,2.2,3.4,4.6,3.7
			c2,0.3,4.1,1,4.8,3.2c1.2,3.8,3.8,6.6,6.9,8.9c2.8,2.2,5.3,4.6,7.4,7.5c0.4,0.6,0.8,1.2,1.3,1.6c2.1,1.7,4.2,3.3,6.4,5
			c0.2,0.2,0.4,0.4,0.6,0.6c0.6,0.6,1.2,1.2,1.8,1.8c1.6,2.9,4.1,4.7,7.3,5.4c0.4,0.2,0.8,0.3,1.3,0.5c0.7,0.6,1.5,1.2,2.2,1.9
			c1.1,1.2,2.1,2.6,3.3,3.9c0.8,0.9,1.9,1.5,2.8,2.3c3.3,2.6,6.5,5.2,9.8,7.6c3.4,2.5,7,4.8,10.4,7.2c1.6,1.1,3.1,2.3,4.5,3.5
			c2.4,2.2,4.7,4.4,7.7,5.8c1.2,0.6,2.2,1.6,3.3,2.4c0.2,0,14.2,9.5,15.5,10.6c0.8,0.7,6.5,4.3,11.6,8.3c3.7,2.8,6.8,6.1,9,7.5
			c9.8,6.6,6.1,1.8,6.4,1.8c-0.3-0.4-36.2-26.5-36.5-27C488.8,449.4,482.5,446.3,482.1,445.1z"/>
		<path class="st0" d="M375.5,403.3c-0.8,0-1.6,0.6-2.3,1c-0.3,0.2-0.4,0.7-0.5,1.1c-0.3,1.2-0.5,2.4-0.7,3.5
			c-0.3,1.6-0.1,3.4-1.8,4.6c-0.8,0.5-0.3,1.3,0.2,1.8c0.6,0.7,1.4,0.5,1.8-0.1c0.8-1.3,1.5-2.6,2.1-4c0.8-1.9,1.9-4.9,2.2-6.1
			C376.9,403.9,375.8,403.3,375.5,403.3z"/>
		<path class="st0" d="M172,399.2c4.3,1.8,9.2,2.3,14.1,1.3c2-0.4,2.4-0.5,5.7-2.4c3.2-1.9,5.4-6.5,6.1-6.7s2.7-0.4,3.4,0.2
			c0.4,0.3,1.4,1.6,2.6,2.6c1.3,1,0,0.9,1,2.2c0.9,1.3,2.3-0.1,2.3,0.5c0,0.7,0.5,1.2,1.6,1.2c1.1,0,0.8-4.2,0.6-6.6
			c-0.2-1.4-0.7-6.8-0.6-8c0.1-1.2,0.4-3.2,0.6-4.8c-0.1-2.1,1.7-8.9,2-10.4c-0.1-0.2,1.3-4.1,2.1-7.9c0.8-3.8,1.5-8.3,1.5-9.7
			c0.1-2.2,0.5-5.9,0.2-6.6c-0.2-0.7-1.6-0.4-2.1-0.1c-0.5,0.3-0.3,0.5-0.4,0.7l0,0.1c-0.1,0-0.2,0-0.3,0.1
			c-1.9,0.3-2.9-1.6-3.6-1.8c-0.7-0.3-1.3-0.3-2.2-0.2c-0.9,0.1-4.3,3.5-5.9,4.3c-1.6,0.8-7.1,3.2-8.9,2.9c-0.2,0.2-0.3,0.2-0.6,0.2
			c-0.7,0.8-1.4,2.1-2.2,2.2c-3.9,0.4-6.2,3.3-8.9,5.5c-0.5,0.6-1.2,1.2-1.4,1.9c-0.7,2.1-1.5,3.5-3.7,4.6c-0.1,0.1-0.2,0.4-0.2,0.5
			c0.1,0.1,0.3,0.2,0.5,0.3c1.3,0,2.9-1.1,2.9-1.1s6.6-2.8,9.9-4.3c1.4-0.6,2.8-1,4.3-0.2c0.6,0.3,1.5-0.1,2.3-0.2
			c0.3-0.2,0.6-0.3,0.9-0.5c0.3-0.1,0.6-0.2,0.9-0.2l0.6-0.1c0.4,0.1,0.8,0.1,1.3,0.2c-0.8,2.3-1.1,6.3-1.2,7
			c-0.1,0.7-0.4,1.1-0.5,1.7c-0.2,0.9-0.5,1.7-0.6,2.6c-0.4,2.9-1,5.7-1.1,8.6c-0.1,1.8,1,4.5,1.5,5.2c0.6,0.7,1.2,1.6,0.2,2.4
			c-1,0.8-1.7,1.5-2.6,2.3c-1.1,0.4-3.2,2-6.3,2.5c-3.1,0.5-5.8,0.4-10.2-1.6c-4.4-2-7.9-5.5-10.4-7.7c-2.4-2.2-6-10.6-6.2-14.4
			c-0.3-3.8,0.1-7.7,0.2-9.2c0.1-1.5,1-6.7,2.4-10.3c1.4-3.6,5.4-8.6,6-9.2c2.1-2,4.2-4,6.3-6.1c2.4-1.8,6.1-5.1,11.5-8
			c1.2-0.6,7.9-4.4,13-4.8c1.5-0.1,2.9-0.7,4.4-1.2c1.3-0.5,2-1.4,1.4-2.8c-0.4-1-0.4-2,0.7-2.2c1.4-0.4,0.1-2.5-0.5-2.4
			c-0.7,0.2-1.4,0.5-2.5-0.2c-1.1-0.7-2.1-2.2-2.4-4c-0.2-0.8,1.1-0.7,0.3-1.8c-0.8-1-2.2-0.4-2.9-0.9c-0.2-0.1-0.4-0.1-0.6-0.2
			c-0.8-0.1-1.6-0.2-2.4-0.3c-0.1-0.1-0.2-0.2-0.4-0.3c-0.8-0.9-1.7-1-3-0.9c-3.7,0.3-7,1.7-10.6,2.5c-1.3,0.4-2.5,0.9-3.8,1.3
			c-0.5,0.4-1.1,0.9-1.6,1.3c-1.5,1-3,2-4.5,3.1c-0.2,0.2-0.4,0.4-0.5,0.6l-0.1,0.1c-0.5,0.6-0.9,1.2-1.4,1.8
			c-0.1,0.2-0.3,0.4-0.4,0.6c-0.4,0.4-0.8,0.8-1.2,1.2c-0.2,0.2-0.4,0.4-0.6,0.6c-0.4,0.2-0.7,0.5-1.1,0.7l0,0
			c-0.2,0.4-0.5,0.8-0.7,1.2l0,0.2c-0.3,0.3-0.6,0.7-1,1c-0.3,0.3-0.6,0.7-0.8,1c-0.2,0.3-0.4,0.5-0.6,0.8c-0.2,0.2-0.4,0.3-0.6,0.5
			c-0.4,0.5-0.7,0.9-1.1,1.4l-0.1,0.1c-0.5,0.6-0.9,1.1-1.4,1.7c-0.2,0.3-0.3,0.5-0.5,0.8c-0.7,1.2-1.4,2.4-2.2,3.6
			c-0.2,0.1-0.3,0.2-0.3,0.5c-0.2,0.5-0.4,0.9-0.6,1.4c-0.2,0.4-0.4,0.7-0.6,1.1v0c-2.1,1.6-3.2,3.8-3.8,6.2
			c-0.1,0.2-0.3,0.3-0.4,0.5c-0.2,0.6-0.5,1.3-0.7,1.9c-0.4,1-0.7,2-1.1,3c-2.2,4.1-2.8,8.6-3.1,13c-0.4,5.8-0.3,11.7,1.1,17.5
			c0.5,1.9,3.7,9.3,5.4,11.7c1.6,2.5,6,7.3,8.7,9.2C165.1,395.9,167.6,397.4,172,399.2z"/>
		<path class="st0" d="M519,436.9c-2.8-2-5.6-4-8.4-6c-0.6-0.4-1-1.6-1.8-0.8c-0.3,0.3,0.1,1.5,0.4,2.2c0.2,0.5,0.8,0.9,1.3,1.3
			c2.9,2.1,5.9,4.3,8.9,6.3c0.8,0.5,1.9,0.7,2.8,1c0.2,0,0.4-0.2,0.7-0.4c-0.3-0.3-0.4-0.6-0.7-0.8
			C521.2,438.7,520.2,437.7,519,436.9z"/>
		<path class="st0" d="M538.7,449.2c-0.2-0.2-4.1-2.3-4.3-2.5c-0.8-0.6-1.3-0.4-2.2-1c-1.6-1.1-3.1-2.4-4.6-3.6
			c-0.8-0.6-2-1.1-2.2,0.1c-0.1,0.8,0.1,1.8,0.9,2.2c0.3,0.2,0.5,0.3,0.8,0.5c1.6,0.8,3.1,1.6,4.7,2.4c0.7,0.4,10.7,7.4,12.4,7.1
			c1.6-0.3,0.2-2.2,0.2-2.2S539,449.5,538.7,449.2z"/>
	</g>
	<path class="st0" d="M518.5,449.9c0,0,7.1,4.8,9.7,6.1c2.7,1.2,4.2,2.3,3.3,0.8c-0.9-1.4,0-1.1-3-2.9c-3-1.7-4.6-2.4-5.9-3.7
		c-1.3-1.3-4-2.5-4.1-1.5C518.4,449.6,518.5,449.9,518.5,449.9z"/>
	<path class="st0" d="M524.5,465.6c3,1.7,4.4,3.1,3.4,0.4c-1-2.7-2.7-2.2-4.9-3.3c-2.3-1.1-2.3,0-1.8,0.6L524.5,465.6z"/>
</g>
</svg>
