<?xml version="1.0" encoding="utf-8"?>
<!-- Generator: Adobe Illustrator 19.0.0, SVG Export Plug-In . SVG Version: 6.00 Build 0)  -->
<svg version="1.1"
	 id="Ebene_1" xmlns:odm="http://product.corel.com/CGS/11/cddns/" xmlns:corel-charset="http://product.corel.com/CGS/11/cddns/"
	 xmlns="http://www.w3.org/2000/svg" xmlns:xlink="http://www.w3.org/1999/xlink" x="0px" y="0px" viewBox="-22 353 566.9 88"
	 style="enable-background:new -22 353 566.9 88;" xml:space="preserve">
<style type="text/css">
	.st0{fill:#FFFFFF;}
	.st1{fill:#CA2825;}
	.st2{fill:#FDC601;}
	.st3{fill:#009C37;}
	.st4{fill:#02559C;}
</style>
<g>
	<path class="st0" d="M-21.4,405.4v-7.7h60.6v-8.8h-60.6l-0.4-23.8H47v7.7h-60.6l0.4,8.4h60.6v24.3L-21.4,405.4L-21.4,405.4z"/>
	<path class="st0" d="M52.4,405.4v-40.2h8.2v40.2H52.4L52.4,405.4z"/>
	<path class="st0" d="M65,405.4v-40.2h68.8v40.2h-8.2v-32.5H73.3v32.5L65,405.4L65,405.4L65,405.4z"/>
	<path class="st0" d="M138.2,405.4v-40.2h68.9v7.7h-60.6v24.8h60.6v7.7L138.2,405.4L138.2,405.4z"/>
	<path class="st0" d="M212.6,405.4V353h8.2v52.3L212.6,405.4L212.6,405.4z"/>
	<path class="st0" d="M299,405.4v-40.2h8.3v40.2H299L299,405.4z"/>
	<path class="st0" d="M312.3,405.4v-40.2h68.8v7.7h-60.6v32.5L312.3,405.4L312.3,405.4L312.3,405.4z"/>
	<path class="st0" d="M225.2,365.1v7.7h60.6v8.8h-60.6v23.7h68.9v-40.2H225.2z M285.8,397.6h-52.3v-8.8h52.3V397.6z"/>
	<path class="st0" d="M52.4,360.8V353h8.2v7.7H52.4L52.4,360.8z"/>
	<path class="st0" d="M299,360.8V353h8.3v7.7H299L299,360.8z"/>
	<g>
		<path class="st0" d="M-22,433.3l9.7-11.6h-8.9v-3.3H-7v3.1l-9.7,11.6h9.9v3.3H-22V433.3L-22,433.3z"/>
		<path class="st0" d="M0,426.9l-5.8-8.6h4.6l3.5,5.8l3.7-5.8h4.4L4.5,427l6.3,9.4H6.1l-3.9-6.2l-4,6.2h-4.5L0,426.9z"/>
		<path class="st0" d="M22.2,430.4c0,2.4,1.9,3.3,4,3.3c1.4,0,3.5-0.4,3.5-2.3c0-1.9-2.7-2.3-5.4-3c-2.7-0.7-5.4-1.7-5.4-5.1
			c0-3.7,3.5-5.5,6.8-5.5c3.8,0,7.2,1.6,7.2,5.8h-3.8c-0.1-2.2-1.7-2.7-3.6-2.7c-1.3,0-2.7,0.5-2.7,2c0,1.4,0.9,1.6,5.4,2.7
			c1.3,0.3,5.4,1.2,5.4,5.3c0,3.3-2.6,5.8-7.5,5.8c-4,0-7.7-2-7.7-6.4H22.2L22.2,430.4z"/>
		<path class="st0" d="M35.5,423.3h3.4v1.7H39c0.9-1.4,2.3-2,3.9-2c4.1,0,5.9,3.3,5.9,7c0,3.5-1.9,6.8-5.7,6.8c-1.6,0-3.1-0.7-3.9-2
			h-0.1v6.2h-3.6L35.5,423.3L35.5,423.3z M45.2,429.9c0-2.1-0.8-4.2-3.1-4.2c-2.4,0-3.1,2.1-3.1,4.2c0,2.1,0.8,4.1,3.1,4.1
			C44.5,434,45.2,432,45.2,429.9z"/>
		<path class="st0" d="M53.9,430.7c0.1,2.3,1.2,3.3,3.2,3.3c1.4,0,2.6-0.9,2.8-1.7h3.2c-1,3.1-3.2,4.4-6.1,4.4
			c-4.1,0-6.7-2.8-6.7-6.9c0-3.9,2.7-6.9,6.7-6.9c4.5,0,6.6,3.7,6.3,7.8L53.9,430.7L53.9,430.7z M59.8,428.5
			c-0.3-1.8-1.1-2.8-2.9-2.8c-2.3,0-2.9,1.8-3,2.8H59.8z"/>
		<path class="st0" d="M74.4,427.9c-0.2-1.5-1.2-2.3-2.7-2.3c-2.3,0-3.1,2.3-3.1,4.2c0,1.9,0.7,4.1,3,4.1c1.7,0,2.6-1.1,2.9-2.7H78
			c-0.5,3.5-2.9,5.4-6.3,5.4c-3.9,0-6.6-2.8-6.6-6.7c0-4.1,2.4-7.1,6.7-7.1c3.1,0,5.9,1.6,6.1,5L74.4,427.9L74.4,427.9z"/>
		<path class="st0" d="M84.6,423.3h2.6v2.4h-2.6v6.5c0,1.2,0.3,1.5,1.5,1.5c0.4,0,0.7,0,1.1-0.1v2.8c-0.6,0.1-1.4,0.1-2.1,0.1
			c-2.2,0-4.1-0.5-4.1-3.1v-7.7h-2.2v-2.4H81v-3.9h3.6V423.3L84.6,423.3z"/>
		<path class="st0" d="M88.9,423.3h3.4v2.4h0.1c0.7-1.6,2.4-2.8,4.2-2.8c0.3,0,0.6,0,0.8,0.1v3.3c-0.3-0.1-0.9-0.1-1.3-0.1
			c-2.6,0-3.5,1.9-3.5,4.2v5.9h-3.6L88.9,423.3L88.9,423.3z"/>
		<path class="st0" d="M111,436.4h-3.4v-1.8h-0.1c-0.9,1.5-2.5,2.2-4,2.2c-3.8,0-4.8-2.1-4.8-5.4v-8h3.6v7.4c0,2.1,0.6,3.2,2.3,3.2
			c1.9,0,2.8-1.1,2.8-3.7v-6.9h3.6L111,436.4L111,436.4z"/>
		<path class="st0" d="M113.9,423.3h3.4v1.8h0.1c0.9-1.3,2.3-2.1,4-2.1c1.6,0,3.1,0.6,3.8,2.2c0.8-1.1,2.1-2.2,3.9-2.2
			c2.8,0,4.8,1.3,4.8,4.7v8.8h-3.6V429c0-1.7-0.1-3.2-2.2-3.2c-2,0-2.4,1.7-2.4,3.3v7.3H122v-7.3c0-1.5,0.1-3.3-2.2-3.3
			c-0.7,0-2.4,0.5-2.4,3v7.6h-3.6L113.9,423.3L113.9,423.3z"/>
	</g>
	<g>
		<polygon class="st1" points="408,355.2 347.9,415.3 382.1,415.3 442.2,355.2 		"/>
		<polygon class="st2" points="442.2,355.2 382.1,415.3 416.3,415.3 476.5,355.2 		"/>
		<polygon class="st3" points="476.5,355.2 416.4,415.3 450.6,415.3 510.7,355.2 		"/>
		<polygon class="st4" points="510.7,355.2 450.6,415.3 484.8,415.3 544.9,355.2 		"/>
	</g>
</g>
</svg>
