<?xml version="1.0" encoding="utf-8"?>
<!-- Generator: Adobe Illustrator 19.0.0, SVG Export Plug-In . SVG Version: 6.00 Build 0)  -->
<svg version="1.1" id="Ebene_2" xmlns="http://www.w3.org/2000/svg" xmlns:xlink="http://www.w3.org/1999/xlink" x="0px" y="0px"
	 viewBox="-22 312.4 366 234" style="enable-background:new -22 312.4 366 234;" xml:space="preserve">
<style type="text/css">
	.st0{fill:url(#SVGID_1_);}
	.st1{fill:url(#SVGID_2_);}
	.st2{fill:url(#SVGID_3_);}
	.st3{fill:url(#SVGID_4_);}
	.st4{fill:url(#SVGID_5_);}
	.st5{fill:url(#SVGID_6_);}
	.st6{fill:url(#SVGID_7_);}
	.st7{fill:url(#SVGID_8_);}
	.st8{fill:#BB3031;}
	.st9{fill:url(#SVGID_9_);}
	.st10{fill:#C62C2D;}
	.st11{fill:#C82A34;}
	.st12{fill:url(#SVGID_10_);}
	.st13{fill:url(#SVGID_11_);}
	.st14{fill:url(#SVGID_12_);}
	.st15{fill:url(#SVGID_13_);}
	.st16{fill:#C32E35;}
	.st17{fill:url(#SVGID_14_);}
	.st18{fill:url(#SVGID_15_);}
	.st19{fill:url(#SVGID_16_);}
	.st20{fill:url(#SVGID_17_);}
	.st21{fill:url(#SVGID_18_);}
	.st22{fill:none;stroke:#E3CE35;stroke-width:2;stroke-linecap:round;stroke-linejoin:round;stroke-miterlimit:10;}
	.st23{fill:#E3CE35;}
	.st24{fill:#FFFFFF;}
</style>
<linearGradient id="SVGID_1_" gradientUnits="userSpaceOnUse" x1="339.4226" y1="-325.4285" x2="261.2771" y2="-289.1084" gradientTransform="matrix(1 0 0 -1 -0.1797 27.5435)">
	<stop  offset="0" style="stop-color:#522628"/>
	<stop  offset="1" style="stop-color:#CF3549"/>
</linearGradient>
<polyline class="st0" points="337.4,340.2 244.9,312.4 231.1,312.4 336.9,363.8 "/>
<linearGradient id="SVGID_2_" gradientUnits="userSpaceOnUse" x1="181.746" y1="-357.3306" x2="113.7918" y2="-450.5447" gradientTransform="matrix(1 0 0 -1 -0.1797 27.5435)">
	<stop  offset="0" style="stop-color:#97232A"/>
	<stop  offset="1" style="stop-color:#412625"/>
</linearGradient>
<polygon class="st1" points="129.8,478.4 101.7,479.2 208.9,324.8 211.5,324.8 "/>
<linearGradient id="SVGID_3_" gradientUnits="userSpaceOnUse" x1="245.6958" y1="-358.5685" x2="265.4242" y2="-442.963" gradientTransform="matrix(1 0 0 -1 -0.1797 27.5435)">
	<stop  offset="0" style="stop-color:#97232A"/>
	<stop  offset="1" style="stop-color:#412625"/>
</linearGradient>
<polygon class="st2" points="319.2,478.2 214.9,478.5 219.1,324.9 228.1,324.9 "/>
<linearGradient id="SVGID_4_" gradientUnits="userSpaceOnUse" x1="282.9162" y1="-371.7358" x2="326.6339" y2="-438.7514" gradientTransform="matrix(1 0 0 -1 -0.1797 27.5435)">
	<stop  offset="0" style="stop-color:#97232A"/>
	<stop  offset="1" style="stop-color:#412625"/>
</linearGradient>
<polygon class="st3" points="336.9,456.5 318,479 228.3,324.8 230,322.7 "/>
<linearGradient id="SVGID_5_" gradientUnits="userSpaceOnUse" x1="286.5391" y1="-391.2535" x2="300.9275" y2="-420.6971" gradientTransform="matrix(1 0 0 -1 -0.1797 27.5435)">
	<stop  offset="0" style="stop-color:#9C2A2A"/>
	<stop  offset="1" style="stop-color:#812A2D"/>
</linearGradient>
<polygon class="st4" points="270.6,456.5 224.1,322.7 230,322.7 338,454.6 "/>
<linearGradient id="SVGID_6_" gradientUnits="userSpaceOnUse" x1="187.0974" y1="-358.4225" x2="170.2965" y2="-389.6657" gradientTransform="matrix(1 0 0 -1 -0.1797 27.5435)">
	<stop  offset="0" style="stop-color:#CF3549"/>
	<stop  offset="1" style="stop-color:#B82B35"/>
</linearGradient>
<polygon class="st5" points="174.4,424.6 128.8,479.4 211.5,324.8 215.3,320 "/>
<linearGradient id="SVGID_7_" gradientUnits="userSpaceOnUse" x1="197.7633" y1="-395.3398" x2="184.4949" y2="-411.9765" gradientTransform="matrix(1 0 0 -1 -0.1797 27.5435)">
	<stop  offset="0" style="stop-color:#A32C2E"/>
	<stop  offset="1" style="stop-color:#832F33"/>
</linearGradient>
<polygon class="st6" points="216.7,479.4 172.6,424.8 215.3,320 219.2,324.8 "/>
<linearGradient id="SVGID_8_" gradientUnits="userSpaceOnUse" x1="254.0204" y1="-363.1108" x2="269.5794" y2="-403.0954" gradientTransform="matrix(1 0 0 -1 -0.1797 27.5435)">
	<stop  offset="0" style="stop-color:#CF3549"/>
	<stop  offset="1" style="stop-color:#B82B35"/>
</linearGradient>
<polygon class="st7" points="271.7,410.5 269.3,456.5 224.1,322.7 224.1,318.9 "/>
<polygon class="st8" points="319.2,412.2 271.2,415.2 224.1,318.9 228.2,318.9 "/>
<linearGradient id="SVGID_9_" gradientUnits="userSpaceOnUse" x1="216.2982" y1="-432.4192" x2="211.5787" y2="-354.4034" gradientTransform="matrix(1 0 0 -1 -0.1797 27.5435)">
	<stop  offset="0" style="stop-color:#C42D2C"/>
	<stop  offset="1" style="stop-color:#C73237"/>
</linearGradient>
<polygon class="st9" points="187.8,406.6 216.7,318.3 221.2,323.9 231.6,413.7 238.4,413.3 237.2,465.8 "/>
<polygon class="st10" points="239.8,413 212.9,415.2 218.9,318.9 221.2,318.9 "/>
<polygon class="st11" points="101.7,479.2 208.9,324.8 214,318.4 157.5,409.3 "/>
<linearGradient id="SVGID_10_" gradientUnits="userSpaceOnUse" x1="328.9482" y1="-374.3612" x2="264.2346" y2="-321.7371" gradientTransform="matrix(1 0 0 -1 -0.1797 27.5435)">
	<stop  offset="0" style="stop-color:#522628"/>
	<stop  offset="1" style="stop-color:#CF3549"/>
</linearGradient>
<polygon class="st12" points="336.9,388.4 318.4,413.6 228.2,318.9 229.9,316.8 "/>
<linearGradient id="SVGID_11_" gradientUnits="userSpaceOnUse" x1="224.2367" y1="-326.2935" x2="337.2137" y2="-326.2935" gradientTransform="matrix(1 0 0 -1 -0.1797 27.5435)">
	<stop  offset="0" style="stop-color:#CF3549"/>
	<stop  offset="1" style="stop-color:#B82B35"/>
</linearGradient>
<polygon class="st13" points="269.2,390.9 224.1,316.8 229.9,316.8 337,388.5 "/>
<polygon class="st8" points="338,362.4 337.4,362.4 272,365.8 224.1,314.5 230.1,314.5 "/>
<linearGradient id="SVGID_12_" gradientUnits="userSpaceOnUse" x1="203.8502" y1="-352.0271" x2="250.3631" y2="-294.7325" gradientTransform="matrix(1 0 0 -1 -0.1797 27.5435)">
	<stop  offset="0" style="stop-color:#C42D2C"/>
	<stop  offset="1" style="stop-color:#C73237"/>
</linearGradient>
<polygon class="st14" points="211.5,413 218.9,317.8 224.1,312.4 271.3,337.9 "/>
<linearGradient id="SVGID_13_" gradientUnits="userSpaceOnUse" x1="198.5421" y1="-329.8462" x2="216.6677" y2="-335.2934" gradientTransform="matrix(1 0 0 -1 -0.1797 27.5435)">
	<stop  offset="0" style="stop-color:#D44355"/>
	<stop  offset="1" style="stop-color:#CF3632"/>
</linearGradient>
<polygon class="st15" points="241.7,341.6 187,405.9 216.7,318.3 221.4,312.4 "/>
<polygon class="st16" points="172.8,386.6 215.4,316.7 218.8,312.4 211.6,341.6 173.9,387.5 "/>
<linearGradient id="SVGID_14_" gradientUnits="userSpaceOnUse" x1="215.0138" y1="-302.2379" x2="231.8917" y2="-298.0546" gradientTransform="matrix(1 0 0 -1 -0.1797 27.5435)">
	<stop  offset="0" style="stop-color:#D44355"/>
	<stop  offset="0.5024" style="stop-color:#CF3632"/>
	<stop  offset="1" style="stop-color:#D44254"/>
</linearGradient>
<polygon class="st17" points="210.3,341.6 218.8,312.4 221.4,312.4 242.7,339.3 "/>
<linearGradient id="SVGID_15_" gradientUnits="userSpaceOnUse" x1="134.825" y1="-344.3922" x2="148.7157" y2="-332.3617" gradientTransform="matrix(1 0 0 -1 -0.1797 27.5435)">
	<stop  offset="0" style="stop-color:#972832"/>
	<stop  offset="1" style="stop-color:#A7313D"/>
</linearGradient>
<polygon class="st18" points="159.5,408.6 105,339.4 203.4,312.4 214,318.4 "/>
<linearGradient id="SVGID_16_" gradientUnits="userSpaceOnUse" x1="168.4487" y1="-292.9485" x2="143.8622" y2="-305.8824" gradientTransform="matrix(1 0 0 -1 -0.1797 27.5435)">
	<stop  offset="0" style="stop-color:#D44355"/>
	<stop  offset="1" style="stop-color:#CF3632"/>
</linearGradient>
<polygon class="st19" points="105,338.9 203.4,312.4 212,312.4 132.6,341.6 "/>
<linearGradient id="SVGID_17_" gradientUnits="userSpaceOnUse" x1="248.9155" y1="-298.296" x2="298.3116" y2="-298.296" gradientTransform="matrix(1 0 0 -1 -0.1797 27.5435)">
	<stop  offset="0" style="stop-color:#D44355"/>
	<stop  offset="1" style="stop-color:#CF3632"/>
</linearGradient>
<polygon class="st20" points="272.2,339.3 224.1,312.4 249.5,312.4 338.8,338.9 "/>
<linearGradient id="SVGID_18_" gradientUnits="userSpaceOnUse" x1="210.6801" y1="-287.0768" x2="156.1807" y2="-333.5527" gradientTransform="matrix(1 0 0 -1 -0.1797 27.5435)">
	<stop  offset="0" style="stop-color:#C42D32"/>
	<stop  offset="0.7918" style="stop-color:#CA343A"/>
</linearGradient>
<polygon class="st21" points="134.9,339.3 212,312.4 215.4,316.7 172.8,386.6 "/>
<g>
	<path class="st22" d="M237.2,470"/>
</g>
<g>
	<path class="st23" d="M216.1,481c-0.5,0-0.9-0.2-1.2-0.6L173.2,428l-41.7,52.4c-0.3,0.4-0.7,0.6-1.2,0.6h-29.1
		c-0.6,0-1.1-0.3-1.4-0.9c-0.3-0.5-0.2-1.2,0.2-1.6l56.6-71.2l-52.6-66.1c-0.4-0.5-0.4-1.1-0.2-1.6c0.3-0.5,0.8-0.9,1.4-0.9l0,0
		l30.6,0c0.5,0,0.9,0.2,1.2,0.6l36.8,46.3l36.8-46.3c0.3-0.4,0.7-0.6,1.2-0.6h29.1c0.6,0,1.1,0.3,1.4,0.9c0.3,0.5,0.2,1.2-0.2,1.6
		l-51.8,65.1l46.5,58.4v-50h-23.8c-0.6,0-1.1-0.3-1.4-0.9c-0.3-0.5-0.2-1.2,0.2-1.6l58.1-73c0.3-0.4,0.7-0.6,1.2-0.6H338
		c0.9,0,1.6,0.7,1.6,1.6v23.6c0,0.9-0.7,1.6-1.6,1.6h-65.8v22.7h63.7c0.6,0,1.1,0.3,1.4,0.9c0.3,0.5,0.2,1.2-0.2,1.6l-18.8,23.6
		c-0.3,0.4-0.7,0.6-1.2,0.6h-45v39.4h64.6c0.6,0,1.1,0.3,1.4,0.9c0.3,0.5,0.2,1.2-0.2,1.6l-18.9,23.7c-0.3,0.4-0.7,0.6-1.2,0.6
		L216.1,481C216.1,481,216.1,481,216.1,481z M173.2,424c0.5,0,0.9,0.2,1.2,0.6l42.4,53.3l0.7,0h99.7l16.4-20.6h-62.9
		c-0.9,0-1.6-0.7-1.6-1.6l0-42.5c0-0.4,0.2-0.8,0.5-1.1c0.3-0.3,0.7-0.5,1.1-0.5h45.8l16.3-20.5h-62.1c-0.9,0-1.6-0.7-1.6-1.6v-25.8
		c0-0.9,0.7-1.6,1.6-1.6h65.8v-20.5H272l-55.6,69.9l22.1,0c0.4,0,0.8,0.2,1.1,0.5c0.3,0.3,0.5,0.7,0.5,1.1v56c0,0.7-0.4,1.3-1,1.5
		c-0.6,0.2-1.3,0-1.7-0.5l-50-62.9c-0.4-0.6-0.4-1.4,0-1.9l50.6-63.6h-25.1L175.2,389c-0.3,0.4-0.7,0.6-1.2,0.6l0,0
		c-0.5,0-0.9-0.2-1.2-0.6l-37.6-47.2l-26.6,0l51.3,64.5c0.5,0.6,0.5,1.4,0,1.9l-55.4,69.7h25.1l42.4-53.3
		C172.3,424.2,172.7,424,173.2,424z"/>
</g>
<path class="st24" d="M15.4,428.6H6.5l-3.1-10.9H-9.2l-3.1,10.9h-8.8L-8.7,384c1-3.5,2.9-5.3,5.8-5.3c2.8,0,4.8,1.8,5.8,5.3
	L15.4,428.6z M1.1,409.2l-4-14.1l-4,14.1H1.1z"/>
<path class="st24" d="M37.6,387.2h-9.7v41.3h-8.5v-41.3H9.6v-8.5h28L37.6,387.2L37.6,387.2z"/>
<path class="st24" d="M68.5,428.6h-8.9l-3.1-10.9H43.8l-3.1,10.9h-8.8L44.4,384c1-3.5,2.9-5.3,5.8-5.3c2.8,0,4.8,1.8,5.8,5.3
	L68.5,428.6z M54.2,409.2l-4-14.1l-4,14.1H54.2z"/>
<path class="st24" d="M102.2,428.6h-9.9l-10.2-16c-1.5-2.3-2.3-4.1-2.3-5.4c0-2.5,1.1-4.4,3.2-6c1-0.5,2-1.1,2.9-1.6
	c1-0.5,1.9-1.1,2.9-1.6c2.1-1.4,3.2-3.1,3.2-5.2c0-1.4-0.6-2.7-1.7-3.8c-1.1-1.1-2.4-1.7-3.8-1.7h-6.7v41.3h-8.5v-44.4
	c0-1.5,0.5-2.7,1.6-3.8c1.1-1.1,2.4-1.6,3.9-1.6h9.7c3.7,0,6.9,1.3,9.7,4c2.8,2.6,4.3,5.8,4.3,9.4c0,3.4-1.1,6.5-3.3,9.3
	c-2.2,2.8-5,4.8-8.3,6L102.2,428.6z"/>
<path class="st24" d="M116.2,428.6h-8.5v-49.9h8.5V428.6z"/>
<path class="st24" d="M122,488.4l-13.1,26.3v23.6h-8.5v-23.6l-13.1-26.3h9.8l7.5,15.1l7.6-15.1H122z"/>
<path class="st24" d="M180.5,496.9h-9.7v41.3h-8.5v-41.3h-9.7v-8.5h28L180.5,496.9L180.5,496.9z"/>
<path class="st24" d="M207.9,538.3h-19.5c-1.5,0-2.8-0.5-3.9-1.6c-1.1-1.1-1.6-2.3-1.6-3.8v-39c0-1.5,0.5-2.7,1.6-3.8
	c1.1-1.1,2.4-1.6,3.9-1.6h19.5v8.5h-16.5v12.2h10.4v8.5h-10.4v12.2h16.5L207.9,538.3L207.9,538.3z"/>
<path class="st24" d="M254.8,538.3h-8.5v-24.8l-7.1,19.6c-1.3,3.5-3.1,5.2-5.4,5.2c-2.4,0-4.2-1.7-5.4-5.2l-7.1-19.6v24.8h-8.5
	v-44.4c0-1.4,0.5-2.7,1.5-3.8c1-1.1,2.3-1.7,3.6-1.7c2.3,0,4.1,1.8,5.3,5.3l10.5,29.3l10.5-29.3c1.2-3.5,3-5.3,5.3-5.3
	c1.4,0,2.6,0.6,3.6,1.7c1,1.1,1.5,2.4,1.5,3.8L254.8,538.3L254.8,538.3z"/>
<path class="st24" d="M83,513.3c-2.8-2.8-6-4.2-9.8-4.2c-1.4,0-2.7-0.6-3.8-1.7c-1.1-1.1-1.7-2.4-1.7-3.8c0-1.7,0.5-3.3,1.5-4.6
	c1-1.4,2.4-1.8,4-2c3.5-0.6,9.1,1.3,9.8,1.9l2.3-8.4c-1.5-0.6-6.2-2.1-12.1-2c-3.7,0.1-7,1.4-9.8,4.2c-2.8,2.8-4.2,6-4.2,9.8v1.2
	c0,3.7,1.4,7,4.2,9.8c2.8,2.8,6.1,4.2,9.8,4.2c1.4,0,2.7,0.6,3.8,1.7c1.1,1.1,1.7,2.4,1.7,3.8c0,1.8-0.5,3.3-1.4,4.6
	c-1,1.4-2.4,2-4.1,2.1c-3.3,0.3-7.2-0.2-10.3-1.6l-2.2,8.2c1.3,0.4,5,2,12.6,1.8c3.7-0.1,7-1.4,9.8-4.1c2.8-2.8,4.2-6,4.2-9.8v-1.3
	C87.2,519.3,85.8,516.1,83,513.3z"/>
<path class="st24" d="M145.6,513.3c-2.8-2.8-6-4.2-9.8-4.2c-1.4,0-2.7-0.6-3.8-1.7c-1.1-1.1-1.7-2.4-1.7-3.8c0-1.7,0.5-3.3,1.5-4.6
	s2.4-1.8,4-2c3.5-0.6,9.1,1.3,9.8,1.9l2.3-8.4c-1.5-0.6-6.2-2.1-12.1-2c-3.7,0.1-7,1.4-9.8,4.2c-2.8,2.8-4.2,6-4.2,9.8v1.2
	c0,3.7,1.4,7,4.2,9.8c2.8,2.8,6.1,4.2,9.8,4.2c1.4,0,2.7,0.6,3.8,1.7c1.1,1.1,1.7,2.4,1.7,3.8c0,1.8-0.5,3.3-1.4,4.6
	c-1,1.4-2.4,2-4.1,2.1c-3.3,0.3-7.2-0.2-10.3-1.6l-2.2,8.2c1.3,0.4,5,2,12.6,1.8c3.7-0.1,7-1.4,9.8-4.1c2.8-2.8,4.2-6,4.2-9.8v-1.3
	C149.8,519.3,148.4,516.1,145.6,513.3z"/>
<g>
	<path class="st24" d="M-2.1,394.9c-0.1-0.4-0.4-0.6-0.8-0.6s-0.7,0.3-0.8,0.6l-4,14.1c-0.1,0.3,0,0.5,0.1,0.7
		c0.2,0.2,0.4,0.3,0.7,0.3h7.9c0.3,0,0.5-0.1,0.7-0.3c0.2-0.2,0.2-0.5,0.1-0.7L-2.1,394.9z M-5.7,408.3l2.8-10.1L0,408.3H-5.7z"/>
	<path class="st24" d="M3.7,383.8c-1.1-3.9-3.4-5.9-6.6-5.9c-3.3,0-5.5,2-6.6,5.9L-22,428.4c-0.1,0.3,0,0.5,0.1,0.7
		c0.2,0.2,0.4,0.3,0.7,0.3h8.8c0.4,0,0.7-0.3,0.8-0.6l2.9-10.3H2.8l2.9,10.3c0.1,0.4,0.4,0.6,0.8,0.6h8.9c0,0,0,0,0,0
		c0.5,0,0.8-0.4,0.8-0.8c0-0.1,0-0.2-0.1-0.3L3.7,383.8z M7.2,427.7l-2.9-10.3c-0.1-0.4-0.4-0.6-0.8-0.6H-9.2
		c-0.4,0-0.7,0.3-0.8,0.6l-2.9,10.3H-20l12.2-43.5c0.9-3.1,2.5-4.7,5-4.7c2.4,0,4.1,1.5,5,4.7l12.2,43.5H7.2z"/>
	<path class="st24" d="M38.5,387.2v-8.5c0-0.5-0.4-0.8-0.8-0.8h-28c-0.5,0-0.8,0.4-0.8,0.8v8.5c0,0.5,0.4,0.8,0.8,0.8h8.9v40.5
		c0,0.5,0.4,0.8,0.8,0.8h8.5c0.5,0,0.8-0.4,0.8-0.8v-40.5h8.9C38.1,388.1,38.5,387.7,38.5,387.2z M36.8,386.4h-8.9
		c-0.5,0-0.8,0.4-0.8,0.8v40.5h-6.8v-40.5c0-0.5-0.4-0.8-0.8-0.8h-8.9v-6.8h26.3C36.8,379.6,36.8,386.4,36.8,386.4z"/>
	<path class="st24" d="M51,394.9c-0.1-0.4-0.4-0.6-0.8-0.6s-0.7,0.3-0.8,0.6l-4,14.1c-0.1,0.3,0,0.5,0.1,0.7
		c0.2,0.2,0.4,0.3,0.7,0.3h7.9c0.3,0,0.5-0.1,0.7-0.3c0.2-0.2,0.2-0.5,0.1-0.7L51,394.9z M47.4,408.3l2.8-10.1l2.8,10.1H47.4z"/>
	<path class="st24" d="M56.8,383.8c-1.1-3.9-3.4-5.9-6.6-5.9c-3.3,0-5.5,2-6.6,5.9l-12.5,44.6c-0.1,0.3,0,0.5,0.1,0.7
		c0.2,0.2,0.4,0.3,0.7,0.3h8.8c0.4,0,0.7-0.3,0.8-0.6l2.9-10.3h11.4l2.9,10.3c0.1,0.4,0.4,0.6,0.8,0.6h8.9c0,0,0,0,0,0
		c0.5,0,0.8-0.4,0.8-0.8c0-0.1,0-0.2-0.1-0.3L56.8,383.8z M60.2,427.7l-2.9-10.3c-0.1-0.4-0.4-0.6-0.8-0.6H43.8
		c-0.4,0-0.7,0.3-0.8,0.6l-2.9,10.3H33l12.2-43.5c0.9-3.1,2.5-4.7,5-4.7c2.4,0,4.1,1.5,5,4.7l12.2,43.5H60.2z"/>
	<path class="st24" d="M90.1,407.8c3.1-1.3,5.7-3.2,7.7-5.9c2.3-2.9,3.5-6.3,3.5-9.8c0-3.9-1.5-7.3-4.5-10c-3-2.8-6.5-4.2-10.3-4.2
		h-9.7c-1.7,0-3.2,0.6-4.5,1.9c-1.3,1.3-1.9,2.7-1.9,4.4v44.4c0,0.5,0.4,0.8,0.8,0.8h8.5c0.5,0,0.8-0.4,0.8-0.8v-16.7
		c0.2,0.4,0.4,0.7,0.7,1.1l10.2,16c0.2,0.2,0.4,0.4,0.7,0.4h9.9c0,0,0,0,0,0c0.5,0,0.8-0.4,0.8-0.8c0-0.2-0.1-0.4-0.2-0.5
		L90.1,407.8z M92.7,427.7l-10-15.6c-1.7-2.7-2.1-4.2-2.1-5c0-2.2,0.9-3.9,2.8-5.3c1-0.5,2-1.1,2.9-1.6c0.9-0.5,1.9-1.1,2.9-1.6
		c0,0,0,0,0.1,0c2.4-1.6,3.6-3.5,3.6-5.9c0-1.6-0.6-3.1-1.9-4.4c-1.3-1.3-2.8-1.9-4.4-1.9h-6.7c-0.5,0-0.8,0.4-0.8,0.8v40.5h-6.8
		v-43.6c0-1.2,0.5-2.3,1.4-3.2c0.9-0.9,2-1.4,3.3-1.4h9.7c3.4,0,6.5,1.3,9.2,3.7c2.7,2.5,4,5.4,4,8.8c0,3.2-1.1,6.2-3.1,8.8
		c-2.1,2.6-4.8,4.6-7.9,5.7c-0.2,0.1-0.4,0.3-0.5,0.5c-0.1,0.2-0.1,0.5,0.1,0.7l12.5,19.9C100.7,427.7,92.7,427.7,92.7,427.7z
		 M80.6,402.2v-14.1l5.9,0c1.2,0,2.3,0.5,3.2,1.4c1,1,1.4,2,1.4,3.2c0,1.8-0.9,3.2-2.8,4.5c-1,0.6-2,1.1-2.9,1.6
		c-0.9,0.5-1.9,1.1-2.9,1.6c0,0-0.1,0-0.1,0.1C81.7,401,81.1,401.6,80.6,402.2z"/>
	<path class="st24" d="M116.2,377.9h-8.5c-0.5,0-0.8,0.4-0.8,0.8v49.9c0,0.5,0.4,0.8,0.8,0.8h8.5c0.5,0,0.8-0.4,0.8-0.8v-49.9
		C117.1,378.2,116.7,377.9,116.2,377.9z M115.4,427.7h-6.8v-48.2h6.8V427.7z"/>
</g>
<g>
	<path class="st24" d="M122.8,487.9c-0.2-0.2-0.4-0.4-0.7-0.4h-9.9c-0.3,0-0.6,0.2-0.8,0.5l-6.8,13.6L97.8,488
		c-0.1-0.3-0.4-0.5-0.8-0.5h-9.8c-0.3,0-0.6,0.2-0.7,0.4s-0.2,0.6,0,0.8l13,26.1v23.4c0,0.5,0.4,0.8,0.8,0.8h8.5
		c0.5,0,0.8-0.4,0.8-0.8v-23.4l13.1-26.1C122.9,488.5,122.9,488.2,122.8,487.9z M108.1,514.3c-0.1,0.1-0.1,0.2-0.1,0.4v22.7h-6.8h0
		v-22.7c0-0.1,0-0.3-0.1-0.4l-12.5-25.1h7.9l7.3,14.6c0.1,0.3,0.4,0.5,0.8,0.5c0,0,0,0,0,0c0.3,0,0.6-0.2,0.8-0.5l7.3-14.6h8
		L108.1,514.3z"/>
	<path class="st24" d="M180.5,487.5h-28c-0.5,0-0.8,0.4-0.8,0.8v8.5c0,0.5,0.4,0.8,0.8,0.8h8.9v40.5c0,0.5,0.4,0.8,0.8,0.8h8.5
		c0.5,0,0.8-0.4,0.8-0.8v-40.5h8.9c0.5,0,0.8-0.4,0.8-0.8v-8.5C181.3,487.9,181,487.5,180.5,487.5z M179.6,496.1h-8.9
		c-0.5,0-0.8,0.4-0.8,0.8v40.5H163v-40.5c0-0.5-0.4-0.8-0.8-0.8h-8.9v-6.8h26.3V496.1z"/>
	<path class="st24" d="M207.9,487.5h-19.5c-1.7,0-3.2,0.6-4.5,1.9s-1.9,2.7-1.9,4.4v39c0,1.7,0.6,3.2,1.9,4.4
		c1.3,1.2,2.7,1.9,4.4,1.9h19.5c0.5,0,0.8-0.4,0.8-0.8v-8.5c0-0.5-0.4-0.8-0.8-0.8h-15.6v-10.5h9.5c0.5,0,0.8-0.4,0.8-0.8v-8.5
		c0-0.5-0.4-0.8-0.8-0.8h-9.5v-10.5h15.6c0.5,0,0.8-0.4,0.8-0.8v-8.5C208.8,487.9,208.4,487.5,207.9,487.5z M207.1,496.1h-15.6
		c-0.5,0-0.8,0.4-0.8,0.8v12.2c0,0.5,0.4,0.8,0.8,0.8h9.5v6.8h-9.5c-0.5,0-0.8,0.4-0.8,0.8v12.2c0,0.5,0.4,0.8,0.8,0.8h15.6v6.8
		h-18.6c-1.3,0-2.3-0.4-3.3-1.4c-0.9-0.9-1.4-2-1.4-3.2v-39c0-1.2,0.5-2.3,1.4-3.2c0.9-0.9,2-1.4,3.3-1.4h18.6L207.1,496.1
		L207.1,496.1z"/>
	<path class="st24" d="M253.9,489.5c-1.2-1.3-2.6-2-4.3-2c-2.7,0-4.8,2-6.1,5.8l-9.7,27.1l-9.7-27.1c-1.4-3.9-3.4-5.9-6.1-5.9
		c-1.6,0-3.1,0.7-4.3,1.9c-1.2,1.3-1.8,2.7-1.8,4.4v44.4c0,0.5,0.4,0.8,0.8,0.8h8.5c0.5,0,0.8-0.4,0.8-0.8v-19.9l5.4,15
		c1.4,3.8,3.5,5.8,6.2,5.8c2.7,0,4.8-1.9,6.2-5.8l5.4-15v19.9c0,0.5,0.4,0.8,0.8,0.8h8.5c0.5,0,0.8-0.4,0.8-0.8v-44.4
		C255.7,492.2,255.1,490.7,253.9,489.5z M254,537.4h-6.8h0v-23.9c0-0.4-0.3-0.8-0.7-0.8c-0.4-0.1-0.8,0.2-0.9,0.5l-7.1,19.6
		c-1.1,3.1-2.7,4.7-4.6,4.7c-2,0-3.5-1.5-4.6-4.7l-7.1-19.6c-0.1-0.4-0.5-0.6-0.9-0.5c-0.4,0.1-0.7,0.4-0.7,0.8v23.9h-6.8v-43.6
		c0-1.2,0.4-2.3,1.3-3.2c0.9-0.9,1.9-1.4,3-1.4c1.9,0,3.4,1.5,4.5,4.7l10.5,29.3c0.1,0.3,0.4,0.6,0.8,0.6c0.4,0,0.7-0.2,0.8-0.6
		l10.5-29.3c1.1-3.2,2.6-4.7,4.5-4.7c1.2,0,2.2,0.5,3,1.4c0.9,0.9,1.3,2,1.3,3.2L254,537.4L254,537.4z"/>
	<path class="st24" d="M73.2,508.2c-1.2,0-2.3-0.5-3.2-1.4c-1-1-1.4-2-1.4-3.2c0-1.6,0.4-2.9,1.3-4.1c0.8-1.1,1.9-1.4,3.5-1.7
		c0.4-0.1,0.8-0.1,1.3-0.1c3.2,0,7.4,1.4,7.9,1.8c0.2,0.1,0.5,0.2,0.8,0.1c0.3-0.1,0.4-0.3,0.5-0.6l2.3-8.4c0.1-0.4-0.1-0.8-0.5-1
		c-0.5-0.2-5.7-2.2-12.5-2.1c-4,0.1-7.5,1.6-10.4,4.5c-3,2.9-4.5,6.4-4.5,10.4v1.2c0,4,1.5,7.5,4.5,10.4c3,3,6.5,4.5,10.4,4.5
		c1.2,0,2.2,0.5,3.2,1.4c1,1,1.4,2,1.4,3.2c0,1.6-0.4,2.9-1.2,4.1c-0.8,1.1-1.9,1.7-3.5,1.8c-0.6,0-1.2,0.1-1.8,0.1
		c-2.9,0-5.8-0.6-8.2-1.6c-0.2-0.1-0.5-0.1-0.7,0c-0.2,0.1-0.4,0.3-0.4,0.5l-2.2,8.2c-0.1,0.4,0.1,0.9,0.6,1c0.1,0,0.3,0.1,0.5,0.2
		c1.6,0.6,5,1.7,11,1.7c0.4,0,0.9,0,1.4,0c4.1-0.1,7.5-1.6,10.4-4.4c3-2.9,4.5-6.4,4.5-10.4v-1.3c0-4-1.5-7.4-4.5-10.4
		C80.7,509.7,77.2,508.2,73.2,508.2z M86.4,524.3c0,3.5-1.3,6.5-4,9.2c-2.6,2.5-5.6,3.8-9.2,3.9c-0.5,0-0.9,0-1.3,0h0
		c-5.4,0-8.6-1-10.2-1.5l1.8-6.5c2.4,0.9,5.2,1.4,7.9,1.4c0.6,0,1.3,0,1.9-0.1c2.1-0.2,3.6-1,4.7-2.5c1-1.4,1.6-3.1,1.6-5.1
		c0-1.6-0.6-3.1-1.9-4.4c-1.3-1.3-2.8-1.9-4.4-1.9c-3.5,0-6.6-1.3-9.2-4c-2.7-2.7-4-5.7-4-9.2v-1.2c0-3.5,1.3-6.5,4-9.2
		c2.6-2.6,5.6-3.9,9.2-4c5.3-0.1,9.5,1.1,11.1,1.7l-1.8,6.7c-1.7-0.7-5-1.6-7.8-1.6c-0.6,0-1.1,0-1.6,0.1c-1.5,0.3-3.3,0.7-4.5,2.4
		c-1.1,1.5-1.7,3.2-1.7,5.1c0,1.7,0.6,3.1,1.9,4.4c1.3,1.3,2.8,1.9,4.4,1.9c3.5,0,6.5,1.3,9.2,4c2.7,2.6,4,5.6,4,9.2L86.4,524.3
		L86.4,524.3z"/>
	<path class="st24" d="M135.8,508.2c-1.2,0-2.3-0.5-3.2-1.4c-1-1-1.4-2-1.4-3.2c0-1.6,0.4-2.9,1.3-4.1c0.8-1.1,1.9-1.4,3.5-1.7
		c0.4-0.1,0.8-0.1,1.3-0.1c3.2,0,7.4,1.4,7.9,1.8c0.2,0.1,0.5,0.2,0.8,0.1c0.3-0.1,0.5-0.3,0.5-0.6l2.3-8.4c0.1-0.4-0.1-0.8-0.5-1
		c-0.5-0.2-5.7-2.2-12.5-2.1c-4,0.1-7.5,1.6-10.4,4.5c-3,2.9-4.5,6.4-4.5,10.4v1.2c0,4,1.5,7.5,4.5,10.4c3,3,6.5,4.5,10.4,4.5
		c1.2,0,2.2,0.5,3.2,1.4c1,1,1.4,2,1.4,3.2c0,1.6-0.4,2.9-1.2,4.1c-0.8,1.1-1.9,1.7-3.5,1.8c-0.6,0-1.2,0.1-1.8,0.1
		c-2.9,0-5.8-0.6-8.2-1.6c-0.2-0.1-0.5-0.1-0.7,0c-0.2,0.1-0.4,0.3-0.4,0.5l-2.2,8.2c-0.1,0.4,0.1,0.9,0.6,1c0.1,0,0.3,0.1,0.5,0.2
		c1.6,0.6,5,1.7,11,1.7c0.4,0,0.9,0,1.4,0c4.1-0.1,7.5-1.6,10.4-4.4c3-2.9,4.5-6.4,4.5-10.4v-1.3c0-4-1.5-7.4-4.5-10.4
		C143.3,509.7,139.8,508.2,135.8,508.2z M149,524.3c0,3.5-1.3,6.5-4,9.2c-2.6,2.5-5.6,3.8-9.2,3.9c-0.5,0-0.9,0-1.3,0
		c-5.4,0-8.6-1-10.2-1.5l1.8-6.5c2.4,0.9,5.2,1.4,7.9,1.4c0.6,0,1.3,0,1.9-0.1c2.1-0.2,3.6-1,4.7-2.5c1-1.4,1.6-3.1,1.6-5.1
		c0-1.6-0.6-3.1-1.9-4.4c-1.3-1.3-2.8-1.9-4.4-1.9c-3.5,0-6.6-1.3-9.2-4c-2.7-2.7-4-5.7-4-9.2v-1.2c0-3.5,1.3-6.5,4-9.2
		c2.6-2.6,5.6-3.9,9.2-4c5.3-0.1,9.5,1.1,11.1,1.7l-1.8,6.7c-1.7-0.7-5-1.6-7.8-1.6c-0.6,0-1.1,0-1.6,0.1c-1.5,0.3-3.3,0.7-4.5,2.4
		c-1.1,1.5-1.7,3.2-1.7,5.1c0,1.7,0.6,3.1,1.9,4.4c1.3,1.3,2.8,1.9,4.4,1.9c3.5,0,6.5,1.3,9.2,4c2.7,2.6,4,5.6,4,9.2L149,524.3
		L149,524.3z"/>
</g>
</svg>
