<?xml version="1.0" encoding="utf-8"?>
<!-- Generator: Adobe Illustrator 19.0.0, SVG Export Plug-In . SVG Version: 6.00 Build 0)  -->
<svg version="1.1"
	 id="svg2" inkscape:version="0.44.1" sodipodi:version="0.32" sodipodi:docname="Figura1.svg" sodipodi:docbase="C:\Documents and Settings\Matias\Desktop" xmlns:cc="http://web.resource.org/cc/" xmlns:rdf="http://www.w3.org/1999/02/22-rdf-syntax-ns#" xmlns:inkscape="http://www.inkscape.org/namespaces/inkscape" xmlns:dc="http://purl.org/dc/elements/1.1/" xmlns:sodipodi="http://sodipodi.sourceforge.net/DTD/sodipodi-0.dtd" xmlns:svg="http://www.w3.org/2000/svg"
	 xmlns="http://www.w3.org/2000/svg" xmlns:xlink="http://www.w3.org/1999/xlink" x="0px" y="0px" viewBox="-22 347.4 566.9 98.6"
	 style="enable-background:new -22 347.4 566.9 98.6;" xml:space="preserve">
<style type="text/css">
	.st0{fill:#FCFCFC;}
</style>
<sodipodi:namedview  height="200px" width="1000px" inkscape:window-height="844" inkscape:current-layer="_42677040" inkscape:window-x="-4" inkscape:window-width="1440" inkscape:window-y="-4" inkscape:pageshadow="2" inkscape:pageopacity="0.0" pagecolor="#ffffff" gridtolerance="10.0" objecttolerance="10.0" id="base" guidetolerance="10.0" inkscape:cx="652.10241" inkscape:zoom="0.70710678" borderopacity="1.0" bordercolor="#666666" inkscape:cy="-180.96718">
	</sodipodi:namedview>
<g>
	<polygon id="_43443024" class="st0" points="466.6,348.3 490.6,348.3 502.5,375.6 520.3,348.3 544.9,348.3 510.2,402.3 
		504.6,444.5 482.3,444.5 488.9,396.4 	"/>
	<polygon id="_43441624" class="st0" points="289.8,444.5 292.8,423.1 259,423.1 261,406.5 290.4,406.5 293.4,385.1 264.3,385.1 
		266.4,369.7 300.2,369.7 303.4,348.3 247.4,348.3 234,444.5 	"/>
	<path id="_43775888" class="st0" d="M90.1,397l7.4-19.9l2.4,19.9H90.1L90.1,397z M82.1,416h20.2l3.6,28.5h36.5l16.9-52.2l8.3,52.2
		h19.3l21.4-55.2l3.6,55.2h21.4l-5.9-96.1h-25.5l-19.9,50.7l-7.7-50.7h-22.8l-26.1,78.9l-9.8-78.9H86.9l-31.7,79.8l4.2-31.1H20.7
		l-2.7,19H35l-1.2,6.5c-3,1.8-9.8,2.1-12.5,2.1s-22.5-1.8-21.7-23.1c0.9-21.4,29.4-41.2,63.2-30.3l3.3-20.5
		c-22.5-7.7-81.8-3.4-87.8,49.5c-3.6,31.1,24.9,46,43.9,45.7c11,0.6,23.4-3.6,27.9-5.9l-1.5,4.5h22.5L82.1,416L82.1,416z"/>
	<path id="_44102912" class="st0" d="M442.6,347.5c-15.4-0.6-37.7,8.3-45.1,44.2c-7.4,35.9,12.5,50.4,30.9,52.8
		c18.4,2.4,44.2-9.2,49-43.6C482,366.4,465.1,348.3,442.6,347.5z M440.2,367.9c6.2,0,19.6,4.2,16.3,29.1
		c-3.3,24.9-18.7,27.9-24.3,27.3c-5.6-0.6-17.2-4.4-13.9-27.3C421.5,374.2,433.7,367.6,440.2,367.9L440.2,367.9z"/>
	<path id="_44104296" class="st0" d="M348.8,385.1h12.5c9.2,0,11-5.9,11.3-8.3c0.3-2.4-2.4-7.1-7.1-7.1h-14.5L348.8,385.1z
		 M343.5,423.1h16.9c9.2,0,11.3-7.1,11.6-9.5c0.3-2.4-2.4-7.1-7.1-7.1h-19L343.5,423.1L343.5,423.1z M318.6,444.5l13.4-96.1h40.9
		c9.8,0,24,11.3,22.3,26.4c-1.8,15.1-6.5,16-9.8,18.4c5,4.4,10.1,11.6,8,24.9c-2.1,13.4-13.1,26.4-32.3,26.4L318.6,444.5
		L318.6,444.5z"/>
	<path id="_44106160" class="st0" d="M516.6,429.9c-3.7,0-6.6,3-6.6,6.6c0,3.7,3,6.6,6.6,6.6c3.6,0,6.6-3,6.6-6.6
		C523.2,432.9,520.3,429.9,516.6,429.9V429c4.2,0,7.5,3.4,7.5,7.5c0,4.2-3.3,7.5-7.5,7.5c-4.2,0-7.5-3.4-7.5-7.5
		c0-4.1,3.4-7.5,7.5-7.5V429.9L516.6,429.9z"/>
	<path id="_42975192" class="st0" d="M514.8,433.1h2.4c1,0,2.2,0.2,2.2,1.5c0,1.7-1.8,1.5-3,1.5l-1.6,0v0.8h1.9l2.4,3.9h1.2
		l-2.5-3.9c1.5,0,2.7-0.6,2.7-2.3c0-0.7-0.3-1.5-0.9-1.8c-0.6-0.4-1.3-0.4-2-0.4h-3.7v8.4h1L514.8,433.1L514.8,433.1z"/>
</g>
</svg>
