<?xml version="1.0" encoding="utf-8"?>
<!-- Generator: Adobe Illustrator 19.0.0, SVG Export Plug-In . SVG Version: 6.00 Build 0)  -->
<svg version="1.1" id="svg2" xmlns:svg="http://www.w3.org/2000/svg"
	 xmlns="http://www.w3.org/2000/svg" xmlns:xlink="http://www.w3.org/1999/xlink" x="0px" y="0px" viewBox="-22 337.1 566.9 118.9"
	 style="enable-background:new -22 337.1 566.9 118.9;" xml:space="preserve">
<style type="text/css">
	.st0{fill:#FCFCFC;}
	.st1{fill:#008000;stroke:#E2E2E2;stroke-miterlimit:10;}
	.st2{fill:#0000FF;stroke:#E2E2E2;stroke-miterlimit:10;}
	.st3{fill:#FFFF00;stroke:#E2E2E2;stroke-miterlimit:10;}
	.st4{fill:#FF6600;stroke:#E2E2E2;stroke-miterlimit:10;}
	.st5{fill:#FF0000;stroke:#E2E2E2;stroke-miterlimit:10;}
	.st6{fill:#800080;stroke:#E2E2E2;stroke-miterlimit:10;}
</style>
<g id="layer1">
</g>
<g id="layer5">
</g>
<g>
	<path class="st0" d="M155.6,440.8c0-1.6,1.4-1.9,4.8-2.3c4.2-0.4,4.4-2.2,4.4-8.2c0-14-0.9-39.8-1.4-53.7c-0.1-1.9-0.1-2.6-0.6-2.6
		c-0.5,0-0.7,0.8-1.2,2c-2.5,6.5-6.5,19.2-16.5,51.2c-3.6,12.1-3.3,14.6-5.7,14.6c-1.6,0-1.9-1-3.3-6.5c-4.3-16.1-14.3-49-17.5-59.1
		c-0.4-1.2-0.6-1.8-1.3-1.8c-0.5,0-0.5,1-0.8,2.9c-0.9,12.2-1.7,33.1-1.7,44.4c0,8.6-0.1,16.2,4.3,16.9c2.3,0.4,5.7,0.5,5.7,2.3
		c0,1-0.8,1.8-2.6,1.8c-2.6,0-4.7-0.5-9.6-0.5c-4.5,0-7.1,0.5-9,0.5c-1.3,0-2.1-0.3-2.1-1.8c0-1.9,1.9-1.7,4.2-2.2
		c3.8-0.8,4.3-3.8,4.7-10.1c0.8-13.9,2.2-44.3,2.2-55.1c0.1-7,0-8.3-4.4-9c-2.2-0.3-4.3-0.5-4.3-2.1c0-1.8,1.7-1.9,3.5-2
		c2.7,0,6.4,0.4,9.2,0.4c2.2,0,5.6-0.4,7.7-0.4c1.4,0,1.9,0.4,2.6,2.3c4.8,15.9,9.6,31.7,14.3,47.4c1,3.8,1.8,6.8,2.7,6.8
		c0.8,0,1.4-1.8,2.6-5.6c4.9-15.9,9.9-31.7,14.8-47.4c0.8-2.5,1.6-3.5,3-3.5c1.9,0,5.2,0.4,7.7,0.4c2.6,0,6.4-0.4,9.1-0.4
		c1.4,0,2.7,0.5,2.7,1.8c0,1.7-1.7,2.1-5.5,2.3c-2.3,0.3-3,2-3,7.8c0,12.9,1.6,43.3,1.9,59.3c0,4.8,1.2,6.6,3.8,6.9
		c3.3,0.8,4.7,1,4.7,2.5c0,1.4-1.2,1.7-3,1.7c-2.7,0-5.9-0.5-11.8-0.5c-5.2,0-9.5,0.5-12.3,0.5c-1.7,0-3-0.5-3-1.7L155.6,440.8
		L155.6,440.8L155.6,440.8z"/>
	<path class="st0" d="M217.6,394.1c0-6.1-1.4-8.6-5.5-8.6c-6.2,0-9.1,4.7-11.2,11c-0.9,2.7-2.5,4.9-4.4,6.2c-1.4,1-3.3,1.8-5.2,1.8
		c-2.5,0-3.4-1-3.4-3.4c0-7.5,11.2-19.4,27.3-19.4c4.8,0,8.6,0.6,10.8,2.6c2.2,1.7,2.7,4.2,2.7,8.2v37.2c0,3.3,1,5.6,3.6,5.6
		c2.1,0,3.3-1.2,3.9-2.3c0.5-1.2,1-2.5,1.8-2.5c0.8,0,1,0.6,1,2.2c0,2.9-4.4,10.5-12,10.5c-5.5,0-7-4.4-8.1-7
		c-0.4-1-0.8-1.8-1.4-1.8c-1,0-3.1,2.5-6.4,4.8c-3,2.3-7,4.4-12.2,4.4c-6.1,0-10.9-4.2-10.9-11.7c0-6.9,4.8-11.6,15.3-18.1
		c4.2-2.7,7.3-4.5,9.6-6.1c3.5-2.1,4.4-3.3,4.4-6.2L217.6,394.1L217.6,394.1z M200,429.8c0,4.8,2.7,7.3,6.5,7.3
		c2.9,0,5.6-1.7,8.1-4.2c2.3-2.3,3.1-4.2,3.1-7.4v-13.3c0-1.6-0.3-2-0.9-2c-0.6,0-1.3,0.3-3,1.3c-2.7,1.8-5.3,3.9-7.5,6.1
		c-3.6,3.4-6.2,7.3-6.2,12L200,429.8L200,429.8z"/>
	<path class="st0" d="M237.8,414.8c0-19,12.3-32.9,28.1-32.9c3.5,0,8.2,0.6,11.2,2.5c2.7,1.6,3,2.1,3.1,5.2v4.7
		c0,1.2-0.1,3.1-0.4,4.3c-0.3,2.3-1.2,3.1-2.9,3.1c-2.3,0-3-3.4-5.5-8.8c-1.8-4.3-3.5-6.5-7.3-6.5c-7.5,0-14.2,9.9-14.2,23.8
		c0,18.5,7,26.6,15.7,26.6c4.7,0,8.2-1.9,10.8-5.7c1.6-2.3,2.6-5.6,3.6-5.6c0.8,0,1.3,0.8,1.3,1.8c0,6.1-6.5,16.5-19.6,16.5
		c-14.4,0-24-11.8-24-28.9L237.8,414.8L237.8,414.8z"/>
	<path class="st0" d="M290.4,397.9c0-4.2-0.9-5.2-4.9-5.8c-1.6-0.3-2.2-0.6-2.2-1.6c0-1.2,1.2-1.7,4.2-2.6c4.2-1.2,7.8-3.1,10.5-4.7
		c1.3-0.8,2.1-1.3,2.6-1.3c0.8,0,1,0.5,1,1.9v6.1v41.9c0,4.4,0,6.6,1.6,7.1c2.3,0.7,3.3,0.8,3.3,2.1c0,1.2-0.5,1.6-2.1,1.6
		c-2.7,0-2.7-0.5-8.4-0.5c-6.2,0-6.1,0.5-8.5,0.5c-1,0-2-0.5-2-1.6c0-1.3,0.9-1.7,2.6-2.1c2.1-0.5,2.3-1.6,2.3-6.8L290.4,397.9
		L290.4,397.9z M296,373.7c-3.4,0-6.5-2.7-6.5-7.7c0-4.8,2.9-7.8,6.6-7.8c3.6,0,6.5,2.9,6.5,7.7c0,5.1-2.9,7.8-6.5,7.8H296z"/>
	<path class="st0" d="M316.9,397.9c0-4.4-0.5-4.9-3.8-5.3c-2.3-0.3-3.1-0.4-3.1-1.4c0-1.3,1.3-1.6,4-2.5c4.7-1.7,8.3-3.8,10.3-5.3
		c1.2-0.9,1.8-1.4,2.5-1.4c0.8,0,1,1,1,2.2v5.2c0,1.8,0.1,2.2,0.5,2.2c1.2,0,3.2-2.2,6.1-4.4c3-2.2,7-4.5,11.8-4.5
		c4.4,0,8.6,1.4,11.6,4.5c2.7,2.9,4.3,7,4.3,12.5v33.1c0,4.5,1.2,6,4.1,6.4c0,0,1.9,0.7,1.9,2c0,1.2-0.9,1.6-2.3,1.6
		c-1.6,0-3.3-0.5-9.4-0.5c-5.8,0-6.5,0.5-8.6,0.5c-1.4,0-2.1-0.4-2.1-1.7c0-0.9,0.9-1.4,2.2-1.7c1.2-0.3,3-1.7,3-5.3v-33
		c0-3.1-0.6-5.8-2.2-7.9c-1.8-2.3-4.5-3.6-7.8-3.6c-3.4,0-6.6,1.3-9.1,3.5c-2.3,2.2-3.6,4.8-3.6,7.9v33.1c0,3.4,0.6,4.8,3.8,5.3
		c0.5,0.1,1.1,0.4,1.1,1.5c0,1.3-0.9,1.7-2,1.7c-1.6,0-1.1-0.4-8.8-0.4c-6.6,0-6.7,0.5-8.8,0.5c-1.6,0-2.5-0.5-2.5-1.7
		s1-1.8,2.3-1.9c2.8-0.4,3.5-2.1,3.5-7.3V397.9L316.9,397.9z"/>
	<path class="st0" d="M385.8,429.5c0,5.1,1.4,7.3,4.6,7.3c2.5,0,4-1.7,5.1-3.2c1.2-1.6,1.9-3.1,3-3.1c0.8,0,1.3,0.4,1.3,1.3
		c0,1.9-3.5,12.1-13.6,12.1c-3.8,0-6.6-1-8.6-3.1c-2.1-2.3-2.9-5.5-2.9-10.4v-40c0-1.4-0.6-2-1.6-2.1c-0.9-0.1-2.1-0.1-3.1-0.1
		c-1.2,0-2.2-0.1-2.2-1.6c0-0.9,0.8-1.8,2.5-3.4c4-3.1,7.4-6.6,11.8-14.4c1.2-2.2,1.6-3,2.5-3c0.9,0,1.3,0.5,1.3,2.7v12.3
		c0,1.9,0.6,2.7,2.6,2.7h7c2.2,0,2.7,0.5,2.7,2.3c0,2.1-0.5,2.7-3,2.7c-2.2,0-4.5-0.1-6.8-0.1c-2.1,0-2.6,0.5-2.6,2.9L385.8,429.5
		L385.8,429.5z"/>
	<path class="st0" d="M424.1,443.8c-15.1,0-25.5-14-25.5-30.9c0-16.6,10-30.9,25.6-30.9c15.9,0,25.6,14.4,25.6,30.8
		c0,17-10.4,31.1-25.6,31.1H424.1z M424.6,440.2c9,0,13.1-13.6,13.1-26c0-14.4-4.5-28.6-13.8-28.6c-9,0-13.3,13-13.3,26
		c0,14.4,4.7,28.6,13.8,28.6H424.6z"/>
	<path class="st0" d="M450.9,398.4c0-10.9,9.5-16.5,20.7-16.5c4.2,0,8.8,0.8,11.3,2.1c0.6,0.4,0.9,1.3,1,3.1
		c0.1,1.2,0.1,2.6,0.1,4.5v3.4c-0.1,2.1-0.4,3.3-1.6,3.3c-1.7,0-1.9-2.5-4-6.9c-1.6-3.4-3.8-6-7.9-6c-5.1,0-9.1,3.5-9.1,8.3
		c0,6.2,6.2,9.2,12.7,13c6.4,3.8,13,8.3,13,17.7c0,12.6-10.1,19.4-22.4,19.4c-3.9,0-7.7-0.6-10.3-1.6c-0.9-0.3-1.8-0.5-2.5-1
		c-0.6-0.4-1.2-1-1.3-3.6c-0.1-1.8-0.1-4.3-0.1-7.7c0-5.2,0.4-6.6,1.7-6.6c1.8,0,1.9,2.1,3.9,7.5c1.9,5.1,4.9,9.4,10.3,9.4
		c5.8,0,10-3.9,10-9.7c0-7.7-6.1-11-12.1-14.7c-6.5-3.6-13.5-7.8-13.5-17.2L450.9,398.4L450.9,398.4L450.9,398.4z"/>
	<path class="st0" d="M492.2,364.9c0-3.8-0.5-4.7-4-5.1c-2.2-0.5-3-0.6-3-1.8c0-1.3,0.9-1.4,3.6-2.2c5.2-1.6,8.4-2.7,10.5-3.9
		c1.7-0.8,2.5-1.2,3.3-1.2c0.8,0,0.9,0.5,0.9,2.3V390c0,0.8,0.3,1.2,0.8,1.2c0.5,0,1.2-0.4,1.7-0.9c3.3-3,8.3-7.7,15.9-7.7
		c9.7,0,15.5,6.6,15.7,16.9v33.3c0,4.4,1.2,6.1,4.3,6.5c2.1,0.3,3.1,0.6,3.1,1.8c0,1.2-0.9,1.6-1.9,1.6c-1.2,0-5.1-0.5-10.8-0.5
		c-6.2,0-8.6,0.5-10.4,0.5c-1.4,0-2.2-0.5-2.2-1.7c0-1.2,0.9-1.4,2.3-1.7c3.3-0.5,4.3-1.7,4.3-5.3v-33c0-3.3-0.5-6.1-2.1-8.1
		c-1.8-2.5-4.6-3.6-8.1-3.6c-3.4,0-6.6,1.3-9.1,3.5c-2.3,2.2-3.5,4.8-3.5,8.1v32.8c0,3.4,1.2,5.1,5.1,5.7c2,0.4,2.5,0.6,2.5,1.8
		c0,1.2-0.9,1.6-1.9,1.6c-1.6,0-3.5-0.5-11.4-0.5c-6.4,0-8.4,0.5-10.7,0.5c-1.2,0-2.1-0.4-2.1-1.7c0-1.2,1.2-1.8,2.5-1.9
		c4.2-0.4,4.8-1.9,4.8-7.3L492.2,364.9L492.2,364.9z"/>
	<g>
		<path class="st1" d="M44.3,358.3c4.4-4.9,6.7-11.7,7.1-20.9l0-0.3l-0.3,0.1c-15.6,3.2-23.6,12.9-23.9,29l0,0.3l0.3,0
			C34.9,365.3,40.4,362.6,44.3,358.3z"/>
		<path class="st2" d="M-9.2,440.8l0.3,0.4c2.6,3.7,5.5,7.3,8.8,10.7c2.5,2.6,6.4,4,11.1,4c3.4,0,7-0.8,9.3-2.1
			c4.7-2.7,7.3-2.7,9.1-2.7c0.4,0,0.7,0,1,0l0.3,0c0.4,0,0.8-0.1,1.3-0.1c1.6,0,4.1,0.3,8.5,2.8c3.1,1.3,6.1,1.9,8.9,1.9l0,0
			c7.7,0,14.4-4.8,20.5-14.6l0.3-0.4H-9.2L-9.2,440.8z"/>
		<path class="st1" d="M70.9,379.4c1-1,2.1-2,3.3-3l0.2-0.2l-0.2-0.2c-5.8-7.1-13.7-11-22.9-11.1l-0.4,0c-4.7,0-8.8,0.9-11.9,2.5
			c-4.1,2.1-7.1,2.6-7.1,2.6c-0.1,0-0.4,0-1.3,0c-1.1,0-2.1,0-2.2,0l-0.1,0c-1.3-0.2-4.6-0.7-7.3-2.1c-3.7-1.9-7.7-3-11.8-3l-0.3,0
			c-10.7,0.1-19.7,5.3-25.2,14.5H70.9z"/>
		<path class="st3" d="M62,394.6c1.1-5.1,3.9-10,8.5-14.8l0.4-0.4h-87l-0.1,0.1c-2.7,4.4-4.4,9.5-5.3,15.1L62,394.6L62,394.6z"/>
		<path class="st4" d="M64,409.7c-2.1-4.3-3.1-9.3-2.1-14.7l0.1-0.3h-83.4l0,0.2c-0.7,4.8-0.7,9.8-0.1,14.8H64L64,409.7z"/>
		<path class="st5" d="M-17.4,425.4h95.3l0.6-1.2l-0.2-0.1c-4.6-2.3-10.7-7.2-14.2-14.3l-0.1-0.1h-85.5l0,0.3
			C-20.9,414.3-19.7,419.6-17.4,425.4z"/>
		<path class="st6" d="M-9.2,440.8H70c3-4.9,5.5-10.3,7.7-15l0.2-0.4h-95.3l0.1,0.4C-15.2,431-12.5,436-9.2,440.8z"/>
	</g>
</g>
</svg>
