<?xml version="1.0" encoding="utf-8"?>
<!-- Generator: Adobe Illustrator 19.0.0, SVG Export Plug-In . SVG Version: 6.00 Build 0)  -->
<svg version="1.1" id="Ebene_2" xmlns="http://www.w3.org/2000/svg" xmlns:xlink="http://www.w3.org/1999/xlink" x="0px" y="0px"
	 viewBox="-21 366.6 297.7 135.6" style="enable-background:new -21 366.6 297.7 135.6;" xml:space="preserve">
<style type="text/css">
	.st0{fill:#FFFFFF;}
</style>
<g>
	<g>
		<path class="st0" d="M-10.6,444v7.3h9v4.5h-9v10.1h-5.5v-26.5h15v4.5L-10.6,444L-10.6,444z"/>
	</g>
	<g>
		<path class="st0" d="M19.7,465.9l-2.1-5.9H7.8l-1.9,5.9H0.4l9.2-26.4l6.3-0.1l9.9,26.5L19.7,465.9L19.7,465.9z M13.5,448.5
			c-0.6-1.8-1.1-3.1-1.1-3.2c0,0.1-0.3,1.5-0.9,3.2l-2.4,7.3h7L13.5,448.5z"/>
	</g>
	<g>
		<path class="st0" d="M45.4,465.9H29.8v-26.5h5.5v21.9h10.5L45.4,465.9z"/>
	</g>
	<g>
		<path class="st0" d="M70.3,464.6c-3,1.2-5.8,1.6-8.1,1.6c-3,0-6.1-0.5-8.6-2.1c-3.7-2.2-6-6.4-6-11.4c0-5.3,2.2-8.9,5.1-11
			c2.6-1.9,5.9-2.7,9.6-2.7c2.1,0,4.9,0.3,7.6,1.3l-0.4,4.5c-3-0.9-5.1-1.2-7.2-1.2c-2.6,0-4.7,0.6-6.3,1.9
			c-1.8,1.5-2.8,3.8-2.8,6.7c0,5.3,3.4,9.3,9.3,9.3c2.1,0,4.6-0.4,8-1.6L70.3,464.6z"/>
	</g>
	<g>
		<path class="st0" d="M96.4,464.1c-2.3,1.5-5.1,2.1-8.1,2.1c-3.4,0-6.4-1-8.7-2.8c-3.2-2.5-5-6.3-5-11.1c0-5.2,2.5-9,6.1-11.2
			c2.3-1.5,4.9-2.1,8-2.1c4.4,0,8.1,1.4,10.5,4.1c2,2.2,3.3,5.3,3.3,8.9C102.5,457.3,100.2,461.7,96.4,464.1z M94.6,446.2
			c-1.5-1.6-3.6-2.5-6.3-2.5c-1.9,0-3.4,0.4-4.7,1.3c-2.1,1.4-3.4,3.9-3.4,7c0,3.1,1.1,5.9,2.9,7.6c1.3,1.2,3.3,2,5.2,2h0.2
			c2,0,3.7-0.5,5-1.5c2.1-1.6,3.3-4.4,3.3-7.7C96.9,450.1,96,447.8,94.6,446.2z"/>
	</g>
	<g>
		<path class="st0" d="M131.2,465.9h-6.1l-13-18.5c0.1,0.8,0.1,2.2,0.1,4v14.5h-5.2v-26.5h6.1l13,18.4c0-0.8-0.1-1.9-0.1-3.2v-15.2
			h5.2L131.2,465.9L131.2,465.9z"/>
	</g>
</g>
<g>
	<g>
		<path class="st0" d="M141.7,460.6c0-16.6,13.6-21.1,20.7-21.1c8.1,0,20.5,5.4,20.5,20.9v17.7c0,15.6-12.4,20.9-20.4,20.9
			c-8.1,0-20.8-5.3-20.8-20.9V460.6z M153.2,478.4c0,5.2,2.8,10.5,9.1,10.5c6.4,0,9.1-6,9.1-10.5v-18.3c0-3.3-1.2-10.5-9.1-10.5
			c-6.4,0-9,5.5-9,10.5L153.2,478.4L153.2,478.4z"/>
	</g>
	<g>
		<path class="st0" d="M189,456.1c0.3-12.5,10.6-16.7,18.1-16.7c10.1,0,16.8,6.8,16.8,15.1c0,7-4.7,10.4-7.7,12
			c10.5,3.6,11,11.9,11,14.4c0,10.2-9.1,18-20.3,18c-6.3,0-13.2-2.5-16.8-7.7c-2.6-3.5-3.2-7.7-3.3-10.4h11.6
			c0.3,3.6,3.1,7.8,8.8,7.9c5.6,0,8.5-3.9,8.5-8.7c0-5.7-5.3-8.2-9.8-8.2h-4.6v-8.6h2.6c4,0,8.6-2.2,8.6-7.1c0-3.5-2-6.6-5.7-6.6
			c-4.9,0-6,4-6.2,6.5L189,456.1L189,456.1z"/>
	</g>
	<g>
		<path class="st0" d="M231.9,460.6c0-16.6,13.6-21.1,20.7-21.1c8.1,0,20.5,5.4,20.5,20.9v17.7c0,15.6-12.4,20.9-20.4,20.9
			c-8.1,0-20.8-5.3-20.8-20.9V460.6z M243.4,478.4c0,5.2,2.8,10.5,9.1,10.5c6.4,0,9.1-6,9.1-10.5v-18.3c0-3.3-1.2-10.5-9.1-10.5
			c-6.4,0-9,5.5-9,10.5L243.4,478.4L243.4,478.4z"/>
	</g>
</g>
<g>
	<path class="st0" d="M93.8,369.8c2.3-3,7.1-3.5,9.9-1c1.2,1,2,2.3,2.4,3.8c5.2,18,10.5,36.1,15.7,54.1c-3.1,0-6.2,0-9.3,0
		c-1.5-5-2.9-10-4.3-14.9c-6,0-12,0-18,0c-1.5,5-2.9,10-4.4,14.9c-3.1,0-6.2,0-9.2,0c5-17.2,10-34.4,15-51.6
		C92.2,373.3,92.5,371.3,93.8,369.8 M99.2,380.9c-2.2,7.5-4.3,15-6.5,22.4c4.3,0,8.7,0,13,0C103.6,395.9,101.4,388.4,99.2,380.9z"/>
	<path class="st0" d="M159,370.2c1.6-2.3,4.7-3.5,7.5-2.8c2.5,0.6,4.4,2.7,5.1,5.2c5.2,18,10.5,36.1,15.7,54.1c-3.1,0-6.2,0-9.3,0
		c-1.4-5-2.9-10-4.3-14.9c-6,0-11.9,0-17.9,0c-1.4,5-2.9,10-4.3,14.9c-3.1,0-6.1,0-9.2,0c5-17.3,10-34.6,15-51.9
		C157.7,373.3,157.9,371.6,159,370.2 M158.2,403.3c4.3,0,8.7,0,13,0c-2.2-7.5-4.3-15-6.5-22.5C162.5,388.4,160.3,395.8,158.2,403.3z
		"/>
	<path class="st0" d="M114.9,367.4c11.2,0,22.4,0,33.6,0c0,3,0,6,0,9.1c-4.1,0-8.2,0-12.4,0c0,16.8,0,33.5,0,50.3c-3,0-5.9,0-8.9,0
		c0-16.8,0-33.5,0-50.3c-4.1,0-8.2,0-12.4,0C114.9,373.4,114.9,370.4,114.9,367.4z"/>
	<path class="st0" d="M197.1,367.7c0.9-0.3,1.8-0.4,2.7-0.4c3.5,0,7.1,0,10.6,0c5.9,0.1,11.6,3.8,14.2,9.1c1.8,3.5,2,7.5,1.5,11.3
		c-0.3,4-2,8-5.1,10.6c-1.6,1.4-3.6,2.3-5.4,3.6c-1,0.7-1,2.1-0.5,3.1c4.7,7.2,9.6,14.4,14.3,21.5c-3.5,0-7,0-10.5,0
		c-4.6-6.9-9.1-13.8-13.7-20.7c-1.3-2-1.7-4.6-0.9-6.8c0.6-1.7,2.1-3,3.8-3.6c3.2-1.2,6.3-3.1,8.1-6.1c1.3-2.3,1.3-5.1,0.7-7.5
		c-0.7-3.2-3.8-5.7-7.1-5.6c-2.3,0-4.6,0-6.9,0c-1,0-2,0.9-2,1.9c0,16.1,0,32.3,0,48.5c-3,0-5.9,0-8.9,0c0-17.4,0-34.8,0-52.2
		C192,371.5,194.2,368.7,197.1,367.7z"/>
	<path class="st0" d="M234.1,367.4c3.1,0,6.3,0,9.4,0c0,19.8,0,39.6,0,59.4c-3.1,0-6.3,0-9.4,0C234.1,407,234.1,387.2,234.1,367.4z"
		/>
</g>
<g>
	<path class="st0" d="M15.2,367.3c1.5,0,3,0,4.5,0c0,3.5,0,7,0,10.5c0,2.9-0.1,5.8-0.2,8.8c-0.2,4.2-0.5,8.4-1.2,12.6
		c-0.5,2.9-1.5,5.6-2.7,8.3c-2,4.2-5.2,7.8-8.7,10.8c-3.2,2.8-7,4.8-10.9,6.2c-2.3,0.8-4.6,1.4-6.9,1.7c0-2.9,0-5.9,0-8.8
		c2.8-0.4,5.6-1.4,8.1-2.8c3-1.6,5.7-3.7,8-6.3c2.4-2.6,4.2-5.6,5.7-8.8c1.7-3.7,2.6-7.7,3.2-11.6c0.8-5.1,1.1-10.2,1.2-15.3
		C15.2,370.7,15.2,369,15.2,367.3z"/>
	<path class="st0" d="M21.4,367.3c2.7,0,5.5,0,8.2,0c0,19.6,0,39.2,0,58.8c-2.7,0-5.5,0-8.2,0c0-6.3,0-12.5,0-18.8
		C21.4,394,21.4,380.6,21.4,367.3z"/>
	<path class="st0" d="M31.5,367.3c1.5,0,3,0,4.4,0c0,6,0.2,12,0.9,17.9c0.6,4.6,1.4,9.3,3.2,13.6c1.7,4.2,4.3,8,7.5,11.1
		c3.1,3,6.9,5.3,11,6.6c1.1,0.4,2.3,0.7,3.5,0.8c0,2.9,0,5.9,0,8.8c-2.3-0.3-4.6-0.9-6.9-1.7c-2.7-0.9-5.2-2.1-7.6-3.7
		c-1.7-1.1-3.3-2.4-4.8-3.8c-2.5-2.3-4.7-4.9-6.4-7.9c-1.3-2.3-2.3-4.8-3-7.3c-0.7-2.5-1-5.2-1.2-7.8c-0.5-5.7-0.7-11.3-0.7-17
		C31.5,373.7,31.5,370.5,31.5,367.3z"/>
	<path class="st0" d="M21.4,367.3c0,13.4,0,26.7,0,40.1c0,6.3,0,12.5,0,18.8c2.7,0,5.5,0,8.2,0c0-19.6,0-39.2,0-58.8
		C26.9,367.3,24.2,367.2,21.4,367.3"/>
	<path class="st0" d="M31.5,367.3c0,3.2,0,6.4,0,9.6c0,5.7,0.2,11.4,0.7,17c0.3,2.6,0.6,5.3,1.2,7.8c0.7,2.5,1.7,5,3,7.3
		c1.7,3,3.9,5.6,6.4,7.9c1.5,1.4,3.1,2.7,4.8,3.8c2.4,1.5,4.9,2.7,7.6,3.7c2.2,0.8,4.5,1.4,6.9,1.7c0-2.9,0-5.9,0-8.8
		c-1.2-0.2-2.4-0.5-3.5-0.8c-4.1-1.3-7.9-3.6-11-6.6c-3.3-3.1-5.8-7-7.5-11.1c-1.8-4.3-2.7-8.9-3.2-13.6c-0.7-5.9-0.9-11.9-0.9-17.9
		C34.4,367.3,33,367.3,31.5,367.3"/>
</g>
<g>
	<path class="st0" d="M-1.1,439.3h-15c-0.1,0-0.1,0.1-0.1,0.1v26.5c0,0.1,0.1,0.1,0.1,0.1h5.5c0.1,0,0.1-0.1,0.1-0.1v-9.9h8.9
		c0.1,0,0.1-0.1,0.1-0.1v-4.5c0-0.1-0.1-0.1-0.1-0.1h-8.9v-7.1h9.3c0.1,0,0.1-0.1,0.1-0.1v-4.5C-1,439.3-1.1,439.3-1.1,439.3z
		 M-11.2,455.3v9.9h-4.3V440h13.7v3.3h-9.3c-0.1,0-0.1,0.1-0.1,0.1v8.3c0,0.1,0.1,0.1,0.1,0.1h8.9v3.3h-8.9
		C-11.2,455.2-11.2,455.2-11.2,455.3z"/>
	<path class="st0" d="M16,439.3c0-0.1-0.1-0.1-0.1-0.1l-6.3,0.1c-0.1,0-0.1,0-0.1,0.1l-9.2,26.4c0,0,0,0.1,0,0.1
		c0,0,0.1,0.1,0.1,0.1h5.5c0.1,0,0.1,0,0.1-0.1l1.9-5.8h9.6l2.1,5.8c0,0,0.1,0.1,0.1,0.1h6.1c0,0,0,0,0,0c0.1,0,0.1-0.1,0.1-0.1
		c0,0,0-0.1,0-0.1L16,439.3z M1.2,465.2l8.8-25.1l5.4-0.1l9.4,25.3h-4.8l-2.1-5.8c0,0-0.1-0.1-0.1-0.1H7.4c-0.1,0-0.1,0-0.1,0.1
		l-1.9,5.8L1.2,465.2L1.2,465.2z"/>
	<path class="st0" d="M8.4,456.4h8.4c0,0,0.1,0,0.1-0.1c0,0,0-0.1,0-0.1l-2.8-8c-0.4-1.1-0.8-2.2-1.1-3.2l-0.5-1.5
		c0-0.1-0.1-0.1-0.1-0.1c-0.1,0-0.1,0-0.1,0.1l-0.5,1.5c0,0,0,0.1-0.1,0.2c-0.1,0.4-0.4,1.6-0.9,3l-2.6,8
		C8.3,456.3,8.3,456.3,8.4,456.4C8.3,456.4,8.3,456.4,8.4,456.4z M9.3,455.6l2.4-7.1c0.4-1.3,0.7-2.3,0.8-2.8c0.3,0.9,0.6,1.9,1,2.8
		l2.5,7.1H9.3z"/>
	<path class="st0" d="M45.7,461.2H35.4v-21.7c0-0.1-0.1-0.1-0.1-0.1h-5.5c-0.1,0-0.1,0.1-0.1,0.1v26.5c0,0.1,0.1,0.1,0.1,0.1h15.6
		c0.1,0,0.1-0.1,0.1-0.1l0.3-4.6C45.9,461.3,45.9,461.2,45.7,461.2C45.8,461.2,45.8,461.2,45.7,461.2z M30.4,465.2V440h4.3v21.7
		c0,0.1,0.1,0.1,0.1,0.1h10.3l-0.2,3.3H30.4z"/>
	<path class="st0" d="M70.5,459.8c-3.2,1.1-5.7,1.6-8,1.6c-5.6,0-9.2-3.6-9.2-9.2c0-2.8,1-5.2,2.7-6.6c1.5-1.3,3.5-1.9,6.2-1.9
		c2.2,0,4.4,0.4,7.2,1.2c0,0,0.1,0,0.1,0c0,0,0.1-0.1,0.1-0.1l0.4-4.5c0-0.1,0-0.1-0.1-0.1c-3.2-1.1-6.1-1.3-7.6-1.3
		c-3.9,0-7.2,0.9-9.7,2.7c-3.3,2.4-5.2,6.3-5.2,11.1c0,5,2.3,9.3,6.1,11.5c2.3,1.4,5.2,2.1,8.7,2.1c2.6,0,5.4-0.6,8.1-1.6
		c0,0,0.1-0.1,0.1-0.1l0.3-4.7c0,0,0-0.1,0-0.1C70.6,459.8,70.6,459.8,70.5,459.8z M62.3,439.7c1.3,0,4,0.1,6.9,1.1l-0.3,3.3
		c-2.5-0.7-4.5-1-6.6-1c-2.8,0-5,0.7-6.7,2c-1.9,1.6-3,4.2-3,7.2c0,5.9,4,9.9,9.9,9.9c2.1,0,4.5-0.4,7.3-1.4l-0.2,3.3
		c-2.5,0.9-5.1,1.5-7.5,1.5c-3.4,0-6.2-0.7-8.3-2c-3.6-2.1-5.7-6.2-5.7-10.9c0-5.7,2.6-8.8,4.8-10.4
		C55.4,440.5,58.6,439.7,62.3,439.7z"/>
	<path class="st0" d="M88.7,438.9c-3.1,0-5.7,0.7-8.1,2.1c-4,2.4-6.2,6.4-6.2,11.3c0,4.7,1.8,8.7,5.1,11.2c2.3,1.8,5.4,2.8,8.8,2.8
		c3.2,0,6-0.7,8.2-2.1c3.9-2.5,6.2-7,6.2-12.1c0-3.5-1.2-6.6-3.3-9C96.9,440.4,93.2,438.9,88.7,438.9z M88.3,465.6
		c-3.2,0-6.1-0.9-8.3-2.7c-3.1-2.4-4.8-6.2-4.8-10.6c0-4.6,2.1-8.4,5.9-10.6c2.2-1.4,4.7-2,7.7-2c4.3,0,7.8,1.4,10,3.9
		c2.1,2.3,3.2,5.2,3.2,8.5c0,4.8-2.2,9.1-5.9,11.5C94,464.9,91.3,465.6,88.3,465.6z"/>
	<path class="st0" d="M88.3,443c-2,0-3.6,0.4-5,1.4c-2.3,1.5-3.7,4.3-3.7,7.6c0,3.2,1.1,6.2,3.1,8.1c1.5,1.3,3.6,2.2,5.6,2.2h0.2
		c2.1,0,4-0.5,5.4-1.6c2.3-1.7,3.6-4.7,3.6-8.2c0-2.6-0.9-5-2.4-6.8C93.4,444,91.1,443,88.3,443z M88.5,461.5h-0.2c0,0,0,0,0,0
		c-1.8,0-3.7-0.8-5.1-2c-1.8-1.8-2.9-4.5-2.9-7.5c0-3,1.2-5.5,3.3-6.9c1.3-0.9,2.8-1.3,4.6-1.3c2.6,0,4.7,0.8,6.2,2.5
		c1.4,1.6,2.2,3.8,2.2,6.2c0,3.2-1.2,6-3.3,7.6C92.2,461,90.5,461.5,88.5,461.5z"/>
	<path class="st0" d="M131.2,439.3H126c-0.1,0-0.1,0.1-0.1,0.1v15.2c0,0.9,0,1.8,0.1,2.7l-12.8-18.1c0,0-0.1-0.1-0.1-0.1h-6.1
		c-0.1,0-0.1,0.1-0.1,0.1v26.5c0,0.1,0.1,0.1,0.1,0.1h5.2c0.1,0,0.1-0.1,0.1-0.1v-14.5c0-1.5,0-2.7,0-3.6l12.7,18.1
		c0,0,0.1,0.1,0.1,0.1h6.1c0.1,0,0.1-0.1,0.1-0.1v-26.5C131.3,439.3,131.2,439.3,131.2,439.3z M111.4,447.4c0.1,0.8,0.1,2.2,0.1,4
		v13.9h-4V440h5.1l12.9,18.1l1,1.4c0,0,0.1,0.1,0.1,0.1c0,0,0,0,0,0c0.1,0,0.1-0.1,0.1-0.1c0,0,0,0,0,0l-0.1-1.7
		c0-1.1-0.1-2.1-0.1-3.1V440h4v25.2h-5.2l-13.9-19.8c0,0-0.1-0.1-0.1,0c-0.1,0-0.1,0.1-0.1,0.1L111.4,447.4z"/>
	<path class="st0" d="M162.2,449c-6.6,0-9.6,5.6-9.6,11.2v18.2c0,5.5,3,11.1,9.7,11.1c7.1,0,9.7-6.8,9.7-11.1v-18.3
		C172,458.2,171.5,449,162.2,449z M171.2,460.1v18.3c0,4.2-2.4,10.3-8.9,10.3c-6.2,0-8.9-5.2-8.9-10.3v-18.2
		c0-4.8,2.3-10.4,8.9-10.4C170.8,449.8,171.2,458.4,171.2,460.1z"/>
	<path class="st0" d="M162.4,439.4c-1.7,0-7.7,0.3-13.1,4.3c-5,3.8-7.7,9.6-7.7,16.9v17.5c0,15.4,12.5,21,21,21
		c4.7,0,9.6-1.7,13.3-4.6c4.7-3.8,7.2-9.5,7.2-16.4v-17.7C183,445,170.7,439.4,162.4,439.4z M162.5,498.4c-8.1,0-20.2-5.4-20.2-20.3
		v-17.5c0-16.2,13.1-20.4,20.1-20.4c8,0,19.9,5.4,19.9,20.3v17.7C182.3,493,170.5,498.4,162.5,498.4z"/>
	<path class="st0" d="M216.5,466.6c5-2.9,7.5-6.8,7.5-12c0-4.1-1.7-8-4.7-10.8c-3.1-2.9-7.5-4.5-12.3-4.5c-6.6,0-17.8,3.5-18.2,16.8
		c0,0,0,0.1,0,0.1c0,0,0.1,0,0.1,0h11.4c0.1,0,0.1-0.1,0.1-0.1c0.1-1.9,0.9-6.4,6.1-6.4c3.9,0,5.6,3.3,5.6,6.5c0,4.6-4.3,7-8.5,7
		h-2.6c-0.1,0-0.1,0.1-0.1,0.1v8.6c0,0.1,0.1,0.1,0.1,0.1h4.6c4.8,0,9.7,2.8,9.7,8.1c0,5.2-3.3,8.6-8.4,8.6
		c-5.5-0.1-8.3-4.1-8.6-7.8c0-0.1-0.1-0.1-0.1-0.1h-11.6c0,0-0.1,0-0.1,0c0,0,0,0.1,0,0.1c0.2,4.2,1.4,7.8,3.4,10.4
		c3.2,4.7,9.9,7.7,16.9,7.7c11.5,0,20.4-7.9,20.4-18.1C227.3,477,225.9,469.9,216.5,466.6z M206.9,498.4c-6.8,0-13.2-2.9-16.3-7.4
		c-1.8-2.4-2.9-5.6-3.2-9.4h10.4c0.6,3.9,3.7,7.8,9.3,7.9c5.5,0,9.1-3.7,9.1-9.3c0-5.8-5.3-8.8-10.5-8.8h-4V464h1.9
		c4.6,0,9.2-2.7,9.2-7.8c0-4.2-2.6-7.2-6.4-7.2c-5.2,0-6.5,4-6.8,6.5h-10.2c0.7-12.2,11.2-15.4,17.4-15.4c9.2,0,16.2,6.2,16.2,14.5
		c0,5-2.4,8.7-7.4,11.5l-1,0.5c0,0-0.1,0.1-0.1,0.1c0,0,0,0.1,0.1,0.1l1.1,0.4c9.2,3.1,10.6,10,10.6,13.8
		C226.6,490.7,218,498.4,206.9,498.4z"/>
	<path class="st0" d="M252.4,449c-6.6,0-9.6,5.6-9.6,11.2v18.2c0,5.5,3,11.1,9.7,11.1c7.1,0,9.7-6.8,9.7-11.1v-18.3
		C262.2,458.2,261.7,449,252.4,449z M261.4,460.1v18.3c0,4.2-2.4,10.3-8.9,10.3c-6.2,0-8.9-5.2-8.9-10.3v-18.2
		c0-4.8,2.3-10.4,8.9-10.4C261,449.8,261.4,458.4,261.4,460.1z"/>
	<path class="st0" d="M265.9,444c-3.7-2.9-8.7-4.7-13.4-4.7c-1.7,0-7.7,0.3-13.1,4.3c-5.1,3.8-7.7,9.6-7.7,16.9v17.5
		c0,15.4,12.5,21,21,21c4.7,0,9.6-1.7,13.3-4.6c4.7-3.8,7.2-9.5,7.2-16.4v-17.7C273.2,451.7,269.2,446.7,265.9,444z M252.7,498.4
		c-8.1,0-20.2-5.4-20.2-20.3v-17.5c0-16.2,13.1-20.4,20.1-20.4c8,0,19.9,5.4,19.9,20.3v17.7C272.5,493,260.6,498.4,252.7,498.4z"/>
</g>
</svg>
