<?xml version="1.0" encoding="utf-8"?>
<!-- Generator: Adobe Illustrator 19.0.0, SVG Export Plug-In . SVG Version: 6.00 Build 0)  -->
<svg version="1.1" id="svg2" xmlns:svg="http://www.w3.org/2000/svg"
	 xmlns="http://www.w3.org/2000/svg" xmlns:xlink="http://www.w3.org/1999/xlink" x="0px" y="0px" viewBox="-22 353.5 566.9 86.5"
	 style="enable-background:new -22 353.5 566.9 86.5;" xml:space="preserve">
<style type="text/css">
	.st0{fill:#FFFFFF;}
</style>
<g>
	<g id="g4387">
		<path id="path1922" class="st0" d="M34.3,378.2h36l-15.8,16.5H34.3V378.2z"/>
		<path id="path3805" class="st0" d="M34.3,415.3h36l-15.8-16.5H34.3V415.3z"/>
		<path id="path4382" class="st0" d="M33.5,355.2V376c-3.7-2.3-7.8-3.4-12.3-3.4c-4.3,0-8.3,1.1-12,3.3c-3.7,2.2-6.6,5.1-8.7,8.9
			c-2.1,3.7-3.2,7.7-3.2,12c0,4.3,1.1,8.3,3.2,12c2.1,3.7,5,6.6,8.7,8.7c3.7,2.1,7.7,3.2,12,3.2c4.5,0,8.6-1.1,12.3-3.3v20.8
			c-4,1.2-8.1,1.8-12.3,1.8c-7.7,0-14.9-1.9-21.6-5.8c-6.7-3.9-11.9-9.2-15.8-15.8c-3.9-6.7-5.8-13.9-5.8-21.6
			c0-5.8,1.1-11.3,3.4-16.6c2.3-5.3,5.4-10,9.4-14c4-4,8.6-7.1,13.8-9.3c5.2-2.2,10.7-3.3,16.7-3.3
			C25.3,353.5,29.4,354.1,33.5,355.2"/>
	</g>
	<g id="g4407">
		<path id="path4040" class="st0" d="M544.3,382.1c0.3,0.3,0.5,0.8,0.6,1.6c0,0.4,0.1,1.3,0.1,1.9c0,2.1-0.1,3-0.6,3.5
			c-0.5,0.5-1.4,0.7-4,0.7c-2.2,0-3.7-0.1-4.3-0.2c-0.7-0.1-1.2-0.7-1.3-1.3c-0.1-0.5-0.2-1.3-0.2-2.7c0-2.2,0.2-3.1,0.8-3.6
			c0.4-0.3,0.9-0.4,2-0.5c0.5,0,1.9-0.1,2.6-0.1C542.8,381.5,543.7,381.6,544.3,382.1 M535.5,385.6c0,1.9,0,2.6,0.4,2.9
			c0.3,0.3,0.6,0.4,1.5,0.4l2.4,0.1c1.3,0,2.7-0.1,3.1-0.2c0.4-0.1,0.7-0.4,0.9-0.9c0.1-0.5,0.1-1.3,0.1-2.3c0-1.8-0.1-2.5-0.4-2.8
			c-0.4-0.4-0.9-0.5-4.2-0.5C535.5,382.3,535.5,382.4,535.5,385.6 M536.5,383.2h3.8c1.8,0,1.8,0,2.1,0.2c0.4,0.2,0.6,0.6,0.6,1.4
			c0,1-0.2,1.3-0.9,1.4c0.5,0.1,0.7,0.2,0.8,0.5c0,0.2,0.1,0.3,0.1,1v0.5h-1.7v-0.3c0-0.9,0-0.9-1-0.9h-2.1v1.2h-1.7L536.5,383.2
			L536.5,383.2z M540.3,385.6c1,0,1,0,1-0.5c0-0.5,0-0.5-1-0.5h-2.1v1.1L540.3,385.6L540.3,385.6z"/>
		<path id="path4340" class="st0" d="M129.5,399.9c-0.2,5.1-0.8,7.4-2.8,9.4c-2.9,3-6.7,3.8-18.8,3.8c-9.4,0-13.4-0.7-16.4-2.9
			c-3-2.1-4-5.4-4-13.5c0-7.4,0.9-10.7,3.6-12.9c2.9-2.4,6.9-3.1,17.3-3.1c10.2,0,14.7,0.8,17.6,3.2c2.5,1.9,3.3,4.4,3.5,10.1h-11.7
			c-0.4-3.5-2.7-4.7-9.4-4.7c-8,0-9.5,1.2-9.5,7.7c0,4,0.6,5.6,2.7,6.4c1.4,0.6,3.8,0.9,6.9,0.9c6.8,0,8.7-0.9,9.2-4.4L129.5,399.9
			L129.5,399.9z"/>
		<path id="path4342" class="st0" d="M171.4,383.5c3.1,2.3,4,5.1,4,12.8c0,8.4-0.8,11.3-3.6,13.6c-2.9,2.4-6.8,3.1-18.1,3.1
			c-11.5,0-15.3-0.7-18.2-3.1c-2.9-2.3-3.6-5.2-3.6-14.1c0-7.2,0.9-10.1,4-12.3c2.8-2.1,7.3-2.8,17.8-2.8
			C164.1,380.7,168.6,381.4,171.4,383.5 M143.3,397.1c0,4.1,0.5,5.5,2.6,6.3c1.4,0.6,4,1,7.7,1c8.7,0,10.2-1.1,10.2-7.6
			c0-4.2-0.7-5.6-2.8-6.5c-1.5-0.6-4.2-0.9-7.4-0.9C144.9,389.4,143.3,390.5,143.3,397.1"/>
		<path id="path4344" class="st0" d="M188.5,381.5v4.6h0.6c1.7-3.7,5.6-5.4,12.4-5.4c7.4,0,11.5,1.9,14,6.4c2-4.6,5.7-6.4,13.2-6.4
			c6.4,0,10.2,1.2,12.8,4c2.7,2.7,3.3,5.3,3.3,13.2v14.4h-11.5v-14.4c-0.1-5.1-0.2-5.7-1.3-6.8c-1.1-1.2-3.1-1.7-6.5-1.7
			c-3.5,0-5.6,0.6-6.8,2c-1.3,1.4-1.7,3.2-1.7,8.2v12.7h-11.5v-14.4c0-4.8-0.1-5.6-1.2-6.8c-1.1-1.2-3.1-1.7-6.4-1.7
			c-3.5,0-5.7,0.6-7,1.9c-1.3,1.3-1.7,3.3-1.7,8.3v12.7h-11.5v-30.7H188.5z"/>
		<path id="path4346" class="st0" d="M258.3,381.5v4.6h0.5c1.7-3.7,5.6-5.4,12.4-5.4c7.4,0,11.5,1.9,14,6.4c2-4.6,5.7-6.4,13.3-6.4
			c6.4,0,10.1,1.2,12.8,4c2.7,2.7,3.3,5.3,3.3,13.2v14.4H303v-14.4c0-5.1-0.2-5.7-1.3-6.8c-1.2-1.2-3.1-1.7-6.5-1.7
			c-3.4,0-5.6,0.6-6.8,2c-1.3,1.4-1.7,3.2-1.7,8.2v12.7h-11.5v-14.4c0-4.8-0.1-5.6-1.2-6.8c-1.1-1.2-3.1-1.7-6.4-1.7
			c-3.4,0-5.7,0.6-7,1.9c-1.3,1.3-1.7,3.3-1.7,8.3v12.7h-11.5v-30.7H258.3z"/>
		<path id="path4348" class="st0" d="M356.6,383.5c3.1,2.3,3.9,5.1,3.9,12.8c0,8.4-0.8,11.3-3.6,13.6c-2.9,2.4-6.7,3.1-18.1,3.1
			c-11.5,0-15.3-0.7-18.2-3.1c-2.8-2.3-3.6-5.2-3.6-14.1c0-7.2,0.9-10.1,4-12.3c2.8-2.1,7.3-2.8,17.8-2.8
			C349.3,380.7,353.7,381.4,356.6,383.5 M328.5,397.1c0,4.1,0.5,5.5,2.6,6.3c1.4,0.6,4,1,7.7,1c8.7,0,10.2-1.1,10.2-7.6
			c0-4.2-0.6-5.6-2.8-6.5c-1.4-0.6-4.2-0.9-7.4-0.9C330,389.4,328.5,390.5,328.5,397.1"/>
		<path id="path4350" class="st0" d="M406.3,412.2h-10.8v-4h-0.6c-2.2,3.7-5.3,4.8-13.6,4.8c-8.3,0-12.3-0.9-14.9-3.3
			c-2.5-2.3-3.3-5.5-3.3-13.1c0-7.8,1.2-11.5,4.5-13.6c2.8-1.8,6-2.3,13.9-2.3c8.1,0,10.7,1,12.9,4.9h0.5v-16.7h11.5L406.3,412.2
			L406.3,412.2L406.3,412.2z M374.6,396.5c0,6.7,1.3,7.8,9.9,7.8c4.2,0,7.3-0.5,8.7-1.4c1.3-0.9,1.7-2.5,1.7-6
			c0-6.4-1.5-7.5-9.7-7.5C376.1,389.3,374.6,390.3,374.6,396.5"/>
		<path id="path4352" class="st0" d="M447.9,383.5c3.1,2.3,4,5.1,4,12.8c0,8.4-0.8,11.3-3.6,13.6c-2.9,2.4-6.8,3.1-18.1,3.1
			c-11.5,0-15.3-0.7-18.2-3.1c-2.9-2.3-3.6-5.2-3.6-14.1c0-7.2,0.9-10.1,3.9-12.3c2.9-2.1,7.4-2.8,17.8-2.8
			C440.7,380.7,445.1,381.4,447.9,383.5 M419.9,397.1c0,4.1,0.5,5.5,2.6,6.3c1.4,0.6,4,1,7.7,1c8.7,0,10.2-1.1,10.2-7.6
			c0-4.2-0.6-5.6-2.8-6.5c-1.4-0.6-4.2-0.9-7.4-0.9C421.5,389.4,419.9,390.5,419.9,397.1"/>
		<path id="path4354" class="st0" d="M465.1,381.5v4.6h0.6c2.1-3.9,5.4-5.4,11.8-5.4c9.2,0,12.4,3.1,12.4,12.3v2.1h-10.8
			c0-4.6-1.3-5.8-6-5.8c-2.6,0-4.8,0.8-5.9,2.2c-1.1,1.5-1.4,3.2-1.4,7.9v12.7h-11.5v-30.7H465.1z"/>
		<path id="path4356" class="st0" d="M533.1,402.4c-0.9,8.5-5.1,10.6-21.5,10.6c-8.9,0-13.1-0.8-15.9-2.9c-3-2.3-3.9-5.3-3.9-13.2
			c0-8.2,0.9-11.3,4.1-13.6c3-2.1,6.8-2.7,16.8-2.7c10.3,0,14,0.6,16.8,2.9c2.7,2.3,3.8,5.7,3.8,12.7c0,0.4,0,1.8,0,3.1h-30
			c0,3.1,0.4,4.2,1.5,5c1.2,0.9,3.6,1.3,7.8,1.3c7.3,0,8.7-0.5,9.2-3.3L533.1,402.4L533.1,402.4z M521.8,393.1
			c-0.1-2.4-0.2-3-0.9-3.7c-1.1-1.1-3.4-1.6-7.9-1.6c-7.7,0-9.6,1-9.7,5.3C503.2,393.1,521.8,393.1,521.8,393.1z"/>
	</g>
</g>
</svg>
