<?xml version="1.0" encoding="utf-8"?>
<!-- Generator: Adobe Illustrator 19.0.0, SVG Export Plug-In . SVG Version: 6.00 Build 0)  -->
<svg version="1.1" id="Ebene_1" xmlns="http://www.w3.org/2000/svg" xmlns:xlink="http://www.w3.org/1999/xlink" x="0px" y="0px"
	 viewBox="-22 299.4 566.9 194.6" style="enable-background:new -22 299.4 566.9 194.6;" xml:space="preserve">
<style type="text/css">
	.st0{fill:#F9F9F9;}
	.st1{fill:#F2F2F2;}
	.st2{fill:#FFFFFF;}
</style>
<g>
	<rect x="-22" y="299.4" class="st0" width="566.9" height="56.3"/>
	<path d="M213.6,328c0,4.2,0,8.5,0,12.7c0,2.4-0.4,2.8-2.8,2.9c-0.8,0-1.5-0.1-2.3,0c-2.2,0.2-3.8-0.7-5.2-2.2
		c-6.1-6.6-12.4-13.2-18.5-19.8c-0.3-0.3-0.5-0.6-0.8-0.8c-0.5-0.4-0.9-0.3-1,0.4c-0.1,0.7,0,1.3,0,2c0,5.8,0,11.5,0,17.3
		c0,2.9-0.3,3.2-3.3,3.2c-4.5,0.1-4.5,0.1-4.5-4.5c0-7.7,0-15.5,0-23.2c0-0.7,0-1.3,0-2c0-1,0.5-1.7,1.5-1.7c2.2,0,4.4-0.1,6.5,0.1
		c0.8,0.1,1.7,0.8,2.3,1.5c3.1,3.2,6.2,6.4,9.2,9.6c3.2,3.4,6.4,6.9,9.6,10.4c0.4,0.4,0.9,0.6,1.3,0.9c0.1-0.5,0.2-1.1,0.2-1.6
		c0-5.6,0-11.1,0-16.7c0-0.7,0-1.3,0-2c0.1-1.5,0.6-2.1,2.1-2.1c6.5-0.1,5.5-0.3,5.5,5.1C213.7,320.8,213.6,324.4,213.6,328z"/>
	<path d="M43.1,325.7c2.2,0,4.3,0,6.5,0c1.3,0,1.9,0.6,1.9,1.9c0,3.8,0,7.5,0,11.3c0,1.5-0.7,2.1-2.2,2.5c-1.4,0.4-5.9,1.3-10.8,1.8
		s-8.8-0.2-13-1.4c-2-0.6-3.8-1.6-5.6-2.6c-8.7-5.2-9.1-17.3,0.1-23.5c3.6-2.4,7.6-3.6,11.8-4.3c4.7-0.8,9.4-0.3,14,0.2
		c0.8,0.1,1.7,0.3,2.5,0.6c1.5,0.5,1.9,1.1,2,2.7c0.1,2.3-0.6,2.8-2.9,2.2c-5.3-1.4-10.6-1.7-15.9-0.6c-2.7,0.6-5.1,1.8-7.1,3.8
		c-4.6,4.5-3.8,12.2,1.6,15.7c2.2,1.5,4.7,2.1,7.4,2.3c2.7,0.2,3.2,0.2,5.9,0c0.9-0.1,1.8-0.3,2.8-0.4c1.3-0.2,1.7-0.9,1.7-2.1
		c-0.1-6.2,0.7-5.1-5-5.2c-0.8,0-1.5,0.1-2.3,0c-1.9-0.2-2.9-2-2-3.8c0.4-0.9,1.2-1.1,2.1-1C38.8,325.7,41,325.7,43.1,325.7
		C43.1,325.7,43.1,325.7,43.1,325.7z"/>
	<path d="M100.6,327.5c0-4,0-7.9,0-11.9c0-3.3,0.2-3.5,3.3-3.5c6.2,0,12.5,0,18.7,0c2.3,0,2.6,0.3,2.7,2.3c0.1,2.2-0.3,2.6-2.6,2.6
		c-3.8,0-7.6,0-11.3,0c-2.6,0-2.6,0-2.6,2.5c0,1.1,0,2.3,0,3.4c0.1,2.1,0.1,2.2,2.3,2.2c3.5,0,7,0,10.5,0c2.3,0,3.4,1.9,2.4,4
		c-0.4,1-1.3,0.9-2.2,0.9c-2.9,0-5.9,0-8.8,0c-0.7,0-1.3,0-2,0c-2.2,0.1-2.2,0.1-2.3,2.2c0,1.3,0,2.6,0,4c0,2,0.1,2,2.1,2
		c3.8,0,7.6,0,11.3,0c0.6,0,1.1,0,1.7,0c2,0.1,2.5,0.6,2.5,2.6c0,2.1-0.4,2.7-2.7,2.7c-6.7,0-13.4,0-20.1,0c-2.4,0-3-0.6-3-3
		C100.5,336.2,100.6,331.8,100.6,327.5z"/>
	<path d="M265.5,327.5c0-4.2,0-8.3,0-12.5c0-2.6,0.4-2.9,3-2.9c6.3,0,12.7,0,19,0c2.4,0,3.5,1.7,2.5,4c-0.4,1-1.3,1-2.1,1
		c-3.4,0-6.8,0-10.2,0c-4.5,0-4-0.4-4.1,4.1c0,4.3-0.4,3.9,4,3.9c3,0,6,0,9.1,0c0.8,0,1.9-0.1,2.1,0.9c0.2,1.1,0.2,2.3-0.1,3.3
		c-0.1,0.4-1.3,0.7-2,0.7c-2.8,0.1-5.7,0-8.5,0c-0.6,0-1.1,0-1.7,0c-2.9,0-2.9,0-2.9,2.8c0,1.2,0,2.5,0,3.7c0.1,1.7,0.1,1.7,1.8,1.7
		c4,0,7.9,0,11.9,0c0.7,0,1.3,0,2,0c1.6,0.2,2,0.8,2,2.8c0,1.7-0.5,2.3-2.1,2.4c-1.4,0.1-2.8,0-4.2,0c-5.4,0-10.8,0-16.1,0
		c-2.8,0-3.3-0.5-3.3-3.3C265.5,336,265.5,331.8,265.5,327.5z"/>
	<path d="M371.2,314.8c0,2-0.5,2.5-2.4,1.9c-3.6-1.1-7.3-1-10.9-0.8c-1.3,0.1-2.6,0.5-3.8,1c-2.4,1.2-2.5,3.8-0.2,5.1
		c1.5,0.8,3.1,1.4,4.6,2.1c3.1,1.3,6.3,2.5,9.4,3.8c1.1,0.5,2.2,1.2,3,2c3.2,3.2,2.8,7.1-0.6,9.8c-2.6,2.1-5.8,2.8-8.9,3.2
		c-4.5,0.6-9,0.4-13.4-0.4c-0.6-0.1-1.3-0.3-1.9-0.5c-1.9-0.6-2.7-2.4-1.9-4.2c0.2-0.3,0.7-0.7,1-0.7c0.7,0,1.5,0.2,2.2,0.4
		c4.2,1,8.5,1.8,12.8,0.8c0.2,0,0.4,0,0.6-0.1c1.8-0.5,3.7-1,4-3c0.3-1.9-1.4-3-3-3.7c-1.7-0.8-3.5-1.4-5.2-2
		c-3.2-1.1-6.5-2.1-9.2-4.1c-1.2-0.9-2.4-2.2-3-3.6c-1.1-2.3-0.1-5.1,2-6.8c2.1-1.7,4.6-2.7,7.2-3.2c5-0.9,10.1-1,15.2-0.1
		C370.8,312,371.2,312.6,371.2,314.8z"/>
	<path d="M508,314.8c0,2-0.5,2.5-2.4,1.9c-3.6-1.1-7.3-1-10.9-0.8c-1.3,0.1-2.6,0.5-3.8,1c-2.4,1.2-2.5,3.8-0.2,5.1
		c1.5,0.8,3.1,1.4,4.6,2.1c3.1,1.3,6.3,2.5,9.4,3.8c1.1,0.5,2.2,1.2,3,2c3.2,3.2,2.8,7.1-0.6,9.8c-2.6,2.1-5.8,2.8-8.9,3.2
		c-4.5,0.6-9,0.4-13.4-0.4c-0.6-0.1-1.3-0.3-1.9-0.5c-1.9-0.6-2.7-2.4-1.9-4.2c0.1-0.3,0.7-0.7,1-0.7c0.7,0,1.5,0.2,2.2,0.4
		c4.2,1,8.5,1.8,12.8,0.8c0.2,0,0.4,0,0.6-0.1c1.8-0.5,3.7-1,4-3c0.3-1.9-1.4-3-3-3.7c-1.7-0.8-3.5-1.4-5.2-2
		c-3.2-1.1-6.5-2.1-9.2-4.1c-1.2-0.9-2.4-2.2-3-3.6c-1.1-2.3-0.1-5.1,2-6.8c2.1-1.7,4.6-2.7,7.2-3.2c5-0.9,10.1-1,15.2-0.1
		C507.6,312,508,312.6,508,314.8z"/>
	<path d="M430.9,312.1c2,0,4-0.1,5.9,0c1.4,0.1,1.8,0.5,1.8,2c0.1,1.6-0.3,2.1-1.7,2.4c-2.3,0.4-2.4,0.4-2.4,2.7
		c0,5.8,0,11.5,0,17.3c0,2,0,2,2,2.4c1.7,0.3,2.1,0.8,2,2.4c0,1.6-0.6,2.2-2.3,2.2c-3.8,0.1-7.5,0.1-11.3,0c-1.5,0-2-0.6-2.1-2.1
		c-0.1-1.6,0.3-2.2,1.9-2.6c2-0.5,2.1-0.5,2.1-2.5c0-5.8,0-11.7,0-17.5c0-2,0-2-2.1-2.4c-1.5-0.3-1.9-0.7-1.8-2.3c0-1.6,0.4-2,2-2.1
		C426.9,312.1,428.9,312.1,430.9,312.1C430.9,312.1,430.9,312.1,430.9,312.1z"/>
	<path class="st1" d="M319.4,493.3c-2.3-2.4-8.3-2.6-9.3-2.6c-42.6,0-85.2,0-127.8,0c-4.3,0-5.1,0.5-4.6-5c0.9-9,4.2-17.3,10.7-23.8
		c1.2-1.3,1.7-1.7,4.5-4.3c12.1-11,36.2-19.7,36.2-19.7s20.2-7.4,31.5-11.9c5.1-2,10-4.3,14.6-7.4c16.4-12.9,7.9-25.8-13.8-28.8
		c-15.2-2.2-29,1.5-41.7,9.7c-1.7,1.1-3.1,2.1-4.7,3.3c-2.9,2.4-5.3,5.2-5.8,8.3c-0.3,1.7,0,2.8,0,3.1c0.1,0.9,0.4,2.3-0.3,2.9
		c-0.8,0.8-2.4,0-3.1-0.7c-6.6-6.2-13.2-12.4-19.8-18.6c-0.4-0.4-1.2-1.2-1.2-1.2s-0.7-0.8-0.7-1.4c0-0.6,0.6-1.2,1.4-1.5
		c3.6-0.7,5.2-0.9,7.4-2.4c5.8-4.2,11.9-8,18.3-11.2c8.7-4.2,17.7-6.7,27.3-8c7.3-1,28.8-4.3,54,6.8c6.6,2.9,12.3,7,16.6,12.8
		c2.5,3.4,12.1,22.3-7.4,37.3c-7,5.6-15.3,9-23.7,12c-7.2,2.5-12.5,4.4-24.2,7.8c-8.9,2.7-15.3,4.7-25.6,9.6
		c-8.1,3.9-13.5,8.5-13.5,8.5s-2.7,2.1-2.1,3.7c0.4,1.4,2.7,1.3,4,1.3c31.4,0,62.9,0,94.3,0c3.3,0,6.4-0.2,8.9-2.8
		c0.4-0.4,1.3-0.6,1.8-0.4c0.4,0.2,0.7,1.1,0.7,1.6c0,7.4,0.1,14.9,0,22.3c0,0.7-0.2,1-0.6,1.2C321.1,494.2,320,494,319.4,493.3z"/>
	<path class="st1" d="M85.1,492.4c-5.2-0.3-10.3-1-15.4-1.9c-20.7-3.7-30.4-8.6-36.2-10.8c-2.8-1.1-5.5-2.1-8.5-1
		c-0.3,0.1-0.7,0.1-1.1,0.1c-1.9,0-2.5-0.7-1.7-2.4c1-2,2.1-4,3.3-5.9c3.2-5.3,6.4-10.5,9.6-15.7c0.1-0.2,0.3-0.5,0.5-0.7
		c0.7-1.1,1.4-2.1,2.9-1.9c1.4,0.2,1.7,1.4,2,2.5c0.6,2.4,2.1,4.2,4,5.6c4.5,3.5,9.7,5.9,15,7.7c7,2.4,14.1,4,21.4,5.1
		c8.6,1.4,17.3,1.5,26,1c7.3-0.4,14.6-1.8,21.5-4.5c4.2-1.6,7.4-4.6,10-8.1c3.4-4.7,2-11.2-2.6-14.9c-6.3-5-13.6-7-21.3-8.3
		c-7-1.2-13.9-1.1-20.9-1c-3.3,0-11.1,0.4-14.1,3.1c-1.1,1-2,1-2.5,0.6c-0.5-0.5-0.5-1.2-0.6-1.9c-0.1-6.8-0.1-13.6,0-20.4
		c0-2.2,1.1-2.9,2.8-1.7c2.2,1.5,4.6,2.2,7.1,2.5c4.2,0.5,17.9,0.1,20.7-0.3c7.5-1,6.8-0.9,11.2-2c4.7-1.3,9.1-4.5,11.5-7.2
		c0,0,0.1-0.1,0.1-0.1c3.2-3.9,2.2-8.4-0.9-11.6c-2.9-3.1-6.5-5.1-10.6-6.3c-6.6-2-13.5-3-20.4-2.7c-12.5,0.6-24.8,2.5-36.1,8.3
		c-2.6,1.3-5,3-7.4,4.7c-2,1.4-3.1,3.5-3.1,6.1c0,1.3,0.2,2.8-1.4,3.4c-1.6,0.6-2.4-0.8-3.3-1.7c-5.8-5.9-11.5-11.7-17.2-17.6
		c-0.3-0.3-0.7-0.7-0.9-1.1c-0.7-1.1-0.3-2.1,1.1-2.2c1.5-0.2,3.1,0.1,4.5-0.4c2-0.7,4-1.8,5.9-2.7c5.2-2.5,10.2-5.4,15.5-7.6
		c8.4-3.5,17.3-5.3,26.3-6.4c8.6-1.1,23.9-1.5,34.9,0.1c7.4,1.1,14.7,2.6,21.5,5.6c6,2.7,11.9,5.7,16.4,10.8
		c3.3,3.7,5.4,7.8,6.2,12.8c0.7,4.8-0.1,9.1-2.1,13.4c-1.4,2.9-3.5,4.9-6.4,6.6c-5.7,3.4-9,4.2-9.7,4.7c-1.1,0.7-1.2,1.6,0,2.3
		c1,0.6,2.2,1,3.4,1.3c6.8,2.1,12.7,5.9,17.6,11c3.6,3.7,5.7,8.2,6.4,13.5c0.7,5.4-0.5,10.2-2.9,15c-1.8,3.7-4.9,6.3-8,8.6
		c-6.4,4.7-13.6,8-21.3,10.2c-5.7,1.7-11.5,2.8-17.4,3.6C100.1,493.8,89.8,492.7,85.1,492.4z"/>
	<path class="st1" d="M361.9,372.2c6.7,0,13.4,0,20.1,0c0.7,0,1.3-0.1,2,0c1.5,0.2,1.7,0.8,0.8,2c-1.7,2.2-1.7,2.4,0.2,4.4
		c0.1,0.1,0.1,0.1,0.2,0.2c9.4,9.5,18.7,18.9,28.1,28.4c0.5,0.5,0.9,1,1.4,1.4c0.9,0.7,1.9,0.7,2.9-0.1c0.5-0.4,1-0.9,1.4-1.4
		c9.2-9.3,18.5-18.6,27.7-28c0.3-0.3,0.7-0.7,1-1c1.2-1.5,1.2-2.1,0.1-3.7c-1-1.4-1-2.2,1.1-2.3c0.5,0,0.9,0,1.4,0
		c13.6,0,27.2,0,40.8,0c0.8,0,1.7,0,2.5,0.2c0.3,0.1,0.8,0.6,0.8,1c0.1,0.4-0.2,1-0.5,1.2c-0.9,0.5-1.9,0.9-2.9,1.1
		c-3.8,0.8-6.9,2.7-9.7,5.5c-11.8,12.1-23.8,24-35.7,36c-3,3-5.9,6.1-8.8,9.2c-1.9,1.9-1.9,2.9,0,4.8c3.3,3.4,6.7,6.6,10,10
		c2.4,2.5,4.7,5.2,7.1,7.6c6.5,6.6,13.1,13.1,19.6,19.7c4.4,4.4,8.7,8.9,13,13.4c2.5,2.6,5.4,4.4,8.9,5.3c1.3,0.3,2.5,0.8,3.7,1.3
		c0.3,0.1,0.7,0.8,0.6,1.1c-0.1,0.4-0.5,0.8-0.9,0.9c-0.6,0.2-1.3,0.2-2,0.2c-13.9,0-27.8,0-41.6,0c-0.6,0-1.1,0-1.7-0.1
		c-0.9-0.3-1.2-0.8-0.7-1.7c0.5-0.8,1.2-1.6,1.1-2.4c-0.1-0.8-0.9-1.6-1.6-2.2c-10.8-11-21.6-22-32.3-32.9c-0.4-0.4-0.8-0.8-1.2-1.2
		c-2.4-2.3-3.3-2.3-5.6,0c-6.9,6.9-13.8,13.7-20.6,20.6c-4.4,4.5-8.8,9.1-13.1,13.7c-1.6,1.7-1.6,1.8-0.4,4.1c0.7,1.3,0.4,1.9-1,2.1
		c-0.6,0.1-1.3,0.1-2,0.1c-13.4,0-26.8,0-40.2,0c-1.2,0-3.2,0.3-3.3-1.1c-0.2-1.5,1.6-1.6,2.7-1.9c4.9-1.1,8.6-3.9,12.1-7.5
		c11-11.3,22.2-22.4,33.3-33.6c3.4-3.5,6.7-7.1,10.1-10.6c1.3-1.4,2.8-2.6,4.1-3.9c2.8-2.8,2.8-3.5,0.1-6.2
		c-8.2-8.3-16.3-16.5-24.5-24.8c-6.6-6.7-13.3-13.4-19.8-20.2c-2.5-2.6-5.5-4.2-9-5.1c-0.6-0.2-1.3-0.3-1.9-0.5
		c-0.9-0.3-2-0.5-1.9-1.7c0.1-1.2,1.2-1.2,2.2-1.2c0.6,0,1.1,0,1.7,0C348.5,372.2,355.2,372.2,361.9,372.2z"/>
	<polygon class="st2" points="500.2,337.1 500.3,336.9 500.2,337.1 	"/>
	<polygon class="st2" points="500.2,337.1 500.1,337.2 500.2,337.1 	"/>
</g>
</svg>
