<?xml version="1.0" encoding="utf-8"?>
<!-- Generator: Adobe Illustrator 19.0.0, SVG Export Plug-In . SVG Version: 6.00 Build 0)  -->
<svg version="1.1" id="svg101576" xmlns:svg="http://www.w3.org/2000/svg"
	 xmlns="http://www.w3.org/2000/svg" xmlns:xlink="http://www.w3.org/1999/xlink" x="0px" y="0px" viewBox="-22 357.7 566.9 78.3"
	 style="enable-background:new -22 357.7 566.9 78.3;" xml:space="preserve">
<style type="text/css">
	.st0{fill:#999999;}
	.st1{fill:#FFFFFF;}
</style>
<g>
	<path id="path100608" class="st0" d="M325.9,428.1c0,0.8-0.7,1.6-1.5,1.6h-29.1c-0.8,0-1.5-0.7-1.5-1.6v-21c0-0.8,0.7-1.5,1.5-1.5
		h29.1c0.8,0,1.5,0.7,1.5,1.5V428.1z M324.6,399.3H295c-4.3,0-7.8,3.5-7.8,7.8v21.1c0,4.2,3.5,7.8,7.8,7.8h29.6
		c4.3,0,7.8-3.6,7.8-7.8v-21.1C332.4,402.8,328.9,399.3,324.6,399.3"/>
	<path id="path100618" class="st1" d="M-15.2,367.7c0,0,0,26.8,0,27.2c-0.4,0-6.4,0-6.8,0c0-0.4,0-36.3,0-36.7c0.4,0,5.6,0,5.8,0
		l27.5,26.8c0,0,0-26.3,0-26.8c0.4,0,5.4,0,5.4,0s1,0,1.3,0c0,0.4,0,36.3,0,36.7c-0.4,0-5.1,0-5.3,0L-15.2,367.7"/>
	<path id="path100622" class="st1" d="M52.9,367.7c0,0,0,26.8,0,27.2c-0.4,0-6.4,0-6.8,0c0-0.4,0-36.3,0-36.7c0.4,0,5.6,0,5.8,0
		l27.5,26.8c0,0,0-26.3,0-26.8c0.4,0,5.5,0,5.5,0s1,0,1.3,0c0,0.4,0,36.3,0,36.7c-0.4,0-5.1,0-5.3,0L52.9,367.7"/>
	<path id="path100626" class="st1" d="M194.2,367.7c0,0,0,26.8,0,27.2c-0.4,0-6.4,0-6.8,0c0-0.4,0-36.3,0-36.7c0.4,0,5.6,0,5.8,0
		l27.5,26.8c0,0,0-26.3,0-26.8c0.4,0,5.4,0,5.4,0s1,0,1.3,0c0,0.4,0,36.3,0,36.7c-0.4,0-5.1,0-5.3,0L194.2,367.7"/>
	<path id="path100630" class="st1" d="M34.2,358.1c0,0,1,0,1.3,0c0,0.4,0,36.3,0,36.7c-0.4,0-6.4,0-6.8,0c0-0.4,0-36.3,0-36.7
		C29.1,358.1,34.2,358.1,34.2,358.1"/>
	<path id="path100634" class="st1" d="M132.5,358.1c0,0,0.9,0,1.2,0c0,0.3,0,6,0,6.3c-0.4,0-16.4,0-16.4,0s0,30,0,30.4
		c-0.4,0-6.7,0-7.1,0c0-0.4,0-30.4,0-30.4s-16,0-16.4,0c0-0.3,0-6,0-6.3C94.3,358.1,132.5,358.1,132.5,358.1"/>
	<path id="path100638" class="st1" d="M176,358.1c0,0,1,0,1.3,0c0,0.3,0,6,0,6.3c-0.4,0-29.1,0-29.1,0v8.2c0,0,22.2,0,22.5,0
		c0,0.4,0,5.9,0,6.3c-0.4,0-22.5,0-22.5,0v9.6c0,0,28.7,0,29.1,0c0,0.3,0,5.9,0,6.3c-0.4,0-35.5,0-35.9,0c0-0.4,0-36.3,0-36.7
		C141.8,358.1,176,358.1,176,358.1"/>
	<path id="path100642" class="st1" d="M265.2,388.6h-20.9v-24.1h20.9c6.5,0,8.9,6.5,8.9,12C274.1,382,271.7,388.6,265.2,388.6z
		 M276.4,363.5c-2.7-3.6-6.6-5.4-11.3-5.4c0,0-26.8,0-27.2,0c0,0.4,0,36.3,0,36.7c0.4,0,27.2,0,27.2,0c4.8,0,8.7-1.9,11.3-5.4
		c2.5-3.2,3.8-7.7,3.8-13C280.2,371.3,278.9,366.8,276.4,363.5"/>
	<path id="path100646" class="st1" d="M325.9,387.1c0,0.7-0.7,1.5-1.5,1.5h-29.1c-0.8,0-1.5-0.7-1.5-1.5V366c0-0.8,0.7-1.5,1.5-1.5
		h29.1c0.8,0,1.5,0.7,1.5,1.5V387.1z M324.6,358.1H295c-4.3,0-7.8,3.5-7.8,7.8v21.1c0,4.3,3.5,7.8,7.8,7.8h29.6
		c4.3,0,7.8-3.5,7.8-7.8V366C332.4,361.6,328.9,358.1,324.6,358.1"/>
	<path id="path100656" class="st1" d="M448,420.5c7,2.8,21.9,5.1,33.5,5.1c12.7,0,18-4.3,18-9.8c0-5-4.9-7.8-18.9-13
		c-18.8-6.9-32.5-12.4-32.5-24.8c0-12.7,16.6-20.3,41.8-20.3c13.6,0,18.2,0.8,26.8,2.4l0.1,12.1c-8.5-1.6-16-4.3-27.6-4.3
		c-12.5,0-17.8,4-17.8,8.1c0,5.9,8.2,8.7,22.6,13.9c20,7.1,31.1,12.6,31.1,24.7c0,12.5-13.9,21.4-45.4,21.4
		c-12.9,0-21.8-0.8-31.7-2.5L448,420.5"/>
	<path id="path100660" class="st1" d="M381.1,368.4h-15v56.7h15c23,0,37.4-9.9,37.4-28.3C418.6,378.5,404.1,368.4,381.1,368.4z
		 M421.3,430.3c-7.4,3.3-21.4,5.5-33.6,5.5h-46.7v-77.9h46.7c12.2,0,26.2,2.2,33.6,5.5c18,8.1,23.9,21.2,23.9,33.5
		C445.2,409.2,439.3,422.2,421.3,430.3"/>
	<path id="path100678" class="st1" d="M529.8,424.2h-3v-1.1h7.3v1.1h-3v8.7h-1.3V424.2"/>
	<path id="path100682" class="st1" d="M543.4,428.6c-0.1-1.3-0.2-3-0.2-4.2h0c-0.3,1.2-0.7,2.4-1.2,3.7l-1.7,4.8h-1l-1.6-4.7
		c-0.5-1.4-0.8-2.7-1.1-3.8h0c0,1.2-0.1,2.9-0.2,4.3l-0.3,4.2h-1.2l0.7-9.8h1.6l1.7,4.7c0.4,1.2,0.7,2.3,1,3.3h0
		c0.3-1,0.6-2.1,1.1-3.3l1.8-4.7h1.6l0.6,9.8h-1.3L543.4,428.6"/>
</g>
</svg>
