<?xml version="1.0" encoding="utf-8"?>
<!-- Generator: Adobe Illustrator 19.0.0, SVG Export Plug-In . SVG Version: 6.00 Build 0)  -->
<svg version="1.1" id="Layer_1" xmlns="http://www.w3.org/2000/svg" xmlns:xlink="http://www.w3.org/1999/xlink" x="0px" y="0px"
	 viewBox="-22 361.8 566.9 71.2" style="enable-background:new -22 361.8 566.9 71.2;" xml:space="preserve">
<style type="text/css">
	.st0{fill:#FFFFFF;}
</style>
<g>
	<polygon class="st0" points="-22,361.8 8.1,361.8 8.1,372.3 -11.5,372.3 -11.5,385.1 8.1,385.1 8.1,395.9 -11.5,395.9 -11.5,418.5 
		-22,418.5 	"/>
	<path class="st0" d="M42.3,418.5H32.1v-8.8H12.2l-5.9,8.8H-5.7L34,361.8h8.4L42.3,418.5L42.3,418.5z M32.1,399v-16.5L19.9,399H32.1
		z"/>
	<polygon class="st0" points="46.3,361.8 58.2,361.8 75,399.9 91.9,361.8 103.9,361.8 103.9,418.5 93.3,418.5 93.3,389.9 
		80.2,418.5 69.5,418.5 56.9,389.9 56.9,418.5 46.3,418.5 	"/>
	<polygon class="st0" points="301.3,361.8 313.2,361.8 330,399.9 346.8,361.8 358.9,361.8 358.9,418.5 348.3,418.5 348.3,389.9 
		335.2,418.5 324.5,418.5 311.9,389.9 311.9,418.5 301.3,418.5 	"/>
	<rect x="107.3" y="361.8" class="st0" width="11" height="56.7"/>
	<polygon class="st0" points="121.2,361.8 132.2,361.8 132.2,408.2 146.5,408.2 146.5,418.5 121.2,418.5 	"/>
	<polygon class="st0" points="134.3,361.8 146.5,361.8 158,385.1 169.1,361.8 181.2,361.8 163.1,397.9 163.1,418.5 152.4,418.5 
		152.4,397.9 	"/>
	<path class="st0" d="M240.9,403.9"/>
	<path class="st0" d="M240.8,377.5c-4.8-9.2-14.4-15.4-25.5-15.4c-15.9,0-28.8,12.9-28.8,28.8c0,15.9,12.9,28.8,28.8,28.8
		c11.1,0,20.8-6.3,25.6-15.6l-13,0.1c-3.2,3-7.5,4.8-12.2,4.8c-10,0-18-8.1-18-18c0-10,8.1-18,18-18c4.6,0,8.9,1.8,12.1,4.6
		L240.8,377.5z"/>
	<path class="st0" d="M269.2,419.7c-16,0-28.9-12.9-28.9-28.9s13-28.9,28.9-28.9c16,0,28.9,12.9,28.9,28.9
		C298.1,406.8,285.2,419.7,269.2,419.7z M287.6,390.8c0-10.1-8.2-18.3-18.3-18.3c-10.1,0-18.3,8.2-18.3,18.3
		c0,10.1,8.2,18.3,18.3,18.3C279.4,409.1,287.6,400.9,287.6,390.8z"/>
	<path class="st0" d="M381.4,361.8c9.6,0.8,17.1,8.8,17.1,18.6c0,9.8-7.5,17.8-17.1,18.6l-8.3,0v19.5h-10.6v-56.7h10.6L381.4,361.8z
		 M373.1,372.7v15.4l8.3,0c3.6-0.7,6.4-3.9,6.4-7.7c0-3.8-2.7-7-6.4-7.7L373.1,372.7z"/>
	<path class="st0" d="M515.3,419.2h-10.5v-56.9l14.6,0l8.3,0c9.6,0.8,17.1,8.8,17.1,18.6c0,8-5,14.8-12.1,17.5l12.3,20.9h-11.5
		l-17.2-29.4h-1L515.3,419.2L515.3,419.2z M527.6,388.6c3.6-0.7,6.4-3.9,6.4-7.7c0-3.8-2.7-7-6.4-7.7h-12.4v15.4L527.6,388.6z"/>
	<path class="st0" d="M412.4,394.6l0,8.3c0.7,3.6,3.9,6.4,7.7,6.4c3.8,0,7-2.7,7.7-6.4l0-8.3l0-32.3h10.9v32.3l0,8.3
		c-0.8,9.6-8.8,17.1-18.6,17.1c-9.8,0-17.8-7.5-18.6-17.1l0-8.3l0-32.3h10.9L412.4,394.6z"/>
	<polygon class="st0" points="449.5,419.2 460.3,419.2 460.3,373.1 469.9,373.1 469.9,362.3 440.2,362.3 440.2,373.1 449.5,373.1 	
		"/>
	<polygon class="st0" points="502,419.2 472.5,419.2 472.5,362.3 502,362.3 502,372.7 483.1,372.7 483.1,386.3 502,386.3 502,396.9 
		483.1,396.9 483.1,408.7 502,408.7 	"/>
	<path class="st0" d="M515.3,389.9"/>
	<polygon class="st0" points="-22,427.5 -22,433 533.4,433 544.9,427.5 	"/>
</g>
</svg>
