<?xml version="1.0" encoding="utf-8"?>
<!-- Generator: Adobe Illustrator 19.0.0, SVG Export Plug-In . SVG Version: 6.00 Build 0)  -->
<svg version="1.1" id="Layer_1" xmlns:svg="http://www.w3.org/2000/svg"
	 xmlns="http://www.w3.org/2000/svg" xmlns:xlink="http://www.w3.org/1999/xlink" x="0px" y="0px" viewBox="-21 338.9 568.9 116.1"
	 style="enable-background:new -21 338.9 568.9 116.1;" xml:space="preserve">
<style type="text/css">
	.st0{fill:#CED1DD;}
	.st1{fill:#DDDDDD;}
	.st2{fill:#202066;}
	.st3{fill:url(#polygon37_2_);}
	.st4{fill:url(#polygon37_3_);}
	.st5{fill:url(#rect58_2_);}
	.st6{fill:url(#rect58_3_);}
	.st7{fill:url(#polygon79_2_);}
	.st8{fill:url(#polygon79_3_);}
	.st9{fill:url(#polygon100_2_);}
	.st10{fill:url(#polygon100_3_);}
	.st11{fill:url(#polygon121_2_);}
	.st12{fill:url(#polygon121_3_);}
	.st13{fill:#C2C4D2;}
	.st14{fill:url(#polygon142_2_);}
	.st15{fill:url(#polygon142_3_);}
	.st16{fill:url(#polygon163_2_);}
	.st17{fill:url(#polygon163_3_);}
</style>
<g>
	<polygon points="512.1,370.7 511.8,370.6 327.3,370.6 308.3,337.9 217.4,337.9 198.3,370.6 13.1,370.6 -22,390.5 -22,434.1 
		12.9,453.9 13.1,454 511.8,454 546.7,434.3 546.9,434.1 546.9,390.5 	"/>
	<polygon class="st0" points="-21,391 -21,433.5 13.4,453 511.6,453 545.9,433.5 545.9,391 511.6,371.6 326.8,371.6 307.7,338.9 
		217.9,338.9 198.9,371.6 13.4,371.6 	"/>
	<path id="path14" class="st1" d="M323.7,376.1l-19-32.7h-0.3H221h-0.3l-19,32.7H15.8l-32.2,18.1v36.1l32.2,18.1h493.9l32.2-18.1
		v-36.1l-32.2-18.1L323.7,376.1L323.7,376.1z"/>
	<path id="path16" class="st2" d="M288.5,352.3l-7.1,21.7h3.5l7.1-21c0.3-1,1-1.7,2-1.7c0.9,0,1.7,0.7,2,1.7l6,17.7h-9.5v3.2h14.1
		l-7.1-21.7c-0.7-2.4-2.9-4.1-5.5-4.1C291.4,348.2,289.1,349.9,288.5,352.3z M292.6,365.8l1.2-3.7l1.3,3.7H292.6z M292.1,355.2
		l-6.4,18.9h4.1l2.6-7.8v3.7h8.3l-4.9-14.7c-0.3-0.8-1-3.2-1.9-3.2C293.1,352,292.4,354.4,292.1,355.2L292.1,355.2z M269.6,352.3
		h12.3v-3.5h-12.6c-3.4,0-6.2,2.8-6.2,6.2v12.9c0,3.4,2.8,6.2,6.2,6.2h12.6v-16.5h-10v3.2h6.5v9.7h-8.8c-1.6,0-2.9-1.3-2.9-2.9
		v-12.4C266.6,353.6,267.9,352.3,269.6,352.3z M271.9,361.7v3.5h2.1v0.9h-2.1c-0.5,0-0.9-0.4-0.9-0.9v-7.6c0-0.5,0.4-0.9,0.9-0.9h10
		v-3.5h-11.5c-1.6,0-2.9,1.3-2.9,2.9v10.6c0,1.6,1.3,2.9,2.9,2.9h7.1v-7.9L271.9,361.7L271.9,361.7z M249.3,352.3h12.3v-3.5H249
		c-3.4,0-6.2,2.8-6.2,6.2v12.8c0,3.4,2.8,6.2,6.2,6.2h12.6v-3.5h-12.3c-1.6,0-2.9-1.3-2.9-2.9v-12.2
		C246.4,353.6,247.7,352.3,249.3,352.3L249.3,352.3z M259,360.8v-3.2h-8.2c0-0.5,0.4-0.9,0.9-0.9h10v-3.5h-11.5
		c-1.6,0-2.9,1.3-2.9,2.9v4.7H259L259,360.8z M259,362v3.2h-8.2c0,0.5,0.4,0.9,0.9,0.9h10v3.5h-11.5c-1.6,0-2.9-1.3-2.9-2.9V362
		L259,362L259,362z M228.8,366.4h-7.4v3.2h11.3h0.1c2.1-0.1,3.8-1.8,3.8-4c0-2.2-1.8-4-4-4h-4.5c-1.8-0.7-3.3-2.5-3.3-4.6
		c0-2.7,2.5-4.8,5.1-4.8h11v-3.5h-11.5c-4.5,0-8.2,3.7-8.2,8.2c0,4.6,4,8.2,8.5,8.2v0l0,0h2.6c0.3,0,0.6,0.3,0.6,0.6
		c0,0.3-0.3,0.6-0.6,0.6L228.8,366.4L228.8,366.4z M233.6,356.4h7.4v-3.2h-11.3h-0.2c-2.1,0.1-3.8,1.8-3.8,4c0,2.2,1.8,4,4,4h4.5
		c1.8,0.7,3.3,2.5,3.3,4.6c0,2.7-2.5,4.8-5.1,4.8h-11v3.5h11.5c4.5,0,8.2-3.7,8.2-8.2c0-4.5-4-8.2-8.5-8.2v0l0,0h-2.6
		c-0.3,0-0.6-0.3-0.6-0.6c0-0.3,0.3-0.6,0.6-0.6L233.6,356.4L233.6,356.4z"/>
	<g>
		
			<linearGradient id="polygon37_2_" gradientUnits="userSpaceOnUse" x1="199.795" y1="-993.1706" x2="249.3067" y2="-1042.6823" gradientTransform="matrix(1 0 0 -1 -24.4248 -610.6904)">
			<stop  offset="0" style="stop-color:#D9DDE9"/>
			<stop  offset="0.39" style="stop-color:#777489"/>
			<stop  offset="0.98" style="stop-color:#D9DDE9"/>
		</linearGradient>
		<polygon id="polygon37" class="st3" points="239.7,386.3 239.7,438.5 222.1,438.5 222.1,419.2 188.4,400 188.4,438.5 170.9,438.5 
			170.9,386.3 189.2,386.3 222.1,405 222.1,386.3 		"/>
		
			<linearGradient id="polygon37_3_" gradientUnits="userSpaceOnUse" x1="200.6902" y1="-993.9492" x2="248.7213" y2="-1041.9805" gradientTransform="matrix(1 0 0 -1 -24.4248 -610.6904)">
			<stop  offset="0" style="stop-color:#000000"/>
			<stop  offset="0.11" style="stop-color:#181C4E"/>
			<stop  offset="0.22" style="stop-color:#181818"/>
			<stop  offset="0.34" style="stop-color:#181C4E"/>
			<stop  offset="0.47" style="stop-color:#000000"/>
			<stop  offset="0.59" style="stop-color:#181C4E"/>
			<stop  offset="0.72" style="stop-color:#000000"/>
			<stop  offset="0.84" style="stop-color:#181C4E"/>
			<stop  offset="0.98" style="stop-color:#000000"/>
		</linearGradient>
		<polygon id="polygon37_1_" class="st4" points="238.7,387 238.7,437.5 221.6,437.5 221.6,418.9 188.9,400.3 188.9,437.5 
			171.8,437.5 171.8,387 189.6,387 221.6,405.1 221.6,387 		"/>
	</g>
	<g>
		
			<linearGradient id="rect58_2_" gradientUnits="userSpaceOnUse" x1="428.5096" y1="-1004.5786" x2="478.7517" y2="-1058.0249" gradientTransform="matrix(1 0 0 -1 -24.4248 -610.6904)">
			<stop  offset="0" style="stop-color:#D9DDE9"/>
			<stop  offset="0.39" style="stop-color:#777489"/>
			<stop  offset="0.98" style="stop-color:#D9DDE9"/>
		</linearGradient>
		<rect id="rect58" x="412.3" y="386" class="st5" width="18.3" height="52.5"/>
		
			<linearGradient id="rect58_3_" gradientUnits="userSpaceOnUse" x1="429.2099" y1="-1005.3254" x2="477.4155" y2="-1056.6055" gradientTransform="matrix(1 0 0 -1 -24.4248 -610.6904)">
			<stop  offset="0" style="stop-color:#000000"/>
			<stop  offset="0.11" style="stop-color:#181C4E"/>
			<stop  offset="0.22" style="stop-color:#181818"/>
			<stop  offset="0.34" style="stop-color:#181C4E"/>
			<stop  offset="0.47" style="stop-color:#000000"/>
			<stop  offset="0.59" style="stop-color:#181C4E"/>
			<stop  offset="0.72" style="stop-color:#000000"/>
			<stop  offset="0.84" style="stop-color:#181C4E"/>
			<stop  offset="0.98" style="stop-color:#000000"/>
		</linearGradient>
		<rect id="rect58_1_" x="412.7" y="387" class="st6" width="17.3" height="50.6"/>
	</g>
	<g>
		
			<linearGradient id="polygon79_2_" gradientUnits="userSpaceOnUse" x1="279.4994" y1="-993.5096" x2="329.3082" y2="-1043.3182" gradientTransform="matrix(1 0 0 -1 -24.4248 -610.6904)">
			<stop  offset="0" style="stop-color:#D9DDE9"/>
			<stop  offset="0.39" style="stop-color:#777489"/>
			<stop  offset="0.98" style="stop-color:#D9DDE9"/>
		</linearGradient>
		<polygon id="polygon79" class="st7" points="299.9,396.5 269.9,396.5 269.9,407 305.9,407 288.7,417.5 269.9,417.5 269.9,428 
			318.7,428 301.4,438.5 251.9,438.5 251.9,398 269.9,386 317.2,386 		"/>
		
			<linearGradient id="polygon79_3_" gradientUnits="userSpaceOnUse" x1="280.6204" y1="-994.6044" x2="328.5789" y2="-1042.563" gradientTransform="matrix(1 0 0 -1 -24.4248 -610.6904)">
			<stop  offset="0" style="stop-color:#000000"/>
			<stop  offset="0.11" style="stop-color:#181C4E"/>
			<stop  offset="0.22" style="stop-color:#181818"/>
			<stop  offset="0.34" style="stop-color:#181C4E"/>
			<stop  offset="0.47" style="stop-color:#000000"/>
			<stop  offset="0.59" style="stop-color:#181C4E"/>
			<stop  offset="0.72" style="stop-color:#000000"/>
			<stop  offset="0.84" style="stop-color:#181C4E"/>
			<stop  offset="0.98" style="stop-color:#000000"/>
		</linearGradient>
		<polygon id="polygon79_1_" class="st8" points="299.4,397.1 270.5,397.1 270.5,407.2 305.2,407.2 288.5,417.3 270.5,417.3 
			270.5,427.5 317.4,427.5 300.8,437.6 253.2,437.6 253.2,398.6 270.5,387 316,387 		"/>
	</g>
	<g>
		
			<linearGradient id="polygon100_2_" gradientUnits="userSpaceOnUse" x1="120.2286" y1="-993.7818" x2="169.7612" y2="-1043.3143" gradientTransform="matrix(1 0 0 -1 -24.4248 -610.6904)">
			<stop  offset="0" style="stop-color:#D9DDE9"/>
			<stop  offset="0.39" style="stop-color:#777489"/>
			<stop  offset="0.98" style="stop-color:#D9DDE9"/>
		</linearGradient>
		<polygon id="polygon100" class="st9" points="140.4,396.7 110.6,396.7 110.6,407.2 146.4,407.2 129.2,417.6 110.6,417.6 
			110.6,428.1 159,428.1 141.9,438.5 92.7,438.5 92.7,398.2 110.6,386.3 157.6,386.3 		"/>
		
			<linearGradient id="polygon100_3_" gradientUnits="userSpaceOnUse" x1="121.0805" y1="-994.6131" x2="169.2063" y2="-1042.7389" gradientTransform="matrix(1 0 0 -1 -24.4248 -610.6904)">
			<stop  offset="0" style="stop-color:#000000"/>
			<stop  offset="0.11" style="stop-color:#181C4E"/>
			<stop  offset="0.22" style="stop-color:#181818"/>
			<stop  offset="0.34" style="stop-color:#181C4E"/>
			<stop  offset="0.47" style="stop-color:#000000"/>
			<stop  offset="0.59" style="stop-color:#181C4E"/>
			<stop  offset="0.72" style="stop-color:#000000"/>
			<stop  offset="0.84" style="stop-color:#181C4E"/>
			<stop  offset="0.98" style="stop-color:#000000"/>
		</linearGradient>
		<polygon id="polygon100_1_" class="st10" points="140,397.2 111,397.2 111,407.3 145.8,407.3 129.1,417.5 111,417.5 111,427.6 
			158.1,427.6 141.4,437.8 93.6,437.8 93.6,398.6 111,387 156.7,387 		"/>
	</g>
	<g>
		
			<linearGradient id="polygon121_2_" gradientUnits="userSpaceOnUse" x1="43.9928" y1="-997.9114" x2="92.8683" y2="-1046.7869" gradientTransform="matrix(1 0 0 -1 -24.4248 -610.6904)">
			<stop  offset="0" style="stop-color:#D9DDE9"/>
			<stop  offset="0.39" style="stop-color:#777489"/>
			<stop  offset="0.98" style="stop-color:#D9DDE9"/>
		</linearGradient>
		<polygon id="polygon121" class="st11" points="8.6,398.2 26.5,386.3 80.9,386.3 63.8,396.7 26.5,396.7 26.5,428.1 60,428.1 
			60,415.4 39.2,415.4 56.3,404.9 78,404.9 78,426.6 60,438.5 8.6,438.5 		"/>
		
			<linearGradient id="polygon121_3_" gradientUnits="userSpaceOnUse" x1="44.686" y1="-998.6071" x2="92.1976" y2="-1046.1187" gradientTransform="matrix(1 0 0 -1 -24.4248 -610.6904)">
			<stop  offset="0" style="stop-color:#000000"/>
			<stop  offset="0.11" style="stop-color:#181C4E"/>
			<stop  offset="0.22" style="stop-color:#181818"/>
			<stop  offset="0.34" style="stop-color:#181C4E"/>
			<stop  offset="0.47" style="stop-color:#000000"/>
			<stop  offset="0.59" style="stop-color:#181C4E"/>
			<stop  offset="0.72" style="stop-color:#000000"/>
			<stop  offset="0.84" style="stop-color:#181C4E"/>
			<stop  offset="0.98" style="stop-color:#000000"/>
		</linearGradient>
		<polygon id="polygon121_1_" class="st12" points="9.6,398.6 27,387 79.9,387 63.2,397.2 27,397.2 27,427.6 59.6,427.6 59.6,415.3 
			39.3,415.3 56,405.1 77,405.1 77,426.2 59.6,437.8 9.6,437.8 		"/>
	</g>
	<g>
		<polygon class="st13" points="401.1,427.9 383.6,438.5 329.6,438.5 347.1,427.9 381.3,427.9 381.3,417.2 329.6,417.2 329.6,396.7 
			347.1,386 401.9,386 384.3,396.7 348.6,396.7 348.6,406.6 401.1,406.6 		"/>
		
			<linearGradient id="polygon142_2_" gradientUnits="userSpaceOnUse" x1="329.5228" y1="1782.2549" x2="401.8158" y2="1782.2549" gradientTransform="matrix(1 0 0 1 3.520000e-002 -1369.9663)">
			<stop  offset="0" style="stop-color:#D9DDE9"/>
			<stop  offset="0.39" style="stop-color:#777489"/>
			<stop  offset="0.98" style="stop-color:#D9DDE9"/>
		</linearGradient>
		<polygon id="polygon142" class="st14" points="381.3,427.9 381.3,417.2 329.6,417.2 329.6,396.7 347.1,386 401.9,386 384.3,396.7 
			348.6,396.7 348.6,406.6 401.1,406.6 401.1,427.9 383.6,438.5 329.6,438.5 347.1,427.9 		"/>
		
			<linearGradient id="polygon142_3_" gradientUnits="userSpaceOnUse" x1="360.4261" y1="-993.2773" x2="409.4428" y2="-1042.2938" gradientTransform="matrix(1 0 0 -1 -24.4248 -610.6904)">
			<stop  offset="0" style="stop-color:#000000"/>
			<stop  offset="0.11" style="stop-color:#181C4E"/>
			<stop  offset="0.22" style="stop-color:#181818"/>
			<stop  offset="0.34" style="stop-color:#181C4E"/>
			<stop  offset="0.47" style="stop-color:#000000"/>
			<stop  offset="0.59" style="stop-color:#181C4E"/>
			<stop  offset="0.72" style="stop-color:#000000"/>
			<stop  offset="0.84" style="stop-color:#181C4E"/>
			<stop  offset="0.98" style="stop-color:#000000"/>
		</linearGradient>
		<polygon id="polygon142_1_" class="st15" points="380.7,427.3 380.7,417.1 330.9,417.1 330.9,397.3 347.8,387 400.5,387 
			383.7,397.3 349.2,397.3 349.2,406.8 399.8,406.8 399.8,427.3 382.9,437.6 330.9,437.6 347.8,427.3 		"/>
	</g>
	<g>
		<polygon class="st13" points="512.4,427.9 494.9,438.5 440.9,438.5 458.4,427.9 492.7,427.9 492.7,417.2 440.9,417.2 440.9,396.7 
			458.4,386 513.2,386 495.7,396.7 459.9,396.7 459.9,406.6 512.4,406.6 		"/>
		
			<linearGradient id="polygon163_2_" gradientUnits="userSpaceOnUse" x1="470.6361" y1="-992.1297" x2="521.5463" y2="-1043.0399" gradientTransform="matrix(1 0 0 -1 -24.4248 -610.6904)">
			<stop  offset="0" style="stop-color:#D9DDE9"/>
			<stop  offset="0.39" style="stop-color:#777489"/>
			<stop  offset="0.98" style="stop-color:#D9DDE9"/>
		</linearGradient>
		<polygon id="polygon163" class="st16" points="492.7,427.9 492.7,417.2 440.9,417.2 440.9,396.7 458.4,386 513.2,386 495.7,396.7 
			459.9,396.7 459.9,406.6 512.4,406.6 512.4,427.9 494.9,438.5 440.9,438.5 458.4,427.9 		"/>
		
			<linearGradient id="polygon163_3_" gradientUnits="userSpaceOnUse" x1="471.7821" y1="-993.2767" x2="520.7994" y2="-1042.2939" gradientTransform="matrix(1 0 0 -1 -24.4248 -610.6904)">
			<stop  offset="0" style="stop-color:#000000"/>
			<stop  offset="0.11" style="stop-color:#181C4E"/>
			<stop  offset="0.22" style="stop-color:#181818"/>
			<stop  offset="0.34" style="stop-color:#181C4E"/>
			<stop  offset="0.47" style="stop-color:#000000"/>
			<stop  offset="0.59" style="stop-color:#181C4E"/>
			<stop  offset="0.72" style="stop-color:#000000"/>
			<stop  offset="0.84" style="stop-color:#181C4E"/>
			<stop  offset="0.98" style="stop-color:#000000"/>
		</linearGradient>
		<polygon id="polygon163_1_" class="st17" points="492.1,427.3 492.1,417.1 442.3,417.1 442.3,397.3 459.1,387 511.9,387 
			495,397.3 460.6,397.3 460.6,406.8 511.1,406.8 511.1,427.3 494.3,437.6 442.3,437.6 459.1,427.3 		"/>
	</g>
</g>
</svg>
