<?xml version="1.0" encoding="utf-8"?>
<!-- Generator: Adobe Illustrator 19.0.0, SVG Export Plug-In . SVG Version: 6.00 Build 0)  -->
<svg version="1.1" id="Layer_1" xmlns="http://www.w3.org/2000/svg" xmlns:xlink="http://www.w3.org/1999/xlink" x="0px" y="0px"
	 viewBox="-200 297 210 200" style="enable-background:new -200 297 210 200;" xml:space="preserve">
<style type="text/css">
	.st0{fill:url(#SVGID_1_);}
	.st1{fill:url(#SVGID_2_);}
	.st2{fill:url(#SVGID_3_);}
	.st3{fill:url(#SVGID_4_);}
	.st4{fill:url(#SVGID_5_);}
	.st5{fill:url(#SVGID_6_);}
	.st6{fill:url(#SVGID_7_);}
	.st7{fill:url(#SVGID_8_);}
	.st8{fill:url(#SVGID_9_);}
	.st9{fill:url(#SVGID_10_);}
	.st10{fill:url(#SVGID_11_);}
	.st11{fill:#333333;}
	.st12{fill:url(#SVGID_12_);}
	.st13{fill:#F7F7F7;}
	.st14{fill:url(#SVGID_13_);}
	.st15{fill:#484848;}
</style>
<g id="Ebene_2_1_">
	
		<linearGradient id="SVGID_1_" gradientUnits="userSpaceOnUse" x1="-161.3532" y1="1440.0399" x2="-129.7325" y2="1408.4196" gradientTransform="matrix(1 0 0 1 -0.1348 -987.7207)">
		<stop  offset="0" style="stop-color:#999999"/>
		<stop  offset="0.98" style="stop-color:#F3F3F3"/>
	</linearGradient>
	<path class="st0" d="M-130.7,423.2c-0.4-0.7-1-1.2-1.8-1.4c-13.6-3.8-22.4-3.3-26.3,1.7c-1.4,1.6-2.2,3.2-2.5,4.9
		c-0.3,1.6-0.1,3.2,0.6,4.7h-0.1c0.6,1.1,1.4,2.2,2.5,3.1h0.1c0.9,0.7,1.8,1.3,2.9,1.8c0.7,0.4,2.5,0.6,5.3,0.7
		c0.6,0.1,1.6,0.1,3.2,0.1c1.4,0.1,2.5,0.1,3.3,0.1h0.1c2.5,0.1,5,0.3,5.8,0.5c0.8,0.3,2.2,1.7,2.3,2.4c0.1,0.7,0,0,0,0
		c0.1,0.4,0.3,0.5,0.2,1.5c-0.1,1-0.5,0.8-0.9,1.3v-0.1c-0.5,0.4-1.2,0.7-2.2,1c-1.5,0.4-3.3,0.6-5.4,0.6c-2.1,0-4.2,0-6.3-0.2
		c-2-0.3-3.8-0.6-5.3-1c-0.7-0.2-1.5-0.2-2.2,0.2c-0.7,0.3-1.2,0.9-1.5,1.7c-0.3,0.7-0.2,1.5,0.2,2.3c0.4,0.7,1,1.2,1.8,1.4
		c1.8,0.6,3.9,1,6.4,1.3c2.4,0.2,4.8,0.3,7.2,0.3c2.6-0.1,4.8-0.4,6.7-0.8c2.6-0.6,4.4-1.6,5.3-2.9h0.1c0.8-1,1.4-1.9,1.7-2.7v-0.1
		c0.4-1,0.6-2,0.6-3v-0.1c-0.1-0.7,0-1.8-0.4-2.9c-0.2-0.5-0.3-0.8-1.1-2.6c-0.8-1.7-2.7-2.8-5.9-3.5h-0.1c-1.6-0.3-3.9-0.5-6.8-0.6
		c-0.8-0.1-2-0.1-3.5-0.1c-1.5,0-2.5,0-3.1,0c-1.6,0-2.6-0.1-3-0.2c-0.6-0.3-1-0.5-1.4-0.9c-0.4-0.4-0.8-0.8-1-1.2v-0.1
		c-0.2-0.3-0.3-0.6-0.1-1c0.1-0.6,0.5-1.3,1.1-2c3-2.9,9.7-2.9,20.1,0.1c0.8,0.2,1.6,0.1,2.2-0.3c0.8-0.4,1.3-1,1.4-1.8
		C-130.2,424.7-130.3,423.9-130.7,423.2z"/>
	
		<linearGradient id="SVGID_2_" gradientUnits="userSpaceOnUse" x1="-195.4458" y1="1478.2583" x2="-163.2291" y2="1446.0415" gradientTransform="matrix(1 0 0 1 -0.1348 -987.7207)">
		<stop  offset="0" style="stop-color:#999999"/>
		<stop  offset="0.98" style="stop-color:#F3F3F3"/>
	</linearGradient>
	<path class="st1" d="M-164.2,460.8c-0.4-0.7-1-1.2-1.8-1.4c-13.6-3.8-22.4-3.3-26.3,1.7c-1.4,1.6-2.2,3.2-2.5,4.9
		c-0.3,1.6-0.1,3.2,0.6,4.7h-0.1c0.6,1.1,1.4,2.2,2.5,3.1h0.1c0.9,0.7,1.8,1.3,2.9,1.8c0.7,0.4,2.5,0.6,5.3,0.7c0.6,0,1.6,0,3.2,0
		c1.4,0.1,2.5,0.1,3.3,0.1h0c2.5,0.1,5,0.3,5.8,0.5c0.8,0.3,2.2,1.7,2.3,2.4c0.1,0.7,0,0,0,0c0.1,0.4,0.3,0.5,0.2,1.5
		c-0.1,1-0.5,0.8-0.9,1.3v-0.1c-0.5,0.4-1.2,0.7-2.2,1c-1.5,0.3-3.3,0.6-5.4,0.6c-2.1,0.1-4.2,0-6.3-0.2c-2-0.3-3.8-0.6-5.3-1
		c-0.7-0.2-1.5-0.2-2.2,0.2c-0.7,0.4-1.3,0.9-1.5,1.7c-0.3,0.7-0.2,1.5,0.2,2.3c0.4,0.7,1,1.2,1.8,1.4c1.8,0.6,3.9,1,6.4,1.3
		c2.4,0.2,4.8,0.3,7.2,0.3c2.6-0.1,4.8-0.4,6.7-0.8c2.6-0.6,4.4-1.6,5.3-2.9h0.1c0.8-1,1.4-1.9,1.7-2.7v-0.1c0.4-1,0.6-2,0.6-3v-0.1
		c-0.1-0.7,0-1.8-0.4-2.9c-0.2-0.5-0.3-0.8-1.1-2.6c-0.8-1.7-2.7-2.8-5.9-3.5h-0.1c-1.6-0.3-3.9-0.5-6.8-0.6c-0.8,0-2,0-3.5-0.1
		c-1.5,0-2.5,0-3.1-0.1c-1.6,0-2.6-0.1-3-0.2c-0.6-0.3-1-0.5-1.4-0.9c-0.4-0.4-0.8-0.8-1-1.2V468c-0.2-0.3-0.3-0.6-0.2-1
		c0.2-0.6,0.5-1.3,1.1-2c3-2.9,9.7-2.9,20.1,0.1c0.8,0.2,1.5,0.1,2.2-0.3c0.8-0.4,1.3-1,1.4-1.8
		C-163.7,462.3-163.8,461.6-164.2,460.8z"/>
	
		<linearGradient id="SVGID_3_" gradientUnits="userSpaceOnUse" x1="-127.7593" y1="1437.3639" x2="-96.9736" y2="1406.578" gradientTransform="matrix(1 0 0 1 -0.1348 -987.7207)">
		<stop  offset="0" style="stop-color:#999999"/>
		<stop  offset="0.98" style="stop-color:#F3F3F3"/>
	</linearGradient>
	<path class="st2" d="M-101.4,420.7c-0.6-0.5-1.3-0.8-2.1-0.8h-20c-0.8,0-1.5,0.3-2.1,0.8c-0.6,0.6-0.9,1.3-0.9,2.1v24.8
		c0,0.8,0.3,1.5,0.9,2.1c0.6,0.6,1.3,0.9,2.1,0.9h20c0.8,0,1.5-0.3,2.1-0.9c0.5-0.5,0.8-1.3,0.8-2.1c0-0.8-0.3-1.5-0.8-2.1
		c-0.6-0.5-1.3-0.8-2.1-0.8h-17v-6.5h12.5c0.8,0,1.5-0.3,2.1-0.9c0.5-0.5,0.8-1.3,0.8-2.1c0-0.8-0.3-1.5-0.8-2.1
		c-0.6-0.6-1.3-0.8-2.1-0.8h-12.5v-6.5h17c0.8,0,1.5-0.3,2.1-0.9c0.5-0.5,0.8-1.2,0.8-2.1C-100.5,422-100.8,421.3-101.4,420.7z"/>
	
		<linearGradient id="SVGID_4_" gradientUnits="userSpaceOnUse" x1="-98.486" y1="1440.6252" x2="-64.6006" y2="1406.7397" gradientTransform="matrix(1 0 0 1 -0.1348 -987.7207)">
		<stop  offset="0" style="stop-color:#999999"/>
		<stop  offset="0.98" style="stop-color:#F3F3F3"/>
	</linearGradient>
	<path class="st3" d="M-66.9,424.2c-0.1-0.9-0.6-1.6-1.2-2c-5.5-3.9-11.5-4.7-17.3-3.7c-2.3,0.5-3,0.5-5.5,1.7
		c-2.5,1.2-4.2,3.5-4.2,3.5c-1.2,1.3-1.8,2.9-2.6,5c-0.8,2.1-0.8,3.1-0.9,5.7c-0.1,2.6,0.2,5,1,7.2c0.7,2.3,1.9,4.3,3.4,5.9v-0.1
		c1.5,1.7,3.3,3.1,5.5,3.9c2.1,0.9,4.5,1.4,7,1.4c6,0,10.3-1.4,13-4c3.1-2.8,4.4-6.9,3.9-12.5c-0.1-0.9-0.4-1.5-0.9-2.1
		c-0.6-0.5-1.2-0.8-2-0.8h-13c-0.8,0-1.5,0.3-2.1,0.9c-0.6,0.6-0.9,1.4-0.9,2.3c0,0.9,0.3,1.7,0.9,2.3c0.6,0.6,1.3,1,2.1,1h10
		c-0.2,1.6-0.9,3-1.8,4c-1.9,1.7-5,2.5-9.1,2.5c-1.7,0-3.4-0.3-4.8-0.9l-0.1-0.1c-1.3-0.5-2.4-1.3-3.3-2.4c-0.9-1-1.6-2.3-2.1-3.6
		c-0.5-1.5-0.7-3.1-0.6-4.8c0-1.8,0.3-2.8,0.6-4.1c0.3-0.9,0.6-1.7,1.2-2.3c0,0,0.9-1.4,2.4-2.1c1.5-0.8,2.6-1,4.4-1.5h0.1
		c4.4-1.1,8.6-0.2,12.6,2.8c0.7,0.5,1.4,0.6,2.2,0.5c0.8-0.2,1.4-0.6,1.9-1.4C-66.9,425.9-66.7,425.1-66.9,424.2z"/>
	
		<linearGradient id="SVGID_5_" gradientUnits="userSpaceOnUse" x1="-59.4698" y1="1441.9379" x2="-26.2953" y2="1408.7635" gradientTransform="matrix(1 0 0 1 -0.1348 -987.7207)">
		<stop  offset="0" style="stop-color:#999999"/>
		<stop  offset="0.98" style="stop-color:#F3F3F3"/>
	</linearGradient>
	<path class="st4" d="M-29.1,450.4c0.5-0.7,0.7-1.4,0.6-2.2c-3.1-20.7-8.8-30.9-17-30.4c-8.2-0.5-13.9,9.3-16.9,29.4
		c-0.1,0.8,0.1,1.5,0.6,2.2c0.5,0.7,1.1,1.1,1.9,1.2c0.8,0.1,1.5-0.1,2.2-0.6c0.6-0.5,1.1-1.1,1.2-1.9c0.4-2.5,0.8-4.8,1.2-6.9h0
		h19.4c0.5,2.4,1,5,1.4,7.9c0.1,0.8,0.5,1.4,1.2,1.9c0.6,0.5,1.4,0.7,2.2,0.5C-30.3,451.5-29.6,451.1-29.1,450.4z M-53.8,435.2
		c2.2-7.4,5-11.2,8.3-11.4c3.2,0.3,6,4.1,8.1,11.4H-53.8z"/>
	
		<linearGradient id="SVGID_6_" gradientUnits="userSpaceOnUse" x1="-158.341" y1="1482.1927" x2="-123.4987" y2="1447.3505" gradientTransform="matrix(1 0 0 1 -0.1348 -987.7207)">
		<stop  offset="0" style="stop-color:#999999"/>
		<stop  offset="0.98" style="stop-color:#F3F3F3"/>
	</linearGradient>
	<path class="st5" d="M-156.1,489.8c0.7-0.5,1.1-1.1,1.2-1.9c0.4-2.5,0.8-4.8,1.2-6.9h19.4c0.5,2.4,1,5,1.4,7.9
		c0.2,0.8,0.5,1.4,1.2,1.9c0.6,0.5,1.4,0.7,2.2,0.5c0.8-0.1,1.4-0.5,1.9-1.1c0.5-0.7,0.7-1.4,0.6-2.2c-3.1-20.7-8.8-30.9-17-30.4
		c-8.2-0.5-13.8,9.3-16.9,29.4c-0.2,0.8,0.1,1.5,0.5,2.2c0.5,0.7,1.1,1.1,2,1.2C-157.5,490.5-156.8,490.3-156.1,489.8z M-152.2,475
		c2.2-7.4,5-11.2,8.3-11.4c3.3,0.3,6,4.1,8.2,11.4H-152.2z"/>
	
		<linearGradient id="SVGID_7_" gradientUnits="userSpaceOnUse" x1="-134.439" y1="1474.3555" x2="-101.8636" y2="1441.78" gradientTransform="matrix(1 0 0 1 -0.1348 -987.7207)">
		<stop  offset="0" style="stop-color:#999999"/>
		<stop  offset="0.98" style="stop-color:#F3F3F3"/>
	</linearGradient>
	<path class="st6" d="M-101.3,460c-0.6-0.5-1.3-0.8-2.1-0.8h-26c-0.8,0-1.5,0.3-2.1,0.8c-0.6,0.6-0.9,1.3-0.9,2.1
		c0,0.8,0.3,1.5,0.9,2.1c0.6,0.6,1.3,0.9,2.1,0.9h10v22.9c0,0.8,0.3,1.5,0.9,2.1c0.6,0.6,1.3,0.9,2.1,0.9c0.9,0,1.6-0.3,2.1-0.9
		c0.6-0.5,0.9-1.3,0.9-2.1v-22.9h10c0.8,0,1.6-0.3,2.1-0.9c0.6-0.5,0.8-1.3,0.8-2.1C-100.5,461.3-100.8,460.6-101.3,460z"/>
	
		<linearGradient id="SVGID_8_" gradientUnits="userSpaceOnUse" x1="-100.3982" y1="1477.3752" x2="-67.4636" y2="1444.4406" gradientTransform="matrix(1 0 0 1 -0.1348 -987.7207)">
		<stop  offset="0" style="stop-color:#999999"/>
		<stop  offset="0.98" style="stop-color:#F3F3F3"/>
	</linearGradient>
	<path class="st7" d="M-66.3,459.4c-0.6-0.6-1.3-0.9-2.1-0.9c-0.8,0-1.5,0.3-2.1,0.9c-0.6,0.5-0.9,1.3-0.9,2.1v14.8
		c0,1.1-0.2,2.2-0.6,3.2c-0.4,1-1.1,1.9-1.8,2.7c-0.8,0.7-1.6,1.4-2.7,1.8c-1,0.4-2.1,0.6-3.2,0.6h-4.4c-1.1,0-2.2-0.2-3.2-0.6
		c-1.1-0.4-1.9-1-2.7-1.8c-0.8-0.8-1.4-1.6-1.8-2.6v0c-0.4-1-0.6-2.1-0.6-3.2v-14.8c0-0.8-0.3-1.5-0.9-2.1c-0.6-0.6-1.3-0.9-2.1-0.9
		c-0.8,0-1.6,0.3-2.1,0.9c-0.6,0.5-0.9,1.3-0.9,2.1v14.8c0,1.9,0.4,3.8,1.1,5.6h0.1c0.7,1.7,1.7,3.2,3,4.6c1.3,1.3,2.8,2.3,4.6,3.1
		c1.8,0.7,3.6,1.1,5.6,1.1h4.4c2,0,3.8-0.3,5.6-1.1h-0.1c1.7-0.7,3.2-1.8,4.6-3.1c1.3-1.3,2.3-2.8,3.1-4.6v0.1
		c0.7-1.8,1.1-3.6,1.1-5.6v-14.8C-65.5,460.7-65.8,459.9-66.3,459.4z"/>
	
		<linearGradient id="SVGID_9_" gradientUnits="userSpaceOnUse" x1="-62.9038" y1="1478.8286" x2="-29.7339" y2="1445.6584" gradientTransform="matrix(1 0 0 1 -0.1348 -987.7207)">
		<stop  offset="0" style="stop-color:#999999"/>
		<stop  offset="0.98" style="stop-color:#F3F3F3"/>
	</linearGradient>
	<path class="st8" d="M-62.3,459.4c-0.5,0.5-0.8,1.2-0.8,2V487c0,0.8,0.3,1.5,0.9,2.1c0.6,0.6,1.4,0.9,2.3,0.9
		c0.9,0,1.6-0.3,2.2-0.9c0.6-0.5,1-1.3,1-2.1v-22.9c6.9-0.4,12.1,0,15.8,1c2.8,0.8,4.3,2.2,4.4,4.1c0.1,1.5-0.6,2.6-1.9,3.3
		c-2.1,0.9-5.3,1.1-9.4,0.7c-0.7-0.1-1.4,0.1-2,0.4c-0.6,0.3-1.1,0.8-1.3,1.5c-0.3,0.6-0.3,1.2-0.1,1.9c0.2,0.6,0.6,1.1,1.2,1.5
		l15.9,10.9c0.7,0.5,1.5,0.7,2.3,0.5c0.9-0.1,1.6-0.5,2.1-1.2c0.5-0.6,0.7-1.4,0.6-2.2c-0.2-0.8-0.6-1.5-1.3-2l-8.4-5.7
		c1.2-0.3,2.3-0.6,3.2-1.1c3.6-1.7,5.4-4.5,5.5-8.5c0.2-4.7-2.8-8-8.8-9.8c-4.7-1.5-11.8-1.8-21.2-1.1
		C-61,458.5-61.7,458.8-62.3,459.4z"/>
	
		<linearGradient id="SVGID_10_" gradientUnits="userSpaceOnUse" x1="-26.6542" y1="1478.5621" x2="5.561" y2="1446.3468" gradientTransform="matrix(1 0 0 1 -0.1348 -987.7207)">
		<stop  offset="0" style="stop-color:#999999"/>
		<stop  offset="0.98" style="stop-color:#F3F3F3"/>
	</linearGradient>
	<path class="st9" d="M-25.4,459.9c-0.4,0.5-0.5,1-0.5,1.7v25.8c0,0.8,0.3,1.5,0.9,2.1c0.5,0.6,1.3,0.9,2.1,0.9
		c0.9,0,1.5-0.3,2.1-0.9c0.6-0.5,0.9-1.3,0.9-2.1V469l19.8,20.5c0.5,0.4,0.9,0.7,1.6,0.9c0.6,0.1,1.1,0,1.7-0.1
		c0.6-0.3,1-0.6,1.4-1.1c0.4-0.5,0.5-1,0.5-1.6v-25.8c0-0.8-0.3-1.5-0.9-2.1c-0.6-0.5-1.3-0.8-2.1-0.8c-0.8,0-1.5,0.3-2.1,0.8
		c-0.6,0.6-0.9,1.3-0.9,2.1V480l-19.8-20.5c-0.5-0.4-0.9-0.7-1.6-0.8c-0.6-0.1-1.2,0-1.7,0.2C-24.6,459.1-25.1,459.4-25.4,459.9z"/>
</g>
<g id="Ebene_1">
	<title>Sega Saturn Logo</title>
	
		<radialGradient id="SVGID_11_" cx="-146.4551" cy="898.0039" r="186.5518" gradientTransform="matrix(1 0 0 1 -4.490000e-002 -592.2402)" gradientUnits="userSpaceOnUse">
		<stop  offset="0" style="stop-color:#FFFFFF"/>
		<stop  offset="1" style="stop-color:#000000"/>
	</radialGradient>
	<path class="st10" d="M-157.1,353.9c3.5-2.7,8.6-6,14.3-8.9c5.8-3.1,12.3-5.9,19.5-8.7v0.1c7.1-2.7,14.6-5.2,22.5-7.3
		c7.9-2.3,15.8-4.1,23.6-5.5c7.9-1.5,15.6-2.5,22.8-2.9c7.4-0.6,15.9,0,18,0.1s5.2-0.3,6.5-1.3c1.3-1.1,2.1-2.5,2.3-4.1
		c0.2-1.8-0.3-3.3-1.3-4.5c-1.1-1.3-3.6-2.2-5.3-2.3c-6.6-0.7-12.9-0.7-21-0.2c-7.6,0.5-15.7,1.5-24.2,3.1
		c-8.1,1.4-16.4,3.4-24.6,5.7c-8.2,2.3-16.1,4.8-23.5,7.6c-7.7,3-16.1,6.8-20.8,9.2s-10.8,5.8-16,10.1c-5.2,4.3-7.3,6.3-10.8,11.6
		c-3.5,5.4-4.3,11.4-2.1,15.1c5.5,9.4,25,6.3,32.4,4.9c6-1.2,13.3-2.9,22.1-5.4c6.4-2,14.5-4.5,24.4-7.8l24.5-8c9-3,16.3-5.3,22-6.8
		c6.9-2.1,19.2-5,25.5-3.8c-0.3,4-5.2,14.6-27.1,24.4c-8.1,3.7-17.2,7.1-27.2,10.4h-0.1c-7.7,2.5-15.7,4.6-23.8,6.6
		c-7.9,1.9-15.4,3.2-22.5,4.3l0.1-0.1c-11.2,1.6-27.3,0.2-30.5,0.6c-6.3,0.4-7.8,4.4-7.9,6.1c-0.1,1.7-0.2,5.7,8.2,6.3
		s16.2,1.2,31.9-0.7c9.7-1.4,15.3-2.6,23.4-4.4h0.1c8.5-2.1,16.7-4.3,24.7-6.9c10.5-3.3,20.1-7,28.7-10.9
		c19.2-8.6,26.2-16.5,30.7-23.3s6.2-16.1,1.5-20.5c-5.4-5-15.5-4.1-19.1-3.8c-5,0.5-12.5,1.7-20,3.8c-5.8,1.6-13.2,3.9-22.5,7
		l-24.5,8c-9.8,3.2-17.7,5.8-24,7.6c-8.4,2.5-15.3,4.3-21,5.5c-13.2,3-17.4,1.3-17.4,1.3C-165,361.4-160.6,356.6-157.1,353.9z"/>
	<path class="st11" d="M-143.9,403.6c-4.4,0-8.1-0.2-11.8-0.5l-1.6-0.1c-9.2-0.6-9-5.4-8.9-7c0.1-2.2,2-6.4,8.6-6.8
		c0.4-0.1,1.1-0.1,2.1-0.1c1.3,0,3,0,5,0.1c2.7,0.1,6,0.2,9.4,0.2c5.7,0,10.2-0.2,13.9-0.8c0.1,0,0.2,0,0.3,0
		c8.3-1.3,15.3-2.7,22-4.3c8.6-2.1,16.4-4.2,23.8-6.6c0.1,0,0.1,0,0.2,0c10.6-3.5,19.4-6.9,27-10.3c19.4-8.7,25.8-18.3,26.6-23.1
		c-0.7-0.1-1.6-0.1-2.5-0.1c-6.1,0-15.4,2.1-22,4.1c-5.6,1.5-13,3.8-21.9,6.8l-24.5,8c-8.5,2.8-16.8,5.5-24.4,7.8
		c-7.4,2.1-14.7,3.9-22.1,5.4c-5.7,1.1-10.9,1.7-15.4,1.7c-9.2,0-15.2-2.3-17.8-6.9c-2.3-3.9-1.4-10.3,2.1-15.8
		c3.5-5.4,5.8-7.6,10.9-11.8c4.2-3.5,9.6-6.9,16.1-10.2c4.5-2.3,13-6.1,20.9-9.2c7.8-2.9,15.7-5.5,23.6-7.7c9-2.5,17.1-4.3,24.7-5.7
		c8.7-1.6,16.6-2.6,24.3-3.1c3.9-0.2,7.2-0.4,10.3-0.4c3.8,0,7.4,0.2,10.9,0.6c1.8,0.1,4.5,1,5.7,2.5c1.2,1.5,1.7,3.2,1.5,5.1
		c-0.2,1.9-1.1,3.4-2.5,4.6c-1.6,1.2-4.8,1.7-7,1.5c-1.4-0.1-5.6-0.4-10.4-0.4c-2.7,0-5.3,0.1-7.5,0.3c-7.4,0.4-15.1,1.4-22.7,2.9
		c-7.5,1.3-15.2,3.1-23.5,5.4c-7.6,2.1-15.1,4.5-22.4,7.3c-0.1,0-0.2,0.1-0.4,0c-7.9,3.1-13.9,5.8-19,8.5c-6.7,3.3-11.8,7-14.2,8.8
		c-3.5,2.7-7.2,6.9-7.4,10.1c0.6,0.1,1.7,0.3,3.5,0.3c3.5,0,7.9-0.6,13-1.8c5.3-1,11.8-2.7,21-5.5c6.2-1.8,14.2-4.4,24-7.6l24.5-8
		c8.2-2.7,15.8-5.1,22.5-7c9.1-2.6,17.1-3.6,20.1-3.9c1-0.1,3-0.3,5.3-0.3c6.5,0,11.3,1.4,14.3,4.3c5.1,4.8,3.1,14.6-1.4,21.4
		c-4.8,7.1-11.8,15-31,23.5c-8.9,4.1-18.6,7.8-28.7,11c-7.7,2.5-15.8,4.7-24.8,6.9c-0.1,0-0.1,0-0.2,0h0c-8.4,1.9-13.8,3-23.4,4.4
		C-132.3,403.2-138.2,403.6-143.9,403.6z M-155.5,390.6c-0.9,0-1.6,0-2,0.1c-5.6,0.4-7.2,3.7-7.3,5.4c-0.1,1.6-0.2,5,7.6,5.5
		l1.6,0.1c3.6,0.2,7.3,0.5,11.7,0.5c5.6,0,11.5-0.4,18.5-1.2c9.5-1.4,14.9-2.5,23.3-4.4c0.1,0,0.1,0,0.2,0h0
		c8.9-2.2,17-4.4,24.6-6.9c10.1-3.2,19.7-6.8,28.6-10.9c18.8-8.5,25.7-16.1,30.4-23c4.2-6.4,6-15.4,1.6-19.5
		c-2.7-2.6-7.2-3.9-13.3-3.9c-2.2,0-4.2,0.2-5.2,0.3c-3,0.3-10.9,1.2-19.9,3.8c-6.7,1.9-14.3,4.3-22.4,7l-24.5,8
		c-9.8,3.2-17.8,5.8-24,7.6c-9.2,2.7-15.7,4.4-21.1,5.5c-5.2,1.2-9.7,1.8-13.3,1.8c-3.1,0-4.4-0.5-4.5-0.5c-0.3-0.1-0.4-0.4-0.5-0.6
		c-0.2-4.4,4.9-9.5,8-11.8c2.5-1.9,7.7-5.6,14.4-8.9c5.2-2.8,11.4-5.6,19.6-8.7c0.1,0,0.3-0.1,0.4,0c7.2-2.7,14.7-5.1,22.2-7.2
		c8.4-2.4,16.1-4.2,23.7-5.5c7.7-1.5,15.4-2.5,22.9-2.9c2.2-0.2,4.8-0.3,7.6-0.3c4.9,0,9.1,0.3,10.5,0.4c0.2,0,0.5,0,0.8,0
		c2.1,0,4.3-0.5,5.3-1.2c1.2-1,1.8-2.1,2-3.6c0.2-1.5-0.2-2.9-1.2-4c-0.9-1.1-3.2-1.9-4.7-2c-6.4-0.7-12.2-0.8-20.9-0.2
		c-7.6,0.5-15.5,1.5-24.1,3.1c-7.6,1.3-15.6,3.2-24.6,5.7c-7.8,2.2-15.7,4.7-23.4,7.6c-7.9,3-16.3,6.9-20.8,9.1
		c-6.4,3.2-11.8,6.6-15.9,10c-5.1,4.2-7.2,6.2-10.7,11.5c-3.2,5-4.1,10.9-2.1,14.3c2.4,4.1,8,6.2,16.6,6.2c4.4,0,9.5-0.6,15.1-1.6
		c7.4-1.5,14.6-3.3,22-5.4c7.7-2.3,15.9-5,24.4-7.8l24.5-8c9-3,16.4-5.3,22-6.8c3.2-1,14.4-4.1,22.4-4.1c1.3,0,2.5,0.1,3.5,0.3
		c0.4,0.1,0.6,0.4,0.6,0.8c-0.1,1.3-1.8,13.4-27.6,25c-7.7,3.5-16.6,6.9-27.3,10.4c-0.1,0-0.1,0-0.2,0c-7.4,2.4-15.1,4.5-23.8,6.6
		c-6.9,1.6-14,3-22.5,4.3c-0.1,0-0.3,0-0.4,0c-3.6,0.5-8.1,0.7-13.6,0.7c-3.4,0-6.7-0.1-9.4-0.2
		C-152.5,390.6-154.2,390.6-155.5,390.6z"/>
	<g id="Ebene_2">
		<g>
			<radialGradient id="SVGID_12_" cx="-95.094" cy="355.155" r="52.579" gradientUnits="userSpaceOnUse">
				<stop  offset="0" style="stop-color:#FFFFFF"/>
				<stop  offset="1" style="stop-color:#000000"/>
			</radialGradient>
			<circle class="st12" cx="-95.1" cy="355.2" r="52.6"/>
			<path class="st13" d="M-95.1,409.2c-29.8,0-54-24.2-54-54c0-29.8,24.2-54,54-54s54,24.2,54,54C-41.1,384.9-65.3,409.2-95.1,409.2
				z M-95.1,304c-28.2,0-51.1,22.9-51.1,51.1s22.9,51.1,51.1,51.1S-44,383.4-44,355.2S-66.9,304-95.1,304z"/>
		</g>
	</g>
	<g id="Ebene_4">
		
			<radialGradient id="SVGID_13_" cx="-229.7881" cy="-88.4063" r="412.4799" gradientTransform="matrix(1 0 0 -1 -8.980000e-002 400.5195)" gradientUnits="userSpaceOnUse">
			<stop  offset="0" style="stop-color:#FFFFFF"/>
			<stop  offset="1" style="stop-color:#000000"/>
		</radialGradient>
		<path class="st14" d="M-144.9,375.7c6-1.2,13.3-2.9,22.1-5.4c6.4-2,24.4-7.8,24.4-7.8l24.5-8c9-3,16.3-5.3,22-6.8
			c0,0,8.5-2.2,9.9-2.5c-0.5-5.4-3.6-11.8-3.6-11.8c-3.1,0.6-6.4,1.4-9.7,2.3c-5.8,1.6-13.2,3.9-22.5,7l-24.5,8
			c-9.8,3.2-17.7,5.8-24,7.6c-12.9,4-21.8,5.6-22.1,5.7C-148.5,364.1-147.3,371.7-144.9,375.7z"/>
	</g>
	<g id="Ebene_3">
		<g>
			<path class="st11" d="M-160.6,366.3c-3.1,0-4.4-0.5-4.5-0.5c-0.4-0.1-0.5-0.6-0.4-0.9c0.1-0.4,0.6-0.5,0.9-0.4
				c0,0,4.3,1.5,17-1.4c5.3-1,11.8-2.7,21-5.5c6.2-1.8,14.2-4.4,24-7.6l24.5-8c8.2-2.7,15.8-5.1,22.5-7c9.1-2.6,17.1-3.6,20.1-3.9
				c0.4,0,0.7,0.3,0.8,0.6c0,0.4-0.3,0.7-0.6,0.8c-3,0.3-10.9,1.2-19.9,3.8c-6.7,1.9-14.3,4.3-22.4,7l-24.5,8
				c-9.8,3.2-17.8,5.8-24,7.6c-9.2,2.7-15.7,4.4-21.1,5.5C-153.5,366-157.8,366.3-160.6,366.3z"/>
		</g>
		<g>
			<path class="st11" d="M-160.1,378c-7.5,0-14.8-1.6-17.9-6.8c-0.2-0.3-0.1-0.8,0.3-1c0.3-0.2,0.8-0.1,1,0.3
				c4.9,8.3,21.9,6.4,31.7,4.5c7.4-1.5,14.6-3.3,22-5.4c6.3-1.9,24.2-7.8,24.4-7.8l24.5-8c9-3,16.4-5.3,22-6.8c0,0,3.5-1,9.9-2.5
				c6.1-1.4,11.1-2,14.5-1.5c0.4,0.1,0.7,0.4,0.6,0.8s-0.4,0.7-0.8,0.6c-2.2-0.3-6.5-0.3-14,1.5c-6.5,1.5-9.9,2.5-9.9,2.5
				c-5.6,1.5-13,3.8-21.9,6.8l-24.5,8c-0.2,0.1-18.1,5.9-24.4,7.8c-7.4,2.1-14.7,3.9-22.1,5.4C-149,377.2-154.6,378-160.1,378z"/>
		</g>
	</g>
	<g>
		<path class="st15" d="M-144.6,452.9c-2,0-4-0.1-6.1-0.3c-2.8-0.3-4.9-0.8-6.6-1.3c-0.9-0.3-1.7-0.9-2.1-1.8c-0.5-1-0.6-2-0.3-2.9
			c0.3-1,1-1.7,1.9-2.2c0.8-0.4,1.8-0.6,2.8-0.2c1.4,0.4,3.2,0.8,5.2,1c1.9,0.2,4,0.3,6.2,0.2c1.9,0,3.7-0.3,5.2-0.6
			c1-0.3,1.6-0.5,1.9-0.8c0,0,0.1-0.1,0.1-0.1c0.1-0.1,0.2-0.2,0.3-0.2c0.1-0.1,0.2-0.1,0.2-0.5c0-0.3,0.1-0.5,0-0.7c0,0,0,0,0-0.1
			l0,0c0,0,0,0,0,0s0,0,0,0c0,0,0,0,0,0l0,0c0,0,0,0,0,0v0c0,0,0,0,0,0c0,0,0,0,0,0l0,0c0-0.1-0.1-0.2-0.1-0.3l0-0.3c0,0,0,0,0,0
			c-0.1-0.4-1.3-1.6-1.8-1.8c-0.7-0.2-3-0.5-5.6-0.5c-0.5,0-1,0-1.7-0.1c-0.5,0-1.1,0-1.7,0c-1.6,0-2.7,0-3.2-0.1
			c-2.8,0-4.7-0.3-5.6-0.8c-1-0.5-2-1.1-3-1.8c-0.1,0-0.1-0.1-0.2-0.1c-1.2-1-2.1-2.2-2.7-3.4c0-0.1-0.1-0.2-0.1-0.2
			c-0.7-1.5-0.9-3.1-0.6-4.9c0.3-1.7,1.1-3.4,2.7-5.2c2.3-3,6.3-4.5,11.8-4.5c4.1,0,9.3,0.9,15.2,2.5c1,0.3,1.7,0.9,2.2,1.8
			c0.5,1,0.6,1.9,0.3,2.8c-0.2,0.9-0.9,1.7-1.8,2.2c-0.5,0.3-1.1,0.5-1.7,0.5l0,0c-0.3,0-0.7,0-1-0.1c-10.1-2.9-16.7-2.9-19.5-0.3
			c-0.5,0.5-0.8,1-0.9,1.6c-0.1,0.2,0,0.3,0,0.4c0,0.1,0.1,0.2,0.1,0.2c0.2,0.3,0.4,0.6,0.8,0.9c0.3,0.3,0.7,0.5,1.2,0.7
			c0.5,0.1,2.1,0.1,2.8,0.2c0.6,0.1,1.6,0.1,3.1,0.1c0.7,0,1.2,0,1.7,0c0.7,0,1.3,0,1.8,0.1c2.7,0.1,5.1,0.3,6.9,0.6
			c0,0,0.1,0,0.1,0c3.5,0.7,5.5,2,6.4,3.9l0.2,0.3c0.7,1.5,0.8,1.8,1,2.4c0.3,0.9,0.4,1.8,0.4,2.5c0,0.2,0,0.3,0,0.5l0,0.2
			c0,1.1-0.2,2.2-0.6,3.2c0,0.1,0,0.1,0,0.2c-0.4,0.8-1,1.7-1.8,2.8c0,0.1-0.1,0.1-0.2,0.2c-1.1,1.3-3,2.4-5.6,3
			c-2,0.5-4.3,0.8-6.8,0.9C-143.8,452.9-144.2,452.9-144.6,452.9z M-156.2,445.5c-0.3,0-0.7,0.1-1,0.3c-0.6,0.3-1,0.7-1.2,1.3
			c-0.2,0.7,0,1.3,0.2,1.8c0.3,0.5,0.7,0.9,1.3,1.1c1.6,0.5,3.6,0.9,6.3,1.3c2.4,0.2,4.8,0.3,7.1,0.3c2.5-0.1,4.7-0.4,6.5-0.8
			c2.4-0.6,4.1-1.5,4.9-2.7c0.1-0.1,0.1-0.1,0.2-0.2c0.7-0.9,1.2-1.6,1.5-2.3c0,0,0-0.1,0-0.1c0.4-0.9,0.5-1.8,0.5-2.8v-0.1
			c0-0.1,0-0.3,0-0.5c0-0.7,0-1.4-0.3-2.1c-0.1-0.5-0.3-0.8-0.9-2.2l-0.2-0.3c-0.7-1.5-2.4-2.5-5.3-3.1c0,0-0.1,0-0.1,0
			c-1.2-0.2-3.4-0.5-6.7-0.6c-0.5,0-1.1,0-1.8-0.1c-0.5,0-1.1,0-1.7,0c-1.5,0-2.6,0-3.1-0.1c-1.9-0.1-2.7-0.1-3.2-0.2
			c0,0-0.1,0-0.1,0c-0.6-0.3-1.2-0.6-1.6-1c-0.6-0.5-0.9-1-1.2-1.4c0,0,0-0.1-0.1-0.1c-0.2-0.4-0.3-0.9-0.1-1.4
			c0.2-0.8,0.6-1.6,1.3-2.3c3.2-3.1,10.2-3.1,20.8-0.1c0.6,0.1,1.2,0.1,1.7-0.2c0.6-0.3,1-0.8,1.1-1.4c0.2-0.6,0.1-1.1-0.2-1.7
			c-0.3-0.5-0.8-0.9-1.4-1.1c-5.8-1.6-10.8-2.5-14.8-2.5c-5.1,0-8.7,1.3-10.7,4c-1.4,1.6-2.1,3.1-2.4,4.5c-0.3,1.5-0.1,2.9,0.6,4.2
			c0,0.1,0.1,0.2,0.1,0.2c0.5,0.9,1.2,1.8,2.1,2.6c0.1,0,0.1,0.1,0.2,0.1c0.9,0.7,1.8,1.3,2.8,1.7c0.4,0.2,1.6,0.6,5,0.6
			c0.6,0.1,1.6,0.1,3.2,0.1c0.6,0,1.2,0,1.7,0c0.6,0,1.2,0,1.6,0.1c2.6,0.1,5.2,0.3,6.1,0.6c0.9,0.3,2.6,1.8,2.8,2.9l0,0.1
			c0.2,0.4,0.3,0.7,0.1,1.7c-0.1,0.9-0.4,1.2-0.8,1.5c-0.1,0.1-0.2,0.1-0.2,0.2c-0.1,0.1-0.2,0.2-0.3,0.2c-0.5,0.4-1.2,0.6-2.3,1
			c-1.7,0.4-3.6,0.6-5.6,0.7c-0.5,0-1,0-1.4,0c-1.8,0-3.4-0.1-5-0.3c-2.1-0.3-3.9-0.6-5.5-1.1C-155.7,445.5-156,445.5-156.2,445.5z"
			/>
	</g>
	<g>
		<path class="st15" d="M-178.1,490.5c-2,0-4-0.1-6.1-0.3c-2.8-0.3-4.9-0.8-6.6-1.3c-0.9-0.3-1.7-0.9-2.1-1.8c-0.5-1-0.6-2-0.3-2.9
			c0.3-1,1-1.7,1.9-2.2c0.8-0.4,1.8-0.5,2.8-0.2c1.4,0.4,3.2,0.8,5.2,1c1.9,0.2,4.1,0.3,6.2,0.2c1.9,0,3.7-0.3,5.3-0.6
			c0.7-0.2,1.5-0.5,1.9-0.8c0,0,0.1-0.1,0.1-0.1c0.1-0.1,0.2-0.2,0.3-0.2c0.1-0.1,0.2-0.1,0.2-0.5c0-0.3,0.1-0.5,0-0.7
			c-0.1-0.1-0.1-0.2-0.1-0.3l0-0.3c0,0,0,0,0,0c-0.1-0.4-1.3-1.6-1.9-1.8c-0.7-0.2-3-0.5-5.6-0.5c-0.5,0-1.1,0-1.7-0.1
			c-0.5,0-1,0-1.7,0c-1.6,0-2.6,0-3.2-0.1c-2.8,0-4.7-0.3-5.6-0.8c-1.1-0.5-2-1.1-2.9-1.8c-0.1,0-0.1-0.1-0.2-0.1
			c-1.2-1-2.1-2.2-2.7-3.4c0-0.1-0.1-0.2-0.1-0.2c-0.7-1.5-0.9-3.1-0.6-4.9c0.3-1.7,1.1-3.4,2.7-5.2c2.3-3,6.3-4.5,11.8-4.5
			c4.1,0,9.3,0.9,15.2,2.5c1,0.3,1.7,0.9,2.2,1.8c0.5,1,0.6,1.9,0.3,2.8c-0.2,0.9-0.9,1.7-1.8,2.2c-0.5,0.3-1.1,0.5-1.7,0.5l0,0
			c-0.3,0-0.7,0-1-0.1c-10.1-2.9-16.7-3-19.5-0.3c-0.5,0.5-0.8,1-0.9,1.6c-0.1,0.2,0,0.3,0,0.4c0,0.1,0.1,0.1,0.1,0.2
			c0.2,0.3,0.4,0.6,0.8,0.9c0.3,0.3,0.7,0.5,1.2,0.7c0.5,0.1,2.2,0.1,2.8,0.2c0.6,0.1,1.6,0.1,3.1,0.1c0.7,0,1.3,0,1.8,0.1
			c0.7,0,1.2,0,1.7,0.1c2.7,0.1,5.1,0.3,6.9,0.6c0,0,0.1,0,0.1,0c3.5,0.7,5.5,2,6.4,3.9l0.2,0.3c0.7,1.5,0.8,1.8,1,2.3
			c0.3,0.9,0.4,1.8,0.4,2.5c0,0.2,0,0.3,0,0.5c0,0,0,0.1,0,0.1c0,1.1-0.2,2.1-0.6,3.2c0,0.1,0,0.1,0,0.2c-0.4,0.8-1,1.8-1.8,2.8
			c0,0.1-0.1,0.1-0.2,0.2c-1.1,1.3-3,2.4-5.6,3c-2,0.5-4.3,0.8-6.8,0.9C-177.3,490.5-177.7,490.5-178.1,490.5z M-189.7,483.1
			c-0.3,0-0.7,0.1-1,0.3c-0.6,0.3-1,0.7-1.2,1.3c-0.2,0.7,0,1.3,0.2,1.8c0.3,0.5,0.7,0.9,1.3,1.1c1.6,0.5,3.6,0.9,6.3,1.3
			c2.4,0.2,4.8,0.3,7.1,0.3c2.5-0.1,4.7-0.4,6.5-0.8c2.4-0.6,4.1-1.5,4.9-2.7c0.1-0.1,0.1-0.1,0.2-0.2c0.7-0.9,1.2-1.6,1.5-2.3
			c0,0,0-0.1,0-0.1c0.4-0.9,0.5-1.8,0.5-2.8c0-0.2,0-0.4,0-0.6c0-0.7,0-1.4-0.3-2.1c-0.1-0.5-0.3-0.8-0.9-2.2l-0.2-0.3
			c-0.7-1.5-2.4-2.5-5.3-3.1c0,0-0.1,0-0.1,0c-1.2-0.2-3.3-0.5-6.7-0.6c-0.5,0-1,0-1.7-0.1c-0.5,0-1.2,0-1.8-0.1
			c-1.5,0-2.6,0-3.1-0.1c-1.9-0.1-2.7-0.1-3.1-0.2c0,0-0.1,0-0.1,0c-0.6-0.3-1.2-0.6-1.6-1c-0.6-0.5-0.9-1-1.2-1.4
			c0,0,0-0.1-0.1-0.1c-0.2-0.4-0.3-0.9-0.1-1.4c0.2-0.8,0.7-1.6,1.3-2.3c3.2-3.1,10.2-3.1,20.8-0.1c0.6,0.1,1.2,0.1,1.7-0.2
			c0.6-0.3,1-0.8,1.1-1.4c0.2-0.6,0.1-1.1-0.2-1.7c-0.3-0.5-0.8-0.9-1.4-1.1c-5.8-1.6-10.8-2.5-14.8-2.5c-5.1,0-8.7,1.3-10.7,4
			c-1.4,1.6-2.1,3.1-2.4,4.5c-0.3,1.5-0.1,2.9,0.6,4.2c0,0.1,0.1,0.2,0.1,0.2c0.5,0.9,1.2,1.8,2.1,2.6c0.1,0,0.1,0.1,0.2,0.1
			c0.9,0.7,1.8,1.3,2.8,1.7c0.4,0.2,1.6,0.6,5,0.6c0.6,0,1.6,0,3.2,0c0.6,0,1.2,0,1.7,0c0.7,0,1.2,0,1.7,0.1c0.8,0,1.7,0.1,2.5,0.1
			c0.1-0.3,0.4-0.5,0.7-0.5c0.4,0,0.7,0.3,0.7,0.6c1,0.1,1.8,0.2,2.2,0.3c1,0.3,2.6,1.9,2.8,2.9l0,0.1c0.2,0.4,0.3,0.7,0.1,1.7
			c-0.1,0.9-0.4,1.2-0.8,1.5c-0.1,0.1-0.2,0.1-0.2,0.2c-0.1,0.1-0.2,0.2-0.3,0.2c-0.5,0.3-1.2,0.6-2.3,1c-1.7,0.4-3.6,0.6-5.6,0.7
			c-0.5,0-1,0-1.5,0c-1.8,0-3.4-0.1-5-0.3c-2.1-0.3-3.9-0.6-5.5-1.1C-189.2,483.2-189.5,483.1-189.7,483.1z"/>
	</g>
	<g>
		<path class="st15" d="M-103.5,451.4h-20c-1,0-2-0.4-2.6-1.1c-0.7-0.6-1.1-1.6-1.1-2.6v-24.8c0-1,0.4-1.9,1.1-2.6
			c0.7-0.7,1.6-1.1,2.6-1.1h20c1,0,1.9,0.3,2.6,1c0.7,0.8,1.1,1.7,1.1,2.7c0,1-0.4,1.9-1.1,2.6c-0.7,0.7-1.6,1.1-2.7,1.1h-16.3v5
			h11.8c1,0,1.9,0.3,2.6,1c0.7,0.8,1.1,1.7,1.1,2.7c0,1-0.4,1.9-1.1,2.6c-0.7,0.7-1.6,1.1-2.7,1.1h-11.8v5h16.3c1,0,1.9,0.3,2.6,1
			c0.7,0.8,1.1,1.7,1.1,2.7c0,1-0.4,1.9-1.1,2.6C-101.6,451-102.5,451.4-103.5,451.4z M-123.5,420.6c-0.6,0-1.2,0.2-1.6,0.6
			c-0.5,0.5-0.7,1-0.7,1.6v24.8c0,0.6,0.2,1.2,0.7,1.6c0.4,0.5,1,0.7,1.6,0.7h20c0.6,0,1.2-0.2,1.6-0.7c0.4-0.4,0.6-1,0.6-1.6
			c0-0.6-0.2-1.2-0.7-1.7c-0.4-0.4-1-0.6-1.6-0.6h-17c-0.4,0-0.7-0.3-0.7-0.7v-6.5c0-0.4,0.3-0.7,0.7-0.7h12.5
			c0.6,0,1.2-0.2,1.6-0.7c0.4-0.4,0.6-1,0.6-1.6c0-0.6-0.2-1.2-0.7-1.7c-0.4-0.4-1-0.6-1.6-0.6h-12.5c-0.4,0-0.7-0.3-0.7-0.7v-6.5
			c0-0.4,0.3-0.7,0.7-0.7h17c0.6,0,1.2-0.2,1.6-0.7c0.4-0.4,0.6-0.9,0.6-1.6c0-0.6-0.2-1.2-0.7-1.6c-0.4-0.4-1-0.6-1.6-0.6
			L-123.5,420.6L-123.5,420.6z"/>
	</g>
	<g>
		<path class="st15" d="M-81.8,453.6c-2.6,0-5-0.5-7.3-1.5c-2.1-0.9-4-2.2-5.6-3.9c-0.1,0-0.1-0.1-0.2-0.1c-1.6-1.7-2.8-3.8-3.6-6.2
			c-0.8-2.4-1.1-4.9-1-7.5l0-0.4c0.1-2.3,0.1-3.4,0.9-5.5c0.8-2.2,1.5-3.8,2.8-5.2c0,0,1.8-2.4,4.4-3.7c2-1,3-1.2,4.4-1.5
			c0.4-0.1,0.8-0.2,1.3-0.3c1.6-0.3,3.2-0.4,4.7-0.4c4.8,0,9.3,1.4,13.1,4.2c0.8,0.6,1.4,1.5,1.5,2.5c0.2,1.1,0,2.1-0.6,2.9
			c-0.5,0.9-1.3,1.4-2.3,1.7c-0.3,0.1-0.5,0.1-0.8,0.1l0,0c-0.7,0-1.4-0.2-2.1-0.7c-3.8-2.8-7.9-3.7-12-2.7c0,0-0.1,0-0.1,0
			l-0.7,0.2c-1.4,0.4-2.3,0.6-3.5,1.2c-1.3,0.7-2.1,1.9-2.1,1.9c0,0,0,0.1-0.1,0.1c-0.5,0.5-0.8,1.2-1,2c-0.3,1.2-0.5,2.2-0.6,3.9
			c-0.1,1.7,0.2,3.2,0.6,4.5c0.4,1.3,1.1,2.4,1.9,3.4c0.9,1,1.9,1.7,3.1,2.2c0.1,0,0.1,0.1,0.2,0.1c1.3,0.5,2.9,0.8,4.4,0.8
			c4,0,6.9-0.8,8.7-2.3c0.7-0.7,1.2-1.6,1.5-2.7h-9.1c-1,0-2-0.4-2.6-1.2c-0.7-0.7-1.1-1.7-1.1-2.7c0-1.1,0.4-2,1.1-2.8
			c0.7-0.7,1.6-1.1,2.6-1.1h13c1,0,1.8,0.3,2.5,1c0.8,0.8,1.1,1.6,1.2,2.6c0.5,5.8-0.9,10.2-4.2,13
			C-71.1,452.2-75.6,453.6-81.8,453.6z M-93.9,446.9c0.1,0,0.1,0.1,0.2,0.1c1.4,1.7,3.2,2.9,5.2,3.7c2.1,0.9,4.4,1.4,6.8,1.4
			c5.8,0,10-1.3,12.5-3.8c3-2.6,4.2-6.5,3.7-11.9c0-0.6-0.3-1.2-0.8-1.7c-0.4-0.4-0.9-0.6-1.5-0.6h-13c-0.6,0-1.2,0.2-1.6,0.7
			c-0.5,0.5-0.7,1.1-0.7,1.8c0,0.7,0.2,1.3,0.7,1.8c0.4,0.5,1,0.8,1.6,0.8h10c0.2,0,0.4,0.1,0.5,0.2c0.1,0.2,0.2,0.4,0.2,0.6
			c-0.2,1.7-0.9,3.3-2,4.4c-2.1,1.8-5.3,2.7-9.6,2.7c-1.8,0-3.5-0.3-5.1-1c-0.1,0-0.1-0.1-0.2-0.1c-1.4-0.6-2.5-1.4-3.5-2.5
			c-1-1.1-1.7-2.4-2.2-3.9c-0.5-1.5-0.7-3.2-0.7-5.1c0.1-1.9,0.3-2.9,0.6-4.2c0.3-1,0.7-1.9,1.3-2.5c0.2-0.3,1.1-1.6,2.6-2.3
			c1.4-0.7,2.4-0.9,3.8-1.3l0.8-0.2c0,0,0.1,0,0.1,0c4.6-1.1,9-0.1,13.1,2.9c0.4,0.3,0.8,0.4,1.2,0.4l0,0c0.1,0,0.3,0,0.4,0
			c0.6-0.2,1.1-0.5,1.4-1.1c0.4-0.6,0.5-1.2,0.4-1.9c-0.1-0.6-0.4-1.2-1-1.6c-4.8-3.4-10.5-4.6-16.7-3.5c-0.5,0.1-0.9,0.2-1.3,0.3
			c-1.3,0.3-2.2,0.5-4,1.4c-2.3,1.1-4,3.3-4,3.3c-1.1,1.2-1.7,2.7-2.5,4.8c-0.7,1.9-0.7,2.8-0.8,5.1l0,0.4c-0.1,2.5,0.2,4.7,1,7
			C-96.3,443.5-95.3,445.4-93.9,446.9z"/>
	</g>
	<g>
		<path class="st15" d="M-31.6,452.3L-31.6,452.3c-0.8,0-1.5-0.3-2.1-0.7c-0.8-0.6-1.3-1.3-1.5-2.4c-0.4-2.6-0.8-5.1-1.3-7.3h-18.2
			c-0.4,2-0.8,4.1-1.1,6.3c-0.2,1-0.7,1.8-1.5,2.4c-0.9,0.6-1.8,0.9-2.8,0.7c-1-0.1-1.8-0.6-2.4-1.5c-0.6-0.8-0.8-1.7-0.7-2.7
			c3.1-20.4,9-30.5,17.7-30c0.1,0,0.3,0,0.5,0c8.4,0,14,10.1,17.1,31c0.1,1-0.1,1.9-0.7,2.8c-0.7,0.8-1.5,1.3-2.5,1.4
			C-31.1,452.3-31.4,452.3-31.6,452.3z M-55.3,440.4h19.4c0.3,0,0.6,0.2,0.7,0.6c0.5,2.4,1,5.1,1.4,7.9c0.1,0.6,0.4,1.1,0.9,1.5
			c0.5,0.4,1.1,0.5,1.6,0.4c0.6-0.1,1.1-0.4,1.5-0.9c0.4-0.5,0.5-1.1,0.5-1.7c-3.1-20.2-8.5-30.2-16.2-29.7c-0.3,0-0.5,0-0.6,0
			c-7.5,0-12.7,9.7-15.6,28.8c-0.1,0.6,0.1,1.2,0.4,1.6c0.4,0.5,0.9,0.8,1.5,0.9c0.2,0,0.3,0,0.4,0c0.5,0,0.9-0.2,1.3-0.5
			c0.5-0.4,0.8-0.9,0.9-1.5c0.4-2.4,0.8-4.8,1.2-6.9C-55.9,440.7-55.6,440.4-55.3,440.4z M-37.4,435.9h-16.4c-0.2,0-0.4-0.1-0.6-0.3
			c-0.1-0.2-0.2-0.4-0.1-0.6c2.3-7.7,5.2-11.6,8.9-11.9c0,0,0.1,0,0.1,0c3.6,0.3,6.5,4.2,8.8,11.9c0.1,0.2,0,0.5-0.1,0.6
			C-36.9,435.8-37.1,435.9-37.4,435.9z M-52.8,434.5h14.5c-2-6.3-4.5-9.7-7.2-10C-48.3,424.8-50.8,428.1-52.8,434.5z"/>
	</g>
	<g>
		<path class="st15" d="M-130,492.1c-0.8,0-1.5-0.3-2.1-0.7c-0.8-0.6-1.3-1.3-1.5-2.4c-0.4-2.7-0.8-5.1-1.3-7.3h-18.2
			c-0.4,1.9-0.8,4.1-1.1,6.3c-0.2,1-0.7,1.8-1.5,2.4c-0.7,0.5-1.4,0.7-2.1,0.7l0,0c-0.2,0-0.4,0-0.7-0.1c-1-0.1-1.8-0.6-2.4-1.5
			c-0.6-0.8-0.9-1.8-0.7-2.7c3.2-20.7,9-30.5,17.7-30c0.1,0,0.3,0,0.5,0c8.4,0,14,10.1,17.1,31c0.1,1-0.1,1.9-0.7,2.8
			c-0.7,0.8-1.5,1.3-2.4,1.4C-129.6,492.1-129.8,492.1-130,492.1z M-153.7,480.3h19.4c0.3,0,0.6,0.2,0.7,0.6c0.5,2.4,1,5,1.4,7.9
			c0.1,0.6,0.4,1.1,0.9,1.5c0.5,0.4,1.1,0.5,1.7,0.4c0.6-0.1,1.1-0.4,1.5-0.9c0.4-0.5,0.5-1.1,0.5-1.7c-3.1-20.2-8.5-30.2-16.2-29.7
			c-0.3,0-0.5,0-0.6,0c-7.4,0-12.7,9.7-15.6,28.8c-0.1,0.6,0,1.1,0.4,1.6c0.4,0.6,0.9,0.8,1.5,0.9c0.2,0,0.3,0,0.5,0l0,0
			c0.4,0,0.8-0.1,1.3-0.5c0.5-0.4,0.8-0.9,0.9-1.5c0.4-2.5,0.8-4.8,1.2-6.9C-154.3,480.5-154,480.3-153.7,480.3z M-135.8,475.7
			h-16.4c-0.2,0-0.4-0.1-0.6-0.3c-0.1-0.2-0.2-0.4-0.1-0.6c2.3-7.7,5.2-11.6,8.9-11.9c0,0,0.1,0,0.1,0c3.6,0.3,6.5,4.2,8.8,11.9
			c0.1,0.2,0,0.5-0.1,0.6C-135.4,475.6-135.6,475.7-135.8,475.7z M-151.2,474.3h14.5c-2-6.4-4.4-9.7-7.2-10
			C-146.8,464.6-149.2,468-151.2,474.3z"/>
	</g>
	<g>
		<path class="st15" d="M-116.5,491.7c-1,0-2-0.4-2.6-1.1c-0.7-0.6-1.1-1.6-1.1-2.6v-22.1h-9.3c-1,0-2-0.4-2.6-1.1
			c-0.7-0.6-1.1-1.6-1.1-2.6c0-1,0.4-1.9,1.1-2.6c0.7-0.7,1.6-1.1,2.6-1.1h26c1,0,1.9,0.3,2.6,1c0.7,0.8,1.1,1.7,1.1,2.7
			c0,1-0.4,1.9-1.1,2.6c-0.7,0.7-1.6,1.1-2.7,1.1h-9.3v22.1c0,1-0.4,1.9-1.1,2.6C-114.6,491.3-115.4,491.7-116.5,491.7z
			 M-129.5,459.8c-0.6,0-1.2,0.2-1.6,0.6c-0.5,0.5-0.7,1-0.7,1.6c0,0.6,0.2,1.2,0.7,1.6c0.4,0.5,1,0.7,1.6,0.7h10
			c0.4,0,0.7,0.3,0.7,0.7v22.9c0,0.6,0.2,1.2,0.7,1.6c0.4,0.5,1,0.7,1.6,0.7c0.7,0,1.2-0.2,1.6-0.7c0.4-0.4,0.6-1,0.6-1.6v-22.9
			c0-0.4,0.3-0.7,0.7-0.7h10c0.7,0,1.2-0.2,1.6-0.7c0.4-0.4,0.6-1,0.6-1.6c0-0.6-0.2-1.2-0.7-1.6c-0.4-0.4-1-0.6-1.6-0.6H-129.5z"/>
	</g>
	<g>
		<path class="st15" d="M-79.9,491.3h-4.4c-2.1,0-4.1-0.4-5.9-1.1c-1.8-0.8-3.3-1.8-4.8-3.2c-1.4-1.5-2.4-3-3.1-4.6
			c-0.1-0.1-0.1-0.1-0.1-0.2c-0.8-2-1.1-3.9-1.1-5.8v-14.8c0-1,0.4-2,1.1-2.6c0.6-0.7,1.6-1.1,2.6-1.1c1,0,1.9,0.4,2.7,1.1
			c0.7,0.7,1.1,1.6,1.1,2.6v14.8c0,1,0.2,2,0.6,3c0,0,0,0.1,0,0.1c0.4,0.8,0.9,1.6,1.6,2.3c0.9,0.8,1.6,1.3,2.4,1.6
			c1,0.4,1.9,0.6,3,0.6h4.4c1.1,0,2.1-0.2,3-0.6c0.8-0.3,1.6-0.8,2.5-1.7c0.8-0.8,1.3-1.6,1.6-2.4c0.4-0.9,0.6-1.9,0.6-3v-14.8
			c0-1,0.4-2,1.1-2.6c0.6-0.7,1.6-1.1,2.6-1.1c1,0,1.9,0.4,2.7,1.1c0.7,0.7,1.1,1.6,1.1,2.6v14.8c0,2.1-0.4,4-1.2,5.9
			c0,0.1-0.1,0.1-0.1,0.2c-0.7,1.7-1.8,3.2-3.1,4.6c-1.4,1.4-3,2.4-4.6,3.2c0,0-0.1,0.1-0.2,0.1C-75.8,490.9-77.8,491.3-79.9,491.3z
			 M-97,481.3c0.1,0.1,0.1,0.1,0.1,0.2c0.6,1.5,1.6,3,2.9,4.3c1.3,1.3,2.8,2.2,4.4,2.9c1.6,0.7,3.4,1,5.3,1h4.4c1.9,0,3.6-0.3,5.2-1
			c0,0,0.1-0.1,0.1-0.1c1.6-0.7,3-1.6,4.4-2.9c1.3-1.3,2.3-2.8,2.9-4.3c0,0,0-0.1,0.1-0.1c0.6-1.6,1-3.3,1-5.1v-14.8
			c0-0.6-0.2-1.2-0.6-1.6c-0.5-0.5-1-0.7-1.6-0.7c-0.6,0-1.2,0.2-1.6,0.7c-0.5,0.4-0.7,1-0.7,1.6v14.8c0,1.3-0.2,2.5-0.7,3.5
			c-0.4,1-1,1.9-1.9,2.9c-0.7,0.7-1.7,1.5-3,2c-1,0.5-2.2,0.7-3.5,0.7h-4.4c-1.3,0-2.4-0.2-3.5-0.7c-1.2-0.5-2.2-1.3-2.9-1.9
			c-0.9-0.9-1.5-1.8-2-2.9c0-0.1,0-0.1-0.1-0.2c-0.4-1.1-0.7-2.3-0.7-3.4v-14.8c0-0.6-0.2-1.2-0.6-1.6c-0.5-0.5-1-0.7-1.6-0.7
			c-0.6,0-1.2,0.2-1.6,0.7c-0.6,0.5-0.7,1.2-0.7,1.6v14.8C-98,477.9-97.7,479.6-97,481.3z"/>
	</g>
	<g>
		<path class="st15" d="M-60,490.7c-1.1,0-2-0.4-2.8-1.1c-0.7-0.7-1.1-1.6-1.1-2.6v-25.7c0-0.9,0.4-1.8,1.1-2.5
			c0.7-0.7,1.6-1.1,2.5-1.2c9.5-0.7,16.7-0.4,21.5,1.1c6.4,1.9,9.5,5.4,9.3,10.5c-0.1,4.3-2,7.4-5.9,9.2c-0.5,0.3-1.1,0.5-1.8,0.7
			l7.2,4.9c0.9,0.6,1.4,1.4,1.6,2.4c0.1,1-0.1,1.9-0.7,2.7c-0.7,0.9-1.5,1.4-2.6,1.5c-0.2,0-0.4,0.1-0.6,0.1c-0.8,0-1.5-0.2-2.2-0.7
			l-15.9-10.9c-0.8-0.5-1.3-1.1-1.5-1.9c-0.2-0.9-0.2-1.7,0.1-2.4c0.3-0.8,0.9-1.4,1.6-1.8c0.7-0.4,1.5-0.6,2.4-0.5
			c4,0.4,7,0.2,9.1-0.6c1-0.5,1.5-1.3,1.5-2.6c-0.1-1.6-1.4-2.7-3.9-3.5c-3.5-1-8.5-1.3-14.8-1V487c0,1-0.4,2-1.2,2.6
			C-58,490.4-58.9,490.7-60,490.7z M-51.5,458.8c-2.6,0-5.5,0.1-8.7,0.4c-0.6,0-1.1,0.3-1.6,0.8c-0.4,0.4-0.6,0.9-0.6,1.5V487
			c0,0.6,0.2,1.1,0.7,1.5c0.5,0.5,1.1,0.7,1.8,0.7c0.7,0,1.3-0.2,1.7-0.7c0.5-0.4,0.7-1,0.7-1.6v-22.9c0-0.4,0.3-0.7,0.7-0.7
			c6.8-0.4,12.2,0,16,1c3.1,0.9,4.7,2.5,4.9,4.8c0.1,1.8-0.7,3.2-2.3,4c-2.3,1-5.6,1.2-9.8,0.8c-0.1,0-0.2,0-0.3,0
			c-0.5,0-0.9,0.1-1.3,0.3c-0.5,0.3-0.8,0.6-1,1.1c-0.2,0.4-0.2,0.9-0.1,1.4c0.1,0.4,0.4,0.8,0.9,1.1l15.9,10.9
			c0.6,0.4,1.2,0.5,1.8,0.4c0.7-0.1,1.3-0.4,1.7-0.9c0.4-0.5,0.5-1.1,0.4-1.6c-0.1-0.6-0.4-1.1-1-1.5l-8.4-5.7
			c-0.2-0.2-0.4-0.4-0.3-0.7s0.3-0.5,0.5-0.6c1.2-0.3,2.2-0.6,3-1c3.4-1.6,5-4.1,5.1-7.9c0.2-4.4-2.5-7.4-8.3-9.1
			C-42.3,459.2-46.4,458.8-51.5,458.8z"/>
	</g>
	<g>
		<path class="st15" d="M2,491.1c-0.2,0-0.5,0-0.7-0.1c-0.8-0.2-1.4-0.5-1.9-1.1l-18.6-19.2v16.7c0,1-0.4,1.9-1.1,2.6
			c-0.7,0.7-1.6,1.1-2.7,1.1c-1,0-2-0.4-2.6-1.1c-0.7-0.6-1.1-1.5-1.1-2.6v-25.8c0-0.8,0.2-1.5,0.7-2.1c0.3-0.6,0.9-1,1.7-1.3
			c0.6-0.3,1.3-0.4,2.1-0.2c0.7,0.2,1.3,0.5,1.9,1l18.6,19.3v-16.7c0-1,0.4-1.9,1.1-2.6c0.7-0.7,1.6-1.1,2.6-1.1c1,0,1.9,0.3,2.6,1
			c0.7,0.8,1.1,1.7,1.1,2.7v25.8c0,0.8-0.2,1.5-0.6,2.1c-0.4,0.6-0.9,1.1-1.6,1.4C2.9,491.1,2.4,491.1,2,491.1z M-20,468.3
			c0.2,0,0.4,0.1,0.5,0.2L0.4,489c0.4,0.4,0.8,0.6,1.2,0.7c0.3,0.1,0.8,0,1.4-0.1c0.4-0.2,0.7-0.5,1-0.8c0.3-0.4,0.4-0.8,0.4-1.3
			v-25.8c0-0.6-0.2-1.2-0.7-1.6c-0.5-0.4-1-0.6-1.6-0.6c-0.6,0-1.2,0.2-1.6,0.6c-0.5,0.5-0.7,1-0.7,1.6V480c0,0.3-0.2,0.6-0.4,0.7
			c-0.3,0.1-0.6,0-0.8-0.2L-21.3,460c-0.4-0.3-0.8-0.5-1.2-0.6c-0.1,0-0.2,0-0.4,0c-0.3,0-0.6,0.1-0.9,0.2c-0.5,0.2-0.8,0.4-1,0.8
			c-0.3,0.4-0.4,0.8-0.4,1.3v25.8c0,0.6,0.2,1.2,0.7,1.6c0.4,0.5,1,0.7,1.6,0.7c0.6,0,1.2-0.2,1.6-0.7c0.4-0.4,0.6-1,0.6-1.6V469
			c0-0.3,0.2-0.6,0.4-0.7C-20.2,468.3-20.1,468.3-20,468.3z"/>
	</g>
</g>
</svg>
