<?xml version="1.0" encoding="utf-8"?>
<!-- Generator: Adobe Illustrator 19.0.0, SVG Export Plug-In . SVG Version: 6.00 Build 0)  -->
<svg version="1.1" id="Ebene_1" xmlns="http://www.w3.org/2000/svg" xmlns:xlink="http://www.w3.org/1999/xlink" x="0px" y="0px"
	 viewBox="-22 321.2 566.9 150.8" style="enable-background:new -22 321.2 566.9 150.8;" xml:space="preserve">
<style type="text/css">
	.st0{fill:#FFFFFF;}
</style>
<g>
	<g>
		<g>
			<path class="st0" d="M57.8,397.2c8.3-9.7,20.7-15.9,34.5-15.9c2.8,0,5.5,0.3,8.1,0.7c1.8-4.9,2.7-10.1,2.7-15.6
				c0-25-20.3-45.3-45.3-45.3c-25,0-45.3,20.3-45.3,45.3c0,5.5,1,10.7,2.8,15.6c2.7-0.5,5.4-0.8,8.2-0.8
				C37.1,381.3,49.5,387.5,57.8,397.2z M100.4,382c-5.4,14.9-18.5,26.1-34.4,29c1.8,4.9,2.7,10.1,2.7,15.6
				c0,11.3-4.1,21.5-10.9,29.5c8.3,9.7,20.7,15.9,34.5,15.9c25,0,45.3-20.3,45.3-45.3C137.6,404.4,121.5,385.9,100.4,382z
				 M49.7,411.1c-16-2.9-29-14.1-34.5-29C-6,385.9-22,404.4-22,426.7c0,25,20.3,45.3,45.3,45.3c13.8,0,26.1-6.2,34.5-15.9
				c-6.8-7.9-10.9-18.2-10.9-29.5C46.9,421.2,47.9,416,49.7,411.1z M49.7,411.1c2.6,0.5,5.3,0.7,8.1,0.7c2.8,0,5.5-0.3,8.2-0.7
				c-1.9-5.1-4.7-9.8-8.1-13.9C54.3,401.3,51.5,406,49.7,411.1z"/>
		</g>
	</g>
	<g>
		<path class="st0" d="M231.2,377.1c0,8.9-3,15.7-9.1,20.5c-6,4.7-14.6,7.1-25.7,7.1h-14.2v38h-6.4v-92.1h22.6
			C220.2,350.6,231.2,359.4,231.2,377.1z M182.2,399.1h12.7c10.4,0,17.9-1.7,22.5-5.1c4.6-3.4,6.9-9,6.9-16.7
			c0-7.1-2.2-12.4-6.6-15.8c-4.4-3.4-11.1-5.1-20.3-5.1h-15.2L182.2,399.1L182.2,399.1z"/>
		<path class="st0" d="M328.7,396.5c0,14.6-3.7,26.2-11,34.7c-7.3,8.5-17.4,12.8-30.2,12.8c-12.8,0-22.9-4.3-30.2-12.8
			c-7.3-8.5-11-20.1-11-34.8c0-14.7,3.7-26.2,11.1-34.6c7.4-8.4,17.4-12.6,30.2-12.6c12.9,0,22.9,4.2,30.2,12.7
			C325,370.3,328.7,381.9,328.7,396.5z M253.3,396.5c0,13.2,2.9,23.4,8.8,30.6c5.9,7.2,14.3,10.8,25.3,10.8
			c11.1,0,19.6-3.6,25.4-10.7c5.9-7.1,8.8-17.4,8.8-30.7c0-13.3-2.9-23.4-8.8-30.5c-5.9-7.1-14.3-10.6-25.3-10.6
			c-11,0-19.4,3.6-25.4,10.7C256.3,373.3,253.3,383.4,253.3,396.5z"/>
		<path class="st0" d="M356.2,402.6v40.1h-6.4v-92.1h21.9c11.4,0,19.9,2.1,25.3,6.3c5.5,4.2,8.2,10.6,8.2,19.1
			c0,6.2-1.6,11.4-4.9,15.6c-3.3,4.2-8.2,7.3-14.8,9.1l25,42h-7.7l-23.8-40.1H356.2L356.2,402.6z M356.2,397h17.6
			c7.8,0,13.8-1.7,18.1-5.2c4.3-3.5,6.4-8.6,6.4-15.3c0-7-2.1-12.1-6.3-15.3c-4.2-3.2-11.1-4.8-20.5-4.8h-15.2V397z"/>
		<path class="st0" d="M450.5,442.7H444v-86.1h-29.9v-6h66.3v6h-29.9L450.5,442.7L450.5,442.7z"/>
		<path class="st0" d="M544.9,419c0,7.7-2.8,13.8-8.5,18.3c-5.6,4.5-13.2,6.7-22.5,6.7c-11.3,0-19.9-1.2-25.9-3.7v-6.4
			c6.6,2.8,15.1,4.2,25.4,4.2c7.6,0,13.6-1.7,18-5.2c4.4-3.5,6.6-8,6.6-13.6c0-3.5-0.7-6.4-2.2-8.7c-1.5-2.3-3.9-4.4-7.2-6.3
			c-3.3-1.9-8.2-3.9-14.6-6.1c-9.4-3.2-15.9-6.7-19.5-10.5c-3.6-3.8-5.4-8.8-5.4-15c0-6.9,2.7-12.5,8.1-16.9
			c5.4-4.3,12.3-6.5,20.8-6.5c8.7,0,16.8,1.6,24.4,4.9l-2.3,5.5c-7.6-3.2-15-4.8-21.9-4.8c-6.8,0-12.2,1.6-16.3,4.7
			c-4,3.1-6,7.4-6,12.9c0,3.4,0.6,6.2,1.9,8.4c1.2,2.2,3.3,4.1,6.1,5.9c2.8,1.7,7.6,3.8,14.5,6.3c7.2,2.5,12.6,4.9,16.2,7.2
			c3.6,2.3,6.2,5,7.9,7.9C544.1,411.2,544.9,414.8,544.9,419z"/>
	</g>
</g>
</svg>
