<?xml version="1.0" encoding="utf-8"?>
<!-- Generator: Adobe Illustrator 19.0.0, SVG Export Plug-In . SVG Version: 6.00 Build 0)  -->
<svg version="1.1" id="Layer_1" xmlns="http://www.w3.org/2000/svg" xmlns:xlink="http://www.w3.org/1999/xlink" x="0px" y="0px"
	 viewBox="666 137.9 1944.2 519.1" style="enable-background:new 666 137.9 1944.2 519.1;" xml:space="preserve">
<style type="text/css">
	.st0{fill:#FFFFFF;}
</style>
<path class="st0" d="M3546.1,533h-28.5v-91.2l-33.2,59.3h-19l-28.5-59.3V533h-33.2V376.3h33.2l38,84.5l42.8-84.5h28.5v156.8h-0.1
	V533z M3361,533h-33.2l-9.5-27.6H3266l-9.5,27.6h-33.3l57-156.7h23.7L3361,533z M3313.5,479.3l-19-57l-19,57H3313.5z M3175.8,533
	h-104.5V376.3h104.5v27.1h-71.2v37.1h61.7v27.1h-61.7v38.3h71.2V533L3175.8,533z M3023.8,403.3h-38V533h-33.2V403.3h-42.8v-27.1h114
	V403.3z M2871.8,486.9c0,32.3-28.5,47-57,47.5c-28.5,0-47.5-6.7-57-20.9l19-19.5c9.5,8.5,19,13.3,38,13.3s28.5-6.7,28.5-19.5
	c0-11.9-9.5-17.1-19-19l-19-2.4c-28.5-3.8-42.8-18.5-42.8-44.1c0-14.2,4.7-25.6,14.2-34.6c9.5-8.5,23.7-12.8,38-12.8
	c23.7,0,38,6.2,52.3,18l-19,19.5c-9.5-7.2-19-10.9-33.2-10.9c-14.2,1-23.7,6.2-23.7,19.9c0,10.9,9.5,16.2,19,17.1l19,2.8
	C2852.9,444.2,2871.8,460.3,2871.8,486.9z M2629.7,458.4c0,42.8-38,77.4-80.7,77.4c-42.8,0-76-34.6-76-77.4
	c0-42.3,33.2-76.9,76-76.9C2591.7,381.5,2629.7,416.2,2629.7,458.4z M2548.9,315c-76,0-142.4,63.7-142.4,142.9l-90.2,128.7
	c-4.7-0.5-4.7-1-9.5-1c-19,0-38,5.7-57,15.2l-405.5-163.3c-10.9-48.5-54.1-84.5-105.4-84.5c-58.8,0-107.4,48.5-107.4,107.8
	c0,58.8,48.6,107.3,107.4,107.3c20.4,0,38.9-5.2,55.1-15.2l408.4,163.3c9.5,49.8,52.3,83.1,104.5,83.1c52.2,0,99.7-42.8,104.5-95.4
	L2549,603.3c80.7,0,147.2-64.5,147.2-144.4C2696.2,379.6,2629.7,315,2548.9,315z M2548.9,362.5c57,0,99.7,43.2,99.7,96.4
	c0,53.7-42.8,96.9-99.7,96.9c-52.3,0-94.9-43.2-94.9-96.9C2454,405.8,2496.8,362.5,2548.9,362.5L2548.9,362.5z M1738.9,381.5
	c30.4,0,57,16.6,70.3,41.8l-39.4-15.7c-31.8-11.4-67,4.3-79.7,35.6c-12.4,31.8,1.9,67.4,32.8,81.2l33.2,13.3
	c-5.2,1.4-10.9,1.9-17.1,1.9c-43.6,0-78.9-35.1-78.9-78.9C1660,416.7,1695.2,381.5,1738.9,381.5z M2306.8,614.2
	c42.8,0,76,35.6,76,79.3c0,44.1-33.2,77.4-76,77.4c-33.2,0-57-14.2-71.2-40.4c14.2,7.2,23.7,11.9,38,16.6
	c33.2,14.2,66.5-4.7,80.7-35.1c9.5-29.4,0-69.8-33.2-82.6l-33.2-13.3C2292.6,615.2,2302.1,614.2,2306.8,614.2L2306.8,614.2z"/>
</svg>
