<?xml version="1.0" encoding="utf-8"?>
<!-- Generator: Adobe Illustrator 19.0.0, SVG Export Plug-In . SVG Version: 6.00 Build 0)  -->
<svg version="1.1" id="Layer_1" xmlns="http://www.w3.org/2000/svg" xmlns:xlink="http://www.w3.org/1999/xlink" x="0px" y="0px"
	 viewBox="-22 158.7 566.9 476.3" style="enable-background:new -22 158.7 566.9 476.3;" xml:space="preserve">
<style type="text/css">
	.st0{fill:#F7F7F7;}
	.st1{fill:#F0373F;}
	.st2{fill:#F5A023;}
	.st3{fill:#7487BF;}
	.st4{fill:#019EE3;}
	.st5{fill:#DA72A3;}
	.st6{fill:#FFFFFF;}
</style>
<g>
	<path class="st0" d="M331.8,241.3c2.5-0.2,5-0.3,7.6-0.3c55.9,0,103.8,54.1,107.4,81.7c0.4,2.9,0.6,5.5,0.8,7.7
		c-0.7-75.1-117.9-171.7-212-171.7c-72.7,0-106.6,29.4-117.8,62.5c-16.7,41.7,5.3,101.1,56.8,143.4c5.4,4.4,10.9,8.5,16.5,12.3
		c-2.5,0.2-5,0.3-7.6,0.3c-55.9,0-103.8-54.1-107.4-81.7c-0.4-2.9-0.6-5.5-0.8-7.7c0.7,75.1,117.9,171.7,212,171.7
		c72.7,0,106.6-29.4,117.8-62.5c16.7-41.7-5.3-101.1-56.8-143.4C342.9,249.2,337.4,245.1,331.8,241.3z M227,366.2
		c-41.4-34-55.3-84.1-31.9-112.4c23.5-28.4,76.3-25.1,118.7,7.9c42.1,32.8,58.3,82.6,36.7,112.3c8.9-17.9-0.9-44.7-24-62.8
		c-25-19.6-56.1-21.6-69.9-4.7c-13.8,16.8-5.6,46.6,18.8,66.8c18.8,15.6,41.7,21.1,58.1,15.4C305.7,403.3,262.1,395,227,366.2z"/>
	<g>
		<path class="st1" d="M276.8,549.5c-4.5-1.3-9.6,5-13.9,14.7c-3.9,16.1-12.4,40-13,56.4c-0.3,7.3,6.5,9.4,11.1,11
			c14.5,5.1,22.9,0.1,27.2-5.1c3.1-3.7-0.2-6.9-4-5.7c-5.6,1.6-12.3,2.8-13.7-2.6c-1.5-5.9,6.7-30.2,12.4-48.3
			C286,560,288.6,551.8,276.8,549.5z"/>
		<path class="st2" d="M201.8,578.1c-9.8,1-29.3,6.2-29.3,31.4c0,1.2-3.6,28.4,31.6,25.3c35.1-3.2,41.1-25.3,41.1-25.3
			s8.7-29.2-12.6-28.4c-13,0.5-19,6.3-19,6.3s8.7,1.7,10.6,7.9c3.6,11.8,2.2,31.8-16.9,30c-19.2-1.8-9.8-27.2-3.8-40
			C205.6,580.8,205.1,577.8,201.8,578.1z"/>
		<path class="st3" d="M318.7,578.1c-9.8,1-29.3,6.2-29.3,31.4c0,1.2-3.5,28.4,31.6,25.3c35.1-3.2,41.1-25.3,41.1-25.3
			s8.7-29.2-12.6-28.4c-13,0.5-19,6.3-19,6.3s8.7,1.7,10.6,7.9c3.6,11.8,2.2,31.8-16.9,30c-19.2-1.8-9.8-27.2-3.8-40
			C322.5,580.8,322,577.8,318.7,578.1z"/>
		<path class="st4" d="M87.3,596.8c-1.6-31.2,41.5-45.2,56.9-46.4c15.4-1.2,31.6,2.2,31.6,2.2s-2.4,30.8-9.5,31.6
			c-7.1,0.8-5.5-23.3-19-22.1c-24.6,2.2-34.5,29-34.7,37.9c-0.1,4.3,1.2,23.7,19,22.1c17.8-1.6,21.7-11.1,25.3-12.6
			c3.6-1.6,10.4-4.7,9.5,3.2c-2,17.4-34.7,22.1-34.7,22.1S89.3,637.1,87.3,596.8z"/>
		<path class="st5" d="M377.9,631.6c-15,0.8-6.7-17.4-3.2-28.4c3.6-11.1,2.9-23.2,15.8-22.1c14.2,1.2,3.2,19,3.2,19
			s21.6-23.7,41.1-22.1c4.7,0.4-9.5,31.6-9.5,31.6s-3.6-11.5-12.6-9.5C386.5,605.7,392.9,630.8,377.9,631.6z"/>
	</g>
	<g>
		<polygon class="st6" points="-22,526.2 -12.4,485.8 -2.7,478.2 6.9,478.2 -2.7,518.5 6.9,512.7 14.6,484 20.4,478.2 34,478.2 
			24.3,518.5 34,510.8 39.7,485.8 47.5,478.2 59.1,478.2 49.4,516.6 37.9,526.2 		"/>
		<polygon class="st6" points="369,526.2 373.9,503.1 382.6,494.8 393.8,494.8 387.2,520.1 396.9,514.3 399.4,501.2 405.8,494.8 
			419.3,494.8 412.7,520.1 421.8,514 424.4,503.1 432.8,494.8 442.9,494.8 437.3,516.6 424.1,526.2 		"/>
		<path class="st6" d="M293.6,526.2l9.7-9.6h41.5c0,0,3.6,1.1,5.6-3.5c1.9-4.2-1.8-4.2-1.8-4.2h-19.3c0,0-5.5-1.3-5.6-8.1
			c-0.1-16.7,13.6-21.1,13.6-21.1H378l-8.1,8h-21.3c0,0-6.8,1.9-6.9,7.6c-0.1,2.6,3.1,2,3.1,2h17.3c0,0,10,1.7,7.7,12.5
			c-3,14.2-13.5,16.3-13.5,16.3H293.6L293.6,526.2z"/>
		<path class="st6" d="M260.6,526.2H278l5.3-19.9c0.6-2.3,6.7-4.9,5.1-4.7c-1.6,0.3,5.5-1.1,5.5-1.1s2.2,0.6,3.4,2.2
			c1.2,1.5-1.1,3.8-1.4,5.5c-0.3,1.8,1.9,1.9,1.9,1.9h9.7c0,0,5.2-1.9,6.6-3.9c1.4-2,3.1-4,3.1-5.7c0-1.7-3.8-3.9-3.8-3.9l-3.9-1.9
			h-28.9c0,0-13.9,7.9-15.5,9.6C264.4,504.9,260.6,526.2,260.6,526.2z"/>
		<path class="st6" d="M58.1,504.2c-1.3,1.5-5.7,15.1-4.7,17.3c1,2.1,6.3,4.7,6.3,4.7h28.2c0,0,13.2-8.2,14.2-9.4
			c1-1.2,4.7-14.4,4.7-15.7c0-1.4-3.2-6.3-3.2-6.3h-33C70.6,494.8,59.4,502.6,58.1,504.2z M80.1,501h8.7c0,0-1,10.4-3.2,13.4
			c-2.2,2.9-7.1,5.5-7.1,5.5s-5.5,0.6-6.2,0c-0.8-0.6-0.2-6.3-0.2-6.3s0.7-6.1,1.8-7.9C74.8,504,80.1,501,80.1,501z"/>
		<path class="st6" d="M163.3,504.2c-1.3,1.5-5.7,15.1-4.7,17.3c1,2.1,6.3,4.7,6.3,4.7h39.3c0,0,1.3-6.2,2.9-12.6
			c1.5-5.9,3.4-15,3.4-15.7c0-1.4,9.8-13.7,9.8-13.7h-17.1l-8.6,10.6h-18.7C175.8,494.8,164.7,502.6,163.3,504.2z M185.3,501h8.6
			c0,0-0.9,10.4-3.2,13.4c-2.1,2.9-7.1,5.5-7.1,5.5s-5.5,0.6-6.3,0c-0.7-0.6-0.2-6.3-0.2-6.3s0.7-6.1,1.8-7.9
			C180,504,185.3,501,185.3,501z"/>
		<path class="st6" d="M102.6,526.2l8.9-31.4h37.7c0,0,5,0.5,6.7,3.3c1.8,2.8,1.2,7.6,1.2,7.6l-5.1,20.4h-15.7c0,0,1.8-10,3.6-17.3
			c1.8-7.3-3.2-7.9-3.2-7.9h-9.4l-5.4,18.8c0,0-4.7,5.5-6.7,6.3H102.6z"/>
		<path class="st6" d="M489.3,526.2l10-31.4h37.7c0,0,4.9,0.5,6.7,3.3c1.8,2.8,1.2,7.6,1.2,7.6l-5.3,20.4h-17.2
			c0,0,2.9-8.4,4.7-15.7c1.8-7.2-2.6-9.4-2.6-9.4H515l-5.3,18.8c0,0-4.3,5.5-6.3,6.3L489.3,526.2L489.3,526.2L489.3,526.2z"/>
		<path class="st6" d="M215.1,504.2c-1.4,1.5-5.6,15.1-4.7,17.3c0.9,2.1,6.3,4.7,6.3,4.7h28.2c0,0,5.6-3.5,9.8-6.3
			c0,0-24,0.2-25.5,0c-0.7-0.1-0.4-3-0.4-4.7h19.3c0,0,3.7-0.8,9.3-5.4c5.6-4.6,6.3-5.1,6.3-8.7c0-3.6-3.2-6.3-3.2-6.3h-33
			C227.7,494.8,216.4,502.6,215.1,504.2z M237.1,501h12.7c0,0-1.4,4.8-8.3,7.9h-10.6c-1-2.7,1.5-4.9,2.9-6.1
			C235.2,501.5,237.1,501,237.1,501z"/>
		<path class="st6" d="M468.8,526.2c0,0,5.3-16.9,7-22.3c0.8-2.9-1.1-2.8-4.8-2.8s-6.4,0.8-11.6,9.4c-6,10,8.9,12.8,8.9,12.8
			l-1.1,2.9H450c0,0-9.4,0.4-9.4-11c0-14,17.9-20.4,17.9-20.4h37.7l-10,31.4L468.8,526.2L468.8,526.2L468.8,526.2z"/>
	</g>
</g>
</svg>
