<?xml version="1.0" encoding="utf-8"?>
<!-- Generator: Adobe Illustrator 19.0.0, SVG Export Plug-In . SVG Version: 6.00 Build 0)  -->
<svg version="1.1" id="Ebene_1" xmlns="http://www.w3.org/2000/svg" xmlns:xlink="http://www.w3.org/1999/xlink" x="0px" y="0px"
	 viewBox="-22 167.1 566.9 458.9" style="enable-background:new -22 167.1 566.9 458.9;" xml:space="preserve">
<style type="text/css">
	.st0{fill:#FFFFFF;}
</style>
<g>
	<g>
		<path class="st0" d="M542.9,349.8c0.1-1.4,0-2.7,0-3.9c0-25.8,0-51.6,0-77.5c0-1.3-0.1-2.7-0.4-4c-7.5-28-20.9-52.4-43.3-71.2
			c-18.4-15.5-39.4-24.1-63.7-24.1c-64,0-128,0-192.1,0c-86.2,0-172.3,0-258.5,0c-1.6,0-3.2-0.1-4.9,0c0,19.7,0,39.3,0,58.7
			c1.2,0.5,2.3,0.9,3.3,1.3c7.9,2.5,15.8,5,23.8,7.5c79.8,25.3,159.6,50.5,239.5,75.8c37.7,11.9,75.4,23.9,113.1,35.8
			c2.4,0.7,4.9,1.4,7.3,1.4c57.3,0.1,114.7,0.1,172,0.1C540.2,349.8,541.5,349.9,542.9,349.8z M320.7,346
			c-51.4-16.3-102.4-32.5-154-48.8c0,76,0,151.3,0,226.7c-22.2,11.2-44.1,22.3-65.9,33.2c0,22.5,0,44.6,0,66.9
			c89.9,0,179.6,0,269.5,0c0-43.3,0-86.4,0-130c-16.6,0-33,0-49.6,0C320.7,444.5,320.7,395.5,320.7,346z M338.1,363.8
			c0,38.1,0,75.9,0,114c68.3,0,136.3,0,204.5,0c0-38.1,0-75.9,0-114C474.4,363.8,406.4,363.8,338.1,363.8z"/>
		<path class="st0" d="M372.3,626H98.8v-70.1l65.9-33.2V294.5l158,50.1V492h49.6V626z M102.8,622h265.5V496h-49.6V347.5l-150.1-47.6
			v225.2l-65.9,33.2L102.8,622L102.8,622z M544.6,479.8H336.1v-118h208.5L544.6,479.8L544.6,479.8z M340.1,475.8h200.6v-110H340.1
			V475.8z M541.5,351.8c-0.5,0-1,0-1.4,0c-0.4,0-0.8,0-1.1,0l-8.1,0c-19.9,0-39.8,0-59.7,0c-41.7,0-73.8,0-104.3-0.1
			c-2.7,0-5.4-0.7-7.9-1.5c-24.3-7.7-48.6-15.4-72.9-23.1c-13.4-4.2-26.8-8.5-40.2-12.7c-56.3-17.8-112.6-35.7-168.9-53.5L2.8,237.3
			c-6.7-2.1-13.4-4.2-20.1-6.4c-0.8-0.3-1.6-0.6-2.3-0.9c-0.4-0.1-0.7-0.3-1.1-0.4l-1.3-0.5v-61.9l1.9-0.1c1.2-0.1,2.3,0,3.4,0
			c0.5,0,1,0,1.5,0c72.7,0,145.4,0,218,0l151.4,0c27,0,54.1,0,81.1,0c23.8,0,45.7,8.3,65,24.6c21.4,18.1,35.8,41.7,43.9,72.2
			c0.4,1.6,0.5,3.3,0.5,4.5c0,25.8,0,51.6,0,77.5c0,0.3,0,0.7,0,1.1c0,0.9,0.1,1.9,0,2.9l-0.1,1.7l-1.7,0.1
			C542.6,351.8,542,351.8,541.5,351.8z M539,347.8c0.4,0,0.8,0,1.2,0c0.2,0,0.5,0,0.7,0c0-0.2,0-0.5,0-0.7c0-0.4,0-0.8,0-1.2
			c0-25.8,0-51.6,0-77.5c0-1,0-2.3-0.3-3.5c-7.9-29.7-21.9-52.7-42.7-70.2c-18.6-15.7-39.6-23.6-62.4-23.6c-27.1,0-54.1,0-81.2,0
			l-151.4,0c-72.7,0-145.3,0-218,0c-0.5,0-1.1,0-1.6,0c-0.4,0-0.9,0-1.3,0v55.4c0.7,0.3,1.3,0.5,2,0.7c6.7,2.1,13.4,4.3,20.1,6.4
			l74.2,23.5c56.3,17.8,112.6,35.7,168.9,53.5c13.4,4.2,26.8,8.5,40.2,12.7c24.3,7.7,48.6,15.4,72.9,23.1c2.2,0.7,4.6,1.3,6.7,1.4
			c30.5,0,62.6,0.1,104.3,0.1c19.9,0,39.8,0,59.7,0L539,347.8z"/>
	</g>
	<g>
		<path class="st0" d="M542.9,349.8l-178.8-0.1L-20,228c0,0,0-39.1,0-58.9c1.7-0.1,177.2,0,263.4,0c64,0,128,0,192.1,0
			c24.3,0,45.4,8.6,63.7,24.1c22.4,18.9,35.8,43.2,43.3,71.2c0.3,1.3,0.4,2.7,0.4,4C542.9,294.3,542.9,349.8,542.9,349.8z"/>
		<path class="st0" d="M544.9,351.8l-181.1-0.1l-0.3-0.1L-22,229.4v-62.2l1.9-0.1c0.4,0,7.4,0,58,0c30.3,0,68.8,0,106.6,0
			c36.3,0,72,0,98.9,0l110.9,0c27.1,0,54.1,0,81.1,0c23.8,0,45.7,8.3,65,24.6c21.4,18.1,35.8,41.7,43.9,72.2
			c0.4,1.6,0.5,3.3,0.5,4.5c0,25.8,0,81.3,0,81.3L544.9,351.8z M364.4,347.7l176.5,0.1c0-10.1,0-56.4,0-79.4c0-1,0-2.3-0.3-3.5
			c-7.9-29.7-21.9-52.7-42.7-70.2c-18.6-15.7-39.6-23.6-62.4-23.6c-27.1,0-54.1,0-81.2,0l-110.9,0c-26.9,0-62.6,0-98.9,0
			c-37.8,0-76.3,0-106.6,0c-12.4,0-47.3,0-55.9,0v55.5L364.4,347.7z"/>
	</g>
	<g>
		<path class="st0" d="M320.7,346c0,49.4,0,98.4,0,148c16.7,0,33,0,49.6,0c0,43.6,0,86.7,0,130c-89.9,0-179.6,0-269.5,0
			c0-22.3,0-44.4,0-66.9c21.7-11,43.6-22,65.9-33.2c0-75.4,0-150.7,0-226.7C218.3,313.6,269.3,329.7,320.7,346z"/>
		<path class="st0" d="M372.3,626H98.8v-70.1l65.9-33.2V294.5l158,50.1V492h49.6V626z M102.8,622h265.5V496h-49.6V347.5l-150.1-47.6
			v225.2l-65.9,33.2L102.8,622L102.8,622z"/>
	</g>
	<g>
		<path class="st0" d="M338.1,363.8c68.3,0,136.3,0,204.5,0c0,38.1,0,75.9,0,114c-68.3,0-136.3,0-204.5,0
			C338.1,439.7,338.1,401.9,338.1,363.8z"/>
		<path class="st0" d="M544.6,479.8H336.1v-118h208.5L544.6,479.8L544.6,479.8z M340.1,475.8h200.6v-110H340.1V475.8z"/>
	</g>
</g>
</svg>
