<?xml version="1.0" encoding="utf-8"?>
<!-- Generator: Adobe Illustrator 19.0.0, SVG Export Plug-In . SVG Version: 6.00 Build 0)  -->
<svg version="1.1" id="Ebene_1" xmlns="http://www.w3.org/2000/svg" xmlns:xlink="http://www.w3.org/1999/xlink" x="0px" y="0px"
	 viewBox="-22 307.3 566.9 178.7" style="enable-background:new -22 307.3 566.9 178.7;" xml:space="preserve">
<style type="text/css">
	.st0{fill:#FFFFFF;}
	.st1{fill:url(#SVGID_1_);}
</style>
<g>
	<path class="st0" d="M74,318.8c3.7-3.6,8.7-11.5,29-11.5h49.4c9.8,0,21,3.7,24.2,9.8c0.2-3-0.3-9.8,6.6-9.8h28.1
		c3.4,0,6.6,2.5,6.6,5.9v45.6c0,6,3.2,5.3,6.8,5.3H246v-56.8h101.1v9.5c2.2-2.2,7.6-9.5,24.1-9.5H429c3.3,0,5,4.9,5.2,7.3v3.7
		c4.4-4.6,12.7-11,27.8-11h50c20.1,0,33,14,33,28.7v35.4c0,15.2-14,29.6-33.5,29.6h-4.9c9.1,9.8,8.8,15.4,9.6,21.4v56.8
		c0,3.1-3.7,6.6-6.6,6.6h-28.8c-4.2,0-6.6-4.5-6.6-6.6V438c0-5.6-5.1-8.9-9.6-8.9h-22.9v50.2c0,4.6-5.4,6.6-7.4,6.6h-28.1
		c-2.6,0-7,0.7-6.6-9.5c-2.2,3.2-10.4,8.9-23.7,9.5H324c-15.1,0-20-6.7-24.1-10.2c0,10.9-0.7,10.2-7.4,10.2h-28.1
		c-4.8,0-5.9-4.8-5.9-7.4c-2.8,3.3-10.4,7.4-16.2,7.4H133.8c-4.8,0-6.6-3.3-6.6-7.4v-58.3L85.8,486H53.3L1.6,400.4
		c-14.3-2.8-23.6-15.2-23.6-34.5v-28.4c0-12.9,8.9-30.1,33.2-30.1h57.6c3.4,0,5.2,4,5.2,5.6V318.8L74,318.8z M94.9,400.2
		c-11.8-1.5-16.9-7.9-21-13.7v9.4c-0.1,3.6-1.6,5.2-5.2,5.2H49.6L69.5,438L94.9,400.2z"/>
	
		<linearGradient id="SVGID_1_" gradientUnits="userSpaceOnUse" x1="-14.5233" y1="-358.9775" x2="539.1177" y2="-358.9775" gradientTransform="matrix(1 0 0 -1 -9.470000e-002 37.69)">
		<stop  offset="0" style="stop-color:#F090A7"/>
		<stop  offset="0.1495" style="stop-color:#EF7B75"/>
		<stop  offset="0.2564" style="stop-color:#EE6E5E"/>
		<stop  offset="0.5894" style="stop-color:#FCE72C"/>
		<stop  offset="0.8131" style="stop-color:#ACDEE4"/>
		<stop  offset="1" style="stop-color:#A3DDF2"/>
	</linearGradient>
	<path class="st1" d="M257.8,398.9v22.9h-65c-7.4,0-7,7.4,0,7.4c0,0,28.5,0,42.8,0c33.4,0,33.3,49.5,0,49.5c-22.4,0-67.2,0-67.2,0
		v-22.1c0,0,42.8,0,64.2,0c7.7,0,7.2-7.4,0-7.4c-13.3,0-39.9,0-39.9,0c-34.3,0-34.2-50.2,0-50.2
		C214.5,398.9,257.8,398.9,257.8,398.9z M406.9,398.9h76c13.6,0,25.8,10.6,25.8,25.1v54.6h-27.3v-47.2c0-7.9-4.7-9.5-10.3-9.6h-36.9
		v56.8h-27.3L406.9,398.9L406.9,398.9z M335.3,421.1c-7.3,0-10.3,4.6-10.3,10.2v14.8c0,6.1,5.3,10.3,10.3,10.3h30.3
		c3.6,0,9.6-2.4,9.6-10.3v-14.8c0-5-3-10.5-9.6-10.4L335.3,421.1z M324.9,398.9h50.9c16.2,0,26.6,11,26.6,24.4v29.5
		c0,20.9-18.1,25.8-26.6,25.8h-50.9c-19.1,0-27.3-15.4-27.3-25.8v-29.5C297.6,406.2,312.9,398.9,324.9,398.9z M265.2,398.9h27.3
		v79.7h-27.3V398.9z M133.8,398.9h27.3v79.7h-27.3V398.9z M9.7,398.9H40l29.5,51.7l34.7-51.7h25.1l-47.2,79.7H57.3L9.7,398.9z
		 M253.3,314.7h86.4v19.9h-59.8v7.4h59.8V362h-59.8c0,7.3,5.4,10.3,11.1,10.3h48.7v21.4H277c-14.1,0-23.7-11.7-23.7-24.4
		L253.3,314.7z M184,314.7h26.6V362c0,6.8,5.1,10.4,11.1,10.3h28.8v21.4h-41.3c-11.7,0-25.1-5.3-25.1-24.4L184,314.7L184,314.7z
		 M429,314.7h-59.8c-17.2,0-24.3,15.8-24.4,24.4v29.5c0,19.1,15.8,25.9,24.4,25.8H429v-22.1h-45.8c-3.3,0-11.1-2.4-11.1-9.6v-15.5
		c0-7.4,5.6-10.3,11.1-10.3H429L429,314.7L429,314.7z M471.8,337c-7.3,0-10.3,4.6-10.3,10.2V362c0,6.1,5.3,10.3,10.3,10.3h30.3
		c3.6,0,9.6-2.4,9.6-10.3v-14.8c0-5-3-10.5-9.6-10.4L471.8,337z M461.5,314.7h50.9c16.2,0,26.6,11,26.6,24.4v29.5
		c0,20.9-18.1,25.8-26.6,25.8h-50.9c-19.1,0-27.3-15.4-27.3-25.8v-29.5C434.2,322.1,449.4,314.7,461.5,314.7L461.5,314.7z
		 M111.6,337c-7.3,0-10.3,4.6-10.3,10.2V362c0,6.1,5.3,10.3,10.3,10.3h30.3c3.6,0,9.6-2.4,9.6-10.3v-14.8c0-5-3-10.5-9.6-10.4
		L111.6,337z M101.3,314.7h50.9c16.2,0,26.6,11,26.6,24.4v29.5c0,20.9-18.1,25.8-26.6,25.8h-50.9c-19.1,0-26.6-15.4-26.6-25.8v-29.5
		C74.7,322.1,89.2,314.7,101.3,314.7z M69.5,314.7H9.7c-17.2,0-24.3,15.8-24.4,24.4v29.5c0,19.1,15.8,25.9,24.4,25.8h59.8v-22.1H23
		c-3.3,0-11.1-2.4-11.1-9.6v-15.5c0-7.4,5.6-10.3,11.1-10.3h46.5V314.7z"/>
</g>
</svg>
