<?xml version="1.0" encoding="utf-8"?>
<!-- Generator: Adobe Illustrator 19.0.0, SVG Export Plug-In . SVG Version: 6.00 Build 0)  -->
<svg version="1.1" id="svg2" xmlns:svg="http://www.w3.org/2000/svg"
	 xmlns="http://www.w3.org/2000/svg" xmlns:xlink="http://www.w3.org/1999/xlink" x="0px" y="0px" viewBox="-22 325.4 566.9 142.6"
	 style="enable-background:new -22 325.4 566.9 142.6;" xml:space="preserve">
<style type="text/css">
	.st0{fill:#F7F7F7;}
</style>
<g>
	<path id="path2952" class="st0" d="M-22,325.5L7.7,468l29.6-142.5h-16L7.7,405.6L-6,325.5H-22L-22,325.5z"/>
	<path id="path3726" class="st0" d="M43.9,325.5h16V468h-16V325.5L43.9,325.5z"/>
	<path id="path3728" class="st0" d="M74.2,325.4V468h16v-73.7l22.3,73.7h14.8l-17.8-67.4c9.9-5.9,12.8-13.7,12.8-13.7v-45.3
		c-6.6-14.6-17.9-16.2-17.9-16.2H74.2z M90.2,339.9h16v49.5h-16V339.9z"/>
	<path id="path3733" class="st0" d="M127.2,325.5h47.9v14.5h-16v128h-16v-128h-15.9V325.5L127.2,325.5z"/>
	<path id="path3735" class="st0" d="M263.7,325.4l-30.9,142.4v0.1h15.9l3.4-19.2h22.4l3.2,19.2h16L263.7,325.4L263.7,325.4z
		 M263.7,386.9L271,436h-15.8L263.7,386.9z"/>
	<path id="path2882" class="st0" d="M300,325.5h16v128h23.9V468H300L300,325.5L300,325.5z"/>
	<path id="path3660" class="st0" d="M471.1,325.5h14.6l14.9,61.4l13.6-61.4h16.2L508,409.3V468h-16v-58.7L471.1,325.5L471.1,325.5
		L471.1,325.5z"/>
	<path id="path3662" class="st0" d="M442.4,325.5c-18.2,0-24,16.1-24,16.1c0.1,0.2,0,107.2,0,110.2c2.4,17.3,24,16.2,24,16.2l0,0
		c24,0,24-16.2,24-16.2V341.6C460.2,324.7,442.4,325.5,442.4,325.5L442.4,325.5z M434.4,341.6h16v111.9h-16V341.6z"/>
	<path id="path3667" class="st0" d="M181.4,325.5h16.2v126.4h16.2V325.5h15.9v126.4c0,0-5.2,16.2-23.3,16.2s-24.8-16.2-24.8-16.2
		V325.5L181.4,325.5z"/>
	<path id="path3669" class="st0" d="M357.6,325.4V468h32.2c14.9-3.9,15.9-14.5,15.9-14.5s0-38.1,0-47.9c-1.1-6.2-6.2-6.4-6.2-6.4
		s0-1.7,0-3.1c5.6-0.4,6.3-6.6,6.3-6.6s0-38,0-47.9c-2.4-11.6-15.9-16.2-15.9-16.2H357.6z M373.6,341.7h16.1v47.8h-16.1V341.7z
		 M373.6,403.9h16.2v49.5h-16.2V403.9L373.6,403.9z"/>
	<path id="path3699" class="st0" d="M517.7,453.5h11.1v1.7h-4.7V468h-1.6v-12.8h-4.8L517.7,453.5L517.7,453.5z"/>
	<path id="path3713" class="st0" d="M530.4,468v-14.5h1.6l5.7,12.9l5.5-12.9h1.7V468h-1.7v-11.2l-4.7,11.2h-1.6l-4.9-11.2V468H530.4
		L530.4,468z"/>
</g>
</svg>
