<?xml version="1.0" encoding="utf-8"?>
<!-- Generator: Adobe Illustrator 19.0.0, SVG Export Plug-In . SVG Version: 6.00 Build 0)  -->
<svg version="1.1" id="svg1354" xmlns:svg="http://www.w3.org/2000/svg"
	 xmlns="http://www.w3.org/2000/svg" xmlns:xlink="http://www.w3.org/1999/xlink" x="0px" y="0px" viewBox="-22 247 566.9 300"
	 style="enable-background:new -22 247 566.9 300;" xml:space="preserve">
<style type="text/css">
	.st0{fill:#F9F9F9;}
</style>
<g>
	<path class="st0" d="M333.8,275.1c0,15.5,13,28,29.1,28c16.7,0,29.8-12.3,29.8-28c0-15.7-13.1-28.1-29.8-28.1
		C346.8,247,333.8,259.6,333.8,275.1"/>
	<rect x="338.6" y="331.2" class="st0" width="49.6" height="160.6"/>
	<path class="st0" d="M434.7,275.1c0,15.5,13.1,28,29.1,28c16.7,0,29.8-12.3,29.8-28c0-15.7-13.1-28.1-29.8-28.1
		C447.7,247,434.7,259.6,434.7,275.1"/>
	<rect x="439.5" y="331.2" class="st0" width="49.7" height="160.6"/>
	<path class="st0" d="M259.7,260.5l-43.5,170.7c0,0-33.3-128.1-38.7-146.3c-5.4-18.2-16.6-26.2-32.4-26.2c-15.8,0-27,8-32.4,26.2
		C107.3,303.1,74,431.2,74,431.2L30.4,260.5H-22c0,0,50.4,182.1,57.2,203.2c5.3,16.5,17.9,29.9,36.6,29.9c21.4,0,31.4-15.6,36-29.9
		c4.6-14.2,37.2-134.5,37.2-134.5s32.6,120.3,37.2,134.5c4.6,14.3,14.6,29.9,36,29.9c18.7,0,31.3-13.5,36.7-29.9
		c6.8-21.1,57.2-203.2,57.2-203.2S259.7,260.5,259.7,260.5z"/>
	<polygon class="st0" points="504.2,470.1 521.3,470.1 521.3,473.3 514.6,473.3 514.6,491.8 510.9,491.8 510.9,473.3 504.2,473.3 	
		"/>
	<polygon class="st0" points="523.9,470.1 529.1,470.1 534.3,487.5 539.7,470.1 544.9,470.1 544.9,491.8 541.5,491.8 541.5,473.9 
		536.1,491.8 532.5,491.8 527.2,473.9 527.2,491.8 523.9,491.8 	"/>
</g>
</svg>
