<?xml version="1.0" encoding="utf-8"?>
<!-- Generator: Adobe Illustrator 19.0.0, SVG Export Plug-In . SVG Version: 6.00 Build 0)  -->
<svg version="1.1" id="Ebene_1" xmlns="http://www.w3.org/2000/svg" xmlns:xlink="http://www.w3.org/1999/xlink" x="0px" y="0px"
	 viewBox="-22 347.6 566.9 98.4" style="enable-background:new -22 347.6 566.9 98.4;" xml:space="preserve">
<style type="text/css">
	.st0{fill:#FFFFFF;}
</style>
<g id="Ebene_1_1_">
	<g>
		<path class="st0" d="M-10,446c-6.6,0-12-5.4-12-12v-54.5c0-6.6,5.4-12,12-12s12,5.4,12,12V434C2,440.6-3.4,446-10,446z"/>
	</g>
	<path class="st0" d="M152.7,395.6h-36.2v-6.5h36.2c6,0,10.8-4.8,10.8-10.8c0-6-4.8-10.8-10.8-10.8h-49.4c-6,0-10.8,4.8-10.8,10.8
		c0,0.2,0,55.7,0,55.7c0,6.6,5.4,12,12,12s12-5.4,12-12v-16.8h36.2c6,0,10.8-4.8,10.8-10.8C163.5,400.4,158.7,395.6,152.7,395.6z"/>
	<path class="st0" d="M518.9,430.5l-15.5-54.2c-0.9-3.2-3.1-5.7-5.8-7.2c-1.7-1-3.6-1.7-5.7-1.7h-57c-0.4,0-0.7,0-1.1,0.1
		c-6.1,0.6-10.9,5.7-10.9,11.9V434c0,6.6,5.4,12,12,12c6.6,0,12-5.4,12-12v-44.9h5.3V434c0,6.6,5.4,12,12,12c6.6,0,12-5.4,12-12
		v-44.9h6l13.8,48c1.5,5.2,6.3,8.6,11.5,8.6c1.1,0,2.2-0.1,3.3-0.5C517,443.4,520.7,436.8,518.9,430.5z"/>
	<path class="st0" d="M228.5,367.5h-40.8c-11.3,0-20.6,9.3-20.6,20.6v37.3c0,11.3,9.3,20.6,20.6,20.6h40.8
		c11.3,0,20.6-9.3,20.6-20.6v-37.3C249.1,376.7,239.8,367.5,228.5,367.5z M225.9,421.3c0,1.3-1.1,2.4-2.4,2.4h-30.7
		c-1.3,0-2.4-1.1-2.4-2.4v-29.2c0-1.3,1.1-2.4,2.4-2.4h30.7c1.3,0,2.4,1.1,2.4,2.4V421.3z"/>
	<path class="st0" d="M397.3,367.5h-40.8c-11.3,0-20.6,9.3-20.6,20.6v37.3c0,11.3,9.3,20.6,20.6,20.6h40.8
		c11.3,0,20.6-9.3,20.6-20.6v-37.3C417.9,376.7,408.7,367.5,397.3,367.5z M394.7,421.3c0,1.3-1.1,2.4-2.4,2.4h-30.7
		c-1.3,0-2.4-1.1-2.4-2.4v-29.2c0-1.3,1.1-2.4,2.4-2.4h30.7c1.3,0,2.4,1.1,2.4,2.4V421.3z"/>
	<path class="st0" d="M83.5,367.5H12.7c-3,0-5.4,2.4-5.4,5.4V434c0,6.6,5.4,12,12,12s11.9-5.4,11.9-12v-41.9c0-1.3,1.1-2.4,2.4-2.4
		h28.9c1.3,0,2.5,1.1,2.5,2.4V434c0,6.6,5.4,12,12,12s12-5.4,12-12v-45.5v-15.6C88.9,369.9,86.5,367.5,83.5,367.5z"/>
	<path class="st0" d="M323,423.7h-42.9c-1.3,0-2.4-1.1-2.4-2.4v-29.2c0-1.3,1.1-2.4,2.4-2.4H323c6.2,0,11.1-5,11.1-11.1
		s-5-11.1-11.1-11.1h-15.5h-30.6h-2.6c-11.3,0-20.5,9.2-20.5,20.5v37.5c0,11.3,9.2,20.5,20.5,20.5h2.6h30.6H323
		c6.2,0,11.1-5,11.1-11.1S329.2,423.7,323,423.7z"/>
	<g>
		<path class="st0" d="M519,359.3h-4.1v-2.9h11.8v2.9h-4.2v12.4H519V359.3z"/>
		<path class="st0" d="M541.3,365.8c-0.1-1.8-0.1-4-0.1-6.3h0c-0.5,2-1.1,4.1-1.7,5.9l-1.9,6h-2.7l-1.6-5.9c-0.5-1.8-1-4-1.4-6h0
			c-0.1,2.1-0.2,4.4-0.2,6.3l-0.3,5.8h-3.2l1-15.3h4.6l1.5,5.1c0.5,1.7,1,3.7,1.3,5.4h0.1c0.4-1.8,0.9-3.8,1.5-5.5l1.6-5.1h4.5
			l0.8,15.3h-3.4L541.3,365.8z"/>
	</g>
</g>
</svg>
