<?xml version="1.0" encoding="utf-8"?>
<!-- Generator: Adobe Illustrator 19.0.0, SVG Export Plug-In . SVG Version: 6.00 Build 0)  -->
<svg version="1.1" id="Ebene_1" xmlns="http://www.w3.org/2000/svg" xmlns:xlink="http://www.w3.org/1999/xlink" x="0px" y="0px"
	 viewBox="-22 354.9 566.9 85.1" style="enable-background:new -22 354.9 566.9 85.1;" xml:space="preserve">
<style type="text/css">
	.st0{fill:#FCFCFC;}
	.st1{fill:#EDEDED;}
</style>
<g>
	<g>
		<g>
			<polygon class="st0" points="88.9,416.7 96.6,384.3 104.4,378.1 112.2,378.1 104.4,410.6 112.2,405.9 118.4,382.8 123,378.1 
				133.9,378.1 126.2,410.6 133.9,404.4 138.6,384.3 144.8,378.1 154.1,378.1 146.4,409 137.1,416.7 			"/>
			<polygon class="st0" points="403.4,416.7 407.3,398.2 414.4,391.5 423.4,391.5 418.1,411.8 425.9,407.2 427.9,396.7 433.1,391.5 
				443.9,391.5 438.6,411.8 445.9,406.9 448,398.2 454.8,391.5 462.9,391.5 458.3,409 447.8,416.7 			"/>
			<path class="st0" d="M342.8,416.7l7.8-7.7H384c0,0,2.9,0.8,4.5-2.8c1.5-3.4-1.4-3.4-1.4-3.4h-15.5c0,0-4.5-1-4.5-6.5
				c-0.1-13.5,11-16.9,11-16.9h32.6l-6.5,6.4h-17.1c0,0-5.4,1.6-5.6,6.1c-0.1,2.1,2.5,1.6,2.5,1.6h13.9c0,0,8.1,1.4,6.2,10
				c-2.4,11.4-10.8,13.1-10.8,13.1L342.8,416.7L342.8,416.7z"/>
			<path class="st0" d="M316.3,416.7h13.9l4.2-16c0.5-1.9,5.4-4,4.1-3.8c-1.3,0.2,4.5-0.8,4.5-0.8s1.8,0.5,2.7,1.8
				c0.9,1.2-0.9,3-1.2,4.4c-0.3,1.4,1.6,1.6,1.6,1.6h7.8c0,0,4.2-1.6,5.3-3.1c1.1-1.6,2.5-3.2,2.5-4.6s-3.1-3.1-3.1-3.1l-3.1-1.5
				h-23.3c0,0-11.1,6.4-12.4,7.7C319.3,399.6,316.3,416.7,316.3,416.7z"/>
			<path class="st0" d="M153.3,399.1c-1.1,1.2-4.6,12.1-3.8,13.9c0.8,1.7,5.1,3.8,5.1,3.8h22.7c0,0,10.6-6.6,11.4-7.6
				c0.8-1,3.8-11.5,3.8-12.6c0-1.1-2.5-5.1-2.5-5.1h-26.5C163.4,391.5,154.4,397.8,153.3,399.1z M171,396.5h7c0,0-0.8,8.4-2.5,10.8
				c-1.8,2.4-5.7,4.4-5.7,4.4s-4.4,0.5-5,0c-0.6-0.5-0.2-5.1-0.2-5.1s0.6-4.9,1.4-6.3C166.7,398.9,171,396.5,171,396.5z"/>
			<path class="st0" d="M237.9,399.1c-1.1,1.2-4.6,12.1-3.8,13.9c0.8,1.7,5.1,3.8,5.1,3.8h31.6c0,0,1-5,2.3-10.1
				c1.2-4.8,2.7-12.1,2.7-12.6c0-1.1,7.8-11,7.8-11H270l-6.9,8.5h-15C248.1,391.5,239.1,397.8,237.9,399.1z M255.6,396.5h6.9
				c0,0-0.8,8.4-2.5,10.8c-1.7,2.4-5.7,4.4-5.7,4.4s-4.4,0.5-5.1,0c-0.6-0.5-0.2-5.1-0.2-5.1s0.6-4.9,1.4-6.3
				C251.4,398.9,255.6,396.5,255.6,396.5z"/>
			<path class="st0" d="M189.1,416.7l7.2-25.3h30.3c0,0,4,0.4,5.4,2.7c1.4,2.3,1,6.2,1,6.2l-4.1,16.4h-12.6c0,0,1.5-8,2.9-13.9
				c1.4-5.8-2.5-6.3-2.5-6.3h-7.6l-4.3,15.2c0,0-3.8,4.4-5.4,5.1H189.1z"/>
			<path class="st0" d="M500.2,416.7l8-25.3h30.3c0,0,4,0.4,5.4,2.7c1.4,2.3,1,6.2,1,6.2l-4.3,16.4h-13.9c0,0,2.3-6.8,3.8-12.6
				c1.4-5.8-2.1-7.6-2.1-7.6h-7.6l-4.2,15.2c0,0-3.5,4.4-5.1,5.1L500.2,416.7L500.2,416.7z"/>
			<path class="st0" d="M279.6,399.1c-1.1,1.2-4.5,12.1-3.8,13.9c0.8,1.7,5.1,3.8,5.1,3.8h22.7c0,0,4.5-2.8,7.9-5.1
				c0,0-19.3,0.1-20.5,0c-0.5-0.1-0.3-2.4-0.3-3.8h15.5c0,0,3-0.6,7.5-4.3c4.5-3.7,5.1-4.1,5.1-7c0-2.9-2.5-5.1-2.5-5.1h-26.5
				C289.7,391.5,280.7,397.8,279.6,399.1z M297.3,396.5h10.2c0,0-1.1,3.9-6.7,6.3h-8.5c-0.8-2.2,1.2-3.9,2.3-4.9
				C295.8,396.9,297.3,396.5,297.3,396.5z"/>
			<path class="st0" d="M483.7,416.7c0,0,4.3-13.6,5.6-17.9c0.7-2.4-0.9-2.3-3.9-2.3s-5.2,0.6-9.3,7.6c-4.9,8.1,7.2,10.3,7.2,10.3
				l-0.8,2.4h-13.9c0,0-7.6,0.3-7.6-8.8c0-11.2,14.4-16.4,14.4-16.4h30.3l-8.1,25.3L483.7,416.7L483.7,416.7L483.7,416.7z"/>
		</g>
		<path class="st1" d="M50.6,378.3c0.7,0,1.4-0.1,2.2-0.1c15.8,0,29.4,15.3,30.4,23.1c0.1,0.8,0.2,1.6,0.2,2.2
			c-0.2-21.3-33.4-48.6-60-48.6c-20.5,0-30.1,8.3-33.3,17.7c-4.7,11.8,1.5,28.6,16.1,40.6c1.6,1.2,3.1,2.4,4.7,3.5
			c-0.7,0.1-1.4,0.1-2.1,0.1c-15.8,0-29.4-15.3-30.4-23.1c-0.1-0.8-0.2-1.6-0.2-2.2c0.2,21.3,33.4,48.6,60,48.6
			c20.5,0,30.1-8.3,33.3-17.7c4.7-11.8-1.5-28.6-16.1-40.6C53.7,380.5,52.2,379.3,50.6,378.3z M20.9,413.6
			c-11.7-9.6-15.6-23.8-9.1-31.8c6.6-8,21.6-7.1,33.6,2.3c11.9,9.3,16.5,23.4,10.4,31.8c2.5-5.1-0.3-12.6-6.8-17.8
			c-7-5.5-15.9-6.1-19.8-1.3c-3.9,4.8-1.6,13.2,5.3,18.9c5.3,4.4,11.8,6,16.4,4.4C43.2,424.1,30.8,421.7,20.9,413.6z"/>
	</g>
</g>
</svg>
