<?xml version="1.0" encoding="utf-8"?>
<!-- Generator: Adobe Illustrator 19.0.0, SVG Export Plug-In . SVG Version: 6.00 Build 0)  -->
<svg version="1.1"
	 id="Layer_1" xmlns:cc="http://creativecommons.org/ns#" xmlns:inkscape="http://www.inkscape.org/namespaces/inkscape" xmlns:rdf="http://www.w3.org/1999/02/22-rdf-syntax-ns#" xmlns:dc="http://purl.org/dc/elements/1.1/" xmlns:sodipodi="http://sodipodi.sourceforge.net/DTD/sodipodi-0.dtd" xmlns:svg="http://www.w3.org/2000/svg" inkscape:output_extension="org.inkscape.output.svg.inkscape" sodipodi:docname="scummvm_logo.svg" inkscape:version="0.46" sodipodi:version="0.32"
	 xmlns="http://www.w3.org/2000/svg" xmlns:xlink="http://www.w3.org/1999/xlink" x="0px" y="0px" viewBox="-22 319.9 566.9 154.1"
	 style="enable-background:new -22 319.9 566.9 154.1;" xml:space="preserve">
<style type="text/css">
	.st0{fill:url(#path27_1_);}
	.st1{fill:url(#path50_1_);}
	.st2{enable-background:new    ;}
	.st3{fill:#EDEDED;}
</style>
<defs>
	
	
		<inkscape:perspective  id="perspective2709" inkscape:persp3d-origin="580 : 113.33333 : 1" sodipodi:type="inkscape:persp3d" inkscape:vp_y="0 : 1000 : 0" inkscape:vp_x="0 : 170 : 1" inkscape:vp_z="1160 : 170 : 1">
		</inkscape:perspective>
</defs>
<sodipodi:namedview  inkscape:cx="580" id="namedview2703" bordercolor="#666666" borderopacity="1.0" inkscape:zoom="0.47672414" inkscape:cy="170" pagecolor="#ffffff" inkscape:pageshadow="2" inkscape:current-layer="Layer_1" inkscape:pageopacity="0.0" inkscape:window-y="25" inkscape:window-width="1280" inkscape:window-x="0" inkscape:window-height="725" guidetolerance="10.0" showgrid="false" objecttolerance="10.0" gridtolerance="10.0">
	</sodipodi:namedview>
<g>
	
		<sodipodi:namedview  inkscape:cx="580" id="base" bordercolor="#666666" borderopacity="1.0" inkscape:zoom="0.69913793" inkscape:cy="178.71889" pagecolor="#ffffff" inkscape:pageshadow="2" inkscape:current-layer="layer9" inkscape:pageopacity="0.0" inkscape:window-y="25" inkscape:window-width="1280" inkscape:window-x="0" inkscape:window-height="725" guidetolerance="10.0" objecttolerance="10.0" gridtolerance="10.0">
		</sodipodi:namedview>
	<g id="layer7" inkscape:label="Contents M" sodipodi:insensitive="true" inkscape:groupmode="layer">
		
			<linearGradient id="path27_1_" gradientUnits="userSpaceOnUse" x1="417.6833" y1="-503.9958" x2="417.6833" y2="-639.4886" gradientTransform="matrix(1 0 0 -1 49.71 -173.0581)">
			<stop  offset="0" style="stop-color:#ECEFEB"/>
			<stop  offset="0.1746" style="stop-color:#EAECE9"/>
			<stop  offset="0.2796" style="stop-color:#E1E4E0"/>
			<stop  offset="0.3661" style="stop-color:#D3D6D3"/>
			<stop  offset="0.4427" style="stop-color:#C0C1BF"/>
			<stop  offset="0.5127" style="stop-color:#A6A7A6"/>
			<stop  offset="0.5769" style="stop-color:#878787"/>
			<stop  offset="0.6" style="stop-color:#7A7A7A"/>
			<stop  offset="1" style="stop-color:#343732"/>
		</linearGradient>
		<path id="path27" class="st0" d="M414.8,334.1l-17.3,116.3c-0.1,0.9,0.1,1.9,0.7,2.6s1.4,1.2,2.4,1.3l16,1.4
			c1.9,0.2,3.7-1.2,3.9-3.1c0,0,8.8-63.3,9.4-67.4c1.2,4,20.7,71.1,20.7,71.1c0.5,1.7,2.3,3.2,4.1,3.4l10.7,1.1
			c1.8,0.2,3.9-0.9,4.8-2.4c0,0,34.2-59.3,36.1-62.6c-0.3,3.8-5.6,64.9-5.6,64.9c0,0.1,0,0.2,0,0.3c0,1.8,1.4,3.4,3.2,3.6l19.2,2
			c0.9,0.1,1.9-0.2,2.6-0.8c0.7-0.6,1.2-1.4,1.3-2.4l10.4-116.9c0.1-0.9-0.2-1.9-0.8-2.6c-0.6-0.7-1.5-1.2-2.4-1.3l-18.1-1.6
			c-1.8-0.2-3.8,1-4.7,2.5l-44.7,81.7c0,0,0,0,0,0c0,0,0,0,0,0l-23.9-88.8c-0.5-1.7-2.2-3.3-4-3.4l-19.9-2
			C416.8,330.8,415.1,332.1,414.8,334.1z"/>
	</g>
	<g id="layer4" inkscape:label="Silhouette M" sodipodi:insensitive="true" inkscape:groupmode="layer">
		<path id="path29" d="M542.3,338.9c-1.9-2.3-4.6-3.7-7.5-3.9l-18-1.6c-4.8-0.4-9.7,2.2-12,6.4c0,0-24.2,44.2-35.7,65.2
			c-6.2-23-19-70.6-19-70.6c-1.3-4.8-5.6-8.5-10.6-9l-19.9-2c-6-0.6-11.3,3.6-12.2,9.5L390,449.2c-0.4,3,0.4,6,2.2,8.4
			c1.9,2.4,4.6,3.9,7.7,4.1l16,1.4c6,0.5,11.3-3.7,12.1-9.6c0,0,2.3-16.3,4.5-32.4c5.4,18.6,10.8,37.2,10.8,37.2
			c1.4,4.7,5.7,8.3,10.5,8.8l10.7,1.1c4.7,0.5,9.7-2,12.1-6.2c0,0,9.6-16.6,19.1-33.1c-1.3,15.4-2.7,30.9-2.7,30.9
			c0,0.3,0,0.6,0,0.9c0,5.6,4.3,10.5,10,11.1l19.2,2c3,0.3,5.9-0.6,8.2-2.5c2.3-1.9,3.7-4.6,4-7.6L544.9,347
			C545.2,344.1,544.2,341.2,542.3,338.9z M512.3,344c0.7-1.2,2.3-2.1,3.7-2l5.9,0.5l-6.1,18.3h-12.8L512.3,344z M418.7,332l19.9,2
			c1.4,0.1,2.8,1.3,3.2,2.7l5.5,20.4h-23.1h-0.6l-0.2,0.5l-3,9.4h-9.5l4.9-32.7C416,332.8,417.3,331.8,418.7,332z M409.1,422.8
			l3.5,1.9l0.2,0.1h0.2h10.4l-1.5,10.5l-20.8-2.5l1.5-10L409.1,422.8z M416.6,454.6l-16-1.4c-1.4-0.1-2.3-1.3-2.1-2.7l2.4-16.2
			l20.8,2.5l-2.2,15.6C419.3,453.7,418,454.7,416.6,454.6z M430.2,382.6c-0.4-1.3-0.9-1.3-1.1,0.1l-5.6,40.5h-10.4l-3.5-1.9
			l-0.2-0.1l-0.2,0l-6.5,0l7.9-52.8H421h0.6l0.2-0.5l3-9.4h22.9l11,41h-10.8h-0.8v0.8v27.6h-3.7L430.2,382.6z M523.2,465.4l-9.3-1
			l0.9-13.3l4.8-0.6l0.4-0.1l0.2-0.4l1.2-2.5h5.9l-1.4,15.5C525.8,464.5,524.6,465.5,523.2,465.4z M527.4,446.1H521h-0.5l-0.2,0.4
			l-1.3,2.5l-5,0.7l-0.6,0.1l0,0.6l-1,13.9l-8.4-0.9c-1.4-0.1-2.4-1.4-2.3-2.8l3.4-39.6h10.4h0.8l0-0.8l0.1-24.1l4.3-15.6l12.6,0.1
			L527.4,446.1z M533.4,379.1l-13.4-0.1l-0.6,0l-0.2,0.6l-4.5,16.3l0,0.1v0.1l-0.1,23.5h-9.5l2.2-25.8c0.1-1.4-0.4-1.5-1-0.3
			l-37.1,64.4c-0.7,1.2-2.4,2.1-3.8,1.9l-10.7-1.1c-1.4-0.1-2.8-1.4-3.2-2.7l-7.7-26.5h4h0.8v-0.8V401h10.4l6.6,24.4
			c0.4,1.3,1.2,1.4,1.9,0.2l34.7-63.4h14.1h0.5l0.2-0.5l6.4-19.1l10.6,0.9c1.4,0.1,2.4,1.4,2.3,2.7L533.4,379.1z"/>
	</g>
	<g id="layer6" inkscape:label="Contents V" sodipodi:insensitive="true" inkscape:groupmode="layer">
		
			<linearGradient id="path50_1_" gradientUnits="userSpaceOnUse" x1="302.5355" y1="-500.9857" x2="302.5355" y2="-630.0702" gradientTransform="matrix(1 0 0 -1 49.71 -173.0581)">
			<stop  offset="0" style="stop-color:#ECEFEB"/>
			<stop  offset="0.1746" style="stop-color:#EAECE9"/>
			<stop  offset="0.2796" style="stop-color:#E1E4E0"/>
			<stop  offset="0.3661" style="stop-color:#D3D6D3"/>
			<stop  offset="0.4427" style="stop-color:#C0C1BF"/>
			<stop  offset="0.5127" style="stop-color:#A6A7A6"/>
			<stop  offset="0.5769" style="stop-color:#878787"/>
			<stop  offset="0.6" style="stop-color:#7A7A7A"/>
			<stop  offset="1" style="stop-color:#343732"/>
		</linearGradient>
		<path id="path50" class="st1" d="M399.9,328L399.9,328l-18.5,3.7c-1.8,0.4-3.4,2-3.6,3.9c0,0-10.3,74.9-10.4,75.8
			c-0.5-0.8-37.7-67-37.7-67c-0.9-1.6-3-2.6-4.8-2.2l-21.3,4.4c-1,0.2-1.7,0.8-2.1,1.6c-0.4,0.8-0.3,1.8,0.2,2.6l61.7,104
			c0.9,1.6,3,2.5,4.8,2.2l10.8-2c1.8-0.3,3.4-2,3.7-3.8l20.3-120c0.2-1-0.1-1.9-0.7-2.5C401.8,328,400.9,327.8,399.9,328z"/>
	</g>
	<g id="layer5" inkscape:label="Silhouette V" sodipodi:insensitive="true" inkscape:groupmode="layer">
		<path id="path52" d="M408.5,322.3c-2-2-4.9-2.8-7.7-2.3l-23.4,4.7c-3.6,0.7-6.3,3.6-6.8,7.2c0,0-4.4,32-7.7,56
			C351,366.8,335,338.4,335,338.4c-1.8-3.3-5.6-5-9.2-4.2l-26.2,5.4c-2.7,0.6-5,2.4-6.1,4.9c-1.1,2.5-0.9,5.5,0.5,7.8l64.3,108.4
			c1.8,3.1,5.4,4.7,9,4.1l15.7-3c3.5-0.7,6.3-3.5,6.9-7l21.1-125C411.5,327.1,410.5,324.3,408.5,322.3z M378.8,335.7
			c0.2-1.4,1.5-2.7,2.8-3l7-1.4v5.4l-1.8,1.6l-0.3,0.2v0.3v3.9l-1.8,1.9l-0.2,0.2v0.3V357l-2.4,2h-6.7L378.8,335.7z M319.5,366.5
			h0.8v-0.8v-9.3h6.8h0.4l0.2-0.3l1.3-1.8h5.1L357,395l-18.6,15.5l-26.1-44L319.5,366.5L319.5,366.5z M303.8,347.6l21.3-4.4
			c1.4-0.3,3,0.5,3.7,1.7l4.5,7.9h-4.6h-0.4l-0.2,0.3l-1.3,1.8h-7.1h-0.8v0.8v9.3h-7.4l-8.8-14.8C301.9,349,302.5,347.8,303.8,347.6
			z M381.8,451c-0.2,1.4-1.5,2.7-2.9,3l-10.8,2c-1.4,0.3-3.1-0.5-3.8-1.7l-7.6-12.8l15.3-5.6l0.5-0.2v-0.5v-6.8l3.8-2.9l5.4,0l0.3,0
			l0.2-0.2l4.6-3.6L381.8,451z M384.1,386.6l2-1.9l0.2-0.2v-0.3v-3.6h7.4l-3.5,21H384L384.1,386.6z M402.1,331L394,379h-8.4h-0.8
			v0.8v4l-2,1.9l-0.2,0.2l0,0.3l0,16l0,0.8h0.8h6.7l-2.8,16.3l-5.7,4.5l-5.4,0l-0.3,0l-0.2,0.2l-4.3,3.3l-0.3,0.2v0.4v6.7l-15,5.6
			l-16.8-28.3l18.6-15.5l9,15.9c0.7,1.2,1.4,1.1,1.6-0.3l7.1-51.5h7.1h0.3l0.2-0.2l2.8-2.4l0.3-0.2v-0.4v-11.9l1.8-1.9l0.2-0.2V343
			v-3.9l1.8-1.6l0.3-0.2V337v-6l9.9-2C401.4,328.7,402.4,329.6,402.1,331z"/>
	</g>
	<path id="path2689" d="M331.5,386.3c15.2,6.1,19.2,25.9,16.7,48.5c-1.1,9.8-1.3,22-10.8,23.4c-3.3,0.5-6.9-0.3-10.3-0.7
		c-3.1-0.4-6.6-1.6-9.6-1.2c-1.8,0.2-3.2,1.7-4.9,2.2c-3.7,1.1-8.4,0.5-13.5,0.5c-3.1,0-6.3,0.1-9.1-0.5c-1.7-0.3-3.4-1.6-5.2-1.7
		c-1.6-0.1-3.3,0.8-5.2,1c-5,0.5-11.7,0.7-17,0.2c-1.9-0.2-4-1.3-5.7-1.2c-1.7,0-3.6,1.3-5.4,1.5c-6.6,0.7-13.5-2.5-19.2-2
		c-2.7,0.3-5.3,2.6-8.9,3c-5.1,0.5-13.4,0.2-18.5-0.7c-1.9-0.3-3.8-1.6-5.7-1.7c-1.7-0.1-3.5,0.8-5.4,1c-4.8,0.4-10.8,0.5-15.7,0.2
		c-1.4-0.1-2.9-0.6-4.2-0.5c-2.3,0.1-4.5,1.7-6.6,2c-5.7,0.7-12.1,0.8-17.5,0.2c-1.9-0.2-3.9-1.2-5.9-1.2c-2.8,0-5.3,1.3-7.6,1.5
		c-13.3,1.2-23.3-5.2-30-12.5c-3,1.4-4.9,4.1-7.6,5.9c-12.3,8.3-33.4,5.9-44.3-2.7c-1.5-1.2-3.8-5-5.7-4.9c-1.6,0-4.4,3.8-5.9,4.9
		c-5.8,4.5-13.6,7.7-23.4,8.4c-14.7,1-26.4-4.5-34-11.6c-3.9-3.6-9.5-9.6-6.9-17c1.3-3.8,5.3-7.7,8.1-11.1c1.1-1.2,2.6-2.5,2.7-3.7
		c0.1-2.2-3.5-5.5-4.4-7.1c-4.2-7.4-5.6-19.5-1.5-28.8c4.9-11,17.8-19,35.4-17.7c6.7,0.5,13.6,2.5,19.4,5.9
		c8.3,4.8,17,9.2,14.3,21.9c3.5-0.8,5.5-3.3,8.6-4.7c10.7-4.9,27.8-4.6,37.6,1.7c1.2,0.8,3.1,2.7,4.2,2.7c2,0,4.4-3.9,6.2-4.7
		c4-1.7,16.9-1.8,22.6-1.2c2.3,0.2,4.6,1.8,6.4,1.7c1.9-0.1,4.4-2.5,5.9-3c4.6-1.4,18.7-2,23.9-0.5c1.7,0.5,3.5,2.5,5.4,2.7
		c1.8,0.2,4.2-0.6,6.1-0.7c3.7-0.2,7.8-0.4,11.3-0.2c2.6,0.1,5,1.6,7.4,1.7c2.2,0.1,4.9-1,7.4-1c2,0,4.2,0.5,6.1,1
		c1.8,0.5,3.7,1.7,5.2,1.7c2.2,0,4.7-1.7,6.6-2.2c6.9-1.8,14.6-1.4,21.7,1.2c1.6,0.6,4.5,3.2,6.1,3.2c2,0,4.3-3.5,6.2-4.2
		c5-2,12.5-1.7,18.5-1.5c2.7,0.1,5.1,1.6,7.6,1.7c2.2,0.1,4.6-0.9,6.9-1c2.2,0,4.2,0.5,6.2,1c1.9,0.5,4,1.7,5.4,1.7
		c1.9,0,3.8-1.5,5.4-2C315,382.9,323.9,383.2,331.5,386.3z"/>
	<g id="g2691" class="st2">
		<g id="g2693">
			<g>
				<g>
					<path id="SVGID_1_" class="st3" d="M43.2,415c1.6,3.1,2.3,6.7,2.3,10.9c0,4.1-0.9,7.6-2.6,10.6c-1.7,3-3.9,5.4-6.6,7.4
						c-2.7,1.9-5.8,3.4-9.3,4.3c-3.4,0.9-6.9,1.4-10.4,1.4c-7,0-12.8-1.3-17.6-3.9c-4.7-2.6-9-6.5-12.8-11.7l8.1-10.2
						c0.7-0.9,2-1,2.8-0.1c0,0,0.9,1,2.5,2.3c1.6,1.3,3.3,2.3,5.2,3.3c1.9,0.9,3.8,1.7,5.7,2.3c1.9,0.6,3.7,0.9,5.4,0.9
						c1.7,0,2.9-0.3,3.8-0.9c0.9-0.6,1.3-1.7,1.3-3.4c0-1.4-0.8-2.8-2.3-4.1c-1.6-1.3-3.5-2.6-5.8-4c-2.3-1.4-4.8-2.9-7.5-4.5
						c-2.7-1.6-5.2-3.5-7.5-5.7c-2.3-2.2-4.2-4.7-5.8-7.5c-1.6-2.8-2.3-6.1-2.3-9.8c0-3.6,0.7-6.8,2-9.5c1.4-2.7,3.2-5,5.5-6.9
						c2.3-1.9,5-3.3,8-4.2c3-0.9,6.3-1.4,9.7-1.4c6.1,0,11.5,1.1,16.3,3.3c4.8,2.2,9.4,5.5,13.7,9.9l-6.5,10.1
						c-0.7,1-1.9,1.2-2.8,0.4c0,0-1.6-1.4-3.5-2.6c-1.8-1.2-3.6-2.2-5.3-3c-1.7-0.8-3.4-1.5-4.9-1.9c-1.5-0.4-2.8-0.6-4-0.6
						c-1.4,0-2.4,0.3-3,1c-0.6,0.7-1,1.6-1,2.6c0,1.4,0.8,2.6,2.3,3.8c1.6,1.2,3.5,2.4,5.9,3.6c2.3,1.2,4.9,2.6,7.6,4.2
						c2.7,1.6,5.2,3.4,7.6,5.6C39.7,409.3,41.6,411.9,43.2,415z M73,410.6c0.9-0.9,1.8-1.7,2.9-2.1c1.1-0.5,2.2-0.7,3.2-0.7
						c3.2,0,5.5,0.8,7.1,2.4c1.5,1.6,2.2,3.2,2.2,3.2c0.5,1.1,1.8,1.8,3,1.5l13.7-3.4c-1.4-6.3-4.3-11.3-8.7-15.1
						c-4.4-3.8-10.3-5.8-17.7-5.8c-4.5,0-8.6,0.7-12.1,2.1s-6.5,3.4-8.9,6c-2.4,2.6-4.2,5.7-5.5,9.4c-1.2,3.7-1.9,7.7-1.9,12.3
						c0,3.9,0.6,7.6,1.7,11.2s2.9,6.6,5.3,9.3c2.4,2.7,5.4,4.8,9,6.4c3.6,1.6,8,2.4,13,2.4c2.9,0,5.7-0.4,8.4-1.3
						c2.7-0.9,5.2-2.2,7.5-4c2.3-1.8,4.2-4,5.9-6.7c1.7-2.7,3.2-7.5,3.2-7.5c0.3-1.1-0.3-2.4-1.5-2.7l-13.3-3.8
						c-0.2,1.2-0.7,2.3-1.5,3.3c-0.8,1-1.6,1.8-2.5,2.5c-0.9,0.7-1.9,1.3-2.9,1.7s-1.9,0.6-2.7,0.6c-2.9,0-5.3-1.1-7.2-3.4
						c-1.9-2.3-2.8-5.2-2.8-8.9c0-2,0.3-3.6,0.8-5.1C71.4,412.7,72.1,411.5,73,410.6z M167.3,420.2c-0.2-4.7-0.4-9.5-0.6-14.3
						c-0.2-4.9-0.4-13.5-0.4-13.5c0-1.2-1-2.2-2.3-2.1l-18.6,0.4c0.2,3.6,0.4,6.8,0.6,9.4c0.2,2.6,0.3,5.2,0.5,7.6
						c0.1,2.4,0.2,4.9,0.2,7.5c0,2.6,0.1,5.6,0.1,9.1c0,2.6-0.9,4.7-2.6,6.3c-1.7,1.5-3.8,2.3-6.2,2.3c-2.6,0-4.5-0.8-5.8-2.3
						c-1.3-1.5-1.9-3.4-1.9-5.6c0-3.9,0.2-7.6,0.6-11.4c0.4-3.8,0.8-7.3,1.1-10.4c0.5-3.6,1.2-8.3,1.2-8.3c0.2-1.2-0.6-2.1-1.8-2.1
						l-19.4,0.2c-0.5,3.8-1,7.6-1.4,11.3c-0.4,3.2-0.7,6.7-1,10.3c-0.3,3.6-0.4,6.9-0.4,9.7c0,4.1,0.5,7.8,1.5,11
						c1,3.3,2.5,6.1,4.5,8.3s4.7,4.1,7.9,5.3c3.2,1.2,7.1,1.9,11.5,1.9c1.3,0,2.6-0.2,4-0.5c1.4-0.3,2.7-0.8,3.9-1.4
						c1.2-0.6,2.4-1.3,3.5-2.1c0.5-0.4,1.3-1.5,2-1.2c0.9,0.3,0.4,2.3,0.4,3c0,1.2,1,2.2,2.2,2.1l17.8-0.4
						c-0.2-5.6-0.3-10.8-0.5-15.6C167.7,429.6,167.5,424.8,167.3,420.2z M249.8,401.1c-1.7-2.7-4.1-4.8-7.1-6.3
						c-3-1.5-6.9-2.3-11.8-2.3c-3.6,0-6.7,0.8-9.3,2.4c-0.7,0.4-1.4,0.9-2,1.4c-0.6,0.4-1.2,0.9-1.7,1.4c-0.4,0.4-0.7,0.9-1.3,1
						c-0.1,0-0.3,0.1-0.5,0c-0.5,0-0.7-0.4-0.9-0.8c-0.8-1.1-1.7-2-2.8-2.8c-1.9-1.3-4.3-2-7.1-2c-1.4,0-2.8,0.2-4.1,0.7
						c-1.3,0.5-2.4,1-3.5,1.8c-0.9,0.6-1.6,1.3-2.4,2c-0.4,0.3-0.6,0.8-1.1,0.7c-0.6,0-0.5-0.8-0.5-1.2c0-0.5-0.1-0.9-0.1-1.4
						c0-0.3-0.1-0.7-0.1-1c-0.1-1.2-1.2-2.1-2.4-2.1l-16.3,0.4c0.2,4.6,0.4,9,0.5,13.2c0.1,4.2,0.2,8.5,0.2,12.8c0,4.3,0,8.9,0,13.7
						c0,4.8-0.1,13.8-0.1,13.8c0,1.2,1,2.2,2.2,2.1l15.8-0.3c1.2,0,2.2-1,2.2-2.2l0.6-31c0-1.1,0.3-2.1,0.8-3.2
						c0.5-1.1,1.8-1.6,3.7-1.6c0.9,0,1.6,0.3,2.2,1c0.5,0.7,1,1.6,1.3,2.7c0.3,1.1,0.6,2.4,0.7,3.9c0.1,1.5,0.2,3,0.2,4.6
						c0,3.9,0,7.1,0,9.6c0,2.5,0,4.6-0.1,6.5c0,1.9-0.1,3.6-0.2,5.2c-0.1,1.6-0.1,3.4-0.1,3.4c0,1.2,0.9,2.2,2.1,2.2l18.5,0.4
						c-0.2-1.1-0.3-2.5-0.4-4.2c-0.1-1.7-0.2-3.4-0.2-5.1c0-1.7-0.1-3.4-0.1-5s-0.1-2.9-0.1-3.8c0-7.2,0.3-12.6,0.9-16.2
						c0.6-3.5,2.2-5.3,4.8-5.3c1.6,0,2.8,0.7,3.7,2c0.9,1.3,1.3,3.5,1.3,6.6c0,2.9-0.4,6.7-1.1,11.2c-0.7,4.6-3,14.4-3,14.4
						c-0.3,1.2,0.5,2.2,1.7,2.4l18.7,2.3c0.8-4.7,1.5-9.2,2.1-13.6c0.6-4.4,0.9-8.6,0.9-12.8c0-4.4-0.3-8.5-1-12.3
						C252.7,407,251.6,403.8,249.8,401.1z M338.9,410.7c-0.6-3.7-1.8-6.9-3.6-9.6c-1.7-2.7-4.1-4.8-7.1-6.3c-3-1.5-6.9-2.3-11.8-2.3
						c-3.6,0-6.7,0.8-9.3,2.4c-0.7,0.4-1.3,0.8-1.9,1.3c-0.6,0.4-1.2,0.9-1.7,1.4c-0.4,0.4-1,1.4-1.7,1.2c-0.5-0.1-0.9-0.7-1.2-1.1
						c-0.7-1-1.6-1.8-2.6-2.5c-1.9-1.3-4.3-2-7.1-2c-1.4,0-2.8,0.2-4.1,0.7c-1.3,0.5-2.4,1-3.5,1.8c-1,0.7-1.9,1.5-2.5,2.3
						c-0.1,0.1-0.2,0.3-0.3,0.4c-0.2,0.2-0.4,0.4-0.7,0.3c-0.3-0.1-0.5-0.5-0.5-0.8c-0.1-0.4-0.1-0.9-0.2-1.4
						c-0.1-0.6-0.1-1.2-0.2-1.8c-0.1-1.2-1.2-2.1-2.4-2.1l-16.3,0.4c0.2,4.6,0.4,9,0.5,13.2c0.1,4.2,0.2,8.5,0.2,12.8
						c0,4.3,0,8.9,0,13.7c0,4.8-0.1,13.8-0.1,13.8c0,1.2,1,2.2,2.2,2.1l15.8-0.3c1.2,0,2.2-1,2.2-2.2l0.6-31c0-1.1,0.3-2.1,0.8-3.2
						c0.5-1.1,1.8-1.6,3.7-1.6c0.9,0,1.6,0.3,2.1,1c0.5,0.7,1,1.6,1.3,2.7s0.6,2.4,0.7,3.9c0.1,1.5,0.2,3,0.2,4.6c0,3.9,0,7.1,0,9.6
						c0,2.5,0,4.6-0.1,6.5c0,1.8-0.1,3.6-0.2,5.2c-0.1,1.6-0.1,3.4-0.1,3.4c0,1.2,0.9,2.2,2.1,2.2c0,0,0,0,0,0c0.6,0,1.2,0,1.8,0
						c1.3,0,2.6,0.1,3.9,0.1c1.6,0,3.2,0.1,4.7,0.1c1.5,0,3,0.1,4.5,0.1c0.9,0,2,0.2,2.9,0c0.8-0.2,0.6-0.8,0.6-1.4
						c0-0.9-0.2-1.8-0.3-2.7c-0.1-1.7-0.2-3.4-0.2-5.1c0-1.7-0.1-3.4-0.1-5c0-1.6-0.1-2.9-0.1-3.8c0-7.2,0.3-12.6,0.9-16.2
						c0.6-3.5,2.2-5.3,4.8-5.3c1.6,0,2.8,0.7,3.7,2c0.9,1.3,1.3,3.5,1.3,6.6c0,2.9-0.4,6.7-1.1,11.2c-0.7,4.6-3,14.4-3,14.4
						c-0.3,1.2,0.5,2.2,1.7,2.4c0.5,0.1,1,0.1,1.5,0.2c2.6,0.3,5.1,0.6,7.7,1c1.6,0.2,3.2,0.4,4.9,0.6c1,0.1,2,0.3,2.9,0.4
						c0.6,0.1,1.4,0.4,1.9-0.2c0.5-0.5,0.4-1.5,0.5-2.1c0.2-1,0.3-1.9,0.3-2.9c0.1-1.5,0.3-3,0.5-4.4c0.2-1.2,0.3-2.5,0.5-3.7
						c0.6-4.4,0.9-8.6,0.9-12.8C339.8,418.5,339.5,414.4,338.9,410.7z"/>
				</g>
			</g>
		</g>
	</g>
</g>
</svg>
