<?xml version="1.0" encoding="utf-8"?>
<!-- Generator: Adobe Illustrator 19.0.0, SVG Export Plug-In . SVG Version: 6.00 Build 0)  -->
<svg version="1.1" id="Ebene_1" xmlns="http://www.w3.org/2000/svg" xmlns:xlink="http://www.w3.org/1999/xlink" x="0px" y="0px"
	 viewBox="-22 283.2 566.9 226.8" style="enable-background:new -22 283.2 566.9 226.8;" xml:space="preserve">
<style type="text/css">
	.st0{fill:#FFFFFF;}
</style>
<path class="st0" d="M-22,283.2v15.5H88.4v-15.5H-22z M104,283.2v15.5h157.3c0,0-16.1-15.5-37.3-15.5H104z M292.1,283.2v15.5h95.1
	l-5.6-15.5H292.1z M455.4,283.2l-5.6,15.5h94.3v-15.5H455.4z M-22,313.4v15.5H88.4v-15.5H-22z M104,313.4v15.5h175.5
	c0,0-2.1-11.9-5.6-15.5H104z M292.1,313.4v15.5h105.6l-5.2-15.5H292.1z M444.1,313.4l-5.2,15.5h105.1v-15.5H444.1z M9.7,343.6v15.5
	h47.8v-15.5H9.7z M135.7,343.6v15.5h47.8v-15.5H135.7z M230,343.6v15.5h47.8c0,0,3-8.2,3-15.5C280.8,343.6,230,343.6,230,343.6z
	 M323.8,343.6v15.5h84.7l-5.6-15.5C402.9,343.6,323.8,343.6,323.8,343.6z M433.7,343.6l-5.7,15.5h85.2v-15.5H433.7z M9.7,373.8v15.5
	h47.8v-15.5H9.7z M135.7,373.8v15.5h122.1c0,0,10.2-8,13.5-15.5H135.7z M323.8,373.8v15.5h47.8v-8.6l3,8.6h87.5l3.3-8.6v8.6h47.8
	v-15.5h-89.7l-4.8,13.1l-4.8-13.1H323.8z M9.7,403.9v15.5h47.8v-15.5H9.7z M135.7,403.9v15.5h135.5c-3.3-7.5-13.5-15.5-13.5-15.5
	H135.7z M323.8,403.9v15.5h47.8v-15.5H323.8z M380.3,403.9l5.8,15.5h65.6l5.5-15.5H380.3z M465.4,403.9v15.5h47.8v-15.5H465.4z
	 M9.7,434.1v15.5h47.8v-15.5H9.7z M135.7,434.1v15.5h47.8v-15.5H135.7z M230,434.1v15.5h50.8c0-7.3-3-15.5-3-15.5H230z M323.8,434.1
	v15.5h47.8v-15.5H323.8z M391.1,434.1l5.6,15.5h44l5.6-15.5H391.1z M465.4,434.1v15.5h47.8v-15.5H465.4z M-21.1,464.3v15.5H89.2
	v-15.5H-21.1z M104,464.3v15.5h169.9c3.6-3.6,5.6-15.5,5.6-15.5H104z M293,464.3v15.5h78.6v-15.5H293z M402,464.3l5.8,15.5h22.4
	l5.4-15.5H402z M465.4,464.3v15.5h79.5v-15.5H465.4z M-21.1,494.5V510H89.2v-15.5H-21.1z M104,494.5V510h119.9
	c21.3,0,37.3-15.5,37.3-15.5H104z M293,494.5V510h78.6v-15.5H293z M412.9,494.5l5.5,15.5l1,0l5.6-15.5L412.9,494.5L412.9,494.5z
	 M465.4,494.5V510h79.5v-15.5H465.4z"/>
</svg>
