<?xml version="1.0" encoding="utf-8"?>
<!-- Generator: Adobe Illustrator 19.0.0, SVG Export Plug-In . SVG Version: 6.00 Build 0)  -->
<svg version="1.1"
	 id="svg4237" xmlns:cc="http://web.resource.org/cc/" xmlns:inkscape="http://www.inkscape.org/namespaces/inkscape" xmlns:rdf="http://www.w3.org/1999/02/22-rdf-syntax-ns#" xmlns:dc="http://purl.org/dc/elements/1.1/" xmlns:sodipodi="http://sodipodi.sourceforge.net/DTD/sodipodi-0.dtd" xmlns:svg="http://www.w3.org/2000/svg" sodipodi:docname="PlaystationPortable.svg" inkscape:version="0.44" sodipodi:version="0.32" sodipodi:docbase="F:\Logos"
	 xmlns="http://www.w3.org/2000/svg" xmlns:xlink="http://www.w3.org/1999/xlink" x="0px" y="0px" viewBox="-22 304.9 566.9 185.1"
	 style="enable-background:new -22 304.9 566.9 185.1;" xml:space="preserve">
<style type="text/css">
	.st0{fill:#F4F4F4;}
</style>
<sodipodi:namedview  inkscape:cx="522.4006" id="base" bordercolor="#666666" borderopacity="1.0" inkscape:zoom="0.35" inkscape:cy="-11.131139" pagecolor="#ffffff" inkscape:pageshadow="2" inkscape:current-layer="layer1" inkscape:pageopacity="0.0" inkscape:document-units="px" inkscape:window-y="378" inkscape:window-width="925" inkscape:window-x="10" inkscape:window-height="573">
	</sodipodi:namedview>
<g id="layer1" transform="translate(2.322326,-490.7257)" inkscape:label="Ebene 1" inkscape:groupmode="layer">
	<path id="path6905" class="st0" d="M78.9,956.6c5.3,0,8.5-1.1,8.5-6.2c0-3.8-2.3-5.8-7.7-5.8h-7.4v11.9H78.9z M69.6,972.2v-30h11
		c7.8,0,9.8,3.9,9.8,8.4c0,6.7-6,8.4-11.5,8.4h-6.4v13.2L69.6,972.2"/>
	<path id="path6907" class="st0" d="M94.1,972.2h2.4v-30h-2.4V972.2z"/>
	<path id="path6909" class="st0" d="M116.9,960.9c-2.1,0.9-4.4,1-6.5,1.2c-3.8,0.3-6.1,1.7-6.1,4.6c0,2.6,2.3,3.9,4.7,3.9
		c4,0,7.9-1.9,7.9-6.3L116.9,960.9L116.9,960.9z M112.7,959.7c1-0.1,2.5-0.3,3.3-0.7c0.9-0.4,1-1.5,1-2.2c0-2.5-1.6-4.4-5.4-4.4
		c-3.4,0-5.8,1.1-6.3,4.9h-2.5c0.4-5.1,4.2-7.1,8.9-7.1c4.4,0,7.8,1.7,7.8,6.7v11.7c0,2,0.6,2.4,2.6,1.7v2c-0.3,0.1-1.2,0.4-1.9,0.4
		c-0.4,0-0.7,0-1.1-0.1c-1.7-0.2-2-1.7-2-3.2c-2,2.3-4.9,3.6-8,3.6c-3.8,0-7.2-2-7.2-6.2c0-3.6,2.5-5.8,7.6-6.5L112.7,959.7"/>
	<path id="path6911" class="st0" d="M125.6,978.1c0.7,0.1,1.4,0.3,2,0.3c2.9,0,3.3-4.1,4.3-6l-8.4-21.7h2.8l7,18.5l6.9-18.5h2.7
		l-8,21.3c-2,5.4-3.4,8.8-6.9,8.8c-0.9,0-1.6-0.1-2.3-0.3L125.6,978.1"/>
	<path id="path6913" class="st0" d="M148.7,963.3c0.5,5.4,4,7.3,8.6,7.3c5.3,0,7.6-2.9,7.6-6.2c0-9.3-18.2-3.1-18.2-14.9
		c0-4.2,3.4-8,10.2-8c6.7,0,10.1,4.1,10,9h-2.6c0-4.6-3.6-6.5-7.4-6.5c-5.8,0-7.9,3.5-7.4,6.6c1.3,7.7,18.3,2.2,18.3,13.8
		c0,5.5-4.1,8.7-11,8.7c-6.3,0-11-3.2-11-9.7L148.7,963.3"/>
	<path id="path6915" class="st0" d="M180.8,972.3c-0.6,0.1-1.6,0.5-2.9,0.5c-2.4,0-3.8-1.1-3.8-4.3v-15.8H171v-2.1h3.1v-6h2.5v6h4
		v2.1h-4v14.8c0,2.1,0,3,2.1,3c0.7,0,1.4-0.1,2-0.3V972.3"/>
	<path id="path6917" class="st0" d="M199.5,960.9c-2.1,0.9-4.3,1-6.4,1.2c-3.8,0.3-6.1,1.7-6.1,4.6c0,2.6,2.3,3.9,4.7,3.9
		c4,0,7.9-1.9,7.9-6.3L199.5,960.9L199.5,960.9z M195.4,959.7c0.9-0.1,2.4-0.3,3.3-0.7c0.8-0.4,0.9-1.5,0.9-2.2
		c0-2.5-1.5-4.4-5.3-4.4c-3.5,0-5.8,1.1-6.3,4.9h-2.5c0.4-5.1,4.2-7.1,8.8-7.1c4.4,0,7.9,1.7,7.9,6.7v11.7c0,2,0.5,2.4,2.6,1.7v2
		c-0.4,0.1-1.3,0.4-1.9,0.4c-0.4,0-0.8,0-1.2-0.1c-1.6-0.2-1.9-1.7-1.9-3.2c-2.1,2.3-4.9,3.6-8,3.6c-3.8,0-7.3-2-7.3-6.2
		c0-3.6,2.5-5.8,7.6-6.5L195.4,959.7"/>
	<path id="path6919" class="st0" d="M216.8,972.3c-0.6,0.1-1.6,0.5-2.9,0.5c-2.4,0-3.8-1.1-3.8-4.3v-15.8h-3v-2.1h3v-6h2.5v6h4v2.1
		h-4v14.8c0,2.1,0,3,2.1,3c0.7,0,1.4-0.1,2-0.3L216.8,972.3"/>
	<path id="path6921" class="st0" d="M224.2,972.2h-2.4v-21.6h2.4V972.2z M221.6,946v-3.7h2.8v3.7H221.6"/>
	<path id="path6923" class="st0" d="M239,952.3c-5.2,0-7.3,4.4-7.3,9.1c0,5.4,2.5,9.1,7.3,9.1c5.2,0,7.4-4.5,7.4-9.1
		C246.3,956.4,244.3,952.3,239,952.3z M229,961.4c0-6.3,3.4-11.4,10-11.4c6.8,0,10.1,5,10.1,11.4c0,6.8-4,11.4-10.1,11.4
		C233.5,972.7,229,969,229,961.4"/>
	<path id="path6925" class="st0" d="M255.1,972.2h-2.5v-21.6h2.5v3c1.9-2.1,4-3.6,6.9-3.6c2.7,0,5,0.8,6.6,3.1
		c1.1,1.6,1.2,3.2,1.2,5v14.1h-2.5v-14.1c0-3.9-1.6-5.8-5.6-5.8c-3.1,0-5.2,2-6,4.2c-0.5,1.4-0.5,2.6-0.5,4.1L255.1,972.2"/>
	<path id="path6927" class="st0" d="M279.5,965.2c-0.3-0.1-0.7-0.2-1.3-0.2h-0.8v2h0.9c0.4,0,0.8,0,1-0.1c0.4-0.2,0.6-0.4,0.6-0.9
		C279.9,965.6,279.7,965.4,279.5,965.2z M278.4,964.3c0.7,0,1.2,0.1,1.6,0.2c0.6,0.2,0.8,0.7,0.8,1.4c0,0.5-0.1,0.9-0.5,1.1
		c-0.2,0.1-0.5,0.2-0.8,0.3c0.4,0.1,0.7,0.3,0.9,0.6c0.2,0.3,0.3,0.6,0.3,0.9v0.4c0,0.1,0,0.3,0.1,0.4c0,0.2,0,0.3,0,0.3v0.1h-0.9
		c0,0,0,0,0,0c0,0,0,0,0-0.1l-0.1-0.2v-0.4c0-0.7-0.2-1.1-0.5-1.3c-0.2-0.1-0.6-0.2-1.1-0.2h-0.8v2.2h-1v-5.6L278.4,964.3
		L278.4,964.3L278.4,964.3z M275.4,964.1c-0.9,0.9-1.3,1.9-1.3,3.1c0,1.2,0.4,2.3,1.3,3.1c0.9,0.9,1.8,1.3,3.1,1.3
		c1.3,0,2.2-0.4,3.1-1.3c0.9-0.9,1.3-1.9,1.3-3.1c0-1.2-0.4-2.2-1.3-3.1c-0.9-0.9-1.8-1.3-3.1-1.3
		C277.3,962.8,276.3,963.2,275.4,964.1z M282.1,970.7c-1,1-2.2,1.5-3.6,1.5c-1.4,0-2.6-0.5-3.6-1.5c-1-1-1.5-2.2-1.5-3.6
		c0-1.4,0.5-2.6,1.5-3.6c1-1,2.2-1.5,3.6-1.5c1.4,0,2.6,0.5,3.6,1.5c1,1,1.5,2.2,1.5,3.6C283.6,968.6,283.1,969.8,282.1,970.7"/>
	<path id="path6929" class="st0" d="M300.6,956.6c5.3,0,8.6-1.1,8.6-6.2c0-3.8-2.4-5.8-7.8-5.8h-7.4v11.9H300.6z M291.3,972.2v-30
		h11c7.8,0,9.8,3.9,9.8,8.4c0,6.7-5.9,8.4-11.5,8.4h-6.4v13.2L291.3,972.2"/>
	<path id="path6931" class="st0" d="M323.2,952.3c-5.2,0-7.4,4.4-7.4,9.1c0,5.4,2.6,9.1,7.4,9.1c5.2,0,7.4-4.5,7.4-9.1
		C330.5,956.4,328.6,952.3,323.2,952.3z M313.2,961.4c0-6.3,3.3-11.4,10-11.4c6.8,0,10,5,10,11.4c0,6.8-4,11.4-10,11.4
		C317.7,972.7,313.2,969,313.2,961.4"/>
	<path id="path6933" class="st0" d="M339.4,972.2h-2.5v-21.6h2.5v4h0.1c1.4-3.5,3.4-4.6,7-4.6v2.7c-5.6-0.1-7.1,4-7.1,8.9
		L339.4,972.2"/>
	<path id="path6935" class="st0" d="M360.5,972.3c-0.6,0.1-1.6,0.5-2.8,0.5c-2.5,0-3.9-1.1-3.9-4.3v-15.8h-3v-2.1h3v-6h2.5v6h4.1
		v2.1h-4.1v14.8c0,2.1,0.1,3,2.1,3c0.7,0,1.5-0.1,2-0.3L360.5,972.3"/>
	<path id="path6937" class="st0" d="M378.4,960.9c-2.1,0.9-4.3,1-6.4,1.2c-3.8,0.3-6.1,1.7-6.1,4.6c0,2.6,2.3,3.9,4.7,3.9
		c4,0,7.9-1.9,7.9-6.3L378.4,960.9L378.4,960.9z M374.2,959.7c0.9-0.1,2.4-0.3,3.3-0.7c0.8-0.4,0.9-1.5,0.9-2.2
		c0-2.5-1.5-4.4-5.3-4.4c-3.5,0-5.8,1.1-6.3,4.9h-2.5c0.4-5.1,4.2-7.1,8.8-7.1c4.4,0,7.9,1.7,7.9,6.7v11.7c0,2,0.5,2.4,2.6,1.7v2
		c-0.4,0.1-1.3,0.4-1.9,0.4c-0.4,0-0.8,0-1.2-0.1c-1.6-0.2-1.9-1.7-1.9-3.2c-2.1,2.3-4.9,3.6-8,3.6c-3.8,0-7.3-2-7.3-6.2
		c0-3.6,2.5-5.8,7.6-6.5L374.2,959.7"/>
	<path id="path6939" class="st0" d="M398.2,970.6c4.2,0,7.3-3,7.4-8.5c0.2-5.4-2.2-9.8-7.4-9.8c-4.6,0-7.3,4.2-7.3,9
		C390.9,966.6,393.4,970.6,398.2,970.6z M390.9,972.2h-2.5v-30h2.5v11.9c1.6-2.6,4.7-4,7.7-4c6.6,0,9.6,5.4,9.6,11.4
		c0,6.4-2.7,11.3-9.7,11.3c-2.8,0-6-1.5-7.6-4.4l0,0L390.9,972.2"/>
	<path id="path6941" class="st0" d="M413.7,972.2h2.5v-30h-2.5V972.2z"/>
	<path id="path6943" class="st0" d="M437.9,959.9c0-4.2-2.3-7.6-6.8-7.6c-4.5,0-6.8,3.5-7.3,7.6H437.9z M423.9,962
		c0,4.7,2.5,8.5,7.3,8.5c3.2,0,5.8-1.8,6.5-5h2.8c-1.3,4.1-3.8,7.2-9.3,7.2c-6.9,0-9.9-4.9-9.9-11.3c0-6.3,3.7-11.5,9.9-11.5
		c5.9,0,9.5,4.2,9.5,12L423.9,962"/>
	<path id="path6945" class="st0" d="M-24.3,795.7h176.6V848H-17.3v45.4h-7v-52.4h169.7v-38.4H-24.3V795.7"/>
	<path id="path6947" class="st0" d="M373,848v45.4h-7v-52.4h169.6v-38.4H366v-7h176.6V848H373"/>
	<path id="path6949" class="st0" d="M242.4,795.7v90.8h-90.1v7h97.4v-90.8h90.1v-7H242.4"/>
</g>
</svg>
