<?xml version="1.0" encoding="utf-8"?>
<!-- Generator: Adobe Illustrator 19.0.0, SVG Export Plug-In . SVG Version: 6.00 Build 0)  -->
<svg version="1.1"
	 id="svg2" inkscape:version="0.47 r22583" sodipodi:docname="MSX-Logo.svg" xmlns:cc="http://creativecommons.org/ns#" xmlns:rdf="http://www.w3.org/1999/02/22-rdf-syntax-ns#" xmlns:inkscape="http://www.inkscape.org/namespaces/inkscape" xmlns:dc="http://purl.org/dc/elements/1.1/" xmlns:sodipodi="http://sodipodi.sourceforge.net/DTD/sodipodi-0.dtd" xmlns:svg="http://www.w3.org/2000/svg"
	 xmlns="http://www.w3.org/2000/svg" xmlns:xlink="http://www.w3.org/1999/xlink" x="0px" y="0px" viewBox="-22 279.3 566.9 234.7"
	 style="enable-background:new -22 279.3 566.9 234.7;" xml:space="preserve">
<style type="text/css">
	.st0{fill:#BFBFBF;}
	.st1{fill:#FFFFFF;}
</style>
<defs>
	
	
		<inkscape:perspective  inkscape:persp3d-origin="372.04724 : 350.78739 : 1" inkscape:vp_x="0 : 526.18109 : 1" sodipodi:type="inkscape:persp3d" inkscape:vp_y="0 : 1000 : 0" id="perspective10" inkscape:vp_z="744.09448 : 526.18109 : 1">
		</inkscape:perspective>
	
		<inkscape:perspective  inkscape:persp3d-origin="0.5 : 0.33333333 : 1" inkscape:vp_x="0 : 0.5 : 1" sodipodi:type="inkscape:persp3d" inkscape:vp_y="0 : 1000 : 0" id="perspective2824" inkscape:vp_z="1 : 0.5 : 1">
		</inkscape:perspective>
</defs>
<sodipodi:namedview  inkscape:window-height="968" inkscape:current-layer="layer1" inkscape:window-x="-4" inkscape:window-width="1280" inkscape:window-maximized="1" inkscape:window-y="-4" inkscape:document-units="px" inkscape:pageshadow="2" inkscape:pageopacity="0.0" showgrid="false" pagecolor="#ffffff" id="base" inkscape:cx="125.21669" inkscape:zoom="2" borderopacity="1.0" bordercolor="#666666" inkscape:cy="142.45913">
	</sodipodi:namedview>
<rect id="rect3604" x="-49.5" y="279.3" class="st0" width="566.9" height="234.7"/>
<path id="path2830" sodipodi:nodetypes="cccccccccccccccccccccccccccccccccccc" class="st1" d="M-12.3,480.7l43.1-169.5h39.9
	l20.7,74l21.5-74h37.6l35.2,124.9l86-0.2c9-0.1,9.6-18.7-0.7-18.7l-50.1-0.7c-21.5,0.2-44.2-23.1-43.1-54
	c0.2-28.4,25-50.8,56.7-50.8l127.7-0.1l32.5,44.2l31.7-44.6l52.9,0.4L421.5,393l62.6,88.3l-52.6-0.2l-36.5-50.7l-34.7,50.7l-53.6,0
	l61.1-87.3l-26.6-38.8l-111,0.2c-12.1,0.1-11.7,19.2,0.1,18.8l46.8,0.7c19.8,0.1,47.6,20.7,46.9,52.7c0.3,37.3-33.3,54.3-49.4,53.4
	L152.2,481l-20.4-76.3l-20.4,76.1H72.8l-21.3-75.7L32.9,481L-12.3,480.7z"/>
</svg>
