<?xml version="1.0" encoding="utf-8"?>
<!-- Generator: Adobe Illustrator 19.0.0, SVG Export Plug-In . SVG Version: 6.00 Build 0)  -->
<svg version="1.1"
	 id="Ebene_1" xmlns:cc="http://creativecommons.org/ns#" xmlns:rdf="http://www.w3.org/1999/02/22-rdf-syntax-ns#" xmlns:dc="http://purl.org/dc/elements/1.1/"
	 xmlns="http://www.w3.org/2000/svg" xmlns:xlink="http://www.w3.org/1999/xlink" x="0px" y="0px" viewBox="-22 306.1 566.9 180.9"
	 style="enable-background:new -22 306.1 566.9 180.9;" xml:space="preserve">
<style type="text/css">
	.st0{fill:#F4F4F4;}
</style>
<g>
	<path d="M437.7,386.2L346.6,487h-216l-3.6-3.5c-10.2-9.8-20.5-19.7-30.7-29.5l-55.7-53.5l-51.7-49.7c-2.5-2.3-5.2-4.9-7.3-7.6
		c-8.3-10.7-1.6-24.7,12.7-24.7h26.1h23.4c1.8,0,3.4-0.1,5.3,0.1c2.8,0.3,5.3,1.1,7.6,2.3c2.5-1.5,5.6-2.4,9.1-2.4h42.5
		c0.7,0,1.4,0,2.1-0.1c4.7-0.1,8.6,0.7,12,2.2c2.4-1.4,5.3-2.2,8.8-2.2h20.9h0.6l0.6,0.1c2.1,0.2,4.1,0.8,5.9,1.7
		c2.3-1.1,4.9-1.7,7.8-1.7h14.3c4.5,0,8.1-0.2,12.4,1.9c0.2,0.1,0.3,0.2,0.5,0.2c2.5-1.4,5.5-2.2,8.9-2.2h50.8c4.9,0,9,0,13.2,2.5
		c2.9-1.6,6.2-2.5,9.8-2.5h48.5c4.7,0,8.9,0.1,12.8,2.5c3.1-1.6,6.5-2.5,10.2-2.5h51.2c4.7,0,9.1,0.1,12.9,2.4
		c1.1-0.6,2.4-1.1,3.7-1.5c3.7-1.1,6.8-0.9,10.5-0.9H444c3.1,0,6,0.5,8.5,1.9c2-1.1,4.3-1.7,6.7-1.9l0.5,0h0.5h23
		c2.1,0,4.2,0.3,6.1,1c0.3-1.4,0.8-2.8,1.6-4.2l0.6-1.1l0.9-1c3.6-4.1,7.6-7.5,13.5-7.2h18.3c5.1,0,10.1,1,14.1,4.2
		c8.5,6.7,8.2,18.3,2.4,26.5c-2.3,3.2-5.7,5.8-9.5,7.5c-0.5,2.6-1.9,5.2-4.4,7.3c-1.4,1.3-2.8,2.6-4.2,3.9
		c-3.8,3.6-7.3,4.2-12.4,4.2h-23.9c-2.8,0-5.5-0.3-7.9-1.4L461.1,376c-5.8,5.9-12.2,10.1-21,10.2l-0.1,0
		C439.3,386.2,438.5,386.2,437.7,386.2"/>
	<path class="st0" d="M60.5,342.7c-9.2-12.4-11.4-11.2-16.7-11.2H20.4H-5.7c-4,0-4.9,3-2.7,6c1.2,1.7,3.9,4.4,6.1,6.5l51.7,51.9h51
		C88.7,380.6,75.5,363,60.5,342.7z M68,383.2c-1.6,0-4.1,0.1-5.6,0.1c-1.7,0-2.2-0.4-3.3-1.6l-23.6-26.3c-1.1-1.2-0.9-2.5,1-2.5
		l7.3,0c1,0,1.5,0.1,3.3,2.3l21.3,25.7C69.4,382.3,68.6,383.2,68,383.2z"/>
	<path class="st0" d="M65.8,331.6H92h16.3c5.3,0,10.5-1.9,16.7,11.1l25.4,53.2h-45l-23.7-32.7c-1-1.4-1.1-1.5-1.7-2.6
		c-0.5-0.9,0.1-1.9,1.5-2c5.8-0.1,11.5-0.1,17.2-0.2c2.8,0.1,3.8,0.1,5.4,2.7c4.5,6.7,8.6,13.7,13.1,20.4c0.9,1.7,2.2,1.7,4.9,1.8
		c3.1,0,5-0.3,3.1-3.6l-14.9-24.9c-2.2-3.7-8.9-3.1-9.8-3.1H78.3c-2.6,0-4.6,0.2-6.3-2l-8.9-12.2C61,334.5,61.8,331.6,65.8,331.6
		L65.8,331.6z"/>
	<path class="st0" d="M131.2,331.6c6.8,0,14.1,0,20.9,0c1.1,0.1,1.7,0.4,1.8,1c3.1,7.7,5.5,15.5,8.6,23.2c0.6,1.5,1.1,2.2,1.9,2
		c1.7,0,3.2,0,4.9,0c1.6-0.1,2-1,1.5-2.7c-2-7.4-4.3-14.3-6.3-21.6c-0.5-1.8,0.6-2,2.4-2h14.3c7.2,0,8.3-1,11,11.1
		c2.1,9.6,4,19.2,6.1,28.9c0.5,3.2-0.8,5.8-4.3,5.7l-6.7,0l5.1,18.7h-24.8l-7.5-18.7c-2.9,0-4.4,0-7.3,0c-4.4,0-6.5-2.9-8.3-6.7
		l-15.7-33C127.5,334.5,127.2,331.6,131.2,331.6L131.2,331.6z"/>
	<path class="st0" d="M203.1,331.6h27.5h23.3c5.3,0,9.2-0.5,8.5,7.3l-0.6,7.3c-0.1,1.2-0.2,2.3-0.5,3.4c-0.7,2.5-3,2.8-5.5,2.9H227
		c-1.3,0-1.7,0.1-1.7,1l0,4.5c0,1,0.7,0.9,2.3,0.9h22c1.6,0,3.2-0.1,4.8,0.3c3,0.7,4.5,2.4,5.4,4.7c0.7,1.9,0.4,3.4,0.2,5.3
		l-2.2,26.9h-49.5l-1.6-9c-0.3-1.6,0.2-2.5,2.1-2.5H235c4.5-0.7,4.7-3.8,4.2-7.3h-27.8c-2.9,0.1-4.7-0.7-5.9-2.2
		c-1.1-1.3-1.2-2.5-1.5-4.1l-5.5-31.4C197.7,334.8,199.1,331.6,203.1,331.6L203.1,331.6z"/>
	<path class="st0" d="M276.9,331.6h25.8h22.7c5.2,0,9-0.5,6.5,7.1l-2.6,7.7c-0.4,1.2-0.8,2.2-1.3,3.3c-1.3,2.4-3.6,2.8-6.1,2.8
		h-25.7c-1.3,0-1.7,0.1-1.9,0.9l-1.3,4.9c-0.3,1,0.5,0.9,2,0.9h19.1c1.6,0,3.1-0.1,4.6,0.3c2.7,0.7,3.8,2.4,4.1,4.5
		c0.2,1.8-0.4,3.3-1.1,5.2l-9.5,26.7h-47.4l1-8.7c0.1-1.5,0.8-2.5,2.7-2.5h19.6c4.6-0.6,5.5-3.7,5.9-7.1h-17.7
		c-6.4,0.3-9.4-3.9-8.9-9.5l2.1-29C269.8,334.7,273,331.6,276.9,331.6L276.9,331.6L276.9,331.6C276.9,331.6,276.9,331.6,276.9,331.6
		z"/>
	<path class="st0" d="M348.3,331.6h27.2h24c5.5,0,9.7-0.5,4.9,7.1l-4.8,7.7c-0.7,1.2-1.4,2.2-2.3,3.3c-2,2.4-4.5,2.8-7.2,2.8h-20.5
		c-1.3,0-3.1-0.1-3.1,0.6l0.2,4.1c0,0.9,0.9,1.5,2.6,1.5h11.2l7.8,0.1c1.7,0,2.4,1.6,1.6,2.9l-3.1,5.2l-7.2,11.2c-0.3,0-0.6,0-0.9,0
		H357c-1.4,0-3.2-0.1-3.2,0.8l0.2,3.9c0,0.9,1,1.5,2.7,1.5h12.2l6.8,0l-7.5,11.5h-49.7c4.8-12,4.6-12.8,19.9-56.7
		C340,334.7,344.2,331.6,348.3,331.6L348.3,331.6z"/>
	<path class="st0" d="M483.3,331.6c-7.5,0-15.5,0-23,0c-1.2,0.1-2,0.4-2.4,1c-6.7,7.7-12.6,15.5-19.2,23.2c-1.3,1.5-2.1,2.2-2.9,2
		c-1.9,0-3.5,0-5.4,0c-1.7-0.1-1.8-1-0.5-2.7c5.3-7.4,10.7-14.3,16-21.6c1.4-1.8,0.2-2-1.8-2h-17.3c-7.9,0-8.7-1-16.8,11.1
		c-6.4,9.6-12.6,19.2-19,28.9c-1.9,3.2-1.6,5.8,2.3,5.7l9,0l-13.5,18.7h27.2l16.2-18.7c3.2,0,4.8,0,8,0c4.8,0,8.4-2.9,12-6.7
		l31.2-33C486.1,334.5,487.6,331.6,483.3,331.6L483.3,331.6z"/>
	<path class="st0" d="M518.4,344.6c-1.5,1.4-2.9,2.8-4.4,4.2c-1.2,1.1-2,0.9-3.7,0.9h-23.9c-1.4,0-2.4-0.1-2.9-0.5
		c-0.8-0.6-0.6-1.7,0.4-2.7c3.7-3.9,7.4-7.9,11.2-11.8c1.8-1.6,3.4-3.3,6.8-4.4c2.1-0.7,3.9-0.8,6-0.8h9.9c2.4,0.2,4.7-4.6,2.1-5.5
		h-16.1c-2.1,0.2-2.7-0.6-1.8-2.3c1.8-2,2.8-3.3,3.6-3.2h18.7c1.9,0,4.6,0.2,6.1,1.5c3.3,2.7,2.3,7.8,0.1,11.1
		c-1.9,2.8-6.3,4.8-9.6,4.9H508c-3.1,0.2-7.2,6.7-1.6,6.8h11.3C519.4,342.9,519.4,343.6,518.4,344.6"/>
	<path class="st0" d="M96.7,391c14.7,19.4,30.5,40.2,40.6,53.5c11.3,14.9,20.7,27.4,28.7,38h-30.2c-8.8-8.9-19-19-30.7-30.8
		L44.5,391H96.7z M419.6,391.6l-27.4-0.6L326,482.5h14.9L419.6,391.6z M320.5,391c-4,10.1-13.4,33.1-36.6,91.5h28.3l58.5-90.3
		L320.5,391z M313.3,392.8l-48.2,0.2l-10.6,89.5h26.8L313.3,392.8z M258,393.3l-50,0.5l15.4,88.7h27.3L258,393.3z M191.6,392.6
		h-25.2l36.3,90h13.5l-23.7-86.6L191.6,392.6z M148.1,391h-46.2l66.2,91.5h23.8l-41.4-86.6"/>
</g>
</svg>
