<?xml version="1.0" encoding="utf-8"?>
<!-- Generator: Adobe Illustrator 19.0.0, SVG Export Plug-In . SVG Version: 6.00 Build 0)  -->
<svg version="1.1"
	 id="Ebene_1" xmlns:cc="http://creativecommons.org/ns#" xmlns:rdf="http://www.w3.org/1999/02/22-rdf-syntax-ns#" xmlns:dc="http://purl.org/dc/elements/1.1/"
	 xmlns="http://www.w3.org/2000/svg" xmlns:xlink="http://www.w3.org/1999/xlink" x="0px" y="0px" viewBox="-22 352.7 566.9 89.3"
	 style="enable-background:new -22 352.7 566.9 89.3;" xml:space="preserve">
<style type="text/css">
	.st0{fill:#FFFFFF;}
</style>
<g transform="translate(-6.84376 -490.88)">
	<path class="st0" d="M407,843.5c-0.6,0-1,0.5-1,1.2l-0.1,13.1c0,0.6,0.5,1,1.2,1l6,0c0.7,0,1.2-0.4,1.2-1v-2.4c0-0.6-0.5-1-1.2-1
		l-3.9,0c-0.7,0-1.2-0.3-1.2-1v-8.6C408,844.1,407.7,843.5,407,843.5L407,843.5z M436.4,843.5c-0.1,0-0.2,0-0.2,0
		c-0.5,0.1-0.8,0.6-0.8,1.2l-0.1,13.1c0,0.4,0.2,0.7,0.5,0.8c0.1,0,0.1,0.1,0.2,0.1c0.1,0,0.1,0,0.2,0s0.2,0,0.2,0l6,0
		c0.7,0,1.2-0.4,1.2-1v-2.4c0-0.6-0.5-1-1.2-1l-3.9,0c-0.7,0-1.2-0.3-1.2-1l0-8.6C437.4,844.1,437.1,843.5,436.4,843.5L436.4,843.5z
		 M342.4,843.6c-0.7,0-1.2,0.4-1.2,1l0.1,2l-0.1,11c0,0.7,0.3,1.2,1,1.2c0.1,0,0.1,0,0.2,0c0.5-0.1,0.8-0.6,0.8-1.2v-8.6
		c0-0.6,0.5-1,1.2-1h0.8c0.7,0,1.2,0.4,1.2,1l0.8,4.6c0,0.7,0.3,1.2,1,1.2h2.1c0.1,0,0.2,0,0.2,0c0.5-0.1,0.8-0.5,1.1-1.1
		c0,0,2.5-5.9,2.6-6.1c0.2-0.5,0.8-0.4,0.8,0.1v8.8l0,1.3c0,0.7,0.3,1.2,1,1.2l2.5,0c0.1,0,0.1,0,0.2,0c0.1,0,0.1,0,0.2-0.1
		c0.3-0.2,0.5-0.6,0.8-1.1l1.9-4c0.3-0.6,0.7-1,1.2-1h3.1c0.7,0,1.2,0.4,1.2,1l0.2,4.3c0,0.4,0.2,0.7,0.6,0.8c0.1,0,0.3,0.1,0.4,0.1
		c0.6,0.1,1.3,0.1,1.9,0.1c0.6,0,1.4-0.4,1.4-1l0-13.4c0-0.6-0.5-1-1.2-1h-6.5c-0.7,0-1,0.3-1.2,1c0,0-4.3,10.8-4.4,11
		c0,0,0,0.1-0.1,0.1c-0.1,0.1-0.2,0.1-0.3,0.1c-0.2,0.1-0.5,0-0.5-0.3c0-0.5,0-10.5,0-10.5c0-0.7-0.3-1.3-0.9-1.3h-2.3
		c-0.6,0-0.9,0.4-1.3,1.2c0,0-2.7,6.7-2.9,7c0,0.1-0.1,0.1-0.2,0.2c-0.1,0.1-0.1,0.1-0.2,0.1c-0.2,0-0.3,0-0.3-0.3
		c-0.1-0.4-1.3-7.3-1.3-7.3c0-0.6-0.5-1-1.2-1L342.4,843.6L342.4,843.6z M460.8,843.6c-0.7,0-1.2,0.3-1.2,1l-0.1,13.2
		c0,0.2,0.1,0.4,0.2,0.6c0.1,0.2,0.3,0.3,0.5,0.3c0.1,0,0.1,0,0.2,0c0.1,0,0.2,0,0.2,0l2.1,0v0h5c0.1,0,0.2,0,0.2,0
		c0.1,0,0.2,0,0.2,0c0.4-0.1,0.7-0.4,0.7-0.9c0-0.6-0.5-1-1.2-1h-5v0c-0.6,0-1.2-0.4-1.2-1l0.1-7c0-0.6,0.5-1,1.2-1h5
		c0.7,0,1.2-0.3,1.2-1v-2.3c0-0.6-0.6-1-1.2-1L460.8,843.6L460.8,843.6z M482.5,843.6c-0.1,0-0.2,0-0.2,0c-0.6,0.1-1,0.4-1,1
		c0,0.3,0,0.7,0,1c0,3.8-0.1,7.5,0,11.3c0,0.2,0,0.5-0.1,0.7c0,0.1,0,0.2,0,0.4c0,0.1,0.1,0.2,0.1,0.3c0.2,0.3,0.4,0.4,0.6,0.5
		c0.3,0.1,0.5,0.1,0.8,0.1c0.4,0,0.9,0,1.3,0c0.1,0,0.3,0,0.4,0c0.5-0.1,0.9-0.3,1.2-1l0.2-4.3c0-0.6,0.5-1,1.2-1h3.3
		c0.7,0,1.2,0.4,1.2,1l0,4c0,0.7,0.3,1.2,1,1.2c0.1,0,0.2,0,0.2,0c0.5-0.1,0.8-0.6,0.8-1.2v-3.5v-2c0-1-0.8-1.3-1.5-1.6
		c-0.2-0.1-0.4-0.2-0.5-0.3c-0.1-0.1-0.2-0.2-0.2-0.4c0-0.8,0-5.3,0-5.3c0-0.6-0.5-1-1.2-1L482.5,843.6L482.5,843.6z M497,843.6
		c-0.1,0-0.2,0-0.2,0c-0.6,0.1-1,0.4-1,1l-0.1,13.2c0,0.3,0.1,0.6,0.4,0.7c0.1,0,0.1,0.1,0.2,0.1c0.2,0.1,0.4,0.1,0.7,0.1h8.4
		c0.7,0,1.2-0.4,1.2-1l-0.1-13.2c0-0.6-0.5-1-1.2-1L497,843.6L497,843.6z M510.1,843.6c-0.1,0-0.2,0-0.2,0c-0.2,0-0.3,0.1-0.4,0.1
		c-0.3,0.2-0.5,0.5-0.5,0.9l0.1,2l-0.1,11c0,0.6,0.3,1.1,0.8,1.2c0.1,0,0.1,0,0.2,0c0.1,0,0.2,0,0.2,0c0.5-0.1,0.8-0.6,0.8-1.2v-8.6
		c0-0.6,0.5-1,1.2-1h4.4c0.7,0,1.2,0.4,1.2,1l0,8.6c0,0.7,0.3,1.2,1,1.2c0.1,0,0.2,0,0.2,0c0.5-0.1,0.8-0.6,0.8-1.2l0-9.6l0-3.3
		c0-0.6-0.6-1-1.2-1H510.1L510.1,843.6z M530.9,843.6c-0.5,0-0.9,0.2-1.1,0.6c-0.1,0.1-0.1,0.3-0.1,0.4l-0.1,13.2
		c0,0.2,0.1,0.4,0.2,0.6c0.2,0.3,0.6,0.4,1,0.4l7.1,0c0.7,0,1.2-0.3,1.2-1c0-0.6-0.5-1-1.2-1l-5,0c-0.7,0-1.2-0.4-1.2-1l0.1-7
		c0-0.6,0.5-1,1.2-1h5c0.7,0,1.2-0.3,1.2-1v-2.3c0-0.6-0.6-1-1.2-1L530.9,843.6L530.9,843.6z M525,843.6c-0.4,0-0.7,0.2-0.8,0.5
		c-0.1,0.1-0.1,0.3-0.1,0.4c0,0.1,0,0.2,0,0.2l0.1,8.7c0,0.5-0.3,0.8-0.7,0.9c-0.1,0-0.1,0-0.2,0s-0.2,0-0.2,0h-0.5
		c-0.7,0-1.3,0.3-1.3,1v2.3c0,0.3,0.2,0.6,0.4,0.7c0.1,0,0.1,0.1,0.2,0.1c0.2,0.1,0.5,0.1,0.7,0.1h4c0.7,0,1.2-0.4,1.2-1v-2.3
		c0-0.1,0-0.2,0-0.3c-0.1-0.6-0.5-0.6-0.9-0.7c-0.2,0-0.3-0.1-0.5-0.1c-0.2-0.1-0.4-0.3-0.4-0.9v-8.7
		C526,844.1,525.6,843.6,525,843.6z M374.5,843.6c-0.7,0-1.2,0.4-1.2,1v2.3c0,0.6,0.6,1,1.2,1h1.5c0.7,0,1.2,0.3,1.2,1l-0.1,8.7
		c0,0.7,0.3,1.2,1,1.2c0.1,0,0.1,0,0.2,0c0.5-0.1,0.8-0.6,0.8-1.2v-8.7c0-0.6,0.4-0.9,1-0.9c0.1,0,0.2,0,0.2,0h4.2
		c0.7,0,1.2,0.3,1.2,1v8.7c0,0.7,0.4,1.2,1,1.2c0.1,0,0.2,0,0.2,0c0.5-0.1,0.7-0.6,0.7-1.2l-0.1-8.7c0-0.6,0.4-0.9,1-0.9
		c0.1,0,0.2,0,0.2,0h1.5c0.7,0,1.2-0.3,1.2-1v-2.3c0-0.6-0.5-1-1.2-1H374.5L374.5,843.6z M471.3,843.6c-0.2,0-0.3,0-0.5,0.1
		c-0.1,0-0.1,0-0.2,0.1c-0.3,0.2-0.5,0.5-0.5,0.9v2.3c0,0.6,0.6,1,1.2,1h1.5c0.7,0,1.2,0.3,1.2,1l-0.1,8.7c0,0.3,0.1,0.6,0.2,0.9
		c0,0.1,0.1,0.1,0.1,0.1c0.1,0.1,0.2,0.1,0.4,0.2c0.1,0,0.1,0,0.2,0c0.1,0,0.1,0,0.2,0c0.5-0.1,0.8-0.6,0.8-1.2v-8.7
		c0-0.6,0.4-0.9,1-0.9c0.1,0,0.2,0,0.2,0h1.5c0.7,0,1.2-0.3,1.2-1v-2.3c0-0.6-0.5-1-1.2-1L471.3,843.6L471.3,843.6L471.3,843.6z
		 M549.7,843.6l-7.2,0c-0.1,0-0.2,0-0.2,0c-0.6,0.1-1,0.4-1,1l0.1,6.7c0,0.6,0.5,1,1.2,1l3.5,0.1c0.7,0,1.2,0.4,1.2,1l-0.1,2.4
		c0,0.2,0,0.3-0.1,0.4c-0.1,0.2-0.3,0.4-0.6,0.5c-0.1,0-0.2,0-0.2,0s-0.2,0-0.2,0l-5,0c-0.1,0-0.2,0-0.2,0c-0.6,0.1-1,0.4-1,1
		c0,0.3,0.1,0.6,0.3,0.7c0.2,0.2,0.5,0.3,0.9,0.3h9.4c0.3,0,0.6-0.1,0.9-0.2c0.2-0.2,0.4-0.4,0.4-0.7l0.1-6.6c0-0.6-0.6-1-1.2-1
		h-5.8c-0.7,0-1.2-0.3-1.2-1l-0.1-2.8c0-0.6,0.6-1,1.2-1l5.1,0c0.7,0,1.2-0.4,1.2-1C550.9,844,550.4,843.6,549.7,843.6L549.7,843.6z
		 M396.2,843.7c-0.7,0-1.2,0.3-1.2,1v4.6c0,0.7-0.3,1.2-1,1.2l-1.3,0c-0.7,0-1.2,0.3-1.2,1l-0.1,6.3c0,0.5,0.3,0.8,0.8,0.9
		c0.1,0,0.1,0,0.2,0c0.1,0,0.2,0,0.2,0l9.8,0c0.7,0,1.2-0.3,1.2-1s-0.5-1-1.2-1l-7.7,0c-0.7,0-1.2-0.4-1.2-1l0.1-2.3
		c0-0.6,0.5-1,1.2-1l7.6,0c0.1,0,0.2,0,0.2,0c0.1,0,0.1,0,0.2,0c0.4-0.1,0.8-0.4,0.8-0.9c0-0.6-0.4-0.9-1-1c-0.1,0-0.2,0-0.2,0
		l-1.7,0c-0.1,0-0.2,0-0.2,0c-0.3,0-0.6-0.2-0.8-0.4c-0.1-0.2-0.2-0.4-0.2-0.6l0.1-2.9c0-0.6,0.6-1,1.2-1h1.6c0.7,0,1.2-0.3,1.2-1
		c0-0.6-0.5-1-1.2-1L396.2,843.7L396.2,843.7z M425.6,843.7c-0.4,0-0.8,0.1-1,0.4c0,0-0.1,0.1-0.1,0.2c-0.1,0.1-0.1,0.3-0.1,0.4v4.6
		c0,0.7-0.3,1.2-1,1.2l-1.3,0c-0.7,0-1.2,0.3-1.2,1l-0.1,6.3c0,0.2,0.1,0.4,0.2,0.6c0.1,0.2,0.3,0.3,0.5,0.3c0.1,0,0.1,0,0.2,0
		s0.2,0,0.2,0l9.8,0c0.7,0,1.2-0.3,1.2-1c0-0.6-0.5-1-1.2-1l-7.7,0c-0.7,0-1.2-0.4-1.2-1l0.1-2.3c0-0.6,0.6-1,1.2-1l7.6,0
		c0.1,0,0.2,0,0.2,0c0.1,0,0.2,0,0.2,0c0.4-0.1,0.7-0.4,0.7-0.9c0-0.6-0.4-0.9-1-1c-0.1,0-0.2,0-0.2,0l-1.7,0c-0.1,0-0.2,0-0.2,0
		c-0.3,0-0.6-0.2-0.8-0.4c-0.1-0.2-0.2-0.4-0.2-0.6l0.1-2.9c0-0.6,0.5-1,1.2-1h1.6c0.7,0,1.2-0.3,1.2-1c0-0.6-0.5-1-1.2-1H425.6
		L425.6,843.7z M449.9,843.7c-0.4,0-0.8,0.1-1,0.4c0,0-0.1,0.1-0.1,0.2c-0.1,0.1-0.1,0.3-0.1,0.4l0,4.6c0,0.7-0.3,1.2-1,1.2l-1.3,0
		c-0.7,0-1.2,0.3-1.2,1l-0.1,6.3c0,0.2,0.1,0.4,0.2,0.6c0.1,0.2,0.3,0.3,0.5,0.3c0.1,0,0.1,0,0.2,0c0.1,0,0.2,0,0.2,0l9.8,0
		c0.7,0,1.2-0.3,1.2-1c0-0.6-0.6-1-1.2-1l-7.7,0c-0.7,0-1.2-0.4-1.2-1l0.1-2.3c0-0.6,0.5-1,1.2-1l7.6,0c0.1,0,0.2,0,0.2,0
		c0.1,0,0.2,0,0.2,0c0.4-0.1,0.8-0.4,0.8-0.9c0-0.6-0.4-0.9-1-1c-0.1,0-0.2,0-0.2,0l-1.7,0c-0.1,0-0.2,0-0.2,0
		c-0.3,0-0.6-0.2-0.8-0.4c-0.1-0.2-0.2-0.4-0.2-0.6l0.1-2.9c0-0.6,0.5-1,1.2-1h1.6c0.7,0,1.2-0.3,1.2-1c0-0.6-0.6-1-1.2-1H449.9
		L449.9,843.7z M365.5,845.7h2.7c0.7,0,1.2,0.3,1.2,1l0.1,2.8c0,0.6-0.5,1-1.2,1h-4c-1.4,0-1.2-1-1.1-1.3l1.1-2.5
		C364.6,846.2,364.8,845.7,365.5,845.7L365.5,845.7z M484.6,845.7h3.3c0.7,0,1.2,0.3,1.2,1l0.1,2.8c0,0.6-0.6,1-1.2,1h-3.5
		c-0.7,0-1.2-0.4-1.2-1l0.1-2.8C483.4,846.1,483.9,845.7,484.6,845.7z M498.9,845.7h4.4c0.7,0,1.2,0.3,1.2,1l0.1,7
		c0,0.6-0.5,1-1.2,1h-4.5c-0.7,0-1.2-0.4-1.2-1l0.1-7C497.7,846.1,498.2,845.7,498.9,845.7L498.9,845.7z"/>
	<path class="st0" d="M318.8,849.4c0,0-15.5,59.5-15.9,60.9c-0.5,1.8-2.2,2.3-3.1,0.3c-1.1-2.2-12.8-42.4-12.8-42.4h-21.4
		c0,0,16,52.4,16.7,53.9c7.6,16.2,24.3,9.8,27.7-2.2c3.5-12.3,18.6-70.6,18.6-70.6H318.8L318.8,849.4z M98,853.8L64.9,875
		c0-4.1,0-6.7,0-6.7H54.3v29.2c0,0.7-1.4,2.1-2.6,0.3c0,0-14.1-20.2-19.1-26.2c-4.2-5.1-19-4.8-19,7.2c0,7.6,0,52.2,0,52.2h10.6V894
		c0-2,1.8-1.3,2.9-0.1c0.5,0.6,23.1,35,24.1,36.4c2.3,3.1,13.7,5.4,13.7-6.4c0-8.4,0-33.4,0-46.8h10.3c1.1,0,2.5,1.2,2.5,1.2
		c0,1-0.2,33.1-0.2,37.4c0,9.5,7.9,16,16.4,16h19v-9.3h-8.8c-3.1,0-5.6-2.3-5.6-5.4v-36.1c0-1.9,1.6-4.7,4.7-4.7
		c3.1,0,9.8-0.1,9.8-0.1v-8H99.9c-1.2,0-1.9-1-1.9-1.9L98,853.8L98,853.8z M-15,854.2c0,0-0.2,73.3-0.2,77.7l20.5,0v-77.6L-15,854.2
		L-15,854.2z M463.7,867.4c-9.8,0-18.7,4.1-24.8,10.6c-0.4,0.4-0.7,0.8-1,1.2c-4.8,5.6-7.7,12.8-7.7,20.6c0,4.5,1,8.8,2.7,12.7
		c0.2,0.5,0.4,1,0.7,1.4c4,8,11.3,14.2,20.2,16.9c0.5,0.2,1.1,0.3,1.6,0.4c2.7,0.7,5.5,1,8.4,1c18.5,0,33.6-14.5,33.6-32.5
		C497.2,882,482.2,867.4,463.7,867.4L463.7,867.4z M374.2,867.9c-12.3,0-21.9,8.8-21.9,21.3c0,12.9,14.2,17,21.7,17.8
		c4.7,0.5,9.3,3.8,9.3,8.4c0,3.7-3.2,6.7-6.7,6.7l-22-0.1v9.3H379c0.4,0,0.8,0,1.1,0c11.8-0.6,21.1-10,21.1-21.7
		c0-1.9-0.1-3.6-0.4-5.2c-0.1-0.4-0.1-0.7-0.2-1.1c-2.1-9.8-9.8-11.6-21.7-14.8c0,0-6.3-2-6.3-5.8c0-2.4,1.4-4,3.3-4.9
		c0.2-0.1,0.4-0.2,0.6-0.2c1-0.4,2.1-0.5,3.1-0.5l14.9,0.1v-9.2L374.2,867.9L374.2,867.9z M240.4,868c0,0-0.2,6.5-0.2,10.9l20.5-0.1
		V868L240.4,868L240.4,868z M327.3,868c0,0-0.1,6.5-0.1,10.9l20.4-0.1V868L327.3,868L327.3,868z M405.6,868c0,0-0.1,6.5-0.1,10.9
		l20.4-0.1V868L405.6,868L405.6,868z M131,868c-5.9,0-10.1,3-12.2,8c-0.2,0.5-0.3,0.9-0.5,1.4c-0.6,1.9-0.9,4.1-0.9,6.5v31.2
		c0,9.5,5.1,16.3,13.7,16.3h30.7v-9.2h-18.3c-3.1,0-5.6-2.7-5.6-5.8v-12.2h21v-9.2l-21-0.1l-0.1-12.3c0-3.1,2.5-5.4,5.6-5.4h18.3
		V868L131,868L131,868z M165.9,868.2c0,0-0.2,43.2-0.2,47.6c0,1.8,0.3,3.5,0.7,5c0.2,0.5,0.3,1,0.5,1.5c2.2,5.3,7.2,8.8,12.9,9.4
		c0.5,0,1.1,0.1,1.6,0.1h19v-9.3h-8.4c-3.1,0-5.6-2.3-5.6-5.4v-48.9H165.9L165.9,868.2z M202.2,868.2c0,0-0.1,43.2-0.1,47.6
		c0,8.9,6.4,15.1,14.2,15.9c0.5,0,1,0.1,1.6,0.1h19v-9.3h-8.7c-3.1,0-5.6-2.3-5.6-5.4v-48.9H202.2L202.2,868.2z M541.2,868.3v29.2
		c0,0.7-1.4,2.1-2.6,0.3c0,0-14-20.2-19.1-26.2c-4.2-5.1-19-4.8-19.1,7.2c0,7.6,0,52.2,0,52.2H511V894c0-2,1.8-1.3,2.9-0.1
		c0.5,0.6,23.2,35,24.2,36.4c0.4,0.6,1.2,1.1,2.1,1.6c0.3,0.1,0.6,0.3,1,0.4c4.2,1.4,10.6,0.5,10.6-8.3c0-11.8,0-55.7,0-55.7
		L541.2,868.3L541.2,868.3z M463.7,875c8.1,0,11.4,11.1,11.4,24.9c0,13.7-3.8,24.9-11.4,24.9c-2.1,0-3.8-0.7-5.2-1.9
		c-0.2-0.2-0.4-0.3-0.5-0.5c-0.5-0.5-1-1.1-1.4-1.8c-0.1-0.2-0.3-0.5-0.4-0.7c-2.6-4.5-3.7-11.8-3.7-20c0-0.9,0-1.7,0-2.5
		c0.1-7.5,1-14.1,3.6-18.1c0.1-0.2,0.3-0.4,0.4-0.6C458.1,876.3,460.4,875,463.7,875L463.7,875z M240.4,882.9c0,0-0.2,44.6-0.2,49
		l20.5,0v-49L240.4,882.9L240.4,882.9z M327.3,882.9c0,0-0.1,44.6-0.1,49l20.4,0v-49L327.3,882.9L327.3,882.9z M405.6,882.9
		c0,0-0.1,44.6-0.1,49l20.4,0v-49L405.6,882.9L405.6,882.9z"/>
</g>
</svg>
